%TF.GenerationSoftware,KiCad,Pcbnew,(5.1.10)-1*%
%TF.CreationDate,2021-07-23T15:14:34+02:00*%
%TF.ProjectId,rpicoscope2,72706963-6f73-4636-9f70-65322e6b6963,rev?*%
%TF.SameCoordinates,Original*%
%TF.FileFunction,Soldermask,Bot*%
%TF.FilePolarity,Negative*%
%FSLAX46Y46*%
G04 Gerber Fmt 4.6, Leading zero omitted, Abs format (unit mm)*
G04 Created by KiCad (PCBNEW (5.1.10)-1) date 2021-07-23 15:14:34*
%MOMM*%
%LPD*%
G01*
G04 APERTURE LIST*
%ADD10R,3.000000X0.400000*%
%ADD11R,4.200000X1.350000*%
G04 APERTURE END LIST*
D10*
%TO.C,U22*%
X185350000Y-110550000D03*
X185350000Y-111350000D03*
X185350000Y-112150000D03*
X185350000Y-113750000D03*
X185350000Y-116150000D03*
X185350000Y-112950000D03*
X185350000Y-114550000D03*
X185350000Y-115350000D03*
X185350000Y-102550000D03*
X185350000Y-103350000D03*
X185350000Y-104150000D03*
X185350000Y-105750000D03*
X185350000Y-108150000D03*
X185350000Y-104950000D03*
X185350000Y-106550000D03*
X185350000Y-107350000D03*
X185350000Y-108950000D03*
X185350000Y-109750000D03*
X185350000Y-94550000D03*
X185350000Y-95350000D03*
X185350000Y-96150000D03*
X185350000Y-97750000D03*
X185350000Y-100150000D03*
X185350000Y-96950000D03*
X185350000Y-98550000D03*
X185350000Y-99350000D03*
X185350000Y-100950000D03*
X185350000Y-101750000D03*
X185350000Y-86550000D03*
X185350000Y-87350000D03*
X185350000Y-88150000D03*
X185350000Y-89750000D03*
X185350000Y-92150000D03*
X185350000Y-88950000D03*
X185350000Y-90550000D03*
X185350000Y-91350000D03*
X185350000Y-92950000D03*
X185350000Y-93750000D03*
X185350000Y-85750000D03*
X185350000Y-84950000D03*
X185350000Y-83350000D03*
X185350000Y-84150000D03*
X185350000Y-82550000D03*
X185350000Y-81750000D03*
X185350000Y-80950000D03*
X185350000Y-80150000D03*
X185350000Y-79350000D03*
X185350000Y-78550000D03*
%TD*%
D11*
%TO.C,J6*%
X122755000Y-118395000D03*
X122755000Y-112745000D03*
%TD*%
%TO.C,J1*%
X122755000Y-99980000D03*
X122755000Y-94330000D03*
%TD*%
M02*
