%TF.GenerationSoftware,KiCad,Pcbnew,(5.1.10)-1*%
%TF.CreationDate,2021-07-23T15:14:34+02:00*%
%TF.ProjectId,rpicoscope2,72706963-6f73-4636-9f70-65322e6b6963,rev?*%
%TF.SameCoordinates,Original*%
%TF.FileFunction,Paste,Top*%
%TF.FilePolarity,Positive*%
%FSLAX46Y46*%
G04 Gerber Fmt 4.6, Leading zero omitted, Abs format (unit mm)*
G04 Created by KiCad (PCBNEW (5.1.10)-1) date 2021-07-23 15:14:34*
%MOMM*%
%LPD*%
G01*
G04 APERTURE LIST*
%ADD10R,1.750000X0.600000*%
%ADD11R,1.400000X0.300000*%
%ADD12R,3.600000X1.270000*%
%ADD13R,4.200000X1.350000*%
%ADD14R,1.200000X0.400000*%
%ADD15R,1.060000X0.650000*%
%ADD16R,0.650000X1.060000*%
%ADD17R,0.900000X0.800000*%
%ADD18R,0.800000X0.950000*%
%ADD19R,0.250000X0.500000*%
G04 APERTURE END LIST*
%TO.C,R39*%
G36*
G01*
X179599000Y-119717000D02*
X179049000Y-119717000D01*
G75*
G02*
X178849000Y-119517000I0J200000D01*
G01*
X178849000Y-119117000D01*
G75*
G02*
X179049000Y-118917000I200000J0D01*
G01*
X179599000Y-118917000D01*
G75*
G02*
X179799000Y-119117000I0J-200000D01*
G01*
X179799000Y-119517000D01*
G75*
G02*
X179599000Y-119717000I-200000J0D01*
G01*
G37*
G36*
G01*
X179599000Y-121367000D02*
X179049000Y-121367000D01*
G75*
G02*
X178849000Y-121167000I0J200000D01*
G01*
X178849000Y-120767000D01*
G75*
G02*
X179049000Y-120567000I200000J0D01*
G01*
X179599000Y-120567000D01*
G75*
G02*
X179799000Y-120767000I0J-200000D01*
G01*
X179799000Y-121167000D01*
G75*
G02*
X179599000Y-121367000I-200000J0D01*
G01*
G37*
%TD*%
%TO.C,R38*%
G36*
G01*
X177821000Y-119717000D02*
X177271000Y-119717000D01*
G75*
G02*
X177071000Y-119517000I0J200000D01*
G01*
X177071000Y-119117000D01*
G75*
G02*
X177271000Y-118917000I200000J0D01*
G01*
X177821000Y-118917000D01*
G75*
G02*
X178021000Y-119117000I0J-200000D01*
G01*
X178021000Y-119517000D01*
G75*
G02*
X177821000Y-119717000I-200000J0D01*
G01*
G37*
G36*
G01*
X177821000Y-121367000D02*
X177271000Y-121367000D01*
G75*
G02*
X177071000Y-121167000I0J200000D01*
G01*
X177071000Y-120767000D01*
G75*
G02*
X177271000Y-120567000I200000J0D01*
G01*
X177821000Y-120567000D01*
G75*
G02*
X178021000Y-120767000I0J-200000D01*
G01*
X178021000Y-121167000D01*
G75*
G02*
X177821000Y-121367000I-200000J0D01*
G01*
G37*
%TD*%
D10*
%TO.C,J7*%
X128919000Y-91448000D03*
X130669000Y-92448000D03*
%TD*%
%TO.C,J4*%
X128919000Y-109736000D03*
X130669000Y-110736000D03*
%TD*%
%TO.C,C45*%
G36*
G01*
X170109000Y-113034000D02*
X170109000Y-113534000D01*
G75*
G02*
X169884000Y-113759000I-225000J0D01*
G01*
X169434000Y-113759000D01*
G75*
G02*
X169209000Y-113534000I0J225000D01*
G01*
X169209000Y-113034000D01*
G75*
G02*
X169434000Y-112809000I225000J0D01*
G01*
X169884000Y-112809000D01*
G75*
G02*
X170109000Y-113034000I0J-225000D01*
G01*
G37*
G36*
G01*
X171659000Y-113034000D02*
X171659000Y-113534000D01*
G75*
G02*
X171434000Y-113759000I-225000J0D01*
G01*
X170984000Y-113759000D01*
G75*
G02*
X170759000Y-113534000I0J225000D01*
G01*
X170759000Y-113034000D01*
G75*
G02*
X170984000Y-112809000I225000J0D01*
G01*
X171434000Y-112809000D01*
G75*
G02*
X171659000Y-113034000I0J-225000D01*
G01*
G37*
%TD*%
%TO.C,C44*%
G36*
G01*
X170109000Y-111256000D02*
X170109000Y-111756000D01*
G75*
G02*
X169884000Y-111981000I-225000J0D01*
G01*
X169434000Y-111981000D01*
G75*
G02*
X169209000Y-111756000I0J225000D01*
G01*
X169209000Y-111256000D01*
G75*
G02*
X169434000Y-111031000I225000J0D01*
G01*
X169884000Y-111031000D01*
G75*
G02*
X170109000Y-111256000I0J-225000D01*
G01*
G37*
G36*
G01*
X171659000Y-111256000D02*
X171659000Y-111756000D01*
G75*
G02*
X171434000Y-111981000I-225000J0D01*
G01*
X170984000Y-111981000D01*
G75*
G02*
X170759000Y-111756000I0J225000D01*
G01*
X170759000Y-111256000D01*
G75*
G02*
X170984000Y-111031000I225000J0D01*
G01*
X171434000Y-111031000D01*
G75*
G02*
X171659000Y-111256000I0J-225000D01*
G01*
G37*
%TD*%
%TO.C,U19*%
G36*
G01*
X169463998Y-106302000D02*
X170054002Y-106302000D01*
G75*
G02*
X170304000Y-106551998I0J-249998D01*
G01*
X170304000Y-107142002D01*
G75*
G02*
X170054002Y-107392000I-249998J0D01*
G01*
X169463998Y-107392000D01*
G75*
G02*
X169214000Y-107142002I0J249998D01*
G01*
X169214000Y-106551998D01*
G75*
G02*
X169463998Y-106302000I249998J0D01*
G01*
G37*
G36*
G01*
X170813998Y-106302000D02*
X171404002Y-106302000D01*
G75*
G02*
X171654000Y-106551998I0J-249998D01*
G01*
X171654000Y-107142002D01*
G75*
G02*
X171404002Y-107392000I-249998J0D01*
G01*
X170813998Y-107392000D01*
G75*
G02*
X170564000Y-107142002I0J249998D01*
G01*
X170564000Y-106551998D01*
G75*
G02*
X170813998Y-106302000I249998J0D01*
G01*
G37*
G36*
G01*
X169463998Y-104952000D02*
X170054002Y-104952000D01*
G75*
G02*
X170304000Y-105201998I0J-249998D01*
G01*
X170304000Y-105792002D01*
G75*
G02*
X170054002Y-106042000I-249998J0D01*
G01*
X169463998Y-106042000D01*
G75*
G02*
X169214000Y-105792002I0J249998D01*
G01*
X169214000Y-105201998D01*
G75*
G02*
X169463998Y-104952000I249998J0D01*
G01*
G37*
G36*
G01*
X170813998Y-104952000D02*
X171404002Y-104952000D01*
G75*
G02*
X171654000Y-105201998I0J-249998D01*
G01*
X171654000Y-105792002D01*
G75*
G02*
X171404002Y-106042000I-249998J0D01*
G01*
X170813998Y-106042000D01*
G75*
G02*
X170564000Y-105792002I0J249998D01*
G01*
X170564000Y-105201998D01*
G75*
G02*
X170813998Y-104952000I249998J0D01*
G01*
G37*
G36*
G01*
X172046500Y-105047000D02*
X172721500Y-105047000D01*
G75*
G02*
X172784000Y-105109500I0J-62500D01*
G01*
X172784000Y-105234500D01*
G75*
G02*
X172721500Y-105297000I-62500J0D01*
G01*
X172046500Y-105297000D01*
G75*
G02*
X171984000Y-105234500I0J62500D01*
G01*
X171984000Y-105109500D01*
G75*
G02*
X172046500Y-105047000I62500J0D01*
G01*
G37*
G36*
G01*
X172046500Y-105547000D02*
X172721500Y-105547000D01*
G75*
G02*
X172784000Y-105609500I0J-62500D01*
G01*
X172784000Y-105734500D01*
G75*
G02*
X172721500Y-105797000I-62500J0D01*
G01*
X172046500Y-105797000D01*
G75*
G02*
X171984000Y-105734500I0J62500D01*
G01*
X171984000Y-105609500D01*
G75*
G02*
X172046500Y-105547000I62500J0D01*
G01*
G37*
G36*
G01*
X172046500Y-106047000D02*
X172721500Y-106047000D01*
G75*
G02*
X172784000Y-106109500I0J-62500D01*
G01*
X172784000Y-106234500D01*
G75*
G02*
X172721500Y-106297000I-62500J0D01*
G01*
X172046500Y-106297000D01*
G75*
G02*
X171984000Y-106234500I0J62500D01*
G01*
X171984000Y-106109500D01*
G75*
G02*
X172046500Y-106047000I62500J0D01*
G01*
G37*
G36*
G01*
X172046500Y-106547000D02*
X172721500Y-106547000D01*
G75*
G02*
X172784000Y-106609500I0J-62500D01*
G01*
X172784000Y-106734500D01*
G75*
G02*
X172721500Y-106797000I-62500J0D01*
G01*
X172046500Y-106797000D01*
G75*
G02*
X171984000Y-106734500I0J62500D01*
G01*
X171984000Y-106609500D01*
G75*
G02*
X172046500Y-106547000I62500J0D01*
G01*
G37*
G36*
G01*
X172046500Y-107047000D02*
X172721500Y-107047000D01*
G75*
G02*
X172784000Y-107109500I0J-62500D01*
G01*
X172784000Y-107234500D01*
G75*
G02*
X172721500Y-107297000I-62500J0D01*
G01*
X172046500Y-107297000D01*
G75*
G02*
X171984000Y-107234500I0J62500D01*
G01*
X171984000Y-107109500D01*
G75*
G02*
X172046500Y-107047000I62500J0D01*
G01*
G37*
G36*
G01*
X171371500Y-107722000D02*
X171496500Y-107722000D01*
G75*
G02*
X171559000Y-107784500I0J-62500D01*
G01*
X171559000Y-108459500D01*
G75*
G02*
X171496500Y-108522000I-62500J0D01*
G01*
X171371500Y-108522000D01*
G75*
G02*
X171309000Y-108459500I0J62500D01*
G01*
X171309000Y-107784500D01*
G75*
G02*
X171371500Y-107722000I62500J0D01*
G01*
G37*
G36*
G01*
X170871500Y-107722000D02*
X170996500Y-107722000D01*
G75*
G02*
X171059000Y-107784500I0J-62500D01*
G01*
X171059000Y-108459500D01*
G75*
G02*
X170996500Y-108522000I-62500J0D01*
G01*
X170871500Y-108522000D01*
G75*
G02*
X170809000Y-108459500I0J62500D01*
G01*
X170809000Y-107784500D01*
G75*
G02*
X170871500Y-107722000I62500J0D01*
G01*
G37*
G36*
G01*
X170371500Y-107722000D02*
X170496500Y-107722000D01*
G75*
G02*
X170559000Y-107784500I0J-62500D01*
G01*
X170559000Y-108459500D01*
G75*
G02*
X170496500Y-108522000I-62500J0D01*
G01*
X170371500Y-108522000D01*
G75*
G02*
X170309000Y-108459500I0J62500D01*
G01*
X170309000Y-107784500D01*
G75*
G02*
X170371500Y-107722000I62500J0D01*
G01*
G37*
G36*
G01*
X169871500Y-107722000D02*
X169996500Y-107722000D01*
G75*
G02*
X170059000Y-107784500I0J-62500D01*
G01*
X170059000Y-108459500D01*
G75*
G02*
X169996500Y-108522000I-62500J0D01*
G01*
X169871500Y-108522000D01*
G75*
G02*
X169809000Y-108459500I0J62500D01*
G01*
X169809000Y-107784500D01*
G75*
G02*
X169871500Y-107722000I62500J0D01*
G01*
G37*
G36*
G01*
X169371500Y-107722000D02*
X169496500Y-107722000D01*
G75*
G02*
X169559000Y-107784500I0J-62500D01*
G01*
X169559000Y-108459500D01*
G75*
G02*
X169496500Y-108522000I-62500J0D01*
G01*
X169371500Y-108522000D01*
G75*
G02*
X169309000Y-108459500I0J62500D01*
G01*
X169309000Y-107784500D01*
G75*
G02*
X169371500Y-107722000I62500J0D01*
G01*
G37*
G36*
G01*
X168146500Y-107047000D02*
X168821500Y-107047000D01*
G75*
G02*
X168884000Y-107109500I0J-62500D01*
G01*
X168884000Y-107234500D01*
G75*
G02*
X168821500Y-107297000I-62500J0D01*
G01*
X168146500Y-107297000D01*
G75*
G02*
X168084000Y-107234500I0J62500D01*
G01*
X168084000Y-107109500D01*
G75*
G02*
X168146500Y-107047000I62500J0D01*
G01*
G37*
G36*
G01*
X168146500Y-106547000D02*
X168821500Y-106547000D01*
G75*
G02*
X168884000Y-106609500I0J-62500D01*
G01*
X168884000Y-106734500D01*
G75*
G02*
X168821500Y-106797000I-62500J0D01*
G01*
X168146500Y-106797000D01*
G75*
G02*
X168084000Y-106734500I0J62500D01*
G01*
X168084000Y-106609500D01*
G75*
G02*
X168146500Y-106547000I62500J0D01*
G01*
G37*
G36*
G01*
X168146500Y-106047000D02*
X168821500Y-106047000D01*
G75*
G02*
X168884000Y-106109500I0J-62500D01*
G01*
X168884000Y-106234500D01*
G75*
G02*
X168821500Y-106297000I-62500J0D01*
G01*
X168146500Y-106297000D01*
G75*
G02*
X168084000Y-106234500I0J62500D01*
G01*
X168084000Y-106109500D01*
G75*
G02*
X168146500Y-106047000I62500J0D01*
G01*
G37*
G36*
G01*
X168146500Y-105547000D02*
X168821500Y-105547000D01*
G75*
G02*
X168884000Y-105609500I0J-62500D01*
G01*
X168884000Y-105734500D01*
G75*
G02*
X168821500Y-105797000I-62500J0D01*
G01*
X168146500Y-105797000D01*
G75*
G02*
X168084000Y-105734500I0J62500D01*
G01*
X168084000Y-105609500D01*
G75*
G02*
X168146500Y-105547000I62500J0D01*
G01*
G37*
G36*
G01*
X168146500Y-105047000D02*
X168821500Y-105047000D01*
G75*
G02*
X168884000Y-105109500I0J-62500D01*
G01*
X168884000Y-105234500D01*
G75*
G02*
X168821500Y-105297000I-62500J0D01*
G01*
X168146500Y-105297000D01*
G75*
G02*
X168084000Y-105234500I0J62500D01*
G01*
X168084000Y-105109500D01*
G75*
G02*
X168146500Y-105047000I62500J0D01*
G01*
G37*
G36*
G01*
X169371500Y-103822000D02*
X169496500Y-103822000D01*
G75*
G02*
X169559000Y-103884500I0J-62500D01*
G01*
X169559000Y-104559500D01*
G75*
G02*
X169496500Y-104622000I-62500J0D01*
G01*
X169371500Y-104622000D01*
G75*
G02*
X169309000Y-104559500I0J62500D01*
G01*
X169309000Y-103884500D01*
G75*
G02*
X169371500Y-103822000I62500J0D01*
G01*
G37*
G36*
G01*
X169871500Y-103822000D02*
X169996500Y-103822000D01*
G75*
G02*
X170059000Y-103884500I0J-62500D01*
G01*
X170059000Y-104559500D01*
G75*
G02*
X169996500Y-104622000I-62500J0D01*
G01*
X169871500Y-104622000D01*
G75*
G02*
X169809000Y-104559500I0J62500D01*
G01*
X169809000Y-103884500D01*
G75*
G02*
X169871500Y-103822000I62500J0D01*
G01*
G37*
G36*
G01*
X170371500Y-103822000D02*
X170496500Y-103822000D01*
G75*
G02*
X170559000Y-103884500I0J-62500D01*
G01*
X170559000Y-104559500D01*
G75*
G02*
X170496500Y-104622000I-62500J0D01*
G01*
X170371500Y-104622000D01*
G75*
G02*
X170309000Y-104559500I0J62500D01*
G01*
X170309000Y-103884500D01*
G75*
G02*
X170371500Y-103822000I62500J0D01*
G01*
G37*
G36*
G01*
X170871500Y-103822000D02*
X170996500Y-103822000D01*
G75*
G02*
X171059000Y-103884500I0J-62500D01*
G01*
X171059000Y-104559500D01*
G75*
G02*
X170996500Y-104622000I-62500J0D01*
G01*
X170871500Y-104622000D01*
G75*
G02*
X170809000Y-104559500I0J62500D01*
G01*
X170809000Y-103884500D01*
G75*
G02*
X170871500Y-103822000I62500J0D01*
G01*
G37*
G36*
G01*
X171371500Y-103822000D02*
X171496500Y-103822000D01*
G75*
G02*
X171559000Y-103884500I0J-62500D01*
G01*
X171559000Y-104559500D01*
G75*
G02*
X171496500Y-104622000I-62500J0D01*
G01*
X171371500Y-104622000D01*
G75*
G02*
X171309000Y-104559500I0J62500D01*
G01*
X171309000Y-103884500D01*
G75*
G02*
X171371500Y-103822000I62500J0D01*
G01*
G37*
%TD*%
D11*
%TO.C,U16*%
X144440000Y-108220000D03*
X144440000Y-108720000D03*
X144440000Y-109220000D03*
X144440000Y-109720000D03*
X144440000Y-110220000D03*
X140040000Y-110220000D03*
X140040000Y-109720000D03*
X140040000Y-109220000D03*
X140040000Y-108720000D03*
X140040000Y-108220000D03*
%TD*%
%TO.C,U9*%
X144440000Y-89805000D03*
X144440000Y-90305000D03*
X144440000Y-90805000D03*
X144440000Y-91305000D03*
X144440000Y-91805000D03*
X140040000Y-91805000D03*
X140040000Y-91305000D03*
X140040000Y-90805000D03*
X140040000Y-90305000D03*
X140040000Y-89805000D03*
%TD*%
%TO.C,R37*%
G36*
G01*
X143720000Y-105770000D02*
X143720000Y-106320000D01*
G75*
G02*
X143520000Y-106520000I-200000J0D01*
G01*
X143120000Y-106520000D01*
G75*
G02*
X142920000Y-106320000I0J200000D01*
G01*
X142920000Y-105770000D01*
G75*
G02*
X143120000Y-105570000I200000J0D01*
G01*
X143520000Y-105570000D01*
G75*
G02*
X143720000Y-105770000I0J-200000D01*
G01*
G37*
G36*
G01*
X145370000Y-105770000D02*
X145370000Y-106320000D01*
G75*
G02*
X145170000Y-106520000I-200000J0D01*
G01*
X144770000Y-106520000D01*
G75*
G02*
X144570000Y-106320000I0J200000D01*
G01*
X144570000Y-105770000D01*
G75*
G02*
X144770000Y-105570000I200000J0D01*
G01*
X145170000Y-105570000D01*
G75*
G02*
X145370000Y-105770000I0J-200000D01*
G01*
G37*
%TD*%
%TO.C,R36*%
G36*
G01*
X143720000Y-87355000D02*
X143720000Y-87905000D01*
G75*
G02*
X143520000Y-88105000I-200000J0D01*
G01*
X143120000Y-88105000D01*
G75*
G02*
X142920000Y-87905000I0J200000D01*
G01*
X142920000Y-87355000D01*
G75*
G02*
X143120000Y-87155000I200000J0D01*
G01*
X143520000Y-87155000D01*
G75*
G02*
X143720000Y-87355000I0J-200000D01*
G01*
G37*
G36*
G01*
X145370000Y-87355000D02*
X145370000Y-87905000D01*
G75*
G02*
X145170000Y-88105000I-200000J0D01*
G01*
X144770000Y-88105000D01*
G75*
G02*
X144570000Y-87905000I0J200000D01*
G01*
X144570000Y-87355000D01*
G75*
G02*
X144770000Y-87155000I200000J0D01*
G01*
X145170000Y-87155000D01*
G75*
G02*
X145370000Y-87355000I0J-200000D01*
G01*
G37*
%TD*%
%TO.C,R30*%
G36*
G01*
X137520000Y-109645000D02*
X138070000Y-109645000D01*
G75*
G02*
X138270000Y-109845000I0J-200000D01*
G01*
X138270000Y-110245000D01*
G75*
G02*
X138070000Y-110445000I-200000J0D01*
G01*
X137520000Y-110445000D01*
G75*
G02*
X137320000Y-110245000I0J200000D01*
G01*
X137320000Y-109845000D01*
G75*
G02*
X137520000Y-109645000I200000J0D01*
G01*
G37*
G36*
G01*
X137520000Y-107995000D02*
X138070000Y-107995000D01*
G75*
G02*
X138270000Y-108195000I0J-200000D01*
G01*
X138270000Y-108595000D01*
G75*
G02*
X138070000Y-108795000I-200000J0D01*
G01*
X137520000Y-108795000D01*
G75*
G02*
X137320000Y-108595000I0J200000D01*
G01*
X137320000Y-108195000D01*
G75*
G02*
X137520000Y-107995000I200000J0D01*
G01*
G37*
%TD*%
%TO.C,R9*%
G36*
G01*
X137520000Y-91230000D02*
X138070000Y-91230000D01*
G75*
G02*
X138270000Y-91430000I0J-200000D01*
G01*
X138270000Y-91830000D01*
G75*
G02*
X138070000Y-92030000I-200000J0D01*
G01*
X137520000Y-92030000D01*
G75*
G02*
X137320000Y-91830000I0J200000D01*
G01*
X137320000Y-91430000D01*
G75*
G02*
X137520000Y-91230000I200000J0D01*
G01*
G37*
G36*
G01*
X137520000Y-89580000D02*
X138070000Y-89580000D01*
G75*
G02*
X138270000Y-89780000I0J-200000D01*
G01*
X138270000Y-90180000D01*
G75*
G02*
X138070000Y-90380000I-200000J0D01*
G01*
X137520000Y-90380000D01*
G75*
G02*
X137320000Y-90180000I0J200000D01*
G01*
X137320000Y-89780000D01*
G75*
G02*
X137520000Y-89580000I200000J0D01*
G01*
G37*
%TD*%
%TO.C,R35*%
G36*
G01*
X162350000Y-106955000D02*
X162350000Y-106405000D01*
G75*
G02*
X162550000Y-106205000I200000J0D01*
G01*
X162950000Y-106205000D01*
G75*
G02*
X163150000Y-106405000I0J-200000D01*
G01*
X163150000Y-106955000D01*
G75*
G02*
X162950000Y-107155000I-200000J0D01*
G01*
X162550000Y-107155000D01*
G75*
G02*
X162350000Y-106955000I0J200000D01*
G01*
G37*
G36*
G01*
X160700000Y-106955000D02*
X160700000Y-106405000D01*
G75*
G02*
X160900000Y-106205000I200000J0D01*
G01*
X161300000Y-106205000D01*
G75*
G02*
X161500000Y-106405000I0J-200000D01*
G01*
X161500000Y-106955000D01*
G75*
G02*
X161300000Y-107155000I-200000J0D01*
G01*
X160900000Y-107155000D01*
G75*
G02*
X160700000Y-106955000I0J200000D01*
G01*
G37*
%TD*%
%TO.C,R25*%
G36*
G01*
X161500000Y-114660000D02*
X161500000Y-115210000D01*
G75*
G02*
X161300000Y-115410000I-200000J0D01*
G01*
X160900000Y-115410000D01*
G75*
G02*
X160700000Y-115210000I0J200000D01*
G01*
X160700000Y-114660000D01*
G75*
G02*
X160900000Y-114460000I200000J0D01*
G01*
X161300000Y-114460000D01*
G75*
G02*
X161500000Y-114660000I0J-200000D01*
G01*
G37*
G36*
G01*
X163150000Y-114660000D02*
X163150000Y-115210000D01*
G75*
G02*
X162950000Y-115410000I-200000J0D01*
G01*
X162550000Y-115410000D01*
G75*
G02*
X162350000Y-115210000I0J200000D01*
G01*
X162350000Y-114660000D01*
G75*
G02*
X162550000Y-114460000I200000J0D01*
G01*
X162950000Y-114460000D01*
G75*
G02*
X163150000Y-114660000I0J-200000D01*
G01*
G37*
%TD*%
%TO.C,R23*%
G36*
G01*
X161500000Y-116565000D02*
X161500000Y-117115000D01*
G75*
G02*
X161300000Y-117315000I-200000J0D01*
G01*
X160900000Y-117315000D01*
G75*
G02*
X160700000Y-117115000I0J200000D01*
G01*
X160700000Y-116565000D01*
G75*
G02*
X160900000Y-116365000I200000J0D01*
G01*
X161300000Y-116365000D01*
G75*
G02*
X161500000Y-116565000I0J-200000D01*
G01*
G37*
G36*
G01*
X163150000Y-116565000D02*
X163150000Y-117115000D01*
G75*
G02*
X162950000Y-117315000I-200000J0D01*
G01*
X162550000Y-117315000D01*
G75*
G02*
X162350000Y-117115000I0J200000D01*
G01*
X162350000Y-116565000D01*
G75*
G02*
X162550000Y-116365000I200000J0D01*
G01*
X162950000Y-116365000D01*
G75*
G02*
X163150000Y-116565000I0J-200000D01*
G01*
G37*
%TD*%
D12*
%TO.C,J6*%
X122555000Y-115570000D03*
D13*
X122755000Y-118395000D03*
X122755000Y-112745000D03*
%TD*%
D12*
%TO.C,J1*%
X122555000Y-97155000D03*
D13*
X122755000Y-99980000D03*
X122755000Y-94330000D03*
%TD*%
D14*
%TO.C,U20*%
X166984000Y-116089000D03*
X166984000Y-116739000D03*
X166984000Y-117389000D03*
X166984000Y-118039000D03*
X166984000Y-118689000D03*
X166984000Y-119339000D03*
X166984000Y-119989000D03*
X166984000Y-120639000D03*
X173884000Y-120639000D03*
X173884000Y-119989000D03*
X173884000Y-119339000D03*
X173884000Y-118689000D03*
X173884000Y-118039000D03*
X173884000Y-117389000D03*
X173884000Y-116739000D03*
X173884000Y-116089000D03*
%TD*%
%TO.C,R22*%
G36*
G01*
X174035000Y-113559000D02*
X174035000Y-113009000D01*
G75*
G02*
X174235000Y-112809000I200000J0D01*
G01*
X174635000Y-112809000D01*
G75*
G02*
X174835000Y-113009000I0J-200000D01*
G01*
X174835000Y-113559000D01*
G75*
G02*
X174635000Y-113759000I-200000J0D01*
G01*
X174235000Y-113759000D01*
G75*
G02*
X174035000Y-113559000I0J200000D01*
G01*
G37*
G36*
G01*
X175685000Y-113559000D02*
X175685000Y-113009000D01*
G75*
G02*
X175885000Y-112809000I200000J0D01*
G01*
X176285000Y-112809000D01*
G75*
G02*
X176485000Y-113009000I0J-200000D01*
G01*
X176485000Y-113559000D01*
G75*
G02*
X176285000Y-113759000I-200000J0D01*
G01*
X175885000Y-113759000D01*
G75*
G02*
X175685000Y-113559000I0J200000D01*
G01*
G37*
%TD*%
%TO.C,C43*%
G36*
G01*
X172978000Y-83370000D02*
X173478000Y-83370000D01*
G75*
G02*
X173703000Y-83595000I0J-225000D01*
G01*
X173703000Y-84045000D01*
G75*
G02*
X173478000Y-84270000I-225000J0D01*
G01*
X172978000Y-84270000D01*
G75*
G02*
X172753000Y-84045000I0J225000D01*
G01*
X172753000Y-83595000D01*
G75*
G02*
X172978000Y-83370000I225000J0D01*
G01*
G37*
G36*
G01*
X172978000Y-84920000D02*
X173478000Y-84920000D01*
G75*
G02*
X173703000Y-85145000I0J-225000D01*
G01*
X173703000Y-85595000D01*
G75*
G02*
X173478000Y-85820000I-225000J0D01*
G01*
X172978000Y-85820000D01*
G75*
G02*
X172753000Y-85595000I0J225000D01*
G01*
X172753000Y-85145000D01*
G75*
G02*
X172978000Y-84920000I225000J0D01*
G01*
G37*
%TD*%
%TO.C,C42*%
G36*
G01*
X169209000Y-123186000D02*
X169209000Y-122686000D01*
G75*
G02*
X169434000Y-122461000I225000J0D01*
G01*
X169884000Y-122461000D01*
G75*
G02*
X170109000Y-122686000I0J-225000D01*
G01*
X170109000Y-123186000D01*
G75*
G02*
X169884000Y-123411000I-225000J0D01*
G01*
X169434000Y-123411000D01*
G75*
G02*
X169209000Y-123186000I0J225000D01*
G01*
G37*
G36*
G01*
X170759000Y-123186000D02*
X170759000Y-122686000D01*
G75*
G02*
X170984000Y-122461000I225000J0D01*
G01*
X171434000Y-122461000D01*
G75*
G02*
X171659000Y-122686000I0J-225000D01*
G01*
X171659000Y-123186000D01*
G75*
G02*
X171434000Y-123411000I-225000J0D01*
G01*
X170984000Y-123411000D01*
G75*
G02*
X170759000Y-123186000I0J225000D01*
G01*
G37*
%TD*%
%TO.C,C22*%
G36*
G01*
X165866000Y-104947000D02*
X166366000Y-104947000D01*
G75*
G02*
X166591000Y-105172000I0J-225000D01*
G01*
X166591000Y-105622000D01*
G75*
G02*
X166366000Y-105847000I-225000J0D01*
G01*
X165866000Y-105847000D01*
G75*
G02*
X165641000Y-105622000I0J225000D01*
G01*
X165641000Y-105172000D01*
G75*
G02*
X165866000Y-104947000I225000J0D01*
G01*
G37*
G36*
G01*
X165866000Y-106497000D02*
X166366000Y-106497000D01*
G75*
G02*
X166591000Y-106722000I0J-225000D01*
G01*
X166591000Y-107172000D01*
G75*
G02*
X166366000Y-107397000I-225000J0D01*
G01*
X165866000Y-107397000D01*
G75*
G02*
X165641000Y-107172000I0J225000D01*
G01*
X165641000Y-106722000D01*
G75*
G02*
X165866000Y-106497000I225000J0D01*
G01*
G37*
%TD*%
D15*
%TO.C,U18*%
X147490000Y-109220000D03*
X147490000Y-110170000D03*
X147490000Y-108270000D03*
X149690000Y-108270000D03*
X149690000Y-109220000D03*
X149690000Y-110170000D03*
%TD*%
D16*
%TO.C,U17*%
X149540000Y-116670000D03*
X147640000Y-116670000D03*
X147640000Y-114470000D03*
X148590000Y-114470000D03*
X149540000Y-114470000D03*
%TD*%
%TO.C,U12*%
X143190000Y-116670000D03*
X141290000Y-116670000D03*
X141290000Y-114470000D03*
X142240000Y-114470000D03*
X143190000Y-114470000D03*
%TD*%
%TO.C,U7*%
X136840000Y-116670000D03*
X134940000Y-116670000D03*
X134940000Y-114470000D03*
X135890000Y-114470000D03*
X136840000Y-114470000D03*
%TD*%
D15*
%TO.C,U6*%
X153840000Y-85532000D03*
X153840000Y-83632000D03*
X156040000Y-83632000D03*
X156040000Y-84582000D03*
X156040000Y-85532000D03*
%TD*%
%TO.C,R21*%
G36*
G01*
X151490000Y-114090000D02*
X152040000Y-114090000D01*
G75*
G02*
X152240000Y-114290000I0J-200000D01*
G01*
X152240000Y-114690000D01*
G75*
G02*
X152040000Y-114890000I-200000J0D01*
G01*
X151490000Y-114890000D01*
G75*
G02*
X151290000Y-114690000I0J200000D01*
G01*
X151290000Y-114290000D01*
G75*
G02*
X151490000Y-114090000I200000J0D01*
G01*
G37*
G36*
G01*
X151490000Y-112440000D02*
X152040000Y-112440000D01*
G75*
G02*
X152240000Y-112640000I0J-200000D01*
G01*
X152240000Y-113040000D01*
G75*
G02*
X152040000Y-113240000I-200000J0D01*
G01*
X151490000Y-113240000D01*
G75*
G02*
X151290000Y-113040000I0J200000D01*
G01*
X151290000Y-112640000D01*
G75*
G02*
X151490000Y-112440000I200000J0D01*
G01*
G37*
%TD*%
%TO.C,R20*%
G36*
G01*
X151490000Y-95675000D02*
X152040000Y-95675000D01*
G75*
G02*
X152240000Y-95875000I0J-200000D01*
G01*
X152240000Y-96275000D01*
G75*
G02*
X152040000Y-96475000I-200000J0D01*
G01*
X151490000Y-96475000D01*
G75*
G02*
X151290000Y-96275000I0J200000D01*
G01*
X151290000Y-95875000D01*
G75*
G02*
X151490000Y-95675000I200000J0D01*
G01*
G37*
G36*
G01*
X151490000Y-94025000D02*
X152040000Y-94025000D01*
G75*
G02*
X152240000Y-94225000I0J-200000D01*
G01*
X152240000Y-94625000D01*
G75*
G02*
X152040000Y-94825000I-200000J0D01*
G01*
X151490000Y-94825000D01*
G75*
G02*
X151290000Y-94625000I0J200000D01*
G01*
X151290000Y-94225000D01*
G75*
G02*
X151490000Y-94025000I200000J0D01*
G01*
G37*
%TD*%
%TO.C,R17*%
G36*
G01*
X153945000Y-113240000D02*
X153395000Y-113240000D01*
G75*
G02*
X153195000Y-113040000I0J200000D01*
G01*
X153195000Y-112640000D01*
G75*
G02*
X153395000Y-112440000I200000J0D01*
G01*
X153945000Y-112440000D01*
G75*
G02*
X154145000Y-112640000I0J-200000D01*
G01*
X154145000Y-113040000D01*
G75*
G02*
X153945000Y-113240000I-200000J0D01*
G01*
G37*
G36*
G01*
X153945000Y-114890000D02*
X153395000Y-114890000D01*
G75*
G02*
X153195000Y-114690000I0J200000D01*
G01*
X153195000Y-114290000D01*
G75*
G02*
X153395000Y-114090000I200000J0D01*
G01*
X153945000Y-114090000D01*
G75*
G02*
X154145000Y-114290000I0J-200000D01*
G01*
X154145000Y-114690000D01*
G75*
G02*
X153945000Y-114890000I-200000J0D01*
G01*
G37*
%TD*%
%TO.C,R16*%
G36*
G01*
X148165000Y-112120000D02*
X148165000Y-112670000D01*
G75*
G02*
X147965000Y-112870000I-200000J0D01*
G01*
X147565000Y-112870000D01*
G75*
G02*
X147365000Y-112670000I0J200000D01*
G01*
X147365000Y-112120000D01*
G75*
G02*
X147565000Y-111920000I200000J0D01*
G01*
X147965000Y-111920000D01*
G75*
G02*
X148165000Y-112120000I0J-200000D01*
G01*
G37*
G36*
G01*
X149815000Y-112120000D02*
X149815000Y-112670000D01*
G75*
G02*
X149615000Y-112870000I-200000J0D01*
G01*
X149215000Y-112870000D01*
G75*
G02*
X149015000Y-112670000I0J200000D01*
G01*
X149015000Y-112120000D01*
G75*
G02*
X149215000Y-111920000I200000J0D01*
G01*
X149615000Y-111920000D01*
G75*
G02*
X149815000Y-112120000I0J-200000D01*
G01*
G37*
%TD*%
%TO.C,R13*%
G36*
G01*
X145140000Y-117900000D02*
X145690000Y-117900000D01*
G75*
G02*
X145890000Y-118100000I0J-200000D01*
G01*
X145890000Y-118500000D01*
G75*
G02*
X145690000Y-118700000I-200000J0D01*
G01*
X145140000Y-118700000D01*
G75*
G02*
X144940000Y-118500000I0J200000D01*
G01*
X144940000Y-118100000D01*
G75*
G02*
X145140000Y-117900000I200000J0D01*
G01*
G37*
G36*
G01*
X145140000Y-116250000D02*
X145690000Y-116250000D01*
G75*
G02*
X145890000Y-116450000I0J-200000D01*
G01*
X145890000Y-116850000D01*
G75*
G02*
X145690000Y-117050000I-200000J0D01*
G01*
X145140000Y-117050000D01*
G75*
G02*
X144940000Y-116850000I0J200000D01*
G01*
X144940000Y-116450000D01*
G75*
G02*
X145140000Y-116250000I200000J0D01*
G01*
G37*
%TD*%
%TO.C,R12*%
G36*
G01*
X145140000Y-114090000D02*
X145690000Y-114090000D01*
G75*
G02*
X145890000Y-114290000I0J-200000D01*
G01*
X145890000Y-114690000D01*
G75*
G02*
X145690000Y-114890000I-200000J0D01*
G01*
X145140000Y-114890000D01*
G75*
G02*
X144940000Y-114690000I0J200000D01*
G01*
X144940000Y-114290000D01*
G75*
G02*
X145140000Y-114090000I200000J0D01*
G01*
G37*
G36*
G01*
X145140000Y-112440000D02*
X145690000Y-112440000D01*
G75*
G02*
X145890000Y-112640000I0J-200000D01*
G01*
X145890000Y-113040000D01*
G75*
G02*
X145690000Y-113240000I-200000J0D01*
G01*
X145140000Y-113240000D01*
G75*
G02*
X144940000Y-113040000I0J200000D01*
G01*
X144940000Y-112640000D01*
G75*
G02*
X145140000Y-112440000I200000J0D01*
G01*
G37*
%TD*%
%TO.C,R11*%
G36*
G01*
X142665000Y-112670000D02*
X142665000Y-112120000D01*
G75*
G02*
X142865000Y-111920000I200000J0D01*
G01*
X143265000Y-111920000D01*
G75*
G02*
X143465000Y-112120000I0J-200000D01*
G01*
X143465000Y-112670000D01*
G75*
G02*
X143265000Y-112870000I-200000J0D01*
G01*
X142865000Y-112870000D01*
G75*
G02*
X142665000Y-112670000I0J200000D01*
G01*
G37*
G36*
G01*
X141015000Y-112670000D02*
X141015000Y-112120000D01*
G75*
G02*
X141215000Y-111920000I200000J0D01*
G01*
X141615000Y-111920000D01*
G75*
G02*
X141815000Y-112120000I0J-200000D01*
G01*
X141815000Y-112670000D01*
G75*
G02*
X141615000Y-112870000I-200000J0D01*
G01*
X141215000Y-112870000D01*
G75*
G02*
X141015000Y-112670000I0J200000D01*
G01*
G37*
%TD*%
%TO.C,R10*%
G36*
G01*
X138790000Y-115995000D02*
X139340000Y-115995000D01*
G75*
G02*
X139540000Y-116195000I0J-200000D01*
G01*
X139540000Y-116595000D01*
G75*
G02*
X139340000Y-116795000I-200000J0D01*
G01*
X138790000Y-116795000D01*
G75*
G02*
X138590000Y-116595000I0J200000D01*
G01*
X138590000Y-116195000D01*
G75*
G02*
X138790000Y-115995000I200000J0D01*
G01*
G37*
G36*
G01*
X138790000Y-114345000D02*
X139340000Y-114345000D01*
G75*
G02*
X139540000Y-114545000I0J-200000D01*
G01*
X139540000Y-114945000D01*
G75*
G02*
X139340000Y-115145000I-200000J0D01*
G01*
X138790000Y-115145000D01*
G75*
G02*
X138590000Y-114945000I0J200000D01*
G01*
X138590000Y-114545000D01*
G75*
G02*
X138790000Y-114345000I200000J0D01*
G01*
G37*
%TD*%
%TO.C,R8*%
G36*
G01*
X136315000Y-112670000D02*
X136315000Y-112120000D01*
G75*
G02*
X136515000Y-111920000I200000J0D01*
G01*
X136915000Y-111920000D01*
G75*
G02*
X137115000Y-112120000I0J-200000D01*
G01*
X137115000Y-112670000D01*
G75*
G02*
X136915000Y-112870000I-200000J0D01*
G01*
X136515000Y-112870000D01*
G75*
G02*
X136315000Y-112670000I0J200000D01*
G01*
G37*
G36*
G01*
X134665000Y-112670000D02*
X134665000Y-112120000D01*
G75*
G02*
X134865000Y-111920000I200000J0D01*
G01*
X135265000Y-111920000D01*
G75*
G02*
X135465000Y-112120000I0J-200000D01*
G01*
X135465000Y-112670000D01*
G75*
G02*
X135265000Y-112870000I-200000J0D01*
G01*
X134865000Y-112870000D01*
G75*
G02*
X134665000Y-112670000I0J200000D01*
G01*
G37*
%TD*%
%TO.C,R4*%
G36*
G01*
X130958000Y-117050000D02*
X130408000Y-117050000D01*
G75*
G02*
X130208000Y-116850000I0J200000D01*
G01*
X130208000Y-116450000D01*
G75*
G02*
X130408000Y-116250000I200000J0D01*
G01*
X130958000Y-116250000D01*
G75*
G02*
X131158000Y-116450000I0J-200000D01*
G01*
X131158000Y-116850000D01*
G75*
G02*
X130958000Y-117050000I-200000J0D01*
G01*
G37*
G36*
G01*
X130958000Y-118700000D02*
X130408000Y-118700000D01*
G75*
G02*
X130208000Y-118500000I0J200000D01*
G01*
X130208000Y-118100000D01*
G75*
G02*
X130408000Y-117900000I200000J0D01*
G01*
X130958000Y-117900000D01*
G75*
G02*
X131158000Y-118100000I0J-200000D01*
G01*
X131158000Y-118500000D01*
G75*
G02*
X130958000Y-118700000I-200000J0D01*
G01*
G37*
%TD*%
%TO.C,R1*%
G36*
G01*
X130408000Y-114090000D02*
X130958000Y-114090000D01*
G75*
G02*
X131158000Y-114290000I0J-200000D01*
G01*
X131158000Y-114690000D01*
G75*
G02*
X130958000Y-114890000I-200000J0D01*
G01*
X130408000Y-114890000D01*
G75*
G02*
X130208000Y-114690000I0J200000D01*
G01*
X130208000Y-114290000D01*
G75*
G02*
X130408000Y-114090000I200000J0D01*
G01*
G37*
G36*
G01*
X130408000Y-112440000D02*
X130958000Y-112440000D01*
G75*
G02*
X131158000Y-112640000I0J-200000D01*
G01*
X131158000Y-113040000D01*
G75*
G02*
X130958000Y-113240000I-200000J0D01*
G01*
X130408000Y-113240000D01*
G75*
G02*
X130208000Y-113040000I0J200000D01*
G01*
X130208000Y-112640000D01*
G75*
G02*
X130408000Y-112440000I200000J0D01*
G01*
G37*
%TD*%
%TO.C,D6*%
G36*
G01*
X153926250Y-117125000D02*
X153413750Y-117125000D01*
G75*
G02*
X153195000Y-116906250I0J218750D01*
G01*
X153195000Y-116468750D01*
G75*
G02*
X153413750Y-116250000I218750J0D01*
G01*
X153926250Y-116250000D01*
G75*
G02*
X154145000Y-116468750I0J-218750D01*
G01*
X154145000Y-116906250D01*
G75*
G02*
X153926250Y-117125000I-218750J0D01*
G01*
G37*
G36*
G01*
X153926250Y-118700000D02*
X153413750Y-118700000D01*
G75*
G02*
X153195000Y-118481250I0J218750D01*
G01*
X153195000Y-118043750D01*
G75*
G02*
X153413750Y-117825000I218750J0D01*
G01*
X153926250Y-117825000D01*
G75*
G02*
X154145000Y-118043750I0J-218750D01*
G01*
X154145000Y-118481250D01*
G75*
G02*
X153926250Y-118700000I-218750J0D01*
G01*
G37*
%TD*%
%TO.C,D5*%
G36*
G01*
X153926250Y-98710000D02*
X153413750Y-98710000D01*
G75*
G02*
X153195000Y-98491250I0J218750D01*
G01*
X153195000Y-98053750D01*
G75*
G02*
X153413750Y-97835000I218750J0D01*
G01*
X153926250Y-97835000D01*
G75*
G02*
X154145000Y-98053750I0J-218750D01*
G01*
X154145000Y-98491250D01*
G75*
G02*
X153926250Y-98710000I-218750J0D01*
G01*
G37*
G36*
G01*
X153926250Y-100285000D02*
X153413750Y-100285000D01*
G75*
G02*
X153195000Y-100066250I0J218750D01*
G01*
X153195000Y-99628750D01*
G75*
G02*
X153413750Y-99410000I218750J0D01*
G01*
X153926250Y-99410000D01*
G75*
G02*
X154145000Y-99628750I0J-218750D01*
G01*
X154145000Y-100066250D01*
G75*
G02*
X153926250Y-100285000I-218750J0D01*
G01*
G37*
%TD*%
%TO.C,D2*%
G36*
G01*
X132331750Y-117825000D02*
X132844250Y-117825000D01*
G75*
G02*
X133063000Y-118043750I0J-218750D01*
G01*
X133063000Y-118481250D01*
G75*
G02*
X132844250Y-118700000I-218750J0D01*
G01*
X132331750Y-118700000D01*
G75*
G02*
X132113000Y-118481250I0J218750D01*
G01*
X132113000Y-118043750D01*
G75*
G02*
X132331750Y-117825000I218750J0D01*
G01*
G37*
G36*
G01*
X132331750Y-116250000D02*
X132844250Y-116250000D01*
G75*
G02*
X133063000Y-116468750I0J-218750D01*
G01*
X133063000Y-116906250D01*
G75*
G02*
X132844250Y-117125000I-218750J0D01*
G01*
X132331750Y-117125000D01*
G75*
G02*
X132113000Y-116906250I0J218750D01*
G01*
X132113000Y-116468750D01*
G75*
G02*
X132331750Y-116250000I218750J0D01*
G01*
G37*
%TD*%
%TO.C,D1*%
G36*
G01*
X132331750Y-114015000D02*
X132844250Y-114015000D01*
G75*
G02*
X133063000Y-114233750I0J-218750D01*
G01*
X133063000Y-114671250D01*
G75*
G02*
X132844250Y-114890000I-218750J0D01*
G01*
X132331750Y-114890000D01*
G75*
G02*
X132113000Y-114671250I0J218750D01*
G01*
X132113000Y-114233750D01*
G75*
G02*
X132331750Y-114015000I218750J0D01*
G01*
G37*
G36*
G01*
X132331750Y-112440000D02*
X132844250Y-112440000D01*
G75*
G02*
X133063000Y-112658750I0J-218750D01*
G01*
X133063000Y-113096250D01*
G75*
G02*
X132844250Y-113315000I-218750J0D01*
G01*
X132331750Y-113315000D01*
G75*
G02*
X132113000Y-113096250I0J218750D01*
G01*
X132113000Y-112658750D01*
G75*
G02*
X132331750Y-112440000I218750J0D01*
G01*
G37*
%TD*%
%TO.C,C41*%
G36*
G01*
X151515000Y-117800000D02*
X152015000Y-117800000D01*
G75*
G02*
X152240000Y-118025000I0J-225000D01*
G01*
X152240000Y-118475000D01*
G75*
G02*
X152015000Y-118700000I-225000J0D01*
G01*
X151515000Y-118700000D01*
G75*
G02*
X151290000Y-118475000I0J225000D01*
G01*
X151290000Y-118025000D01*
G75*
G02*
X151515000Y-117800000I225000J0D01*
G01*
G37*
G36*
G01*
X151515000Y-116250000D02*
X152015000Y-116250000D01*
G75*
G02*
X152240000Y-116475000I0J-225000D01*
G01*
X152240000Y-116925000D01*
G75*
G02*
X152015000Y-117150000I-225000J0D01*
G01*
X151515000Y-117150000D01*
G75*
G02*
X151290000Y-116925000I0J225000D01*
G01*
X151290000Y-116475000D01*
G75*
G02*
X151515000Y-116250000I225000J0D01*
G01*
G37*
%TD*%
%TO.C,C40*%
G36*
G01*
X151515000Y-99385000D02*
X152015000Y-99385000D01*
G75*
G02*
X152240000Y-99610000I0J-225000D01*
G01*
X152240000Y-100060000D01*
G75*
G02*
X152015000Y-100285000I-225000J0D01*
G01*
X151515000Y-100285000D01*
G75*
G02*
X151290000Y-100060000I0J225000D01*
G01*
X151290000Y-99610000D01*
G75*
G02*
X151515000Y-99385000I225000J0D01*
G01*
G37*
G36*
G01*
X151515000Y-97835000D02*
X152015000Y-97835000D01*
G75*
G02*
X152240000Y-98060000I0J-225000D01*
G01*
X152240000Y-98510000D01*
G75*
G02*
X152015000Y-98735000I-225000J0D01*
G01*
X151515000Y-98735000D01*
G75*
G02*
X151290000Y-98510000I0J225000D01*
G01*
X151290000Y-98060000D01*
G75*
G02*
X151515000Y-97835000I225000J0D01*
G01*
G37*
%TD*%
%TO.C,C39*%
G36*
G01*
X151515000Y-109545000D02*
X152015000Y-109545000D01*
G75*
G02*
X152240000Y-109770000I0J-225000D01*
G01*
X152240000Y-110220000D01*
G75*
G02*
X152015000Y-110445000I-225000J0D01*
G01*
X151515000Y-110445000D01*
G75*
G02*
X151290000Y-110220000I0J225000D01*
G01*
X151290000Y-109770000D01*
G75*
G02*
X151515000Y-109545000I225000J0D01*
G01*
G37*
G36*
G01*
X151515000Y-107995000D02*
X152015000Y-107995000D01*
G75*
G02*
X152240000Y-108220000I0J-225000D01*
G01*
X152240000Y-108670000D01*
G75*
G02*
X152015000Y-108895000I-225000J0D01*
G01*
X151515000Y-108895000D01*
G75*
G02*
X151290000Y-108670000I0J225000D01*
G01*
X151290000Y-108220000D01*
G75*
G02*
X151515000Y-107995000I225000J0D01*
G01*
G37*
%TD*%
%TO.C,C38*%
G36*
G01*
X140010000Y-105795000D02*
X140010000Y-106295000D01*
G75*
G02*
X139785000Y-106520000I-225000J0D01*
G01*
X139335000Y-106520000D01*
G75*
G02*
X139110000Y-106295000I0J225000D01*
G01*
X139110000Y-105795000D01*
G75*
G02*
X139335000Y-105570000I225000J0D01*
G01*
X139785000Y-105570000D01*
G75*
G02*
X140010000Y-105795000I0J-225000D01*
G01*
G37*
G36*
G01*
X141560000Y-105795000D02*
X141560000Y-106295000D01*
G75*
G02*
X141335000Y-106520000I-225000J0D01*
G01*
X140885000Y-106520000D01*
G75*
G02*
X140660000Y-106295000I0J225000D01*
G01*
X140660000Y-105795000D01*
G75*
G02*
X140885000Y-105570000I225000J0D01*
G01*
X141335000Y-105570000D01*
G75*
G02*
X141560000Y-105795000I0J-225000D01*
G01*
G37*
%TD*%
%TO.C,C37*%
G36*
G01*
X141915000Y-118495000D02*
X141915000Y-118995000D01*
G75*
G02*
X141690000Y-119220000I-225000J0D01*
G01*
X141240000Y-119220000D01*
G75*
G02*
X141015000Y-118995000I0J225000D01*
G01*
X141015000Y-118495000D01*
G75*
G02*
X141240000Y-118270000I225000J0D01*
G01*
X141690000Y-118270000D01*
G75*
G02*
X141915000Y-118495000I0J-225000D01*
G01*
G37*
G36*
G01*
X143465000Y-118495000D02*
X143465000Y-118995000D01*
G75*
G02*
X143240000Y-119220000I-225000J0D01*
G01*
X142790000Y-119220000D01*
G75*
G02*
X142565000Y-118995000I0J225000D01*
G01*
X142565000Y-118495000D01*
G75*
G02*
X142790000Y-118270000I225000J0D01*
G01*
X143240000Y-118270000D01*
G75*
G02*
X143465000Y-118495000I0J-225000D01*
G01*
G37*
%TD*%
%TO.C,C13*%
G36*
G01*
X148915000Y-118995000D02*
X148915000Y-118495000D01*
G75*
G02*
X149140000Y-118270000I225000J0D01*
G01*
X149590000Y-118270000D01*
G75*
G02*
X149815000Y-118495000I0J-225000D01*
G01*
X149815000Y-118995000D01*
G75*
G02*
X149590000Y-119220000I-225000J0D01*
G01*
X149140000Y-119220000D01*
G75*
G02*
X148915000Y-118995000I0J225000D01*
G01*
G37*
G36*
G01*
X147365000Y-118995000D02*
X147365000Y-118495000D01*
G75*
G02*
X147590000Y-118270000I225000J0D01*
G01*
X148040000Y-118270000D01*
G75*
G02*
X148265000Y-118495000I0J-225000D01*
G01*
X148265000Y-118995000D01*
G75*
G02*
X148040000Y-119220000I-225000J0D01*
G01*
X147590000Y-119220000D01*
G75*
G02*
X147365000Y-118995000I0J225000D01*
G01*
G37*
%TD*%
%TO.C,C10*%
G36*
G01*
X135565000Y-118495000D02*
X135565000Y-118995000D01*
G75*
G02*
X135340000Y-119220000I-225000J0D01*
G01*
X134890000Y-119220000D01*
G75*
G02*
X134665000Y-118995000I0J225000D01*
G01*
X134665000Y-118495000D01*
G75*
G02*
X134890000Y-118270000I225000J0D01*
G01*
X135340000Y-118270000D01*
G75*
G02*
X135565000Y-118495000I0J-225000D01*
G01*
G37*
G36*
G01*
X137115000Y-118495000D02*
X137115000Y-118995000D01*
G75*
G02*
X136890000Y-119220000I-225000J0D01*
G01*
X136440000Y-119220000D01*
G75*
G02*
X136215000Y-118995000I0J225000D01*
G01*
X136215000Y-118495000D01*
G75*
G02*
X136440000Y-118270000I225000J0D01*
G01*
X136890000Y-118270000D01*
G75*
G02*
X137115000Y-118495000I0J-225000D01*
G01*
G37*
%TD*%
%TO.C,C9*%
G36*
G01*
X128528000Y-117800000D02*
X129028000Y-117800000D01*
G75*
G02*
X129253000Y-118025000I0J-225000D01*
G01*
X129253000Y-118475000D01*
G75*
G02*
X129028000Y-118700000I-225000J0D01*
G01*
X128528000Y-118700000D01*
G75*
G02*
X128303000Y-118475000I0J225000D01*
G01*
X128303000Y-118025000D01*
G75*
G02*
X128528000Y-117800000I225000J0D01*
G01*
G37*
G36*
G01*
X128528000Y-116250000D02*
X129028000Y-116250000D01*
G75*
G02*
X129253000Y-116475000I0J-225000D01*
G01*
X129253000Y-116925000D01*
G75*
G02*
X129028000Y-117150000I-225000J0D01*
G01*
X128528000Y-117150000D01*
G75*
G02*
X128303000Y-116925000I0J225000D01*
G01*
X128303000Y-116475000D01*
G75*
G02*
X128528000Y-116250000I225000J0D01*
G01*
G37*
%TD*%
%TO.C,C7*%
G36*
G01*
X128528000Y-113990000D02*
X129028000Y-113990000D01*
G75*
G02*
X129253000Y-114215000I0J-225000D01*
G01*
X129253000Y-114665000D01*
G75*
G02*
X129028000Y-114890000I-225000J0D01*
G01*
X128528000Y-114890000D01*
G75*
G02*
X128303000Y-114665000I0J225000D01*
G01*
X128303000Y-114215000D01*
G75*
G02*
X128528000Y-113990000I225000J0D01*
G01*
G37*
G36*
G01*
X128528000Y-112440000D02*
X129028000Y-112440000D01*
G75*
G02*
X129253000Y-112665000I0J-225000D01*
G01*
X129253000Y-113115000D01*
G75*
G02*
X129028000Y-113340000I-225000J0D01*
G01*
X128528000Y-113340000D01*
G75*
G02*
X128303000Y-113115000I0J225000D01*
G01*
X128303000Y-112665000D01*
G75*
G02*
X128528000Y-112440000I225000J0D01*
G01*
G37*
%TD*%
%TO.C,C3*%
G36*
G01*
X126623000Y-113990000D02*
X127123000Y-113990000D01*
G75*
G02*
X127348000Y-114215000I0J-225000D01*
G01*
X127348000Y-114665000D01*
G75*
G02*
X127123000Y-114890000I-225000J0D01*
G01*
X126623000Y-114890000D01*
G75*
G02*
X126398000Y-114665000I0J225000D01*
G01*
X126398000Y-114215000D01*
G75*
G02*
X126623000Y-113990000I225000J0D01*
G01*
G37*
G36*
G01*
X126623000Y-112440000D02*
X127123000Y-112440000D01*
G75*
G02*
X127348000Y-112665000I0J-225000D01*
G01*
X127348000Y-113115000D01*
G75*
G02*
X127123000Y-113340000I-225000J0D01*
G01*
X126623000Y-113340000D01*
G75*
G02*
X126398000Y-113115000I0J225000D01*
G01*
X126398000Y-112665000D01*
G75*
G02*
X126623000Y-112440000I225000J0D01*
G01*
G37*
%TD*%
D16*
%TO.C,U15*%
X157480000Y-112860000D03*
X158430000Y-112860000D03*
X156530000Y-112860000D03*
X156530000Y-110660000D03*
X157480000Y-110660000D03*
X158430000Y-110660000D03*
%TD*%
%TO.C,U13*%
X161925000Y-110660000D03*
X160975000Y-110660000D03*
X162875000Y-110660000D03*
X162875000Y-112860000D03*
X161925000Y-112860000D03*
X160975000Y-112860000D03*
%TD*%
D15*
%TO.C,U11*%
X147490000Y-90805000D03*
X147490000Y-91755000D03*
X147490000Y-89855000D03*
X149690000Y-89855000D03*
X149690000Y-90805000D03*
X149690000Y-91755000D03*
%TD*%
D16*
%TO.C,U10*%
X149540000Y-98255000D03*
X147640000Y-98255000D03*
X147640000Y-96055000D03*
X148590000Y-96055000D03*
X149540000Y-96055000D03*
%TD*%
%TO.C,U8*%
X143190000Y-98255000D03*
X141290000Y-98255000D03*
X141290000Y-96055000D03*
X142240000Y-96055000D03*
X143190000Y-96055000D03*
%TD*%
%TO.C,U1*%
X136840000Y-98255000D03*
X134940000Y-98255000D03*
X134940000Y-96055000D03*
X135890000Y-96055000D03*
X136840000Y-96055000D03*
%TD*%
%TO.C,R34*%
G36*
G01*
X153945000Y-94825000D02*
X153395000Y-94825000D01*
G75*
G02*
X153195000Y-94625000I0J200000D01*
G01*
X153195000Y-94225000D01*
G75*
G02*
X153395000Y-94025000I200000J0D01*
G01*
X153945000Y-94025000D01*
G75*
G02*
X154145000Y-94225000I0J-200000D01*
G01*
X154145000Y-94625000D01*
G75*
G02*
X153945000Y-94825000I-200000J0D01*
G01*
G37*
G36*
G01*
X153945000Y-96475000D02*
X153395000Y-96475000D01*
G75*
G02*
X153195000Y-96275000I0J200000D01*
G01*
X153195000Y-95875000D01*
G75*
G02*
X153395000Y-95675000I200000J0D01*
G01*
X153945000Y-95675000D01*
G75*
G02*
X154145000Y-95875000I0J-200000D01*
G01*
X154145000Y-96275000D01*
G75*
G02*
X153945000Y-96475000I-200000J0D01*
G01*
G37*
%TD*%
%TO.C,R33*%
G36*
G01*
X148165000Y-93705000D02*
X148165000Y-94255000D01*
G75*
G02*
X147965000Y-94455000I-200000J0D01*
G01*
X147565000Y-94455000D01*
G75*
G02*
X147365000Y-94255000I0J200000D01*
G01*
X147365000Y-93705000D01*
G75*
G02*
X147565000Y-93505000I200000J0D01*
G01*
X147965000Y-93505000D01*
G75*
G02*
X148165000Y-93705000I0J-200000D01*
G01*
G37*
G36*
G01*
X149815000Y-93705000D02*
X149815000Y-94255000D01*
G75*
G02*
X149615000Y-94455000I-200000J0D01*
G01*
X149215000Y-94455000D01*
G75*
G02*
X149015000Y-94255000I0J200000D01*
G01*
X149015000Y-93705000D01*
G75*
G02*
X149215000Y-93505000I200000J0D01*
G01*
X149615000Y-93505000D01*
G75*
G02*
X149815000Y-93705000I0J-200000D01*
G01*
G37*
%TD*%
%TO.C,R32*%
G36*
G01*
X145140000Y-99485000D02*
X145690000Y-99485000D01*
G75*
G02*
X145890000Y-99685000I0J-200000D01*
G01*
X145890000Y-100085000D01*
G75*
G02*
X145690000Y-100285000I-200000J0D01*
G01*
X145140000Y-100285000D01*
G75*
G02*
X144940000Y-100085000I0J200000D01*
G01*
X144940000Y-99685000D01*
G75*
G02*
X145140000Y-99485000I200000J0D01*
G01*
G37*
G36*
G01*
X145140000Y-97835000D02*
X145690000Y-97835000D01*
G75*
G02*
X145890000Y-98035000I0J-200000D01*
G01*
X145890000Y-98435000D01*
G75*
G02*
X145690000Y-98635000I-200000J0D01*
G01*
X145140000Y-98635000D01*
G75*
G02*
X144940000Y-98435000I0J200000D01*
G01*
X144940000Y-98035000D01*
G75*
G02*
X145140000Y-97835000I200000J0D01*
G01*
G37*
%TD*%
%TO.C,R31*%
G36*
G01*
X145140000Y-95675000D02*
X145690000Y-95675000D01*
G75*
G02*
X145890000Y-95875000I0J-200000D01*
G01*
X145890000Y-96275000D01*
G75*
G02*
X145690000Y-96475000I-200000J0D01*
G01*
X145140000Y-96475000D01*
G75*
G02*
X144940000Y-96275000I0J200000D01*
G01*
X144940000Y-95875000D01*
G75*
G02*
X145140000Y-95675000I200000J0D01*
G01*
G37*
G36*
G01*
X145140000Y-94025000D02*
X145690000Y-94025000D01*
G75*
G02*
X145890000Y-94225000I0J-200000D01*
G01*
X145890000Y-94625000D01*
G75*
G02*
X145690000Y-94825000I-200000J0D01*
G01*
X145140000Y-94825000D01*
G75*
G02*
X144940000Y-94625000I0J200000D01*
G01*
X144940000Y-94225000D01*
G75*
G02*
X145140000Y-94025000I200000J0D01*
G01*
G37*
%TD*%
%TO.C,R29*%
G36*
G01*
X138790000Y-97580000D02*
X139340000Y-97580000D01*
G75*
G02*
X139540000Y-97780000I0J-200000D01*
G01*
X139540000Y-98180000D01*
G75*
G02*
X139340000Y-98380000I-200000J0D01*
G01*
X138790000Y-98380000D01*
G75*
G02*
X138590000Y-98180000I0J200000D01*
G01*
X138590000Y-97780000D01*
G75*
G02*
X138790000Y-97580000I200000J0D01*
G01*
G37*
G36*
G01*
X138790000Y-95930000D02*
X139340000Y-95930000D01*
G75*
G02*
X139540000Y-96130000I0J-200000D01*
G01*
X139540000Y-96530000D01*
G75*
G02*
X139340000Y-96730000I-200000J0D01*
G01*
X138790000Y-96730000D01*
G75*
G02*
X138590000Y-96530000I0J200000D01*
G01*
X138590000Y-96130000D01*
G75*
G02*
X138790000Y-95930000I200000J0D01*
G01*
G37*
%TD*%
%TO.C,R28*%
G36*
G01*
X142665000Y-94255000D02*
X142665000Y-93705000D01*
G75*
G02*
X142865000Y-93505000I200000J0D01*
G01*
X143265000Y-93505000D01*
G75*
G02*
X143465000Y-93705000I0J-200000D01*
G01*
X143465000Y-94255000D01*
G75*
G02*
X143265000Y-94455000I-200000J0D01*
G01*
X142865000Y-94455000D01*
G75*
G02*
X142665000Y-94255000I0J200000D01*
G01*
G37*
G36*
G01*
X141015000Y-94255000D02*
X141015000Y-93705000D01*
G75*
G02*
X141215000Y-93505000I200000J0D01*
G01*
X141615000Y-93505000D01*
G75*
G02*
X141815000Y-93705000I0J-200000D01*
G01*
X141815000Y-94255000D01*
G75*
G02*
X141615000Y-94455000I-200000J0D01*
G01*
X141215000Y-94455000D01*
G75*
G02*
X141015000Y-94255000I0J200000D01*
G01*
G37*
%TD*%
%TO.C,R27*%
G36*
G01*
X136315000Y-94255000D02*
X136315000Y-93705000D01*
G75*
G02*
X136515000Y-93505000I200000J0D01*
G01*
X136915000Y-93505000D01*
G75*
G02*
X137115000Y-93705000I0J-200000D01*
G01*
X137115000Y-94255000D01*
G75*
G02*
X136915000Y-94455000I-200000J0D01*
G01*
X136515000Y-94455000D01*
G75*
G02*
X136315000Y-94255000I0J200000D01*
G01*
G37*
G36*
G01*
X134665000Y-94255000D02*
X134665000Y-93705000D01*
G75*
G02*
X134865000Y-93505000I200000J0D01*
G01*
X135265000Y-93505000D01*
G75*
G02*
X135465000Y-93705000I0J-200000D01*
G01*
X135465000Y-94255000D01*
G75*
G02*
X135265000Y-94455000I-200000J0D01*
G01*
X134865000Y-94455000D01*
G75*
G02*
X134665000Y-94255000I0J200000D01*
G01*
G37*
%TD*%
%TO.C,R26*%
G36*
G01*
X131085000Y-98635000D02*
X130535000Y-98635000D01*
G75*
G02*
X130335000Y-98435000I0J200000D01*
G01*
X130335000Y-98035000D01*
G75*
G02*
X130535000Y-97835000I200000J0D01*
G01*
X131085000Y-97835000D01*
G75*
G02*
X131285000Y-98035000I0J-200000D01*
G01*
X131285000Y-98435000D01*
G75*
G02*
X131085000Y-98635000I-200000J0D01*
G01*
G37*
G36*
G01*
X131085000Y-100285000D02*
X130535000Y-100285000D01*
G75*
G02*
X130335000Y-100085000I0J200000D01*
G01*
X130335000Y-99685000D01*
G75*
G02*
X130535000Y-99485000I200000J0D01*
G01*
X131085000Y-99485000D01*
G75*
G02*
X131285000Y-99685000I0J-200000D01*
G01*
X131285000Y-100085000D01*
G75*
G02*
X131085000Y-100285000I-200000J0D01*
G01*
G37*
%TD*%
%TO.C,R24*%
G36*
G01*
X130535000Y-95675000D02*
X131085000Y-95675000D01*
G75*
G02*
X131285000Y-95875000I0J-200000D01*
G01*
X131285000Y-96275000D01*
G75*
G02*
X131085000Y-96475000I-200000J0D01*
G01*
X130535000Y-96475000D01*
G75*
G02*
X130335000Y-96275000I0J200000D01*
G01*
X130335000Y-95875000D01*
G75*
G02*
X130535000Y-95675000I200000J0D01*
G01*
G37*
G36*
G01*
X130535000Y-94025000D02*
X131085000Y-94025000D01*
G75*
G02*
X131285000Y-94225000I0J-200000D01*
G01*
X131285000Y-94625000D01*
G75*
G02*
X131085000Y-94825000I-200000J0D01*
G01*
X130535000Y-94825000D01*
G75*
G02*
X130335000Y-94625000I0J200000D01*
G01*
X130335000Y-94225000D01*
G75*
G02*
X130535000Y-94025000I200000J0D01*
G01*
G37*
%TD*%
%TO.C,D4*%
G36*
G01*
X132458750Y-99410000D02*
X132971250Y-99410000D01*
G75*
G02*
X133190000Y-99628750I0J-218750D01*
G01*
X133190000Y-100066250D01*
G75*
G02*
X132971250Y-100285000I-218750J0D01*
G01*
X132458750Y-100285000D01*
G75*
G02*
X132240000Y-100066250I0J218750D01*
G01*
X132240000Y-99628750D01*
G75*
G02*
X132458750Y-99410000I218750J0D01*
G01*
G37*
G36*
G01*
X132458750Y-97835000D02*
X132971250Y-97835000D01*
G75*
G02*
X133190000Y-98053750I0J-218750D01*
G01*
X133190000Y-98491250D01*
G75*
G02*
X132971250Y-98710000I-218750J0D01*
G01*
X132458750Y-98710000D01*
G75*
G02*
X132240000Y-98491250I0J218750D01*
G01*
X132240000Y-98053750D01*
G75*
G02*
X132458750Y-97835000I218750J0D01*
G01*
G37*
%TD*%
%TO.C,D3*%
G36*
G01*
X132458750Y-95600000D02*
X132971250Y-95600000D01*
G75*
G02*
X133190000Y-95818750I0J-218750D01*
G01*
X133190000Y-96256250D01*
G75*
G02*
X132971250Y-96475000I-218750J0D01*
G01*
X132458750Y-96475000D01*
G75*
G02*
X132240000Y-96256250I0J218750D01*
G01*
X132240000Y-95818750D01*
G75*
G02*
X132458750Y-95600000I218750J0D01*
G01*
G37*
G36*
G01*
X132458750Y-94025000D02*
X132971250Y-94025000D01*
G75*
G02*
X133190000Y-94243750I0J-218750D01*
G01*
X133190000Y-94681250D01*
G75*
G02*
X132971250Y-94900000I-218750J0D01*
G01*
X132458750Y-94900000D01*
G75*
G02*
X132240000Y-94681250I0J218750D01*
G01*
X132240000Y-94243750D01*
G75*
G02*
X132458750Y-94025000I218750J0D01*
G01*
G37*
%TD*%
%TO.C,C36*%
G36*
G01*
X157805000Y-108835000D02*
X157805000Y-108335000D01*
G75*
G02*
X158030000Y-108110000I225000J0D01*
G01*
X158480000Y-108110000D01*
G75*
G02*
X158705000Y-108335000I0J-225000D01*
G01*
X158705000Y-108835000D01*
G75*
G02*
X158480000Y-109060000I-225000J0D01*
G01*
X158030000Y-109060000D01*
G75*
G02*
X157805000Y-108835000I0J225000D01*
G01*
G37*
G36*
G01*
X156255000Y-108835000D02*
X156255000Y-108335000D01*
G75*
G02*
X156480000Y-108110000I225000J0D01*
G01*
X156930000Y-108110000D01*
G75*
G02*
X157155000Y-108335000I0J-225000D01*
G01*
X157155000Y-108835000D01*
G75*
G02*
X156930000Y-109060000I-225000J0D01*
G01*
X156480000Y-109060000D01*
G75*
G02*
X156255000Y-108835000I0J225000D01*
G01*
G37*
%TD*%
%TO.C,C35*%
G36*
G01*
X162250000Y-108835000D02*
X162250000Y-108335000D01*
G75*
G02*
X162475000Y-108110000I225000J0D01*
G01*
X162925000Y-108110000D01*
G75*
G02*
X163150000Y-108335000I0J-225000D01*
G01*
X163150000Y-108835000D01*
G75*
G02*
X162925000Y-109060000I-225000J0D01*
G01*
X162475000Y-109060000D01*
G75*
G02*
X162250000Y-108835000I0J225000D01*
G01*
G37*
G36*
G01*
X160700000Y-108835000D02*
X160700000Y-108335000D01*
G75*
G02*
X160925000Y-108110000I225000J0D01*
G01*
X161375000Y-108110000D01*
G75*
G02*
X161600000Y-108335000I0J-225000D01*
G01*
X161600000Y-108835000D01*
G75*
G02*
X161375000Y-109060000I-225000J0D01*
G01*
X160925000Y-109060000D01*
G75*
G02*
X160700000Y-108835000I0J225000D01*
G01*
G37*
%TD*%
%TO.C,C34*%
G36*
G01*
X151515000Y-91130000D02*
X152015000Y-91130000D01*
G75*
G02*
X152240000Y-91355000I0J-225000D01*
G01*
X152240000Y-91805000D01*
G75*
G02*
X152015000Y-92030000I-225000J0D01*
G01*
X151515000Y-92030000D01*
G75*
G02*
X151290000Y-91805000I0J225000D01*
G01*
X151290000Y-91355000D01*
G75*
G02*
X151515000Y-91130000I225000J0D01*
G01*
G37*
G36*
G01*
X151515000Y-89580000D02*
X152015000Y-89580000D01*
G75*
G02*
X152240000Y-89805000I0J-225000D01*
G01*
X152240000Y-90255000D01*
G75*
G02*
X152015000Y-90480000I-225000J0D01*
G01*
X151515000Y-90480000D01*
G75*
G02*
X151290000Y-90255000I0J225000D01*
G01*
X151290000Y-89805000D01*
G75*
G02*
X151515000Y-89580000I225000J0D01*
G01*
G37*
%TD*%
%TO.C,C33*%
G36*
G01*
X148265000Y-100080000D02*
X148265000Y-100580000D01*
G75*
G02*
X148040000Y-100805000I-225000J0D01*
G01*
X147590000Y-100805000D01*
G75*
G02*
X147365000Y-100580000I0J225000D01*
G01*
X147365000Y-100080000D01*
G75*
G02*
X147590000Y-99855000I225000J0D01*
G01*
X148040000Y-99855000D01*
G75*
G02*
X148265000Y-100080000I0J-225000D01*
G01*
G37*
G36*
G01*
X149815000Y-100080000D02*
X149815000Y-100580000D01*
G75*
G02*
X149590000Y-100805000I-225000J0D01*
G01*
X149140000Y-100805000D01*
G75*
G02*
X148915000Y-100580000I0J225000D01*
G01*
X148915000Y-100080000D01*
G75*
G02*
X149140000Y-99855000I225000J0D01*
G01*
X149590000Y-99855000D01*
G75*
G02*
X149815000Y-100080000I0J-225000D01*
G01*
G37*
%TD*%
%TO.C,C32*%
G36*
G01*
X141915000Y-100080000D02*
X141915000Y-100580000D01*
G75*
G02*
X141690000Y-100805000I-225000J0D01*
G01*
X141240000Y-100805000D01*
G75*
G02*
X141015000Y-100580000I0J225000D01*
G01*
X141015000Y-100080000D01*
G75*
G02*
X141240000Y-99855000I225000J0D01*
G01*
X141690000Y-99855000D01*
G75*
G02*
X141915000Y-100080000I0J-225000D01*
G01*
G37*
G36*
G01*
X143465000Y-100080000D02*
X143465000Y-100580000D01*
G75*
G02*
X143240000Y-100805000I-225000J0D01*
G01*
X142790000Y-100805000D01*
G75*
G02*
X142565000Y-100580000I0J225000D01*
G01*
X142565000Y-100080000D01*
G75*
G02*
X142790000Y-99855000I225000J0D01*
G01*
X143240000Y-99855000D01*
G75*
G02*
X143465000Y-100080000I0J-225000D01*
G01*
G37*
%TD*%
%TO.C,C31*%
G36*
G01*
X140660000Y-87880000D02*
X140660000Y-87380000D01*
G75*
G02*
X140885000Y-87155000I225000J0D01*
G01*
X141335000Y-87155000D01*
G75*
G02*
X141560000Y-87380000I0J-225000D01*
G01*
X141560000Y-87880000D01*
G75*
G02*
X141335000Y-88105000I-225000J0D01*
G01*
X140885000Y-88105000D01*
G75*
G02*
X140660000Y-87880000I0J225000D01*
G01*
G37*
G36*
G01*
X139110000Y-87880000D02*
X139110000Y-87380000D01*
G75*
G02*
X139335000Y-87155000I225000J0D01*
G01*
X139785000Y-87155000D01*
G75*
G02*
X140010000Y-87380000I0J-225000D01*
G01*
X140010000Y-87880000D01*
G75*
G02*
X139785000Y-88105000I-225000J0D01*
G01*
X139335000Y-88105000D01*
G75*
G02*
X139110000Y-87880000I0J225000D01*
G01*
G37*
%TD*%
%TO.C,C30*%
G36*
G01*
X135565000Y-100080000D02*
X135565000Y-100580000D01*
G75*
G02*
X135340000Y-100805000I-225000J0D01*
G01*
X134890000Y-100805000D01*
G75*
G02*
X134665000Y-100580000I0J225000D01*
G01*
X134665000Y-100080000D01*
G75*
G02*
X134890000Y-99855000I225000J0D01*
G01*
X135340000Y-99855000D01*
G75*
G02*
X135565000Y-100080000I0J-225000D01*
G01*
G37*
G36*
G01*
X137115000Y-100080000D02*
X137115000Y-100580000D01*
G75*
G02*
X136890000Y-100805000I-225000J0D01*
G01*
X136440000Y-100805000D01*
G75*
G02*
X136215000Y-100580000I0J225000D01*
G01*
X136215000Y-100080000D01*
G75*
G02*
X136440000Y-99855000I225000J0D01*
G01*
X136890000Y-99855000D01*
G75*
G02*
X137115000Y-100080000I0J-225000D01*
G01*
G37*
%TD*%
%TO.C,C29*%
G36*
G01*
X128655000Y-99385000D02*
X129155000Y-99385000D01*
G75*
G02*
X129380000Y-99610000I0J-225000D01*
G01*
X129380000Y-100060000D01*
G75*
G02*
X129155000Y-100285000I-225000J0D01*
G01*
X128655000Y-100285000D01*
G75*
G02*
X128430000Y-100060000I0J225000D01*
G01*
X128430000Y-99610000D01*
G75*
G02*
X128655000Y-99385000I225000J0D01*
G01*
G37*
G36*
G01*
X128655000Y-97835000D02*
X129155000Y-97835000D01*
G75*
G02*
X129380000Y-98060000I0J-225000D01*
G01*
X129380000Y-98510000D01*
G75*
G02*
X129155000Y-98735000I-225000J0D01*
G01*
X128655000Y-98735000D01*
G75*
G02*
X128430000Y-98510000I0J225000D01*
G01*
X128430000Y-98060000D01*
G75*
G02*
X128655000Y-97835000I225000J0D01*
G01*
G37*
%TD*%
%TO.C,C28*%
G36*
G01*
X128655000Y-95575000D02*
X129155000Y-95575000D01*
G75*
G02*
X129380000Y-95800000I0J-225000D01*
G01*
X129380000Y-96250000D01*
G75*
G02*
X129155000Y-96475000I-225000J0D01*
G01*
X128655000Y-96475000D01*
G75*
G02*
X128430000Y-96250000I0J225000D01*
G01*
X128430000Y-95800000D01*
G75*
G02*
X128655000Y-95575000I225000J0D01*
G01*
G37*
G36*
G01*
X128655000Y-94025000D02*
X129155000Y-94025000D01*
G75*
G02*
X129380000Y-94250000I0J-225000D01*
G01*
X129380000Y-94700000D01*
G75*
G02*
X129155000Y-94925000I-225000J0D01*
G01*
X128655000Y-94925000D01*
G75*
G02*
X128430000Y-94700000I0J225000D01*
G01*
X128430000Y-94250000D01*
G75*
G02*
X128655000Y-94025000I225000J0D01*
G01*
G37*
%TD*%
%TO.C,C27*%
G36*
G01*
X126750000Y-95575000D02*
X127250000Y-95575000D01*
G75*
G02*
X127475000Y-95800000I0J-225000D01*
G01*
X127475000Y-96250000D01*
G75*
G02*
X127250000Y-96475000I-225000J0D01*
G01*
X126750000Y-96475000D01*
G75*
G02*
X126525000Y-96250000I0J225000D01*
G01*
X126525000Y-95800000D01*
G75*
G02*
X126750000Y-95575000I225000J0D01*
G01*
G37*
G36*
G01*
X126750000Y-94025000D02*
X127250000Y-94025000D01*
G75*
G02*
X127475000Y-94250000I0J-225000D01*
G01*
X127475000Y-94700000D01*
G75*
G02*
X127250000Y-94925000I-225000J0D01*
G01*
X126750000Y-94925000D01*
G75*
G02*
X126525000Y-94700000I0J225000D01*
G01*
X126525000Y-94250000D01*
G75*
G02*
X126750000Y-94025000I225000J0D01*
G01*
G37*
%TD*%
%TO.C,C6*%
G36*
G01*
X136910000Y-78430000D02*
X137410000Y-78430000D01*
G75*
G02*
X137635000Y-78655000I0J-225000D01*
G01*
X137635000Y-79105000D01*
G75*
G02*
X137410000Y-79330000I-225000J0D01*
G01*
X136910000Y-79330000D01*
G75*
G02*
X136685000Y-79105000I0J225000D01*
G01*
X136685000Y-78655000D01*
G75*
G02*
X136910000Y-78430000I225000J0D01*
G01*
G37*
G36*
G01*
X136910000Y-76880000D02*
X137410000Y-76880000D01*
G75*
G02*
X137635000Y-77105000I0J-225000D01*
G01*
X137635000Y-77555000D01*
G75*
G02*
X137410000Y-77780000I-225000J0D01*
G01*
X136910000Y-77780000D01*
G75*
G02*
X136685000Y-77555000I0J225000D01*
G01*
X136685000Y-77105000D01*
G75*
G02*
X136910000Y-76880000I225000J0D01*
G01*
G37*
%TD*%
%TO.C,C12*%
G36*
G01*
X160405000Y-103830000D02*
X160905000Y-103830000D01*
G75*
G02*
X161130000Y-104055000I0J-225000D01*
G01*
X161130000Y-104505000D01*
G75*
G02*
X160905000Y-104730000I-225000J0D01*
G01*
X160405000Y-104730000D01*
G75*
G02*
X160180000Y-104505000I0J225000D01*
G01*
X160180000Y-104055000D01*
G75*
G02*
X160405000Y-103830000I225000J0D01*
G01*
G37*
G36*
G01*
X160405000Y-102280000D02*
X160905000Y-102280000D01*
G75*
G02*
X161130000Y-102505000I0J-225000D01*
G01*
X161130000Y-102955000D01*
G75*
G02*
X160905000Y-103180000I-225000J0D01*
G01*
X160405000Y-103180000D01*
G75*
G02*
X160180000Y-102955000I0J225000D01*
G01*
X160180000Y-102505000D01*
G75*
G02*
X160405000Y-102280000I225000J0D01*
G01*
G37*
%TD*%
%TO.C,U14*%
G36*
G01*
X166580000Y-93045000D02*
X166580000Y-92845000D01*
G75*
G02*
X166680000Y-92745000I100000J0D01*
G01*
X167955000Y-92745000D01*
G75*
G02*
X168055000Y-92845000I0J-100000D01*
G01*
X168055000Y-93045000D01*
G75*
G02*
X167955000Y-93145000I-100000J0D01*
G01*
X166680000Y-93145000D01*
G75*
G02*
X166580000Y-93045000I0J100000D01*
G01*
G37*
G36*
G01*
X166580000Y-93695000D02*
X166580000Y-93495000D01*
G75*
G02*
X166680000Y-93395000I100000J0D01*
G01*
X167955000Y-93395000D01*
G75*
G02*
X168055000Y-93495000I0J-100000D01*
G01*
X168055000Y-93695000D01*
G75*
G02*
X167955000Y-93795000I-100000J0D01*
G01*
X166680000Y-93795000D01*
G75*
G02*
X166580000Y-93695000I0J100000D01*
G01*
G37*
G36*
G01*
X166580000Y-94345000D02*
X166580000Y-94145000D01*
G75*
G02*
X166680000Y-94045000I100000J0D01*
G01*
X167955000Y-94045000D01*
G75*
G02*
X168055000Y-94145000I0J-100000D01*
G01*
X168055000Y-94345000D01*
G75*
G02*
X167955000Y-94445000I-100000J0D01*
G01*
X166680000Y-94445000D01*
G75*
G02*
X166580000Y-94345000I0J100000D01*
G01*
G37*
G36*
G01*
X166580000Y-94995000D02*
X166580000Y-94795000D01*
G75*
G02*
X166680000Y-94695000I100000J0D01*
G01*
X167955000Y-94695000D01*
G75*
G02*
X168055000Y-94795000I0J-100000D01*
G01*
X168055000Y-94995000D01*
G75*
G02*
X167955000Y-95095000I-100000J0D01*
G01*
X166680000Y-95095000D01*
G75*
G02*
X166580000Y-94995000I0J100000D01*
G01*
G37*
G36*
G01*
X166580000Y-95645000D02*
X166580000Y-95445000D01*
G75*
G02*
X166680000Y-95345000I100000J0D01*
G01*
X167955000Y-95345000D01*
G75*
G02*
X168055000Y-95445000I0J-100000D01*
G01*
X168055000Y-95645000D01*
G75*
G02*
X167955000Y-95745000I-100000J0D01*
G01*
X166680000Y-95745000D01*
G75*
G02*
X166580000Y-95645000I0J100000D01*
G01*
G37*
G36*
G01*
X166580000Y-96295000D02*
X166580000Y-96095000D01*
G75*
G02*
X166680000Y-95995000I100000J0D01*
G01*
X167955000Y-95995000D01*
G75*
G02*
X168055000Y-96095000I0J-100000D01*
G01*
X168055000Y-96295000D01*
G75*
G02*
X167955000Y-96395000I-100000J0D01*
G01*
X166680000Y-96395000D01*
G75*
G02*
X166580000Y-96295000I0J100000D01*
G01*
G37*
G36*
G01*
X166580000Y-96945000D02*
X166580000Y-96745000D01*
G75*
G02*
X166680000Y-96645000I100000J0D01*
G01*
X167955000Y-96645000D01*
G75*
G02*
X168055000Y-96745000I0J-100000D01*
G01*
X168055000Y-96945000D01*
G75*
G02*
X167955000Y-97045000I-100000J0D01*
G01*
X166680000Y-97045000D01*
G75*
G02*
X166580000Y-96945000I0J100000D01*
G01*
G37*
G36*
G01*
X166580000Y-97595000D02*
X166580000Y-97395000D01*
G75*
G02*
X166680000Y-97295000I100000J0D01*
G01*
X167955000Y-97295000D01*
G75*
G02*
X168055000Y-97395000I0J-100000D01*
G01*
X168055000Y-97595000D01*
G75*
G02*
X167955000Y-97695000I-100000J0D01*
G01*
X166680000Y-97695000D01*
G75*
G02*
X166580000Y-97595000I0J100000D01*
G01*
G37*
G36*
G01*
X166580000Y-98245000D02*
X166580000Y-98045000D01*
G75*
G02*
X166680000Y-97945000I100000J0D01*
G01*
X167955000Y-97945000D01*
G75*
G02*
X168055000Y-98045000I0J-100000D01*
G01*
X168055000Y-98245000D01*
G75*
G02*
X167955000Y-98345000I-100000J0D01*
G01*
X166680000Y-98345000D01*
G75*
G02*
X166580000Y-98245000I0J100000D01*
G01*
G37*
G36*
G01*
X166580000Y-98895000D02*
X166580000Y-98695000D01*
G75*
G02*
X166680000Y-98595000I100000J0D01*
G01*
X167955000Y-98595000D01*
G75*
G02*
X168055000Y-98695000I0J-100000D01*
G01*
X168055000Y-98895000D01*
G75*
G02*
X167955000Y-98995000I-100000J0D01*
G01*
X166680000Y-98995000D01*
G75*
G02*
X166580000Y-98895000I0J100000D01*
G01*
G37*
G36*
G01*
X166580000Y-99545000D02*
X166580000Y-99345000D01*
G75*
G02*
X166680000Y-99245000I100000J0D01*
G01*
X167955000Y-99245000D01*
G75*
G02*
X168055000Y-99345000I0J-100000D01*
G01*
X168055000Y-99545000D01*
G75*
G02*
X167955000Y-99645000I-100000J0D01*
G01*
X166680000Y-99645000D01*
G75*
G02*
X166580000Y-99545000I0J100000D01*
G01*
G37*
G36*
G01*
X166580000Y-100195000D02*
X166580000Y-99995000D01*
G75*
G02*
X166680000Y-99895000I100000J0D01*
G01*
X167955000Y-99895000D01*
G75*
G02*
X168055000Y-99995000I0J-100000D01*
G01*
X168055000Y-100195000D01*
G75*
G02*
X167955000Y-100295000I-100000J0D01*
G01*
X166680000Y-100295000D01*
G75*
G02*
X166580000Y-100195000I0J100000D01*
G01*
G37*
G36*
G01*
X172305000Y-100195000D02*
X172305000Y-99995000D01*
G75*
G02*
X172405000Y-99895000I100000J0D01*
G01*
X173680000Y-99895000D01*
G75*
G02*
X173780000Y-99995000I0J-100000D01*
G01*
X173780000Y-100195000D01*
G75*
G02*
X173680000Y-100295000I-100000J0D01*
G01*
X172405000Y-100295000D01*
G75*
G02*
X172305000Y-100195000I0J100000D01*
G01*
G37*
G36*
G01*
X172305000Y-99545000D02*
X172305000Y-99345000D01*
G75*
G02*
X172405000Y-99245000I100000J0D01*
G01*
X173680000Y-99245000D01*
G75*
G02*
X173780000Y-99345000I0J-100000D01*
G01*
X173780000Y-99545000D01*
G75*
G02*
X173680000Y-99645000I-100000J0D01*
G01*
X172405000Y-99645000D01*
G75*
G02*
X172305000Y-99545000I0J100000D01*
G01*
G37*
G36*
G01*
X172305000Y-98895000D02*
X172305000Y-98695000D01*
G75*
G02*
X172405000Y-98595000I100000J0D01*
G01*
X173680000Y-98595000D01*
G75*
G02*
X173780000Y-98695000I0J-100000D01*
G01*
X173780000Y-98895000D01*
G75*
G02*
X173680000Y-98995000I-100000J0D01*
G01*
X172405000Y-98995000D01*
G75*
G02*
X172305000Y-98895000I0J100000D01*
G01*
G37*
G36*
G01*
X172305000Y-98245000D02*
X172305000Y-98045000D01*
G75*
G02*
X172405000Y-97945000I100000J0D01*
G01*
X173680000Y-97945000D01*
G75*
G02*
X173780000Y-98045000I0J-100000D01*
G01*
X173780000Y-98245000D01*
G75*
G02*
X173680000Y-98345000I-100000J0D01*
G01*
X172405000Y-98345000D01*
G75*
G02*
X172305000Y-98245000I0J100000D01*
G01*
G37*
G36*
G01*
X172305000Y-97595000D02*
X172305000Y-97395000D01*
G75*
G02*
X172405000Y-97295000I100000J0D01*
G01*
X173680000Y-97295000D01*
G75*
G02*
X173780000Y-97395000I0J-100000D01*
G01*
X173780000Y-97595000D01*
G75*
G02*
X173680000Y-97695000I-100000J0D01*
G01*
X172405000Y-97695000D01*
G75*
G02*
X172305000Y-97595000I0J100000D01*
G01*
G37*
G36*
G01*
X172305000Y-96945000D02*
X172305000Y-96745000D01*
G75*
G02*
X172405000Y-96645000I100000J0D01*
G01*
X173680000Y-96645000D01*
G75*
G02*
X173780000Y-96745000I0J-100000D01*
G01*
X173780000Y-96945000D01*
G75*
G02*
X173680000Y-97045000I-100000J0D01*
G01*
X172405000Y-97045000D01*
G75*
G02*
X172305000Y-96945000I0J100000D01*
G01*
G37*
G36*
G01*
X172305000Y-96295000D02*
X172305000Y-96095000D01*
G75*
G02*
X172405000Y-95995000I100000J0D01*
G01*
X173680000Y-95995000D01*
G75*
G02*
X173780000Y-96095000I0J-100000D01*
G01*
X173780000Y-96295000D01*
G75*
G02*
X173680000Y-96395000I-100000J0D01*
G01*
X172405000Y-96395000D01*
G75*
G02*
X172305000Y-96295000I0J100000D01*
G01*
G37*
G36*
G01*
X172305000Y-95645000D02*
X172305000Y-95445000D01*
G75*
G02*
X172405000Y-95345000I100000J0D01*
G01*
X173680000Y-95345000D01*
G75*
G02*
X173780000Y-95445000I0J-100000D01*
G01*
X173780000Y-95645000D01*
G75*
G02*
X173680000Y-95745000I-100000J0D01*
G01*
X172405000Y-95745000D01*
G75*
G02*
X172305000Y-95645000I0J100000D01*
G01*
G37*
G36*
G01*
X172305000Y-94995000D02*
X172305000Y-94795000D01*
G75*
G02*
X172405000Y-94695000I100000J0D01*
G01*
X173680000Y-94695000D01*
G75*
G02*
X173780000Y-94795000I0J-100000D01*
G01*
X173780000Y-94995000D01*
G75*
G02*
X173680000Y-95095000I-100000J0D01*
G01*
X172405000Y-95095000D01*
G75*
G02*
X172305000Y-94995000I0J100000D01*
G01*
G37*
G36*
G01*
X172305000Y-94345000D02*
X172305000Y-94145000D01*
G75*
G02*
X172405000Y-94045000I100000J0D01*
G01*
X173680000Y-94045000D01*
G75*
G02*
X173780000Y-94145000I0J-100000D01*
G01*
X173780000Y-94345000D01*
G75*
G02*
X173680000Y-94445000I-100000J0D01*
G01*
X172405000Y-94445000D01*
G75*
G02*
X172305000Y-94345000I0J100000D01*
G01*
G37*
G36*
G01*
X172305000Y-93695000D02*
X172305000Y-93495000D01*
G75*
G02*
X172405000Y-93395000I100000J0D01*
G01*
X173680000Y-93395000D01*
G75*
G02*
X173780000Y-93495000I0J-100000D01*
G01*
X173780000Y-93695000D01*
G75*
G02*
X173680000Y-93795000I-100000J0D01*
G01*
X172405000Y-93795000D01*
G75*
G02*
X172305000Y-93695000I0J100000D01*
G01*
G37*
G36*
G01*
X172305000Y-93045000D02*
X172305000Y-92845000D01*
G75*
G02*
X172405000Y-92745000I100000J0D01*
G01*
X173680000Y-92745000D01*
G75*
G02*
X173780000Y-92845000I0J-100000D01*
G01*
X173780000Y-93045000D01*
G75*
G02*
X173680000Y-93145000I-100000J0D01*
G01*
X172405000Y-93145000D01*
G75*
G02*
X172305000Y-93045000I0J100000D01*
G01*
G37*
%TD*%
%TO.C,R19*%
G36*
G01*
X175215000Y-90530000D02*
X175215000Y-91080000D01*
G75*
G02*
X175015000Y-91280000I-200000J0D01*
G01*
X174615000Y-91280000D01*
G75*
G02*
X174415000Y-91080000I0J200000D01*
G01*
X174415000Y-90530000D01*
G75*
G02*
X174615000Y-90330000I200000J0D01*
G01*
X175015000Y-90330000D01*
G75*
G02*
X175215000Y-90530000I0J-200000D01*
G01*
G37*
G36*
G01*
X173565000Y-90530000D02*
X173565000Y-91080000D01*
G75*
G02*
X173365000Y-91280000I-200000J0D01*
G01*
X172965000Y-91280000D01*
G75*
G02*
X172765000Y-91080000I0J200000D01*
G01*
X172765000Y-90530000D01*
G75*
G02*
X172965000Y-90330000I200000J0D01*
G01*
X173365000Y-90330000D01*
G75*
G02*
X173565000Y-90530000I0J-200000D01*
G01*
G37*
%TD*%
%TO.C,R18*%
G36*
G01*
X157055000Y-106405000D02*
X157055000Y-106955000D01*
G75*
G02*
X156855000Y-107155000I-200000J0D01*
G01*
X156455000Y-107155000D01*
G75*
G02*
X156255000Y-106955000I0J200000D01*
G01*
X156255000Y-106405000D01*
G75*
G02*
X156455000Y-106205000I200000J0D01*
G01*
X156855000Y-106205000D01*
G75*
G02*
X157055000Y-106405000I0J-200000D01*
G01*
G37*
G36*
G01*
X158705000Y-106405000D02*
X158705000Y-106955000D01*
G75*
G02*
X158505000Y-107155000I-200000J0D01*
G01*
X158105000Y-107155000D01*
G75*
G02*
X157905000Y-106955000I0J200000D01*
G01*
X157905000Y-106405000D01*
G75*
G02*
X158105000Y-106205000I200000J0D01*
G01*
X158505000Y-106205000D01*
G75*
G02*
X158705000Y-106405000I0J-200000D01*
G01*
G37*
%TD*%
%TO.C,C26*%
G36*
G01*
X161040000Y-97835000D02*
X161540000Y-97835000D01*
G75*
G02*
X161765000Y-98060000I0J-225000D01*
G01*
X161765000Y-98510000D01*
G75*
G02*
X161540000Y-98735000I-225000J0D01*
G01*
X161040000Y-98735000D01*
G75*
G02*
X160815000Y-98510000I0J225000D01*
G01*
X160815000Y-98060000D01*
G75*
G02*
X161040000Y-97835000I225000J0D01*
G01*
G37*
G36*
G01*
X161040000Y-99385000D02*
X161540000Y-99385000D01*
G75*
G02*
X161765000Y-99610000I0J-225000D01*
G01*
X161765000Y-100060000D01*
G75*
G02*
X161540000Y-100285000I-225000J0D01*
G01*
X161040000Y-100285000D01*
G75*
G02*
X160815000Y-100060000I0J225000D01*
G01*
X160815000Y-99610000D01*
G75*
G02*
X161040000Y-99385000I225000J0D01*
G01*
G37*
%TD*%
%TO.C,C25*%
G36*
G01*
X164080000Y-97110000D02*
X163580000Y-97110000D01*
G75*
G02*
X163355000Y-96885000I0J225000D01*
G01*
X163355000Y-96435000D01*
G75*
G02*
X163580000Y-96210000I225000J0D01*
G01*
X164080000Y-96210000D01*
G75*
G02*
X164305000Y-96435000I0J-225000D01*
G01*
X164305000Y-96885000D01*
G75*
G02*
X164080000Y-97110000I-225000J0D01*
G01*
G37*
G36*
G01*
X164080000Y-95560000D02*
X163580000Y-95560000D01*
G75*
G02*
X163355000Y-95335000I0J225000D01*
G01*
X163355000Y-94885000D01*
G75*
G02*
X163580000Y-94660000I225000J0D01*
G01*
X164080000Y-94660000D01*
G75*
G02*
X164305000Y-94885000I0J-225000D01*
G01*
X164305000Y-95335000D01*
G75*
G02*
X164080000Y-95560000I-225000J0D01*
G01*
G37*
%TD*%
%TO.C,C24*%
G36*
G01*
X164080000Y-93935000D02*
X163580000Y-93935000D01*
G75*
G02*
X163355000Y-93710000I0J225000D01*
G01*
X163355000Y-93260000D01*
G75*
G02*
X163580000Y-93035000I225000J0D01*
G01*
X164080000Y-93035000D01*
G75*
G02*
X164305000Y-93260000I0J-225000D01*
G01*
X164305000Y-93710000D01*
G75*
G02*
X164080000Y-93935000I-225000J0D01*
G01*
G37*
G36*
G01*
X164080000Y-92385000D02*
X163580000Y-92385000D01*
G75*
G02*
X163355000Y-92160000I0J225000D01*
G01*
X163355000Y-91710000D01*
G75*
G02*
X163580000Y-91485000I225000J0D01*
G01*
X164080000Y-91485000D01*
G75*
G02*
X164305000Y-91710000I0J-225000D01*
G01*
X164305000Y-92160000D01*
G75*
G02*
X164080000Y-92385000I-225000J0D01*
G01*
G37*
%TD*%
%TO.C,C21*%
G36*
G01*
X162175000Y-93935000D02*
X161675000Y-93935000D01*
G75*
G02*
X161450000Y-93710000I0J225000D01*
G01*
X161450000Y-93260000D01*
G75*
G02*
X161675000Y-93035000I225000J0D01*
G01*
X162175000Y-93035000D01*
G75*
G02*
X162400000Y-93260000I0J-225000D01*
G01*
X162400000Y-93710000D01*
G75*
G02*
X162175000Y-93935000I-225000J0D01*
G01*
G37*
G36*
G01*
X162175000Y-92385000D02*
X161675000Y-92385000D01*
G75*
G02*
X161450000Y-92160000I0J225000D01*
G01*
X161450000Y-91710000D01*
G75*
G02*
X161675000Y-91485000I225000J0D01*
G01*
X162175000Y-91485000D01*
G75*
G02*
X162400000Y-91710000I0J-225000D01*
G01*
X162400000Y-92160000D01*
G75*
G02*
X162175000Y-92385000I-225000J0D01*
G01*
G37*
%TD*%
%TO.C,C20*%
G36*
G01*
X177796000Y-98380000D02*
X177296000Y-98380000D01*
G75*
G02*
X177071000Y-98155000I0J225000D01*
G01*
X177071000Y-97705000D01*
G75*
G02*
X177296000Y-97480000I225000J0D01*
G01*
X177796000Y-97480000D01*
G75*
G02*
X178021000Y-97705000I0J-225000D01*
G01*
X178021000Y-98155000D01*
G75*
G02*
X177796000Y-98380000I-225000J0D01*
G01*
G37*
G36*
G01*
X177796000Y-96830000D02*
X177296000Y-96830000D01*
G75*
G02*
X177071000Y-96605000I0J225000D01*
G01*
X177071000Y-96155000D01*
G75*
G02*
X177296000Y-95930000I225000J0D01*
G01*
X177796000Y-95930000D01*
G75*
G02*
X178021000Y-96155000I0J-225000D01*
G01*
X178021000Y-96605000D01*
G75*
G02*
X177796000Y-96830000I-225000J0D01*
G01*
G37*
%TD*%
%TO.C,R15*%
G36*
G01*
X165183000Y-73258000D02*
X165183000Y-73808000D01*
G75*
G02*
X164983000Y-74008000I-200000J0D01*
G01*
X164583000Y-74008000D01*
G75*
G02*
X164383000Y-73808000I0J200000D01*
G01*
X164383000Y-73258000D01*
G75*
G02*
X164583000Y-73058000I200000J0D01*
G01*
X164983000Y-73058000D01*
G75*
G02*
X165183000Y-73258000I0J-200000D01*
G01*
G37*
G36*
G01*
X166833000Y-73258000D02*
X166833000Y-73808000D01*
G75*
G02*
X166633000Y-74008000I-200000J0D01*
G01*
X166233000Y-74008000D01*
G75*
G02*
X166033000Y-73808000I0J200000D01*
G01*
X166033000Y-73258000D01*
G75*
G02*
X166233000Y-73058000I200000J0D01*
G01*
X166633000Y-73058000D01*
G75*
G02*
X166833000Y-73258000I0J-200000D01*
G01*
G37*
%TD*%
%TO.C,R14*%
G36*
G01*
X165183000Y-75163000D02*
X165183000Y-75713000D01*
G75*
G02*
X164983000Y-75913000I-200000J0D01*
G01*
X164583000Y-75913000D01*
G75*
G02*
X164383000Y-75713000I0J200000D01*
G01*
X164383000Y-75163000D01*
G75*
G02*
X164583000Y-74963000I200000J0D01*
G01*
X164983000Y-74963000D01*
G75*
G02*
X165183000Y-75163000I0J-200000D01*
G01*
G37*
G36*
G01*
X166833000Y-75163000D02*
X166833000Y-75713000D01*
G75*
G02*
X166633000Y-75913000I-200000J0D01*
G01*
X166233000Y-75913000D01*
G75*
G02*
X166033000Y-75713000I0J200000D01*
G01*
X166033000Y-75163000D01*
G75*
G02*
X166233000Y-74963000I200000J0D01*
G01*
X166633000Y-74963000D01*
G75*
G02*
X166833000Y-75163000I0J-200000D01*
G01*
G37*
%TD*%
%TO.C,U3*%
X171130000Y-85555000D03*
X169230000Y-85555000D03*
X169230000Y-83355000D03*
X170180000Y-83355000D03*
X171130000Y-83355000D03*
%TD*%
%TO.C,C19*%
G36*
G01*
X170505000Y-87880000D02*
X170505000Y-87380000D01*
G75*
G02*
X170730000Y-87155000I225000J0D01*
G01*
X171180000Y-87155000D01*
G75*
G02*
X171405000Y-87380000I0J-225000D01*
G01*
X171405000Y-87880000D01*
G75*
G02*
X171180000Y-88105000I-225000J0D01*
G01*
X170730000Y-88105000D01*
G75*
G02*
X170505000Y-87880000I0J225000D01*
G01*
G37*
G36*
G01*
X168955000Y-87880000D02*
X168955000Y-87380000D01*
G75*
G02*
X169180000Y-87155000I225000J0D01*
G01*
X169630000Y-87155000D01*
G75*
G02*
X169855000Y-87380000I0J-225000D01*
G01*
X169855000Y-87880000D01*
G75*
G02*
X169630000Y-88105000I-225000J0D01*
G01*
X169180000Y-88105000D01*
G75*
G02*
X168955000Y-87880000I0J225000D01*
G01*
G37*
%TD*%
%TO.C,C18*%
G36*
G01*
X166755000Y-84780000D02*
X167255000Y-84780000D01*
G75*
G02*
X167480000Y-85005000I0J-225000D01*
G01*
X167480000Y-85455000D01*
G75*
G02*
X167255000Y-85680000I-225000J0D01*
G01*
X166755000Y-85680000D01*
G75*
G02*
X166530000Y-85455000I0J225000D01*
G01*
X166530000Y-85005000D01*
G75*
G02*
X166755000Y-84780000I225000J0D01*
G01*
G37*
G36*
G01*
X166755000Y-83230000D02*
X167255000Y-83230000D01*
G75*
G02*
X167480000Y-83455000I0J-225000D01*
G01*
X167480000Y-83905000D01*
G75*
G02*
X167255000Y-84130000I-225000J0D01*
G01*
X166755000Y-84130000D01*
G75*
G02*
X166530000Y-83905000I0J225000D01*
G01*
X166530000Y-83455000D01*
G75*
G02*
X166755000Y-83230000I225000J0D01*
G01*
G37*
%TD*%
%TO.C,C15*%
G36*
G01*
X170505000Y-81530000D02*
X170505000Y-81030000D01*
G75*
G02*
X170730000Y-80805000I225000J0D01*
G01*
X171180000Y-80805000D01*
G75*
G02*
X171405000Y-81030000I0J-225000D01*
G01*
X171405000Y-81530000D01*
G75*
G02*
X171180000Y-81755000I-225000J0D01*
G01*
X170730000Y-81755000D01*
G75*
G02*
X170505000Y-81530000I0J225000D01*
G01*
G37*
G36*
G01*
X168955000Y-81530000D02*
X168955000Y-81030000D01*
G75*
G02*
X169180000Y-80805000I225000J0D01*
G01*
X169630000Y-80805000D01*
G75*
G02*
X169855000Y-81030000I0J-225000D01*
G01*
X169855000Y-81530000D01*
G75*
G02*
X169630000Y-81755000I-225000J0D01*
G01*
X169180000Y-81755000D01*
G75*
G02*
X168955000Y-81530000I0J225000D01*
G01*
G37*
%TD*%
D15*
%TO.C,U2*%
X156380000Y-103505000D03*
X156380000Y-104455000D03*
X156380000Y-102555000D03*
X158580000Y-102555000D03*
X158580000Y-103505000D03*
X158580000Y-104455000D03*
%TD*%
D17*
%TO.C,U5*%
X158258000Y-84582000D03*
X160258000Y-83632000D03*
X160258000Y-85532000D03*
%TD*%
D18*
%TO.C,U4*%
X141740000Y-78105000D03*
X142740000Y-78105000D03*
D19*
X143490000Y-79055000D03*
X142990000Y-79055000D03*
X142490000Y-79055000D03*
X141990000Y-79055000D03*
X141490000Y-79055000D03*
X140990000Y-79055000D03*
X140990000Y-77155000D03*
X141490000Y-77155000D03*
X141990000Y-77155000D03*
X142490000Y-77155000D03*
X142990000Y-77155000D03*
X143490000Y-77155000D03*
%TD*%
%TO.C,R7*%
G36*
G01*
X159683000Y-87905000D02*
X159683000Y-87355000D01*
G75*
G02*
X159883000Y-87155000I200000J0D01*
G01*
X160283000Y-87155000D01*
G75*
G02*
X160483000Y-87355000I0J-200000D01*
G01*
X160483000Y-87905000D01*
G75*
G02*
X160283000Y-88105000I-200000J0D01*
G01*
X159883000Y-88105000D01*
G75*
G02*
X159683000Y-87905000I0J200000D01*
G01*
G37*
G36*
G01*
X158033000Y-87905000D02*
X158033000Y-87355000D01*
G75*
G02*
X158233000Y-87155000I200000J0D01*
G01*
X158633000Y-87155000D01*
G75*
G02*
X158833000Y-87355000I0J-200000D01*
G01*
X158833000Y-87905000D01*
G75*
G02*
X158633000Y-88105000I-200000J0D01*
G01*
X158233000Y-88105000D01*
G75*
G02*
X158033000Y-87905000I0J200000D01*
G01*
G37*
%TD*%
%TO.C,R6*%
G36*
G01*
X139340000Y-81490000D02*
X138790000Y-81490000D01*
G75*
G02*
X138590000Y-81290000I0J200000D01*
G01*
X138590000Y-80890000D01*
G75*
G02*
X138790000Y-80690000I200000J0D01*
G01*
X139340000Y-80690000D01*
G75*
G02*
X139540000Y-80890000I0J-200000D01*
G01*
X139540000Y-81290000D01*
G75*
G02*
X139340000Y-81490000I-200000J0D01*
G01*
G37*
G36*
G01*
X139340000Y-83140000D02*
X138790000Y-83140000D01*
G75*
G02*
X138590000Y-82940000I0J200000D01*
G01*
X138590000Y-82540000D01*
G75*
G02*
X138790000Y-82340000I200000J0D01*
G01*
X139340000Y-82340000D01*
G75*
G02*
X139540000Y-82540000I0J-200000D01*
G01*
X139540000Y-82940000D01*
G75*
G02*
X139340000Y-83140000I-200000J0D01*
G01*
G37*
%TD*%
%TO.C,R5*%
G36*
G01*
X145140000Y-74720000D02*
X145690000Y-74720000D01*
G75*
G02*
X145890000Y-74920000I0J-200000D01*
G01*
X145890000Y-75320000D01*
G75*
G02*
X145690000Y-75520000I-200000J0D01*
G01*
X145140000Y-75520000D01*
G75*
G02*
X144940000Y-75320000I0J200000D01*
G01*
X144940000Y-74920000D01*
G75*
G02*
X145140000Y-74720000I200000J0D01*
G01*
G37*
G36*
G01*
X145140000Y-73070000D02*
X145690000Y-73070000D01*
G75*
G02*
X145890000Y-73270000I0J-200000D01*
G01*
X145890000Y-73670000D01*
G75*
G02*
X145690000Y-73870000I-200000J0D01*
G01*
X145140000Y-73870000D01*
G75*
G02*
X144940000Y-73670000I0J200000D01*
G01*
X144940000Y-73270000D01*
G75*
G02*
X145140000Y-73070000I200000J0D01*
G01*
G37*
%TD*%
%TO.C,R3*%
G36*
G01*
X138790000Y-78530000D02*
X139340000Y-78530000D01*
G75*
G02*
X139540000Y-78730000I0J-200000D01*
G01*
X139540000Y-79130000D01*
G75*
G02*
X139340000Y-79330000I-200000J0D01*
G01*
X138790000Y-79330000D01*
G75*
G02*
X138590000Y-79130000I0J200000D01*
G01*
X138590000Y-78730000D01*
G75*
G02*
X138790000Y-78530000I200000J0D01*
G01*
G37*
G36*
G01*
X138790000Y-76880000D02*
X139340000Y-76880000D01*
G75*
G02*
X139540000Y-77080000I0J-200000D01*
G01*
X139540000Y-77480000D01*
G75*
G02*
X139340000Y-77680000I-200000J0D01*
G01*
X138790000Y-77680000D01*
G75*
G02*
X138590000Y-77480000I0J200000D01*
G01*
X138590000Y-77080000D01*
G75*
G02*
X138790000Y-76880000I200000J0D01*
G01*
G37*
%TD*%
%TO.C,R2*%
G36*
G01*
X145690000Y-77680000D02*
X145140000Y-77680000D01*
G75*
G02*
X144940000Y-77480000I0J200000D01*
G01*
X144940000Y-77080000D01*
G75*
G02*
X145140000Y-76880000I200000J0D01*
G01*
X145690000Y-76880000D01*
G75*
G02*
X145890000Y-77080000I0J-200000D01*
G01*
X145890000Y-77480000D01*
G75*
G02*
X145690000Y-77680000I-200000J0D01*
G01*
G37*
G36*
G01*
X145690000Y-79330000D02*
X145140000Y-79330000D01*
G75*
G02*
X144940000Y-79130000I0J200000D01*
G01*
X144940000Y-78730000D01*
G75*
G02*
X145140000Y-78530000I200000J0D01*
G01*
X145690000Y-78530000D01*
G75*
G02*
X145890000Y-78730000I0J-200000D01*
G01*
X145890000Y-79130000D01*
G75*
G02*
X145690000Y-79330000I-200000J0D01*
G01*
G37*
%TD*%
%TO.C,C23*%
G36*
G01*
X152015000Y-84257000D02*
X151515000Y-84257000D01*
G75*
G02*
X151290000Y-84032000I0J225000D01*
G01*
X151290000Y-83582000D01*
G75*
G02*
X151515000Y-83357000I225000J0D01*
G01*
X152015000Y-83357000D01*
G75*
G02*
X152240000Y-83582000I0J-225000D01*
G01*
X152240000Y-84032000D01*
G75*
G02*
X152015000Y-84257000I-225000J0D01*
G01*
G37*
G36*
G01*
X152015000Y-85807000D02*
X151515000Y-85807000D01*
G75*
G02*
X151290000Y-85582000I0J225000D01*
G01*
X151290000Y-85132000D01*
G75*
G02*
X151515000Y-84907000I225000J0D01*
G01*
X152015000Y-84907000D01*
G75*
G02*
X152240000Y-85132000I0J-225000D01*
G01*
X152240000Y-85582000D01*
G75*
G02*
X152015000Y-85807000I-225000J0D01*
G01*
G37*
%TD*%
%TO.C,C17*%
G36*
G01*
X160270000Y-93935000D02*
X159770000Y-93935000D01*
G75*
G02*
X159545000Y-93710000I0J225000D01*
G01*
X159545000Y-93260000D01*
G75*
G02*
X159770000Y-93035000I225000J0D01*
G01*
X160270000Y-93035000D01*
G75*
G02*
X160495000Y-93260000I0J-225000D01*
G01*
X160495000Y-93710000D01*
G75*
G02*
X160270000Y-93935000I-225000J0D01*
G01*
G37*
G36*
G01*
X160270000Y-92385000D02*
X159770000Y-92385000D01*
G75*
G02*
X159545000Y-92160000I0J225000D01*
G01*
X159545000Y-91710000D01*
G75*
G02*
X159770000Y-91485000I225000J0D01*
G01*
X160270000Y-91485000D01*
G75*
G02*
X160495000Y-91710000I0J-225000D01*
G01*
X160495000Y-92160000D01*
G75*
G02*
X160270000Y-92385000I-225000J0D01*
G01*
G37*
%TD*%
%TO.C,C16*%
G36*
G01*
X164080000Y-100285000D02*
X163580000Y-100285000D01*
G75*
G02*
X163355000Y-100060000I0J225000D01*
G01*
X163355000Y-99610000D01*
G75*
G02*
X163580000Y-99385000I225000J0D01*
G01*
X164080000Y-99385000D01*
G75*
G02*
X164305000Y-99610000I0J-225000D01*
G01*
X164305000Y-100060000D01*
G75*
G02*
X164080000Y-100285000I-225000J0D01*
G01*
G37*
G36*
G01*
X164080000Y-98735000D02*
X163580000Y-98735000D01*
G75*
G02*
X163355000Y-98510000I0J225000D01*
G01*
X163355000Y-98060000D01*
G75*
G02*
X163580000Y-97835000I225000J0D01*
G01*
X164080000Y-97835000D01*
G75*
G02*
X164305000Y-98060000I0J-225000D01*
G01*
X164305000Y-98510000D01*
G75*
G02*
X164080000Y-98735000I-225000J0D01*
G01*
G37*
%TD*%
%TO.C,C14*%
G36*
G01*
X176018000Y-98380000D02*
X175518000Y-98380000D01*
G75*
G02*
X175293000Y-98155000I0J225000D01*
G01*
X175293000Y-97705000D01*
G75*
G02*
X175518000Y-97480000I225000J0D01*
G01*
X176018000Y-97480000D01*
G75*
G02*
X176243000Y-97705000I0J-225000D01*
G01*
X176243000Y-98155000D01*
G75*
G02*
X176018000Y-98380000I-225000J0D01*
G01*
G37*
G36*
G01*
X176018000Y-96830000D02*
X175518000Y-96830000D01*
G75*
G02*
X175293000Y-96605000I0J225000D01*
G01*
X175293000Y-96155000D01*
G75*
G02*
X175518000Y-95930000I225000J0D01*
G01*
X176018000Y-95930000D01*
G75*
G02*
X176243000Y-96155000I0J-225000D01*
G01*
X176243000Y-96605000D01*
G75*
G02*
X176018000Y-96830000I-225000J0D01*
G01*
G37*
%TD*%
%TO.C,C11*%
G36*
G01*
X154615000Y-81157000D02*
X154615000Y-81657000D01*
G75*
G02*
X154390000Y-81882000I-225000J0D01*
G01*
X153940000Y-81882000D01*
G75*
G02*
X153715000Y-81657000I0J225000D01*
G01*
X153715000Y-81157000D01*
G75*
G02*
X153940000Y-80932000I225000J0D01*
G01*
X154390000Y-80932000D01*
G75*
G02*
X154615000Y-81157000I0J-225000D01*
G01*
G37*
G36*
G01*
X156165000Y-81157000D02*
X156165000Y-81657000D01*
G75*
G02*
X155940000Y-81882000I-225000J0D01*
G01*
X155490000Y-81882000D01*
G75*
G02*
X155265000Y-81657000I0J225000D01*
G01*
X155265000Y-81157000D01*
G75*
G02*
X155490000Y-80932000I225000J0D01*
G01*
X155940000Y-80932000D01*
G75*
G02*
X156165000Y-81157000I0J-225000D01*
G01*
G37*
%TD*%
%TO.C,C8*%
G36*
G01*
X162556000Y-84257000D02*
X162056000Y-84257000D01*
G75*
G02*
X161831000Y-84032000I0J225000D01*
G01*
X161831000Y-83582000D01*
G75*
G02*
X162056000Y-83357000I225000J0D01*
G01*
X162556000Y-83357000D01*
G75*
G02*
X162781000Y-83582000I0J-225000D01*
G01*
X162781000Y-84032000D01*
G75*
G02*
X162556000Y-84257000I-225000J0D01*
G01*
G37*
G36*
G01*
X162556000Y-85807000D02*
X162056000Y-85807000D01*
G75*
G02*
X161831000Y-85582000I0J225000D01*
G01*
X161831000Y-85132000D01*
G75*
G02*
X162056000Y-84907000I225000J0D01*
G01*
X162556000Y-84907000D01*
G75*
G02*
X162781000Y-85132000I0J-225000D01*
G01*
X162781000Y-85582000D01*
G75*
G02*
X162556000Y-85807000I-225000J0D01*
G01*
G37*
%TD*%
%TO.C,C5*%
G36*
G01*
X147570000Y-77780000D02*
X147070000Y-77780000D01*
G75*
G02*
X146845000Y-77555000I0J225000D01*
G01*
X146845000Y-77105000D01*
G75*
G02*
X147070000Y-76880000I225000J0D01*
G01*
X147570000Y-76880000D01*
G75*
G02*
X147795000Y-77105000I0J-225000D01*
G01*
X147795000Y-77555000D01*
G75*
G02*
X147570000Y-77780000I-225000J0D01*
G01*
G37*
G36*
G01*
X147570000Y-79330000D02*
X147070000Y-79330000D01*
G75*
G02*
X146845000Y-79105000I0J225000D01*
G01*
X146845000Y-78655000D01*
G75*
G02*
X147070000Y-78430000I225000J0D01*
G01*
X147570000Y-78430000D01*
G75*
G02*
X147795000Y-78655000I0J-225000D01*
G01*
X147795000Y-79105000D01*
G75*
G02*
X147570000Y-79330000I-225000J0D01*
G01*
G37*
%TD*%
%TO.C,C4*%
G36*
G01*
X141220000Y-73970000D02*
X140720000Y-73970000D01*
G75*
G02*
X140495000Y-73745000I0J225000D01*
G01*
X140495000Y-73295000D01*
G75*
G02*
X140720000Y-73070000I225000J0D01*
G01*
X141220000Y-73070000D01*
G75*
G02*
X141445000Y-73295000I0J-225000D01*
G01*
X141445000Y-73745000D01*
G75*
G02*
X141220000Y-73970000I-225000J0D01*
G01*
G37*
G36*
G01*
X141220000Y-75520000D02*
X140720000Y-75520000D01*
G75*
G02*
X140495000Y-75295000I0J225000D01*
G01*
X140495000Y-74845000D01*
G75*
G02*
X140720000Y-74620000I225000J0D01*
G01*
X141220000Y-74620000D01*
G75*
G02*
X141445000Y-74845000I0J-225000D01*
G01*
X141445000Y-75295000D01*
G75*
G02*
X141220000Y-75520000I-225000J0D01*
G01*
G37*
%TD*%
%TO.C,C2*%
G36*
G01*
X141220000Y-81590000D02*
X140720000Y-81590000D01*
G75*
G02*
X140495000Y-81365000I0J225000D01*
G01*
X140495000Y-80915000D01*
G75*
G02*
X140720000Y-80690000I225000J0D01*
G01*
X141220000Y-80690000D01*
G75*
G02*
X141445000Y-80915000I0J-225000D01*
G01*
X141445000Y-81365000D01*
G75*
G02*
X141220000Y-81590000I-225000J0D01*
G01*
G37*
G36*
G01*
X141220000Y-83140000D02*
X140720000Y-83140000D01*
G75*
G02*
X140495000Y-82915000I0J225000D01*
G01*
X140495000Y-82465000D01*
G75*
G02*
X140720000Y-82240000I225000J0D01*
G01*
X141220000Y-82240000D01*
G75*
G02*
X141445000Y-82465000I0J-225000D01*
G01*
X141445000Y-82915000D01*
G75*
G02*
X141220000Y-83140000I-225000J0D01*
G01*
G37*
%TD*%
%TO.C,C1*%
G36*
G01*
X143760000Y-73970000D02*
X143260000Y-73970000D01*
G75*
G02*
X143035000Y-73745000I0J225000D01*
G01*
X143035000Y-73295000D01*
G75*
G02*
X143260000Y-73070000I225000J0D01*
G01*
X143760000Y-73070000D01*
G75*
G02*
X143985000Y-73295000I0J-225000D01*
G01*
X143985000Y-73745000D01*
G75*
G02*
X143760000Y-73970000I-225000J0D01*
G01*
G37*
G36*
G01*
X143760000Y-75520000D02*
X143260000Y-75520000D01*
G75*
G02*
X143035000Y-75295000I0J225000D01*
G01*
X143035000Y-74845000D01*
G75*
G02*
X143260000Y-74620000I225000J0D01*
G01*
X143760000Y-74620000D01*
G75*
G02*
X143985000Y-74845000I0J-225000D01*
G01*
X143985000Y-75295000D01*
G75*
G02*
X143760000Y-75520000I-225000J0D01*
G01*
G37*
%TD*%
M02*
