%TF.GenerationSoftware,KiCad,Pcbnew,(5.1.10)-1*%
%TF.CreationDate,2021-07-23T15:14:34+02:00*%
%TF.ProjectId,rpicoscope2,72706963-6f73-4636-9f70-65322e6b6963,rev?*%
%TF.SameCoordinates,Original*%
%TF.FileFunction,Legend,Top*%
%TF.FilePolarity,Positive*%
%FSLAX46Y46*%
G04 Gerber Fmt 4.6, Leading zero omitted, Abs format (unit mm)*
G04 Created by KiCad (PCBNEW (5.1.10)-1) date 2021-07-23 15:14:34*
%MOMM*%
%LPD*%
G01*
G04 APERTURE LIST*
%ADD10C,0.200000*%
%ADD11C,0.100000*%
%ADD12C,0.120000*%
%ADD13C,0.150000*%
%ADD14C,0.125000*%
G04 APERTURE END LIST*
D10*
X172566000Y-103124000D02*
G75*
G03*
X172566000Y-103124000I-100000J0D01*
G01*
X160882000Y-114046000D02*
G75*
G03*
X160882000Y-114046000I-100000J0D01*
G01*
X158596000Y-109728000D02*
G75*
G03*
X158596000Y-109728000I-100000J0D01*
G01*
X159612000Y-104394000D02*
G75*
G03*
X159612000Y-104394000I-100000J0D01*
G01*
X139038000Y-108204000D02*
G75*
G03*
X139038000Y-108204000I-100000J0D01*
G01*
X150722000Y-110236000D02*
G75*
G03*
X150722000Y-110236000I-100000J0D01*
G01*
X149706000Y-113538000D02*
G75*
G03*
X149706000Y-113538000I-100000J0D01*
G01*
X143356000Y-113538000D02*
G75*
G03*
X143356000Y-113538000I-100000J0D01*
G01*
X137006000Y-113538000D02*
G75*
G03*
X137006000Y-113538000I-100000J0D01*
G01*
X143356000Y-94996000D02*
G75*
G03*
X143356000Y-94996000I-100000J0D01*
G01*
X137006000Y-94996000D02*
G75*
G03*
X137006000Y-94996000I-100000J0D01*
G01*
X149706000Y-94996000D02*
G75*
G03*
X149706000Y-94996000I-100000J0D01*
G01*
X150722000Y-91694000D02*
G75*
G03*
X150722000Y-91694000I-100000J0D01*
G01*
X139038000Y-89662000D02*
G75*
G03*
X139038000Y-89662000I-100000J0D01*
G01*
X157072000Y-85598000D02*
G75*
G03*
X157072000Y-85598000I-100000J0D01*
G01*
D11*
X171396000Y-82296000D02*
G75*
G03*
X171396000Y-82296000I-200000J0D01*
G01*
X136090000Y-123190000D02*
G75*
G03*
X136090000Y-123190000I-200000J0D01*
G01*
D10*
X172185000Y-90170000D02*
G75*
G03*
X172185000Y-90170000I-100000J0D01*
G01*
X165708000Y-116078000D02*
G75*
G03*
X165708000Y-116078000I-100000J0D01*
G01*
X143610000Y-75946000D02*
G75*
G03*
X143610000Y-75946000I-100000J0D01*
G01*
X165962000Y-92964000D02*
G75*
G03*
X165962000Y-92964000I-100000J0D01*
G01*
D12*
%TO.C,R39*%
X179846500Y-120379258D02*
X179846500Y-119904742D01*
X178801500Y-120379258D02*
X178801500Y-119904742D01*
%TO.C,R38*%
X178068500Y-120379258D02*
X178068500Y-119904742D01*
X177023500Y-120379258D02*
X177023500Y-119904742D01*
%TO.C,U21*%
X193505000Y-122655000D02*
X193905000Y-122655000D01*
X190905000Y-122655000D02*
X191305000Y-122655000D01*
X202905000Y-122655000D02*
X196105000Y-122655000D01*
X202905000Y-112255000D02*
X202905000Y-112655000D01*
X202905000Y-104555000D02*
X202905000Y-104955000D01*
X202905000Y-79155000D02*
X202905000Y-79555000D01*
X202905000Y-71655000D02*
X202905000Y-71955000D01*
X202905000Y-94455000D02*
X202905000Y-94855000D01*
X202905000Y-109655000D02*
X202905000Y-110055000D01*
X202905000Y-89355000D02*
X202905000Y-89755000D01*
X202905000Y-84255000D02*
X202905000Y-84655000D01*
X202905000Y-96955000D02*
X202905000Y-97355000D01*
X202905000Y-102055000D02*
X202905000Y-102455000D01*
X202905000Y-117255000D02*
X202905000Y-117655000D01*
X202905000Y-119855000D02*
X202905000Y-120255000D01*
X202905000Y-114755000D02*
X202905000Y-115155000D01*
X202905000Y-81755000D02*
X202905000Y-82155000D01*
X202905000Y-74055000D02*
X202905000Y-74455000D01*
X202905000Y-76655000D02*
X202905000Y-77055000D01*
X202905000Y-107155000D02*
X202905000Y-107555000D01*
X202905000Y-99455000D02*
X202905000Y-99855000D01*
X202905000Y-91855000D02*
X202905000Y-92255000D01*
X202905000Y-86755000D02*
X202905000Y-87155000D01*
X181905000Y-119855000D02*
X181905000Y-120255000D01*
X181905000Y-117255000D02*
X181905000Y-117655000D01*
X181905000Y-114755000D02*
X181905000Y-115155000D01*
X181905000Y-112255000D02*
X181905000Y-112655000D01*
X181905000Y-109655000D02*
X181905000Y-110055000D01*
X181905000Y-107155000D02*
X181905000Y-107555000D01*
X181905000Y-104555000D02*
X181905000Y-104955000D01*
X181905000Y-102055000D02*
X181905000Y-102455000D01*
X181905000Y-99455000D02*
X181905000Y-99855000D01*
X181905000Y-96955000D02*
X181905000Y-97355000D01*
X181905000Y-94455000D02*
X181905000Y-94855000D01*
X181905000Y-91855000D02*
X181905000Y-92255000D01*
X181905000Y-89355000D02*
X181905000Y-89755000D01*
X181905000Y-86755000D02*
X181905000Y-87155000D01*
X181905000Y-84255000D02*
X181905000Y-84655000D01*
X181905000Y-81755000D02*
X181905000Y-82155000D01*
X181905000Y-79155000D02*
X181905000Y-79555000D01*
X181905000Y-76655000D02*
X181905000Y-77055000D01*
X181905000Y-74055000D02*
X181905000Y-74455000D01*
X181905000Y-71655000D02*
X181905000Y-71955000D01*
X184912000Y-74322000D02*
X184912000Y-71655000D01*
X181905000Y-74322000D02*
X184912000Y-74322000D01*
X188705000Y-122655000D02*
X181905000Y-122655000D01*
X181905000Y-71655000D02*
X202905000Y-71655000D01*
%TO.C,J7*%
X130489000Y-93008000D02*
X129099000Y-93008000D01*
X130489000Y-90888000D02*
X129099000Y-90888000D01*
X130489000Y-93008000D02*
X131484000Y-93008000D01*
X130489000Y-93008000D02*
X130489000Y-93008000D01*
X129099000Y-90888000D02*
X129099000Y-90888000D01*
X129099000Y-93008000D02*
X129099000Y-92008000D01*
X130489000Y-91888000D02*
X130489000Y-90888000D01*
%TO.C,J4*%
X130489000Y-111296000D02*
X129099000Y-111296000D01*
X130489000Y-109176000D02*
X129099000Y-109176000D01*
X130489000Y-111296000D02*
X131484000Y-111296000D01*
X130489000Y-111296000D02*
X130489000Y-111296000D01*
X129099000Y-109176000D02*
X129099000Y-109176000D01*
X129099000Y-111296000D02*
X129099000Y-110296000D01*
X130489000Y-110176000D02*
X130489000Y-109176000D01*
%TO.C,C45*%
X170574580Y-112774000D02*
X170293420Y-112774000D01*
X170574580Y-113794000D02*
X170293420Y-113794000D01*
%TO.C,C44*%
X170574580Y-110996000D02*
X170293420Y-110996000D01*
X170574580Y-112016000D02*
X170293420Y-112016000D01*
%TO.C,U19*%
X172544000Y-107557000D02*
X172544000Y-108282000D01*
X172544000Y-108282000D02*
X171819000Y-108282000D01*
X168324000Y-104787000D02*
X168324000Y-104062000D01*
X168324000Y-104062000D02*
X169049000Y-104062000D01*
X168324000Y-107557000D02*
X168324000Y-108282000D01*
X168324000Y-108282000D02*
X169049000Y-108282000D01*
X172544000Y-104787000D02*
X172544000Y-104062000D01*
D13*
%TO.C,U16*%
X140565000Y-107545000D02*
X140565000Y-107770000D01*
X143915000Y-107545000D02*
X143915000Y-107845000D01*
X143915000Y-110895000D02*
X143915000Y-110595000D01*
X140565000Y-110895000D02*
X140565000Y-110595000D01*
X140565000Y-107545000D02*
X143915000Y-107545000D01*
X140565000Y-110895000D02*
X143915000Y-110895000D01*
X140565000Y-107770000D02*
X139340000Y-107770000D01*
%TO.C,U9*%
X140565000Y-89130000D02*
X140565000Y-89355000D01*
X143915000Y-89130000D02*
X143915000Y-89430000D01*
X143915000Y-92480000D02*
X143915000Y-92180000D01*
X140565000Y-92480000D02*
X140565000Y-92180000D01*
X140565000Y-89130000D02*
X143915000Y-89130000D01*
X140565000Y-92480000D02*
X143915000Y-92480000D01*
X140565000Y-89355000D02*
X139340000Y-89355000D01*
D12*
%TO.C,R37*%
X144382258Y-106567500D02*
X143907742Y-106567500D01*
X144382258Y-105522500D02*
X143907742Y-105522500D01*
%TO.C,R36*%
X144382258Y-88152500D02*
X143907742Y-88152500D01*
X144382258Y-87107500D02*
X143907742Y-87107500D01*
%TO.C,R30*%
X138317500Y-108982742D02*
X138317500Y-109457258D01*
X137272500Y-108982742D02*
X137272500Y-109457258D01*
%TO.C,R9*%
X138317500Y-90567742D02*
X138317500Y-91042258D01*
X137272500Y-90567742D02*
X137272500Y-91042258D01*
%TO.C,R35*%
X161687742Y-107202500D02*
X162162258Y-107202500D01*
X161687742Y-106157500D02*
X162162258Y-106157500D01*
%TO.C,R25*%
X162162258Y-114412500D02*
X161687742Y-114412500D01*
X162162258Y-115457500D02*
X161687742Y-115457500D01*
%TO.C,R23*%
X162162258Y-116317500D02*
X161687742Y-116317500D01*
X162162258Y-117362500D02*
X161687742Y-117362500D01*
%TO.C,J6*%
X125515000Y-115320000D02*
X125015000Y-115570000D01*
X125515000Y-115820000D02*
X125515000Y-115320000D01*
X125015000Y-115570000D02*
X125515000Y-115820000D01*
X120755000Y-113620000D02*
X120755000Y-114730000D01*
X120755000Y-116410000D02*
X120755000Y-117520000D01*
X124465000Y-113620000D02*
X124465000Y-114730000D01*
X124465000Y-116410000D02*
X124465000Y-117520000D01*
%TO.C,J1*%
X125515000Y-96905000D02*
X125015000Y-97155000D01*
X125515000Y-97405000D02*
X125515000Y-96905000D01*
X125015000Y-97155000D02*
X125515000Y-97405000D01*
X120755000Y-95205000D02*
X120755000Y-96315000D01*
X120755000Y-97995000D02*
X120755000Y-99105000D01*
X124465000Y-95205000D02*
X124465000Y-96315000D01*
X124465000Y-97995000D02*
X124465000Y-99105000D01*
D13*
%TO.C,U20*%
X167659000Y-115564000D02*
X166384000Y-115564000D01*
X167659000Y-121639000D02*
X173209000Y-121639000D01*
X167659000Y-115089000D02*
X173209000Y-115089000D01*
X167659000Y-121639000D02*
X167659000Y-121064000D01*
X173209000Y-121639000D02*
X173209000Y-121064000D01*
X173209000Y-115089000D02*
X173209000Y-115664000D01*
X167659000Y-115089000D02*
X167659000Y-115564000D01*
D12*
%TO.C,R22*%
X175022742Y-113806500D02*
X175497258Y-113806500D01*
X175022742Y-112761500D02*
X175497258Y-112761500D01*
%TO.C,C43*%
X172718000Y-84454420D02*
X172718000Y-84735580D01*
X173738000Y-84454420D02*
X173738000Y-84735580D01*
%TO.C,C42*%
X170293420Y-123446000D02*
X170574580Y-123446000D01*
X170293420Y-122426000D02*
X170574580Y-122426000D01*
%TO.C,C22*%
X165606000Y-106031420D02*
X165606000Y-106312580D01*
X166626000Y-106031420D02*
X166626000Y-106312580D01*
%TO.C,U18*%
X149490000Y-107610000D02*
X147690000Y-107610000D01*
X147690000Y-110830000D02*
X150140000Y-110830000D01*
%TO.C,U17*%
X146980000Y-114670000D02*
X146980000Y-116470000D01*
X150200000Y-116470000D02*
X150200000Y-114020000D01*
%TO.C,U12*%
X140630000Y-114670000D02*
X140630000Y-116470000D01*
X143850000Y-116470000D02*
X143850000Y-114020000D01*
%TO.C,U7*%
X134280000Y-114670000D02*
X134280000Y-116470000D01*
X137500000Y-116470000D02*
X137500000Y-114020000D01*
%TO.C,U6*%
X155840000Y-82972000D02*
X154040000Y-82972000D01*
X154040000Y-86192000D02*
X156490000Y-86192000D01*
%TO.C,R21*%
X152287500Y-113427742D02*
X152287500Y-113902258D01*
X151242500Y-113427742D02*
X151242500Y-113902258D01*
%TO.C,R20*%
X152287500Y-95012742D02*
X152287500Y-95487258D01*
X151242500Y-95012742D02*
X151242500Y-95487258D01*
%TO.C,R17*%
X153147500Y-113902258D02*
X153147500Y-113427742D01*
X154192500Y-113902258D02*
X154192500Y-113427742D01*
%TO.C,R16*%
X148827258Y-112917500D02*
X148352742Y-112917500D01*
X148827258Y-111872500D02*
X148352742Y-111872500D01*
%TO.C,R13*%
X145937500Y-117237742D02*
X145937500Y-117712258D01*
X144892500Y-117237742D02*
X144892500Y-117712258D01*
%TO.C,R12*%
X145937500Y-113427742D02*
X145937500Y-113902258D01*
X144892500Y-113427742D02*
X144892500Y-113902258D01*
%TO.C,R11*%
X142002742Y-111872500D02*
X142477258Y-111872500D01*
X142002742Y-112917500D02*
X142477258Y-112917500D01*
%TO.C,R10*%
X139587500Y-115332742D02*
X139587500Y-115807258D01*
X138542500Y-115332742D02*
X138542500Y-115807258D01*
%TO.C,R8*%
X135652742Y-111872500D02*
X136127258Y-111872500D01*
X135652742Y-112917500D02*
X136127258Y-112917500D01*
%TO.C,R4*%
X130160500Y-117712258D02*
X130160500Y-117237742D01*
X131205500Y-117712258D02*
X131205500Y-117237742D01*
%TO.C,R1*%
X131205500Y-113427742D02*
X131205500Y-113902258D01*
X130160500Y-113427742D02*
X130160500Y-113902258D01*
%TO.C,D6*%
X152935000Y-116675000D02*
X152935000Y-118960000D01*
X152935000Y-118960000D02*
X154405000Y-118960000D01*
X154405000Y-118960000D02*
X154405000Y-116675000D01*
%TO.C,D5*%
X152935000Y-98260000D02*
X152935000Y-100545000D01*
X152935000Y-100545000D02*
X154405000Y-100545000D01*
X154405000Y-100545000D02*
X154405000Y-98260000D01*
%TO.C,D2*%
X133323000Y-118275000D02*
X133323000Y-115990000D01*
X133323000Y-115990000D02*
X131853000Y-115990000D01*
X131853000Y-115990000D02*
X131853000Y-118275000D01*
%TO.C,D1*%
X133323000Y-114465000D02*
X133323000Y-112180000D01*
X133323000Y-112180000D02*
X131853000Y-112180000D01*
X131853000Y-112180000D02*
X131853000Y-114465000D01*
%TO.C,C41*%
X152275000Y-117334420D02*
X152275000Y-117615580D01*
X151255000Y-117334420D02*
X151255000Y-117615580D01*
%TO.C,C40*%
X152275000Y-98919420D02*
X152275000Y-99200580D01*
X151255000Y-98919420D02*
X151255000Y-99200580D01*
%TO.C,C39*%
X152275000Y-109079420D02*
X152275000Y-109360580D01*
X151255000Y-109079420D02*
X151255000Y-109360580D01*
%TO.C,C38*%
X140475580Y-106555000D02*
X140194420Y-106555000D01*
X140475580Y-105535000D02*
X140194420Y-105535000D01*
%TO.C,C37*%
X142380580Y-119255000D02*
X142099420Y-119255000D01*
X142380580Y-118235000D02*
X142099420Y-118235000D01*
%TO.C,C13*%
X148449420Y-118235000D02*
X148730580Y-118235000D01*
X148449420Y-119255000D02*
X148730580Y-119255000D01*
%TO.C,C10*%
X136030580Y-119255000D02*
X135749420Y-119255000D01*
X136030580Y-118235000D02*
X135749420Y-118235000D01*
%TO.C,C9*%
X129288000Y-117334420D02*
X129288000Y-117615580D01*
X128268000Y-117334420D02*
X128268000Y-117615580D01*
%TO.C,C7*%
X129288000Y-113524420D02*
X129288000Y-113805580D01*
X128268000Y-113524420D02*
X128268000Y-113805580D01*
%TO.C,C3*%
X127383000Y-113524420D02*
X127383000Y-113805580D01*
X126363000Y-113524420D02*
X126363000Y-113805580D01*
%TO.C,U15*%
X155870000Y-110860000D02*
X155870000Y-112660000D01*
X159090000Y-112660000D02*
X159090000Y-110210000D01*
%TO.C,U13*%
X163535000Y-112660000D02*
X163535000Y-110860000D01*
X160315000Y-110860000D02*
X160315000Y-113310000D01*
%TO.C,U11*%
X149490000Y-89195000D02*
X147690000Y-89195000D01*
X147690000Y-92415000D02*
X150140000Y-92415000D01*
%TO.C,U10*%
X146980000Y-96255000D02*
X146980000Y-98055000D01*
X150200000Y-98055000D02*
X150200000Y-95605000D01*
%TO.C,U8*%
X140630000Y-96255000D02*
X140630000Y-98055000D01*
X143850000Y-98055000D02*
X143850000Y-95605000D01*
%TO.C,U1*%
X134280000Y-96255000D02*
X134280000Y-98055000D01*
X137500000Y-98055000D02*
X137500000Y-95605000D01*
%TO.C,R34*%
X153147500Y-95487258D02*
X153147500Y-95012742D01*
X154192500Y-95487258D02*
X154192500Y-95012742D01*
%TO.C,R33*%
X148827258Y-94502500D02*
X148352742Y-94502500D01*
X148827258Y-93457500D02*
X148352742Y-93457500D01*
%TO.C,R32*%
X145937500Y-98822742D02*
X145937500Y-99297258D01*
X144892500Y-98822742D02*
X144892500Y-99297258D01*
%TO.C,R31*%
X145937500Y-95012742D02*
X145937500Y-95487258D01*
X144892500Y-95012742D02*
X144892500Y-95487258D01*
%TO.C,R29*%
X139587500Y-96917742D02*
X139587500Y-97392258D01*
X138542500Y-96917742D02*
X138542500Y-97392258D01*
%TO.C,R28*%
X142002742Y-93457500D02*
X142477258Y-93457500D01*
X142002742Y-94502500D02*
X142477258Y-94502500D01*
%TO.C,R27*%
X135652742Y-93457500D02*
X136127258Y-93457500D01*
X135652742Y-94502500D02*
X136127258Y-94502500D01*
%TO.C,R26*%
X130287500Y-99297258D02*
X130287500Y-98822742D01*
X131332500Y-99297258D02*
X131332500Y-98822742D01*
%TO.C,R24*%
X131332500Y-95012742D02*
X131332500Y-95487258D01*
X130287500Y-95012742D02*
X130287500Y-95487258D01*
%TO.C,D4*%
X133450000Y-99860000D02*
X133450000Y-97575000D01*
X133450000Y-97575000D02*
X131980000Y-97575000D01*
X131980000Y-97575000D02*
X131980000Y-99860000D01*
%TO.C,D3*%
X133450000Y-96050000D02*
X133450000Y-93765000D01*
X133450000Y-93765000D02*
X131980000Y-93765000D01*
X131980000Y-93765000D02*
X131980000Y-96050000D01*
%TO.C,C36*%
X157339420Y-108075000D02*
X157620580Y-108075000D01*
X157339420Y-109095000D02*
X157620580Y-109095000D01*
%TO.C,C35*%
X161784420Y-108075000D02*
X162065580Y-108075000D01*
X161784420Y-109095000D02*
X162065580Y-109095000D01*
%TO.C,C34*%
X152275000Y-90664420D02*
X152275000Y-90945580D01*
X151255000Y-90664420D02*
X151255000Y-90945580D01*
%TO.C,C33*%
X148730580Y-100840000D02*
X148449420Y-100840000D01*
X148730580Y-99820000D02*
X148449420Y-99820000D01*
%TO.C,C32*%
X142380580Y-100840000D02*
X142099420Y-100840000D01*
X142380580Y-99820000D02*
X142099420Y-99820000D01*
%TO.C,C31*%
X140194420Y-87120000D02*
X140475580Y-87120000D01*
X140194420Y-88140000D02*
X140475580Y-88140000D01*
%TO.C,C30*%
X136030580Y-100840000D02*
X135749420Y-100840000D01*
X136030580Y-99820000D02*
X135749420Y-99820000D01*
%TO.C,C29*%
X129415000Y-98919420D02*
X129415000Y-99200580D01*
X128395000Y-98919420D02*
X128395000Y-99200580D01*
%TO.C,C28*%
X129415000Y-95109420D02*
X129415000Y-95390580D01*
X128395000Y-95109420D02*
X128395000Y-95390580D01*
%TO.C,C27*%
X127510000Y-95109420D02*
X127510000Y-95390580D01*
X126490000Y-95109420D02*
X126490000Y-95390580D01*
%TO.C,C6*%
X136650000Y-77964420D02*
X136650000Y-78245580D01*
X137670000Y-77964420D02*
X137670000Y-78245580D01*
%TO.C,C12*%
X160145000Y-103364420D02*
X160145000Y-103645580D01*
X161165000Y-103364420D02*
X161165000Y-103645580D01*
%TO.C,U14*%
X170180000Y-100555000D02*
X172380000Y-100555000D01*
X170180000Y-100555000D02*
X167980000Y-100555000D01*
X170180000Y-92485000D02*
X172380000Y-92485000D01*
X170180000Y-92485000D02*
X166580000Y-92485000D01*
%TO.C,R19*%
X174227258Y-90282500D02*
X173752742Y-90282500D01*
X174227258Y-91327500D02*
X173752742Y-91327500D01*
%TO.C,R18*%
X157717258Y-107202500D02*
X157242742Y-107202500D01*
X157717258Y-106157500D02*
X157242742Y-106157500D01*
%TO.C,C26*%
X160780000Y-98919420D02*
X160780000Y-99200580D01*
X161800000Y-98919420D02*
X161800000Y-99200580D01*
%TO.C,C25*%
X164340000Y-96025580D02*
X164340000Y-95744420D01*
X163320000Y-96025580D02*
X163320000Y-95744420D01*
%TO.C,C24*%
X164340000Y-92850580D02*
X164340000Y-92569420D01*
X163320000Y-92850580D02*
X163320000Y-92569420D01*
%TO.C,C21*%
X162435000Y-92850580D02*
X162435000Y-92569420D01*
X161415000Y-92850580D02*
X161415000Y-92569420D01*
%TO.C,C20*%
X178056000Y-97295580D02*
X178056000Y-97014420D01*
X177036000Y-97295580D02*
X177036000Y-97014420D01*
%TO.C,R15*%
X165845258Y-74055500D02*
X165370742Y-74055500D01*
X165845258Y-73010500D02*
X165370742Y-73010500D01*
%TO.C,R14*%
X165845258Y-75960500D02*
X165370742Y-75960500D01*
X165845258Y-74915500D02*
X165370742Y-74915500D01*
%TO.C,U3*%
X168570000Y-83555000D02*
X168570000Y-85355000D01*
X171790000Y-85355000D02*
X171790000Y-82905000D01*
%TO.C,C19*%
X170039420Y-87120000D02*
X170320580Y-87120000D01*
X170039420Y-88140000D02*
X170320580Y-88140000D01*
%TO.C,C18*%
X167515000Y-84314420D02*
X167515000Y-84595580D01*
X166495000Y-84314420D02*
X166495000Y-84595580D01*
%TO.C,C15*%
X170039420Y-80770000D02*
X170320580Y-80770000D01*
X170039420Y-81790000D02*
X170320580Y-81790000D01*
%TO.C,U2*%
X156580000Y-105115000D02*
X159030000Y-105115000D01*
X158380000Y-101895000D02*
X156580000Y-101895000D01*
%TO.C,U5*%
X158498000Y-83002000D02*
X159958000Y-83002000D01*
X158498000Y-86162000D02*
X160658000Y-86162000D01*
X158498000Y-86162000D02*
X158498000Y-85232000D01*
X158498000Y-83002000D02*
X158498000Y-83932000D01*
%TO.C,U4*%
X143860000Y-76855000D02*
X143860000Y-79225000D01*
X140620000Y-78605000D02*
X140620000Y-77605000D01*
X144240000Y-76405000D02*
X144240000Y-77605000D01*
X142740000Y-76405000D02*
X144240000Y-76405000D01*
%TO.C,R7*%
X159020742Y-88152500D02*
X159495258Y-88152500D01*
X159020742Y-87107500D02*
X159495258Y-87107500D01*
%TO.C,R6*%
X139587500Y-82152258D02*
X139587500Y-81677742D01*
X138542500Y-82152258D02*
X138542500Y-81677742D01*
%TO.C,R5*%
X144892500Y-74057742D02*
X144892500Y-74532258D01*
X145937500Y-74057742D02*
X145937500Y-74532258D01*
%TO.C,R3*%
X138542500Y-77867742D02*
X138542500Y-78342258D01*
X139587500Y-77867742D02*
X139587500Y-78342258D01*
%TO.C,R2*%
X145937500Y-78342258D02*
X145937500Y-77867742D01*
X144892500Y-78342258D02*
X144892500Y-77867742D01*
%TO.C,C23*%
X152275000Y-84722580D02*
X152275000Y-84441420D01*
X151255000Y-84722580D02*
X151255000Y-84441420D01*
%TO.C,C17*%
X159510000Y-92850580D02*
X159510000Y-92569420D01*
X160530000Y-92850580D02*
X160530000Y-92569420D01*
%TO.C,C16*%
X163320000Y-99200580D02*
X163320000Y-98919420D01*
X164340000Y-99200580D02*
X164340000Y-98919420D01*
%TO.C,C14*%
X175258000Y-97295580D02*
X175258000Y-97014420D01*
X176278000Y-97295580D02*
X176278000Y-97014420D01*
%TO.C,C11*%
X155080580Y-80897000D02*
X154799420Y-80897000D01*
X155080580Y-81917000D02*
X154799420Y-81917000D01*
%TO.C,C8*%
X162816000Y-84722580D02*
X162816000Y-84441420D01*
X161796000Y-84722580D02*
X161796000Y-84441420D01*
%TO.C,C5*%
X147830000Y-78245580D02*
X147830000Y-77964420D01*
X146810000Y-78245580D02*
X146810000Y-77964420D01*
%TO.C,C4*%
X141480000Y-74435580D02*
X141480000Y-74154420D01*
X140460000Y-74435580D02*
X140460000Y-74154420D01*
%TO.C,C2*%
X141480000Y-82055580D02*
X141480000Y-81774420D01*
X140460000Y-82055580D02*
X140460000Y-81774420D01*
%TO.C,C1*%
X144020000Y-74435580D02*
X144020000Y-74154420D01*
X143000000Y-74435580D02*
X143000000Y-74154420D01*
%TO.C,R39*%
D14*
X181209904Y-120656285D02*
X180828952Y-120922952D01*
X181209904Y-121113428D02*
X180409904Y-121113428D01*
X180409904Y-120808666D01*
X180448000Y-120732476D01*
X180486095Y-120694380D01*
X180562285Y-120656285D01*
X180676571Y-120656285D01*
X180752761Y-120694380D01*
X180790857Y-120732476D01*
X180828952Y-120808666D01*
X180828952Y-121113428D01*
X180409904Y-120389619D02*
X180409904Y-119894380D01*
X180714666Y-120161047D01*
X180714666Y-120046761D01*
X180752761Y-119970571D01*
X180790857Y-119932476D01*
X180867047Y-119894380D01*
X181057523Y-119894380D01*
X181133714Y-119932476D01*
X181171809Y-119970571D01*
X181209904Y-120046761D01*
X181209904Y-120275333D01*
X181171809Y-120351523D01*
X181133714Y-120389619D01*
X181209904Y-119513428D02*
X181209904Y-119361047D01*
X181171809Y-119284857D01*
X181133714Y-119246761D01*
X181019428Y-119170571D01*
X180867047Y-119132476D01*
X180562285Y-119132476D01*
X180486095Y-119170571D01*
X180448000Y-119208666D01*
X180409904Y-119284857D01*
X180409904Y-119437238D01*
X180448000Y-119513428D01*
X180486095Y-119551523D01*
X180562285Y-119589619D01*
X180752761Y-119589619D01*
X180828952Y-119551523D01*
X180867047Y-119513428D01*
X180905142Y-119437238D01*
X180905142Y-119284857D01*
X180867047Y-119208666D01*
X180828952Y-119170571D01*
X180752761Y-119132476D01*
%TO.C,R38*%
X176477904Y-120656285D02*
X176096952Y-120922952D01*
X176477904Y-121113428D02*
X175677904Y-121113428D01*
X175677904Y-120808666D01*
X175716000Y-120732476D01*
X175754095Y-120694380D01*
X175830285Y-120656285D01*
X175944571Y-120656285D01*
X176020761Y-120694380D01*
X176058857Y-120732476D01*
X176096952Y-120808666D01*
X176096952Y-121113428D01*
X175677904Y-120389619D02*
X175677904Y-119894380D01*
X175982666Y-120161047D01*
X175982666Y-120046761D01*
X176020761Y-119970571D01*
X176058857Y-119932476D01*
X176135047Y-119894380D01*
X176325523Y-119894380D01*
X176401714Y-119932476D01*
X176439809Y-119970571D01*
X176477904Y-120046761D01*
X176477904Y-120275333D01*
X176439809Y-120351523D01*
X176401714Y-120389619D01*
X176020761Y-119437238D02*
X175982666Y-119513428D01*
X175944571Y-119551523D01*
X175868380Y-119589619D01*
X175830285Y-119589619D01*
X175754095Y-119551523D01*
X175716000Y-119513428D01*
X175677904Y-119437238D01*
X175677904Y-119284857D01*
X175716000Y-119208666D01*
X175754095Y-119170571D01*
X175830285Y-119132476D01*
X175868380Y-119132476D01*
X175944571Y-119170571D01*
X175982666Y-119208666D01*
X176020761Y-119284857D01*
X176020761Y-119437238D01*
X176058857Y-119513428D01*
X176096952Y-119551523D01*
X176173142Y-119589619D01*
X176325523Y-119589619D01*
X176401714Y-119551523D01*
X176439809Y-119513428D01*
X176477904Y-119437238D01*
X176477904Y-119284857D01*
X176439809Y-119208666D01*
X176401714Y-119170571D01*
X176325523Y-119132476D01*
X176173142Y-119132476D01*
X176096952Y-119170571D01*
X176058857Y-119208666D01*
X176020761Y-119284857D01*
%TO.C,U21*%
X191414523Y-96716904D02*
X191414523Y-97364523D01*
X191452619Y-97440714D01*
X191490714Y-97478809D01*
X191566904Y-97516904D01*
X191719285Y-97516904D01*
X191795476Y-97478809D01*
X191833571Y-97440714D01*
X191871666Y-97364523D01*
X191871666Y-96716904D01*
X192214523Y-96793095D02*
X192252619Y-96755000D01*
X192328809Y-96716904D01*
X192519285Y-96716904D01*
X192595476Y-96755000D01*
X192633571Y-96793095D01*
X192671666Y-96869285D01*
X192671666Y-96945476D01*
X192633571Y-97059761D01*
X192176428Y-97516904D01*
X192671666Y-97516904D01*
X193433571Y-97516904D02*
X192976428Y-97516904D01*
X193205000Y-97516904D02*
X193205000Y-96716904D01*
X193128809Y-96831190D01*
X193052619Y-96907380D01*
X192976428Y-96945476D01*
%TO.C,J7*%
X129527333Y-89477904D02*
X129527333Y-90049333D01*
X129489238Y-90163619D01*
X129413047Y-90239809D01*
X129298761Y-90277904D01*
X129222571Y-90277904D01*
X129832095Y-89477904D02*
X130365428Y-89477904D01*
X130022571Y-90277904D01*
%TO.C,J4*%
X129781333Y-107511904D02*
X129781333Y-108083333D01*
X129743238Y-108197619D01*
X129667047Y-108273809D01*
X129552761Y-108311904D01*
X129476571Y-108311904D01*
X130505142Y-107778571D02*
X130505142Y-108311904D01*
X130314666Y-107473809D02*
X130124190Y-108045238D01*
X130619428Y-108045238D01*
%TO.C,C45*%
X167125714Y-113569714D02*
X167087619Y-113607809D01*
X166973333Y-113645904D01*
X166897142Y-113645904D01*
X166782857Y-113607809D01*
X166706666Y-113531619D01*
X166668571Y-113455428D01*
X166630476Y-113303047D01*
X166630476Y-113188761D01*
X166668571Y-113036380D01*
X166706666Y-112960190D01*
X166782857Y-112884000D01*
X166897142Y-112845904D01*
X166973333Y-112845904D01*
X167087619Y-112884000D01*
X167125714Y-112922095D01*
X167811428Y-113112571D02*
X167811428Y-113645904D01*
X167620952Y-112807809D02*
X167430476Y-113379238D01*
X167925714Y-113379238D01*
X168611428Y-112845904D02*
X168230476Y-112845904D01*
X168192380Y-113226857D01*
X168230476Y-113188761D01*
X168306666Y-113150666D01*
X168497142Y-113150666D01*
X168573333Y-113188761D01*
X168611428Y-113226857D01*
X168649523Y-113303047D01*
X168649523Y-113493523D01*
X168611428Y-113569714D01*
X168573333Y-113607809D01*
X168497142Y-113645904D01*
X168306666Y-113645904D01*
X168230476Y-113607809D01*
X168192380Y-113569714D01*
%TO.C,C44*%
X167125714Y-111791714D02*
X167087619Y-111829809D01*
X166973333Y-111867904D01*
X166897142Y-111867904D01*
X166782857Y-111829809D01*
X166706666Y-111753619D01*
X166668571Y-111677428D01*
X166630476Y-111525047D01*
X166630476Y-111410761D01*
X166668571Y-111258380D01*
X166706666Y-111182190D01*
X166782857Y-111106000D01*
X166897142Y-111067904D01*
X166973333Y-111067904D01*
X167087619Y-111106000D01*
X167125714Y-111144095D01*
X167811428Y-111334571D02*
X167811428Y-111867904D01*
X167620952Y-111029809D02*
X167430476Y-111601238D01*
X167925714Y-111601238D01*
X168573333Y-111334571D02*
X168573333Y-111867904D01*
X168382857Y-111029809D02*
X168192380Y-111601238D01*
X168687619Y-111601238D01*
%TO.C,U19*%
X173295904Y-107162476D02*
X173943523Y-107162476D01*
X174019714Y-107124380D01*
X174057809Y-107086285D01*
X174095904Y-107010095D01*
X174095904Y-106857714D01*
X174057809Y-106781523D01*
X174019714Y-106743428D01*
X173943523Y-106705333D01*
X173295904Y-106705333D01*
X174095904Y-105905333D02*
X174095904Y-106362476D01*
X174095904Y-106133904D02*
X173295904Y-106133904D01*
X173410190Y-106210095D01*
X173486380Y-106286285D01*
X173524476Y-106362476D01*
X174095904Y-105524380D02*
X174095904Y-105372000D01*
X174057809Y-105295809D01*
X174019714Y-105257714D01*
X173905428Y-105181523D01*
X173753047Y-105143428D01*
X173448285Y-105143428D01*
X173372095Y-105181523D01*
X173334000Y-105219619D01*
X173295904Y-105295809D01*
X173295904Y-105448190D01*
X173334000Y-105524380D01*
X173372095Y-105562476D01*
X173448285Y-105600571D01*
X173638761Y-105600571D01*
X173714952Y-105562476D01*
X173753047Y-105524380D01*
X173791142Y-105448190D01*
X173791142Y-105295809D01*
X173753047Y-105219619D01*
X173714952Y-105181523D01*
X173638761Y-105143428D01*
%TO.C,U16*%
X136677523Y-106495904D02*
X136677523Y-107143523D01*
X136715619Y-107219714D01*
X136753714Y-107257809D01*
X136829904Y-107295904D01*
X136982285Y-107295904D01*
X137058476Y-107257809D01*
X137096571Y-107219714D01*
X137134666Y-107143523D01*
X137134666Y-106495904D01*
X137934666Y-107295904D02*
X137477523Y-107295904D01*
X137706095Y-107295904D02*
X137706095Y-106495904D01*
X137629904Y-106610190D01*
X137553714Y-106686380D01*
X137477523Y-106724476D01*
X138620380Y-106495904D02*
X138468000Y-106495904D01*
X138391809Y-106534000D01*
X138353714Y-106572095D01*
X138277523Y-106686380D01*
X138239428Y-106838761D01*
X138239428Y-107143523D01*
X138277523Y-107219714D01*
X138315619Y-107257809D01*
X138391809Y-107295904D01*
X138544190Y-107295904D01*
X138620380Y-107257809D01*
X138658476Y-107219714D01*
X138696571Y-107143523D01*
X138696571Y-106953047D01*
X138658476Y-106876857D01*
X138620380Y-106838761D01*
X138544190Y-106800666D01*
X138391809Y-106800666D01*
X138315619Y-106838761D01*
X138277523Y-106876857D01*
X138239428Y-106953047D01*
%TO.C,U9*%
X137312476Y-87953904D02*
X137312476Y-88601523D01*
X137350571Y-88677714D01*
X137388666Y-88715809D01*
X137464857Y-88753904D01*
X137617238Y-88753904D01*
X137693428Y-88715809D01*
X137731523Y-88677714D01*
X137769619Y-88601523D01*
X137769619Y-87953904D01*
X138188666Y-88753904D02*
X138341047Y-88753904D01*
X138417238Y-88715809D01*
X138455333Y-88677714D01*
X138531523Y-88563428D01*
X138569619Y-88411047D01*
X138569619Y-88106285D01*
X138531523Y-88030095D01*
X138493428Y-87992000D01*
X138417238Y-87953904D01*
X138264857Y-87953904D01*
X138188666Y-87992000D01*
X138150571Y-88030095D01*
X138112476Y-88106285D01*
X138112476Y-88296761D01*
X138150571Y-88372952D01*
X138188666Y-88411047D01*
X138264857Y-88449142D01*
X138417238Y-88449142D01*
X138493428Y-88411047D01*
X138531523Y-88372952D01*
X138569619Y-88296761D01*
%TO.C,R37*%
X143503714Y-105009904D02*
X143237047Y-104628952D01*
X143046571Y-105009904D02*
X143046571Y-104209904D01*
X143351333Y-104209904D01*
X143427523Y-104248000D01*
X143465619Y-104286095D01*
X143503714Y-104362285D01*
X143503714Y-104476571D01*
X143465619Y-104552761D01*
X143427523Y-104590857D01*
X143351333Y-104628952D01*
X143046571Y-104628952D01*
X143770380Y-104209904D02*
X144265619Y-104209904D01*
X143998952Y-104514666D01*
X144113238Y-104514666D01*
X144189428Y-104552761D01*
X144227523Y-104590857D01*
X144265619Y-104667047D01*
X144265619Y-104857523D01*
X144227523Y-104933714D01*
X144189428Y-104971809D01*
X144113238Y-105009904D01*
X143884666Y-105009904D01*
X143808476Y-104971809D01*
X143770380Y-104933714D01*
X144532285Y-104209904D02*
X145065619Y-104209904D01*
X144722761Y-105009904D01*
%TO.C,R36*%
X144265714Y-86467904D02*
X143999047Y-86086952D01*
X143808571Y-86467904D02*
X143808571Y-85667904D01*
X144113333Y-85667904D01*
X144189523Y-85706000D01*
X144227619Y-85744095D01*
X144265714Y-85820285D01*
X144265714Y-85934571D01*
X144227619Y-86010761D01*
X144189523Y-86048857D01*
X144113333Y-86086952D01*
X143808571Y-86086952D01*
X144532380Y-85667904D02*
X145027619Y-85667904D01*
X144760952Y-85972666D01*
X144875238Y-85972666D01*
X144951428Y-86010761D01*
X144989523Y-86048857D01*
X145027619Y-86125047D01*
X145027619Y-86315523D01*
X144989523Y-86391714D01*
X144951428Y-86429809D01*
X144875238Y-86467904D01*
X144646666Y-86467904D01*
X144570476Y-86429809D01*
X144532380Y-86391714D01*
X145713333Y-85667904D02*
X145560952Y-85667904D01*
X145484761Y-85706000D01*
X145446666Y-85744095D01*
X145370476Y-85858380D01*
X145332380Y-86010761D01*
X145332380Y-86315523D01*
X145370476Y-86391714D01*
X145408571Y-86429809D01*
X145484761Y-86467904D01*
X145637142Y-86467904D01*
X145713333Y-86429809D01*
X145751428Y-86391714D01*
X145789523Y-86315523D01*
X145789523Y-86125047D01*
X145751428Y-86048857D01*
X145713333Y-86010761D01*
X145637142Y-85972666D01*
X145484761Y-85972666D01*
X145408571Y-86010761D01*
X145370476Y-86048857D01*
X145332380Y-86125047D01*
%TO.C,R30*%
X136759904Y-109734285D02*
X136378952Y-110000952D01*
X136759904Y-110191428D02*
X135959904Y-110191428D01*
X135959904Y-109886666D01*
X135998000Y-109810476D01*
X136036095Y-109772380D01*
X136112285Y-109734285D01*
X136226571Y-109734285D01*
X136302761Y-109772380D01*
X136340857Y-109810476D01*
X136378952Y-109886666D01*
X136378952Y-110191428D01*
X135959904Y-109467619D02*
X135959904Y-108972380D01*
X136264666Y-109239047D01*
X136264666Y-109124761D01*
X136302761Y-109048571D01*
X136340857Y-109010476D01*
X136417047Y-108972380D01*
X136607523Y-108972380D01*
X136683714Y-109010476D01*
X136721809Y-109048571D01*
X136759904Y-109124761D01*
X136759904Y-109353333D01*
X136721809Y-109429523D01*
X136683714Y-109467619D01*
X135959904Y-108477142D02*
X135959904Y-108400952D01*
X135998000Y-108324761D01*
X136036095Y-108286666D01*
X136112285Y-108248571D01*
X136264666Y-108210476D01*
X136455142Y-108210476D01*
X136607523Y-108248571D01*
X136683714Y-108286666D01*
X136721809Y-108324761D01*
X136759904Y-108400952D01*
X136759904Y-108477142D01*
X136721809Y-108553333D01*
X136683714Y-108591428D01*
X136607523Y-108629523D01*
X136455142Y-108667619D01*
X136264666Y-108667619D01*
X136112285Y-108629523D01*
X136036095Y-108591428D01*
X135998000Y-108553333D01*
X135959904Y-108477142D01*
%TO.C,R9*%
X136759904Y-90811333D02*
X136378952Y-91078000D01*
X136759904Y-91268476D02*
X135959904Y-91268476D01*
X135959904Y-90963714D01*
X135998000Y-90887523D01*
X136036095Y-90849428D01*
X136112285Y-90811333D01*
X136226571Y-90811333D01*
X136302761Y-90849428D01*
X136340857Y-90887523D01*
X136378952Y-90963714D01*
X136378952Y-91268476D01*
X136759904Y-90430380D02*
X136759904Y-90278000D01*
X136721809Y-90201809D01*
X136683714Y-90163714D01*
X136569428Y-90087523D01*
X136417047Y-90049428D01*
X136112285Y-90049428D01*
X136036095Y-90087523D01*
X135998000Y-90125619D01*
X135959904Y-90201809D01*
X135959904Y-90354190D01*
X135998000Y-90430380D01*
X136036095Y-90468476D01*
X136112285Y-90506571D01*
X136302761Y-90506571D01*
X136378952Y-90468476D01*
X136417047Y-90430380D01*
X136455142Y-90354190D01*
X136455142Y-90201809D01*
X136417047Y-90125619D01*
X136378952Y-90087523D01*
X136302761Y-90049428D01*
%TO.C,R35*%
X161283714Y-105771904D02*
X161017047Y-105390952D01*
X160826571Y-105771904D02*
X160826571Y-104971904D01*
X161131333Y-104971904D01*
X161207523Y-105010000D01*
X161245619Y-105048095D01*
X161283714Y-105124285D01*
X161283714Y-105238571D01*
X161245619Y-105314761D01*
X161207523Y-105352857D01*
X161131333Y-105390952D01*
X160826571Y-105390952D01*
X161550380Y-104971904D02*
X162045619Y-104971904D01*
X161778952Y-105276666D01*
X161893238Y-105276666D01*
X161969428Y-105314761D01*
X162007523Y-105352857D01*
X162045619Y-105429047D01*
X162045619Y-105619523D01*
X162007523Y-105695714D01*
X161969428Y-105733809D01*
X161893238Y-105771904D01*
X161664666Y-105771904D01*
X161588476Y-105733809D01*
X161550380Y-105695714D01*
X162769428Y-104971904D02*
X162388476Y-104971904D01*
X162350380Y-105352857D01*
X162388476Y-105314761D01*
X162464666Y-105276666D01*
X162655142Y-105276666D01*
X162731333Y-105314761D01*
X162769428Y-105352857D01*
X162807523Y-105429047D01*
X162807523Y-105619523D01*
X162769428Y-105695714D01*
X162731333Y-105733809D01*
X162655142Y-105771904D01*
X162464666Y-105771904D01*
X162388476Y-105733809D01*
X162350380Y-105695714D01*
%TO.C,R25*%
X164331714Y-115169904D02*
X164065047Y-114788952D01*
X163874571Y-115169904D02*
X163874571Y-114369904D01*
X164179333Y-114369904D01*
X164255523Y-114408000D01*
X164293619Y-114446095D01*
X164331714Y-114522285D01*
X164331714Y-114636571D01*
X164293619Y-114712761D01*
X164255523Y-114750857D01*
X164179333Y-114788952D01*
X163874571Y-114788952D01*
X164636476Y-114446095D02*
X164674571Y-114408000D01*
X164750761Y-114369904D01*
X164941238Y-114369904D01*
X165017428Y-114408000D01*
X165055523Y-114446095D01*
X165093619Y-114522285D01*
X165093619Y-114598476D01*
X165055523Y-114712761D01*
X164598380Y-115169904D01*
X165093619Y-115169904D01*
X165817428Y-114369904D02*
X165436476Y-114369904D01*
X165398380Y-114750857D01*
X165436476Y-114712761D01*
X165512666Y-114674666D01*
X165703142Y-114674666D01*
X165779333Y-114712761D01*
X165817428Y-114750857D01*
X165855523Y-114827047D01*
X165855523Y-115017523D01*
X165817428Y-115093714D01*
X165779333Y-115131809D01*
X165703142Y-115169904D01*
X165512666Y-115169904D01*
X165436476Y-115131809D01*
X165398380Y-115093714D01*
%TO.C,R23*%
X164331714Y-117201904D02*
X164065047Y-116820952D01*
X163874571Y-117201904D02*
X163874571Y-116401904D01*
X164179333Y-116401904D01*
X164255523Y-116440000D01*
X164293619Y-116478095D01*
X164331714Y-116554285D01*
X164331714Y-116668571D01*
X164293619Y-116744761D01*
X164255523Y-116782857D01*
X164179333Y-116820952D01*
X163874571Y-116820952D01*
X164636476Y-116478095D02*
X164674571Y-116440000D01*
X164750761Y-116401904D01*
X164941238Y-116401904D01*
X165017428Y-116440000D01*
X165055523Y-116478095D01*
X165093619Y-116554285D01*
X165093619Y-116630476D01*
X165055523Y-116744761D01*
X164598380Y-117201904D01*
X165093619Y-117201904D01*
X165360285Y-116401904D02*
X165855523Y-116401904D01*
X165588857Y-116706666D01*
X165703142Y-116706666D01*
X165779333Y-116744761D01*
X165817428Y-116782857D01*
X165855523Y-116859047D01*
X165855523Y-117049523D01*
X165817428Y-117125714D01*
X165779333Y-117163809D01*
X165703142Y-117201904D01*
X165474571Y-117201904D01*
X165398380Y-117163809D01*
X165360285Y-117125714D01*
%TO.C,J6*%
X122669333Y-109543904D02*
X122669333Y-110115333D01*
X122631238Y-110229619D01*
X122555047Y-110305809D01*
X122440761Y-110343904D01*
X122364571Y-110343904D01*
X123393142Y-109543904D02*
X123240761Y-109543904D01*
X123164571Y-109582000D01*
X123126476Y-109620095D01*
X123050285Y-109734380D01*
X123012190Y-109886761D01*
X123012190Y-110191523D01*
X123050285Y-110267714D01*
X123088380Y-110305809D01*
X123164571Y-110343904D01*
X123316952Y-110343904D01*
X123393142Y-110305809D01*
X123431238Y-110267714D01*
X123469333Y-110191523D01*
X123469333Y-110001047D01*
X123431238Y-109924857D01*
X123393142Y-109886761D01*
X123316952Y-109848666D01*
X123164571Y-109848666D01*
X123088380Y-109886761D01*
X123050285Y-109924857D01*
X123012190Y-110001047D01*
%TO.C,J1*%
X122669333Y-91509904D02*
X122669333Y-92081333D01*
X122631238Y-92195619D01*
X122555047Y-92271809D01*
X122440761Y-92309904D01*
X122364571Y-92309904D01*
X123469333Y-92309904D02*
X123012190Y-92309904D01*
X123240761Y-92309904D02*
X123240761Y-91509904D01*
X123164571Y-91624190D01*
X123088380Y-91700380D01*
X123012190Y-91738476D01*
%TO.C,U20*%
X169443523Y-114115904D02*
X169443523Y-114763523D01*
X169481619Y-114839714D01*
X169519714Y-114877809D01*
X169595904Y-114915904D01*
X169748285Y-114915904D01*
X169824476Y-114877809D01*
X169862571Y-114839714D01*
X169900666Y-114763523D01*
X169900666Y-114115904D01*
X170243523Y-114192095D02*
X170281619Y-114154000D01*
X170357809Y-114115904D01*
X170548285Y-114115904D01*
X170624476Y-114154000D01*
X170662571Y-114192095D01*
X170700666Y-114268285D01*
X170700666Y-114344476D01*
X170662571Y-114458761D01*
X170205428Y-114915904D01*
X170700666Y-114915904D01*
X171195904Y-114115904D02*
X171272095Y-114115904D01*
X171348285Y-114154000D01*
X171386380Y-114192095D01*
X171424476Y-114268285D01*
X171462571Y-114420666D01*
X171462571Y-114611142D01*
X171424476Y-114763523D01*
X171386380Y-114839714D01*
X171348285Y-114877809D01*
X171272095Y-114915904D01*
X171195904Y-114915904D01*
X171119714Y-114877809D01*
X171081619Y-114839714D01*
X171043523Y-114763523D01*
X171005428Y-114611142D01*
X171005428Y-114420666D01*
X171043523Y-114268285D01*
X171081619Y-114192095D01*
X171119714Y-114154000D01*
X171195904Y-114115904D01*
%TO.C,R22*%
X177793714Y-113645904D02*
X177527047Y-113264952D01*
X177336571Y-113645904D02*
X177336571Y-112845904D01*
X177641333Y-112845904D01*
X177717523Y-112884000D01*
X177755619Y-112922095D01*
X177793714Y-112998285D01*
X177793714Y-113112571D01*
X177755619Y-113188761D01*
X177717523Y-113226857D01*
X177641333Y-113264952D01*
X177336571Y-113264952D01*
X178098476Y-112922095D02*
X178136571Y-112884000D01*
X178212761Y-112845904D01*
X178403238Y-112845904D01*
X178479428Y-112884000D01*
X178517523Y-112922095D01*
X178555619Y-112998285D01*
X178555619Y-113074476D01*
X178517523Y-113188761D01*
X178060380Y-113645904D01*
X178555619Y-113645904D01*
X178860380Y-112922095D02*
X178898476Y-112884000D01*
X178974666Y-112845904D01*
X179165142Y-112845904D01*
X179241333Y-112884000D01*
X179279428Y-112922095D01*
X179317523Y-112998285D01*
X179317523Y-113074476D01*
X179279428Y-113188761D01*
X178822285Y-113645904D01*
X179317523Y-113645904D01*
%TO.C,C43*%
X174943714Y-85109285D02*
X174981809Y-85147380D01*
X175019904Y-85261666D01*
X175019904Y-85337857D01*
X174981809Y-85452142D01*
X174905619Y-85528333D01*
X174829428Y-85566428D01*
X174677047Y-85604523D01*
X174562761Y-85604523D01*
X174410380Y-85566428D01*
X174334190Y-85528333D01*
X174258000Y-85452142D01*
X174219904Y-85337857D01*
X174219904Y-85261666D01*
X174258000Y-85147380D01*
X174296095Y-85109285D01*
X174486571Y-84423571D02*
X175019904Y-84423571D01*
X174181809Y-84614047D02*
X174753238Y-84804523D01*
X174753238Y-84309285D01*
X174219904Y-84080714D02*
X174219904Y-83585476D01*
X174524666Y-83852142D01*
X174524666Y-83737857D01*
X174562761Y-83661666D01*
X174600857Y-83623571D01*
X174677047Y-83585476D01*
X174867523Y-83585476D01*
X174943714Y-83623571D01*
X174981809Y-83661666D01*
X175019904Y-83737857D01*
X175019904Y-83966428D01*
X174981809Y-84042619D01*
X174943714Y-84080714D01*
%TO.C,C42*%
X169919714Y-124491714D02*
X169881619Y-124529809D01*
X169767333Y-124567904D01*
X169691142Y-124567904D01*
X169576857Y-124529809D01*
X169500666Y-124453619D01*
X169462571Y-124377428D01*
X169424476Y-124225047D01*
X169424476Y-124110761D01*
X169462571Y-123958380D01*
X169500666Y-123882190D01*
X169576857Y-123806000D01*
X169691142Y-123767904D01*
X169767333Y-123767904D01*
X169881619Y-123806000D01*
X169919714Y-123844095D01*
X170605428Y-124034571D02*
X170605428Y-124567904D01*
X170414952Y-123729809D02*
X170224476Y-124301238D01*
X170719714Y-124301238D01*
X170986380Y-123844095D02*
X171024476Y-123806000D01*
X171100666Y-123767904D01*
X171291142Y-123767904D01*
X171367333Y-123806000D01*
X171405428Y-123844095D01*
X171443523Y-123920285D01*
X171443523Y-123996476D01*
X171405428Y-124110761D01*
X170948285Y-124567904D01*
X171443523Y-124567904D01*
%TO.C,C22*%
X165131714Y-106686285D02*
X165169809Y-106724380D01*
X165207904Y-106838666D01*
X165207904Y-106914857D01*
X165169809Y-107029142D01*
X165093619Y-107105333D01*
X165017428Y-107143428D01*
X164865047Y-107181523D01*
X164750761Y-107181523D01*
X164598380Y-107143428D01*
X164522190Y-107105333D01*
X164446000Y-107029142D01*
X164407904Y-106914857D01*
X164407904Y-106838666D01*
X164446000Y-106724380D01*
X164484095Y-106686285D01*
X164484095Y-106381523D02*
X164446000Y-106343428D01*
X164407904Y-106267238D01*
X164407904Y-106076761D01*
X164446000Y-106000571D01*
X164484095Y-105962476D01*
X164560285Y-105924380D01*
X164636476Y-105924380D01*
X164750761Y-105962476D01*
X165207904Y-106419619D01*
X165207904Y-105924380D01*
X164484095Y-105619619D02*
X164446000Y-105581523D01*
X164407904Y-105505333D01*
X164407904Y-105314857D01*
X164446000Y-105238666D01*
X164484095Y-105200571D01*
X164560285Y-105162476D01*
X164636476Y-105162476D01*
X164750761Y-105200571D01*
X165207904Y-105657714D01*
X165207904Y-105162476D01*
%TO.C,U18*%
X149123523Y-106241904D02*
X149123523Y-106889523D01*
X149161619Y-106965714D01*
X149199714Y-107003809D01*
X149275904Y-107041904D01*
X149428285Y-107041904D01*
X149504476Y-107003809D01*
X149542571Y-106965714D01*
X149580666Y-106889523D01*
X149580666Y-106241904D01*
X150380666Y-107041904D02*
X149923523Y-107041904D01*
X150152095Y-107041904D02*
X150152095Y-106241904D01*
X150075904Y-106356190D01*
X149999714Y-106432380D01*
X149923523Y-106470476D01*
X150837809Y-106584761D02*
X150761619Y-106546666D01*
X150723523Y-106508571D01*
X150685428Y-106432380D01*
X150685428Y-106394285D01*
X150723523Y-106318095D01*
X150761619Y-106280000D01*
X150837809Y-106241904D01*
X150990190Y-106241904D01*
X151066380Y-106280000D01*
X151104476Y-106318095D01*
X151142571Y-106394285D01*
X151142571Y-106432380D01*
X151104476Y-106508571D01*
X151066380Y-106546666D01*
X150990190Y-106584761D01*
X150837809Y-106584761D01*
X150761619Y-106622857D01*
X150723523Y-106660952D01*
X150685428Y-106737142D01*
X150685428Y-106889523D01*
X150723523Y-106965714D01*
X150761619Y-107003809D01*
X150837809Y-107041904D01*
X150990190Y-107041904D01*
X151066380Y-107003809D01*
X151104476Y-106965714D01*
X151142571Y-106889523D01*
X151142571Y-106737142D01*
X151104476Y-106660952D01*
X151066380Y-106622857D01*
X150990190Y-106584761D01*
%TO.C,U17*%
X150183904Y-118846476D02*
X150831523Y-118846476D01*
X150907714Y-118808380D01*
X150945809Y-118770285D01*
X150983904Y-118694095D01*
X150983904Y-118541714D01*
X150945809Y-118465523D01*
X150907714Y-118427428D01*
X150831523Y-118389333D01*
X150183904Y-118389333D01*
X150983904Y-117589333D02*
X150983904Y-118046476D01*
X150983904Y-117817904D02*
X150183904Y-117817904D01*
X150298190Y-117894095D01*
X150374380Y-117970285D01*
X150412476Y-118046476D01*
X150183904Y-117322666D02*
X150183904Y-116789333D01*
X150983904Y-117132190D01*
%TO.C,U12*%
X143579904Y-119100476D02*
X144227523Y-119100476D01*
X144303714Y-119062380D01*
X144341809Y-119024285D01*
X144379904Y-118948095D01*
X144379904Y-118795714D01*
X144341809Y-118719523D01*
X144303714Y-118681428D01*
X144227523Y-118643333D01*
X143579904Y-118643333D01*
X144379904Y-117843333D02*
X144379904Y-118300476D01*
X144379904Y-118071904D02*
X143579904Y-118071904D01*
X143694190Y-118148095D01*
X143770380Y-118224285D01*
X143808476Y-118300476D01*
X143656095Y-117538571D02*
X143618000Y-117500476D01*
X143579904Y-117424285D01*
X143579904Y-117233809D01*
X143618000Y-117157619D01*
X143656095Y-117119523D01*
X143732285Y-117081428D01*
X143808476Y-117081428D01*
X143922761Y-117119523D01*
X144379904Y-117576666D01*
X144379904Y-117081428D01*
%TO.C,U7*%
X137737904Y-116179523D02*
X138385523Y-116179523D01*
X138461714Y-116141428D01*
X138499809Y-116103333D01*
X138537904Y-116027142D01*
X138537904Y-115874761D01*
X138499809Y-115798571D01*
X138461714Y-115760476D01*
X138385523Y-115722380D01*
X137737904Y-115722380D01*
X137737904Y-115417619D02*
X137737904Y-114884285D01*
X138537904Y-115227142D01*
%TO.C,U6*%
X153314476Y-86683904D02*
X153314476Y-87331523D01*
X153352571Y-87407714D01*
X153390666Y-87445809D01*
X153466857Y-87483904D01*
X153619238Y-87483904D01*
X153695428Y-87445809D01*
X153733523Y-87407714D01*
X153771619Y-87331523D01*
X153771619Y-86683904D01*
X154495428Y-86683904D02*
X154343047Y-86683904D01*
X154266857Y-86722000D01*
X154228761Y-86760095D01*
X154152571Y-86874380D01*
X154114476Y-87026761D01*
X154114476Y-87331523D01*
X154152571Y-87407714D01*
X154190666Y-87445809D01*
X154266857Y-87483904D01*
X154419238Y-87483904D01*
X154495428Y-87445809D01*
X154533523Y-87407714D01*
X154571619Y-87331523D01*
X154571619Y-87141047D01*
X154533523Y-87064857D01*
X154495428Y-87026761D01*
X154419238Y-86988666D01*
X154266857Y-86988666D01*
X154190666Y-87026761D01*
X154152571Y-87064857D01*
X154114476Y-87141047D01*
%TO.C,R21*%
X150983904Y-114052285D02*
X150602952Y-114318952D01*
X150983904Y-114509428D02*
X150183904Y-114509428D01*
X150183904Y-114204666D01*
X150222000Y-114128476D01*
X150260095Y-114090380D01*
X150336285Y-114052285D01*
X150450571Y-114052285D01*
X150526761Y-114090380D01*
X150564857Y-114128476D01*
X150602952Y-114204666D01*
X150602952Y-114509428D01*
X150260095Y-113747523D02*
X150222000Y-113709428D01*
X150183904Y-113633238D01*
X150183904Y-113442761D01*
X150222000Y-113366571D01*
X150260095Y-113328476D01*
X150336285Y-113290380D01*
X150412476Y-113290380D01*
X150526761Y-113328476D01*
X150983904Y-113785619D01*
X150983904Y-113290380D01*
X150983904Y-112528476D02*
X150983904Y-112985619D01*
X150983904Y-112757047D02*
X150183904Y-112757047D01*
X150298190Y-112833238D01*
X150374380Y-112909428D01*
X150412476Y-112985619D01*
%TO.C,R20*%
X150983904Y-95764285D02*
X150602952Y-96030952D01*
X150983904Y-96221428D02*
X150183904Y-96221428D01*
X150183904Y-95916666D01*
X150222000Y-95840476D01*
X150260095Y-95802380D01*
X150336285Y-95764285D01*
X150450571Y-95764285D01*
X150526761Y-95802380D01*
X150564857Y-95840476D01*
X150602952Y-95916666D01*
X150602952Y-96221428D01*
X150260095Y-95459523D02*
X150222000Y-95421428D01*
X150183904Y-95345238D01*
X150183904Y-95154761D01*
X150222000Y-95078571D01*
X150260095Y-95040476D01*
X150336285Y-95002380D01*
X150412476Y-95002380D01*
X150526761Y-95040476D01*
X150983904Y-95497619D01*
X150983904Y-95002380D01*
X150183904Y-94507142D02*
X150183904Y-94430952D01*
X150222000Y-94354761D01*
X150260095Y-94316666D01*
X150336285Y-94278571D01*
X150488666Y-94240476D01*
X150679142Y-94240476D01*
X150831523Y-94278571D01*
X150907714Y-94316666D01*
X150945809Y-94354761D01*
X150983904Y-94430952D01*
X150983904Y-94507142D01*
X150945809Y-94583333D01*
X150907714Y-94621428D01*
X150831523Y-94659523D01*
X150679142Y-94697619D01*
X150488666Y-94697619D01*
X150336285Y-94659523D01*
X150260095Y-94621428D01*
X150222000Y-94583333D01*
X150183904Y-94507142D01*
%TO.C,R17*%
X155555904Y-113798285D02*
X155174952Y-114064952D01*
X155555904Y-114255428D02*
X154755904Y-114255428D01*
X154755904Y-113950666D01*
X154794000Y-113874476D01*
X154832095Y-113836380D01*
X154908285Y-113798285D01*
X155022571Y-113798285D01*
X155098761Y-113836380D01*
X155136857Y-113874476D01*
X155174952Y-113950666D01*
X155174952Y-114255428D01*
X155555904Y-113036380D02*
X155555904Y-113493523D01*
X155555904Y-113264952D02*
X154755904Y-113264952D01*
X154870190Y-113341142D01*
X154946380Y-113417333D01*
X154984476Y-113493523D01*
X154755904Y-112769714D02*
X154755904Y-112236380D01*
X155555904Y-112579238D01*
%TO.C,R16*%
X150869714Y-111867904D02*
X150603047Y-111486952D01*
X150412571Y-111867904D02*
X150412571Y-111067904D01*
X150717333Y-111067904D01*
X150793523Y-111106000D01*
X150831619Y-111144095D01*
X150869714Y-111220285D01*
X150869714Y-111334571D01*
X150831619Y-111410761D01*
X150793523Y-111448857D01*
X150717333Y-111486952D01*
X150412571Y-111486952D01*
X151631619Y-111867904D02*
X151174476Y-111867904D01*
X151403047Y-111867904D02*
X151403047Y-111067904D01*
X151326857Y-111182190D01*
X151250666Y-111258380D01*
X151174476Y-111296476D01*
X152317333Y-111067904D02*
X152164952Y-111067904D01*
X152088761Y-111106000D01*
X152050666Y-111144095D01*
X151974476Y-111258380D01*
X151936380Y-111410761D01*
X151936380Y-111715523D01*
X151974476Y-111791714D01*
X152012571Y-111829809D01*
X152088761Y-111867904D01*
X152241142Y-111867904D01*
X152317333Y-111829809D01*
X152355428Y-111791714D01*
X152393523Y-111715523D01*
X152393523Y-111525047D01*
X152355428Y-111448857D01*
X152317333Y-111410761D01*
X152241142Y-111372666D01*
X152088761Y-111372666D01*
X152012571Y-111410761D01*
X151974476Y-111448857D01*
X151936380Y-111525047D01*
%TO.C,R13*%
X145027714Y-119995904D02*
X144761047Y-119614952D01*
X144570571Y-119995904D02*
X144570571Y-119195904D01*
X144875333Y-119195904D01*
X144951523Y-119234000D01*
X144989619Y-119272095D01*
X145027714Y-119348285D01*
X145027714Y-119462571D01*
X144989619Y-119538761D01*
X144951523Y-119576857D01*
X144875333Y-119614952D01*
X144570571Y-119614952D01*
X145789619Y-119995904D02*
X145332476Y-119995904D01*
X145561047Y-119995904D02*
X145561047Y-119195904D01*
X145484857Y-119310190D01*
X145408666Y-119386380D01*
X145332476Y-119424476D01*
X146056285Y-119195904D02*
X146551523Y-119195904D01*
X146284857Y-119500666D01*
X146399142Y-119500666D01*
X146475333Y-119538761D01*
X146513428Y-119576857D01*
X146551523Y-119653047D01*
X146551523Y-119843523D01*
X146513428Y-119919714D01*
X146475333Y-119957809D01*
X146399142Y-119995904D01*
X146170571Y-119995904D01*
X146094380Y-119957809D01*
X146056285Y-119919714D01*
%TO.C,R12*%
X144773714Y-112121904D02*
X144507047Y-111740952D01*
X144316571Y-112121904D02*
X144316571Y-111321904D01*
X144621333Y-111321904D01*
X144697523Y-111360000D01*
X144735619Y-111398095D01*
X144773714Y-111474285D01*
X144773714Y-111588571D01*
X144735619Y-111664761D01*
X144697523Y-111702857D01*
X144621333Y-111740952D01*
X144316571Y-111740952D01*
X145535619Y-112121904D02*
X145078476Y-112121904D01*
X145307047Y-112121904D02*
X145307047Y-111321904D01*
X145230857Y-111436190D01*
X145154666Y-111512380D01*
X145078476Y-111550476D01*
X145840380Y-111398095D02*
X145878476Y-111360000D01*
X145954666Y-111321904D01*
X146145142Y-111321904D01*
X146221333Y-111360000D01*
X146259428Y-111398095D01*
X146297523Y-111474285D01*
X146297523Y-111550476D01*
X146259428Y-111664761D01*
X145802285Y-112121904D01*
X146297523Y-112121904D01*
%TO.C,R11*%
X138931714Y-112883904D02*
X138665047Y-112502952D01*
X138474571Y-112883904D02*
X138474571Y-112083904D01*
X138779333Y-112083904D01*
X138855523Y-112122000D01*
X138893619Y-112160095D01*
X138931714Y-112236285D01*
X138931714Y-112350571D01*
X138893619Y-112426761D01*
X138855523Y-112464857D01*
X138779333Y-112502952D01*
X138474571Y-112502952D01*
X139693619Y-112883904D02*
X139236476Y-112883904D01*
X139465047Y-112883904D02*
X139465047Y-112083904D01*
X139388857Y-112198190D01*
X139312666Y-112274380D01*
X139236476Y-112312476D01*
X140455523Y-112883904D02*
X139998380Y-112883904D01*
X140226952Y-112883904D02*
X140226952Y-112083904D01*
X140150761Y-112198190D01*
X140074571Y-112274380D01*
X139998380Y-112312476D01*
%TO.C,R10*%
X139553904Y-118878285D02*
X139172952Y-119144952D01*
X139553904Y-119335428D02*
X138753904Y-119335428D01*
X138753904Y-119030666D01*
X138792000Y-118954476D01*
X138830095Y-118916380D01*
X138906285Y-118878285D01*
X139020571Y-118878285D01*
X139096761Y-118916380D01*
X139134857Y-118954476D01*
X139172952Y-119030666D01*
X139172952Y-119335428D01*
X139553904Y-118116380D02*
X139553904Y-118573523D01*
X139553904Y-118344952D02*
X138753904Y-118344952D01*
X138868190Y-118421142D01*
X138944380Y-118497333D01*
X138982476Y-118573523D01*
X138753904Y-117621142D02*
X138753904Y-117544952D01*
X138792000Y-117468761D01*
X138830095Y-117430666D01*
X138906285Y-117392571D01*
X139058666Y-117354476D01*
X139249142Y-117354476D01*
X139401523Y-117392571D01*
X139477714Y-117430666D01*
X139515809Y-117468761D01*
X139553904Y-117544952D01*
X139553904Y-117621142D01*
X139515809Y-117697333D01*
X139477714Y-117735428D01*
X139401523Y-117773523D01*
X139249142Y-117811619D01*
X139058666Y-117811619D01*
X138906285Y-117773523D01*
X138830095Y-117735428D01*
X138792000Y-117697333D01*
X138753904Y-117621142D01*
%TO.C,R8*%
X135756666Y-111359904D02*
X135490000Y-110978952D01*
X135299523Y-111359904D02*
X135299523Y-110559904D01*
X135604285Y-110559904D01*
X135680476Y-110598000D01*
X135718571Y-110636095D01*
X135756666Y-110712285D01*
X135756666Y-110826571D01*
X135718571Y-110902761D01*
X135680476Y-110940857D01*
X135604285Y-110978952D01*
X135299523Y-110978952D01*
X136213809Y-110902761D02*
X136137619Y-110864666D01*
X136099523Y-110826571D01*
X136061428Y-110750380D01*
X136061428Y-110712285D01*
X136099523Y-110636095D01*
X136137619Y-110598000D01*
X136213809Y-110559904D01*
X136366190Y-110559904D01*
X136442380Y-110598000D01*
X136480476Y-110636095D01*
X136518571Y-110712285D01*
X136518571Y-110750380D01*
X136480476Y-110826571D01*
X136442380Y-110864666D01*
X136366190Y-110902761D01*
X136213809Y-110902761D01*
X136137619Y-110940857D01*
X136099523Y-110978952D01*
X136061428Y-111055142D01*
X136061428Y-111207523D01*
X136099523Y-111283714D01*
X136137619Y-111321809D01*
X136213809Y-111359904D01*
X136366190Y-111359904D01*
X136442380Y-111321809D01*
X136480476Y-111283714D01*
X136518571Y-111207523D01*
X136518571Y-111055142D01*
X136480476Y-110978952D01*
X136442380Y-110940857D01*
X136366190Y-110902761D01*
%TO.C,R4*%
X131171904Y-120275333D02*
X130790952Y-120542000D01*
X131171904Y-120732476D02*
X130371904Y-120732476D01*
X130371904Y-120427714D01*
X130410000Y-120351523D01*
X130448095Y-120313428D01*
X130524285Y-120275333D01*
X130638571Y-120275333D01*
X130714761Y-120313428D01*
X130752857Y-120351523D01*
X130790952Y-120427714D01*
X130790952Y-120732476D01*
X130638571Y-119589619D02*
X131171904Y-119589619D01*
X130333809Y-119780095D02*
X130905238Y-119970571D01*
X130905238Y-119475333D01*
%TO.C,R1*%
X130676666Y-115931904D02*
X130410000Y-115550952D01*
X130219523Y-115931904D02*
X130219523Y-115131904D01*
X130524285Y-115131904D01*
X130600476Y-115170000D01*
X130638571Y-115208095D01*
X130676666Y-115284285D01*
X130676666Y-115398571D01*
X130638571Y-115474761D01*
X130600476Y-115512857D01*
X130524285Y-115550952D01*
X130219523Y-115550952D01*
X131438571Y-115931904D02*
X130981428Y-115931904D01*
X131210000Y-115931904D02*
X131210000Y-115131904D01*
X131133809Y-115246190D01*
X131057619Y-115322380D01*
X130981428Y-115360476D01*
%TO.C,D6*%
X155555904Y-118192476D02*
X154755904Y-118192476D01*
X154755904Y-118002000D01*
X154794000Y-117887714D01*
X154870190Y-117811523D01*
X154946380Y-117773428D01*
X155098761Y-117735333D01*
X155213047Y-117735333D01*
X155365428Y-117773428D01*
X155441619Y-117811523D01*
X155517809Y-117887714D01*
X155555904Y-118002000D01*
X155555904Y-118192476D01*
X154755904Y-117049619D02*
X154755904Y-117202000D01*
X154794000Y-117278190D01*
X154832095Y-117316285D01*
X154946380Y-117392476D01*
X155098761Y-117430571D01*
X155403523Y-117430571D01*
X155479714Y-117392476D01*
X155517809Y-117354380D01*
X155555904Y-117278190D01*
X155555904Y-117125809D01*
X155517809Y-117049619D01*
X155479714Y-117011523D01*
X155403523Y-116973428D01*
X155213047Y-116973428D01*
X155136857Y-117011523D01*
X155098761Y-117049619D01*
X155060666Y-117125809D01*
X155060666Y-117278190D01*
X155098761Y-117354380D01*
X155136857Y-117392476D01*
X155213047Y-117430571D01*
%TO.C,D5*%
X155555904Y-99650476D02*
X154755904Y-99650476D01*
X154755904Y-99460000D01*
X154794000Y-99345714D01*
X154870190Y-99269523D01*
X154946380Y-99231428D01*
X155098761Y-99193333D01*
X155213047Y-99193333D01*
X155365428Y-99231428D01*
X155441619Y-99269523D01*
X155517809Y-99345714D01*
X155555904Y-99460000D01*
X155555904Y-99650476D01*
X154755904Y-98469523D02*
X154755904Y-98850476D01*
X155136857Y-98888571D01*
X155098761Y-98850476D01*
X155060666Y-98774285D01*
X155060666Y-98583809D01*
X155098761Y-98507619D01*
X155136857Y-98469523D01*
X155213047Y-98431428D01*
X155403523Y-98431428D01*
X155479714Y-98469523D01*
X155517809Y-98507619D01*
X155555904Y-98583809D01*
X155555904Y-98774285D01*
X155517809Y-98850476D01*
X155479714Y-98888571D01*
%TO.C,D2*%
X132949904Y-120732476D02*
X132149904Y-120732476D01*
X132149904Y-120542000D01*
X132188000Y-120427714D01*
X132264190Y-120351523D01*
X132340380Y-120313428D01*
X132492761Y-120275333D01*
X132607047Y-120275333D01*
X132759428Y-120313428D01*
X132835619Y-120351523D01*
X132911809Y-120427714D01*
X132949904Y-120542000D01*
X132949904Y-120732476D01*
X132226095Y-119970571D02*
X132188000Y-119932476D01*
X132149904Y-119856285D01*
X132149904Y-119665809D01*
X132188000Y-119589619D01*
X132226095Y-119551523D01*
X132302285Y-119513428D01*
X132378476Y-119513428D01*
X132492761Y-119551523D01*
X132949904Y-120008666D01*
X132949904Y-119513428D01*
%TO.C,D1*%
X131997523Y-115931904D02*
X131997523Y-115131904D01*
X132188000Y-115131904D01*
X132302285Y-115170000D01*
X132378476Y-115246190D01*
X132416571Y-115322380D01*
X132454666Y-115474761D01*
X132454666Y-115589047D01*
X132416571Y-115741428D01*
X132378476Y-115817619D01*
X132302285Y-115893809D01*
X132188000Y-115931904D01*
X131997523Y-115931904D01*
X133216571Y-115931904D02*
X132759428Y-115931904D01*
X132988000Y-115931904D02*
X132988000Y-115131904D01*
X132911809Y-115246190D01*
X132835619Y-115322380D01*
X132759428Y-115360476D01*
%TO.C,C41*%
X152177714Y-120656285D02*
X152215809Y-120694380D01*
X152253904Y-120808666D01*
X152253904Y-120884857D01*
X152215809Y-120999142D01*
X152139619Y-121075333D01*
X152063428Y-121113428D01*
X151911047Y-121151523D01*
X151796761Y-121151523D01*
X151644380Y-121113428D01*
X151568190Y-121075333D01*
X151492000Y-120999142D01*
X151453904Y-120884857D01*
X151453904Y-120808666D01*
X151492000Y-120694380D01*
X151530095Y-120656285D01*
X151720571Y-119970571D02*
X152253904Y-119970571D01*
X151415809Y-120161047D02*
X151987238Y-120351523D01*
X151987238Y-119856285D01*
X152253904Y-119132476D02*
X152253904Y-119589619D01*
X152253904Y-119361047D02*
X151453904Y-119361047D01*
X151568190Y-119437238D01*
X151644380Y-119513428D01*
X151682476Y-119589619D01*
%TO.C,C40*%
X152177714Y-103384285D02*
X152215809Y-103422380D01*
X152253904Y-103536666D01*
X152253904Y-103612857D01*
X152215809Y-103727142D01*
X152139619Y-103803333D01*
X152063428Y-103841428D01*
X151911047Y-103879523D01*
X151796761Y-103879523D01*
X151644380Y-103841428D01*
X151568190Y-103803333D01*
X151492000Y-103727142D01*
X151453904Y-103612857D01*
X151453904Y-103536666D01*
X151492000Y-103422380D01*
X151530095Y-103384285D01*
X151720571Y-102698571D02*
X152253904Y-102698571D01*
X151415809Y-102889047D02*
X151987238Y-103079523D01*
X151987238Y-102584285D01*
X151453904Y-102127142D02*
X151453904Y-102050952D01*
X151492000Y-101974761D01*
X151530095Y-101936666D01*
X151606285Y-101898571D01*
X151758666Y-101860476D01*
X151949142Y-101860476D01*
X152101523Y-101898571D01*
X152177714Y-101936666D01*
X152215809Y-101974761D01*
X152253904Y-102050952D01*
X152253904Y-102127142D01*
X152215809Y-102203333D01*
X152177714Y-102241428D01*
X152101523Y-102279523D01*
X151949142Y-102317619D01*
X151758666Y-102317619D01*
X151606285Y-102279523D01*
X151530095Y-102241428D01*
X151492000Y-102203333D01*
X151453904Y-102127142D01*
%TO.C,C39*%
X153447714Y-109734285D02*
X153485809Y-109772380D01*
X153523904Y-109886666D01*
X153523904Y-109962857D01*
X153485809Y-110077142D01*
X153409619Y-110153333D01*
X153333428Y-110191428D01*
X153181047Y-110229523D01*
X153066761Y-110229523D01*
X152914380Y-110191428D01*
X152838190Y-110153333D01*
X152762000Y-110077142D01*
X152723904Y-109962857D01*
X152723904Y-109886666D01*
X152762000Y-109772380D01*
X152800095Y-109734285D01*
X152723904Y-109467619D02*
X152723904Y-108972380D01*
X153028666Y-109239047D01*
X153028666Y-109124761D01*
X153066761Y-109048571D01*
X153104857Y-109010476D01*
X153181047Y-108972380D01*
X153371523Y-108972380D01*
X153447714Y-109010476D01*
X153485809Y-109048571D01*
X153523904Y-109124761D01*
X153523904Y-109353333D01*
X153485809Y-109429523D01*
X153447714Y-109467619D01*
X153523904Y-108591428D02*
X153523904Y-108439047D01*
X153485809Y-108362857D01*
X153447714Y-108324761D01*
X153333428Y-108248571D01*
X153181047Y-108210476D01*
X152876285Y-108210476D01*
X152800095Y-108248571D01*
X152762000Y-108286666D01*
X152723904Y-108362857D01*
X152723904Y-108515238D01*
X152762000Y-108591428D01*
X152800095Y-108629523D01*
X152876285Y-108667619D01*
X153066761Y-108667619D01*
X153142952Y-108629523D01*
X153181047Y-108591428D01*
X153219142Y-108515238D01*
X153219142Y-108362857D01*
X153181047Y-108286666D01*
X153142952Y-108248571D01*
X153066761Y-108210476D01*
%TO.C,C38*%
X139947714Y-104933714D02*
X139909619Y-104971809D01*
X139795333Y-105009904D01*
X139719142Y-105009904D01*
X139604857Y-104971809D01*
X139528666Y-104895619D01*
X139490571Y-104819428D01*
X139452476Y-104667047D01*
X139452476Y-104552761D01*
X139490571Y-104400380D01*
X139528666Y-104324190D01*
X139604857Y-104248000D01*
X139719142Y-104209904D01*
X139795333Y-104209904D01*
X139909619Y-104248000D01*
X139947714Y-104286095D01*
X140214380Y-104209904D02*
X140709619Y-104209904D01*
X140442952Y-104514666D01*
X140557238Y-104514666D01*
X140633428Y-104552761D01*
X140671523Y-104590857D01*
X140709619Y-104667047D01*
X140709619Y-104857523D01*
X140671523Y-104933714D01*
X140633428Y-104971809D01*
X140557238Y-105009904D01*
X140328666Y-105009904D01*
X140252476Y-104971809D01*
X140214380Y-104933714D01*
X141166761Y-104552761D02*
X141090571Y-104514666D01*
X141052476Y-104476571D01*
X141014380Y-104400380D01*
X141014380Y-104362285D01*
X141052476Y-104286095D01*
X141090571Y-104248000D01*
X141166761Y-104209904D01*
X141319142Y-104209904D01*
X141395333Y-104248000D01*
X141433428Y-104286095D01*
X141471523Y-104362285D01*
X141471523Y-104400380D01*
X141433428Y-104476571D01*
X141395333Y-104514666D01*
X141319142Y-104552761D01*
X141166761Y-104552761D01*
X141090571Y-104590857D01*
X141052476Y-104628952D01*
X141014380Y-104705142D01*
X141014380Y-104857523D01*
X141052476Y-104933714D01*
X141090571Y-104971809D01*
X141166761Y-105009904D01*
X141319142Y-105009904D01*
X141395333Y-104971809D01*
X141433428Y-104933714D01*
X141471523Y-104857523D01*
X141471523Y-104705142D01*
X141433428Y-104628952D01*
X141395333Y-104590857D01*
X141319142Y-104552761D01*
%TO.C,C37*%
X141725714Y-120460714D02*
X141687619Y-120498809D01*
X141573333Y-120536904D01*
X141497142Y-120536904D01*
X141382857Y-120498809D01*
X141306666Y-120422619D01*
X141268571Y-120346428D01*
X141230476Y-120194047D01*
X141230476Y-120079761D01*
X141268571Y-119927380D01*
X141306666Y-119851190D01*
X141382857Y-119775000D01*
X141497142Y-119736904D01*
X141573333Y-119736904D01*
X141687619Y-119775000D01*
X141725714Y-119813095D01*
X141992380Y-119736904D02*
X142487619Y-119736904D01*
X142220952Y-120041666D01*
X142335238Y-120041666D01*
X142411428Y-120079761D01*
X142449523Y-120117857D01*
X142487619Y-120194047D01*
X142487619Y-120384523D01*
X142449523Y-120460714D01*
X142411428Y-120498809D01*
X142335238Y-120536904D01*
X142106666Y-120536904D01*
X142030476Y-120498809D01*
X141992380Y-120460714D01*
X142754285Y-119736904D02*
X143287619Y-119736904D01*
X142944761Y-120536904D01*
%TO.C,C13*%
X148075714Y-120427714D02*
X148037619Y-120465809D01*
X147923333Y-120503904D01*
X147847142Y-120503904D01*
X147732857Y-120465809D01*
X147656666Y-120389619D01*
X147618571Y-120313428D01*
X147580476Y-120161047D01*
X147580476Y-120046761D01*
X147618571Y-119894380D01*
X147656666Y-119818190D01*
X147732857Y-119742000D01*
X147847142Y-119703904D01*
X147923333Y-119703904D01*
X148037619Y-119742000D01*
X148075714Y-119780095D01*
X148837619Y-120503904D02*
X148380476Y-120503904D01*
X148609047Y-120503904D02*
X148609047Y-119703904D01*
X148532857Y-119818190D01*
X148456666Y-119894380D01*
X148380476Y-119932476D01*
X149104285Y-119703904D02*
X149599523Y-119703904D01*
X149332857Y-120008666D01*
X149447142Y-120008666D01*
X149523333Y-120046761D01*
X149561428Y-120084857D01*
X149599523Y-120161047D01*
X149599523Y-120351523D01*
X149561428Y-120427714D01*
X149523333Y-120465809D01*
X149447142Y-120503904D01*
X149218571Y-120503904D01*
X149142380Y-120465809D01*
X149104285Y-120427714D01*
%TO.C,C10*%
X135375714Y-120460714D02*
X135337619Y-120498809D01*
X135223333Y-120536904D01*
X135147142Y-120536904D01*
X135032857Y-120498809D01*
X134956666Y-120422619D01*
X134918571Y-120346428D01*
X134880476Y-120194047D01*
X134880476Y-120079761D01*
X134918571Y-119927380D01*
X134956666Y-119851190D01*
X135032857Y-119775000D01*
X135147142Y-119736904D01*
X135223333Y-119736904D01*
X135337619Y-119775000D01*
X135375714Y-119813095D01*
X136137619Y-120536904D02*
X135680476Y-120536904D01*
X135909047Y-120536904D02*
X135909047Y-119736904D01*
X135832857Y-119851190D01*
X135756666Y-119927380D01*
X135680476Y-119965476D01*
X136632857Y-119736904D02*
X136709047Y-119736904D01*
X136785238Y-119775000D01*
X136823333Y-119813095D01*
X136861428Y-119889285D01*
X136899523Y-120041666D01*
X136899523Y-120232142D01*
X136861428Y-120384523D01*
X136823333Y-120460714D01*
X136785238Y-120498809D01*
X136709047Y-120536904D01*
X136632857Y-120536904D01*
X136556666Y-120498809D01*
X136518571Y-120460714D01*
X136480476Y-120384523D01*
X136442380Y-120232142D01*
X136442380Y-120041666D01*
X136480476Y-119889285D01*
X136518571Y-119813095D01*
X136556666Y-119775000D01*
X136632857Y-119736904D01*
%TO.C,C9*%
X127285714Y-118497333D02*
X127323809Y-118535428D01*
X127361904Y-118649714D01*
X127361904Y-118725904D01*
X127323809Y-118840190D01*
X127247619Y-118916380D01*
X127171428Y-118954476D01*
X127019047Y-118992571D01*
X126904761Y-118992571D01*
X126752380Y-118954476D01*
X126676190Y-118916380D01*
X126600000Y-118840190D01*
X126561904Y-118725904D01*
X126561904Y-118649714D01*
X126600000Y-118535428D01*
X126638095Y-118497333D01*
X127361904Y-118116380D02*
X127361904Y-117964000D01*
X127323809Y-117887809D01*
X127285714Y-117849714D01*
X127171428Y-117773523D01*
X127019047Y-117735428D01*
X126714285Y-117735428D01*
X126638095Y-117773523D01*
X126600000Y-117811619D01*
X126561904Y-117887809D01*
X126561904Y-118040190D01*
X126600000Y-118116380D01*
X126638095Y-118154476D01*
X126714285Y-118192571D01*
X126904761Y-118192571D01*
X126980952Y-118154476D01*
X127019047Y-118116380D01*
X127057142Y-118040190D01*
X127057142Y-117887809D01*
X127019047Y-117811619D01*
X126980952Y-117773523D01*
X126904761Y-117735428D01*
%TO.C,C7*%
X128644666Y-115855714D02*
X128606571Y-115893809D01*
X128492285Y-115931904D01*
X128416095Y-115931904D01*
X128301809Y-115893809D01*
X128225619Y-115817619D01*
X128187523Y-115741428D01*
X128149428Y-115589047D01*
X128149428Y-115474761D01*
X128187523Y-115322380D01*
X128225619Y-115246190D01*
X128301809Y-115170000D01*
X128416095Y-115131904D01*
X128492285Y-115131904D01*
X128606571Y-115170000D01*
X128644666Y-115208095D01*
X128911333Y-115131904D02*
X129444666Y-115131904D01*
X129101809Y-115931904D01*
%TO.C,C3*%
X127285714Y-116465333D02*
X127323809Y-116503428D01*
X127361904Y-116617714D01*
X127361904Y-116693904D01*
X127323809Y-116808190D01*
X127247619Y-116884380D01*
X127171428Y-116922476D01*
X127019047Y-116960571D01*
X126904761Y-116960571D01*
X126752380Y-116922476D01*
X126676190Y-116884380D01*
X126600000Y-116808190D01*
X126561904Y-116693904D01*
X126561904Y-116617714D01*
X126600000Y-116503428D01*
X126638095Y-116465333D01*
X126561904Y-116198666D02*
X126561904Y-115703428D01*
X126866666Y-115970095D01*
X126866666Y-115855809D01*
X126904761Y-115779619D01*
X126942857Y-115741523D01*
X127019047Y-115703428D01*
X127209523Y-115703428D01*
X127285714Y-115741523D01*
X127323809Y-115779619D01*
X127361904Y-115855809D01*
X127361904Y-116084380D01*
X127323809Y-116160571D01*
X127285714Y-116198666D01*
%TO.C,U15*%
X159327904Y-112750476D02*
X159975523Y-112750476D01*
X160051714Y-112712380D01*
X160089809Y-112674285D01*
X160127904Y-112598095D01*
X160127904Y-112445714D01*
X160089809Y-112369523D01*
X160051714Y-112331428D01*
X159975523Y-112293333D01*
X159327904Y-112293333D01*
X160127904Y-111493333D02*
X160127904Y-111950476D01*
X160127904Y-111721904D02*
X159327904Y-111721904D01*
X159442190Y-111798095D01*
X159518380Y-111874285D01*
X159556476Y-111950476D01*
X159327904Y-110769523D02*
X159327904Y-111150476D01*
X159708857Y-111188571D01*
X159670761Y-111150476D01*
X159632666Y-111074285D01*
X159632666Y-110883809D01*
X159670761Y-110807619D01*
X159708857Y-110769523D01*
X159785047Y-110731428D01*
X159975523Y-110731428D01*
X160051714Y-110769523D01*
X160089809Y-110807619D01*
X160127904Y-110883809D01*
X160127904Y-111074285D01*
X160089809Y-111150476D01*
X160051714Y-111188571D01*
%TO.C,U13*%
X164153904Y-112750476D02*
X164801523Y-112750476D01*
X164877714Y-112712380D01*
X164915809Y-112674285D01*
X164953904Y-112598095D01*
X164953904Y-112445714D01*
X164915809Y-112369523D01*
X164877714Y-112331428D01*
X164801523Y-112293333D01*
X164153904Y-112293333D01*
X164953904Y-111493333D02*
X164953904Y-111950476D01*
X164953904Y-111721904D02*
X164153904Y-111721904D01*
X164268190Y-111798095D01*
X164344380Y-111874285D01*
X164382476Y-111950476D01*
X164153904Y-111226666D02*
X164153904Y-110731428D01*
X164458666Y-110998095D01*
X164458666Y-110883809D01*
X164496761Y-110807619D01*
X164534857Y-110769523D01*
X164611047Y-110731428D01*
X164801523Y-110731428D01*
X164877714Y-110769523D01*
X164915809Y-110807619D01*
X164953904Y-110883809D01*
X164953904Y-111112380D01*
X164915809Y-111188571D01*
X164877714Y-111226666D01*
%TO.C,U11*%
X149123523Y-87699904D02*
X149123523Y-88347523D01*
X149161619Y-88423714D01*
X149199714Y-88461809D01*
X149275904Y-88499904D01*
X149428285Y-88499904D01*
X149504476Y-88461809D01*
X149542571Y-88423714D01*
X149580666Y-88347523D01*
X149580666Y-87699904D01*
X150380666Y-88499904D02*
X149923523Y-88499904D01*
X150152095Y-88499904D02*
X150152095Y-87699904D01*
X150075904Y-87814190D01*
X149999714Y-87890380D01*
X149923523Y-87928476D01*
X151142571Y-88499904D02*
X150685428Y-88499904D01*
X150914000Y-88499904D02*
X150914000Y-87699904D01*
X150837809Y-87814190D01*
X150761619Y-87890380D01*
X150685428Y-87928476D01*
%TO.C,U10*%
X150183904Y-100812476D02*
X150831523Y-100812476D01*
X150907714Y-100774380D01*
X150945809Y-100736285D01*
X150983904Y-100660095D01*
X150983904Y-100507714D01*
X150945809Y-100431523D01*
X150907714Y-100393428D01*
X150831523Y-100355333D01*
X150183904Y-100355333D01*
X150983904Y-99555333D02*
X150983904Y-100012476D01*
X150983904Y-99783904D02*
X150183904Y-99783904D01*
X150298190Y-99860095D01*
X150374380Y-99936285D01*
X150412476Y-100012476D01*
X150183904Y-99060095D02*
X150183904Y-98983904D01*
X150222000Y-98907714D01*
X150260095Y-98869619D01*
X150336285Y-98831523D01*
X150488666Y-98793428D01*
X150679142Y-98793428D01*
X150831523Y-98831523D01*
X150907714Y-98869619D01*
X150945809Y-98907714D01*
X150983904Y-98983904D01*
X150983904Y-99060095D01*
X150945809Y-99136285D01*
X150907714Y-99174380D01*
X150831523Y-99212476D01*
X150679142Y-99250571D01*
X150488666Y-99250571D01*
X150336285Y-99212476D01*
X150260095Y-99174380D01*
X150222000Y-99136285D01*
X150183904Y-99060095D01*
%TO.C,U8*%
X143916476Y-96843904D02*
X143916476Y-97491523D01*
X143954571Y-97567714D01*
X143992666Y-97605809D01*
X144068857Y-97643904D01*
X144221238Y-97643904D01*
X144297428Y-97605809D01*
X144335523Y-97567714D01*
X144373619Y-97491523D01*
X144373619Y-96843904D01*
X144868857Y-97186761D02*
X144792666Y-97148666D01*
X144754571Y-97110571D01*
X144716476Y-97034380D01*
X144716476Y-96996285D01*
X144754571Y-96920095D01*
X144792666Y-96882000D01*
X144868857Y-96843904D01*
X145021238Y-96843904D01*
X145097428Y-96882000D01*
X145135523Y-96920095D01*
X145173619Y-96996285D01*
X145173619Y-97034380D01*
X145135523Y-97110571D01*
X145097428Y-97148666D01*
X145021238Y-97186761D01*
X144868857Y-97186761D01*
X144792666Y-97224857D01*
X144754571Y-97262952D01*
X144716476Y-97339142D01*
X144716476Y-97491523D01*
X144754571Y-97567714D01*
X144792666Y-97605809D01*
X144868857Y-97643904D01*
X145021238Y-97643904D01*
X145097428Y-97605809D01*
X145135523Y-97567714D01*
X145173619Y-97491523D01*
X145173619Y-97339142D01*
X145135523Y-97262952D01*
X145097428Y-97224857D01*
X145021238Y-97186761D01*
%TO.C,U1*%
X137737904Y-100685523D02*
X138385523Y-100685523D01*
X138461714Y-100647428D01*
X138499809Y-100609333D01*
X138537904Y-100533142D01*
X138537904Y-100380761D01*
X138499809Y-100304571D01*
X138461714Y-100266476D01*
X138385523Y-100228380D01*
X137737904Y-100228380D01*
X138537904Y-99428380D02*
X138537904Y-99885523D01*
X138537904Y-99656952D02*
X137737904Y-99656952D01*
X137852190Y-99733142D01*
X137928380Y-99809333D01*
X137966476Y-99885523D01*
%TO.C,R34*%
X155555904Y-95764285D02*
X155174952Y-96030952D01*
X155555904Y-96221428D02*
X154755904Y-96221428D01*
X154755904Y-95916666D01*
X154794000Y-95840476D01*
X154832095Y-95802380D01*
X154908285Y-95764285D01*
X155022571Y-95764285D01*
X155098761Y-95802380D01*
X155136857Y-95840476D01*
X155174952Y-95916666D01*
X155174952Y-96221428D01*
X154755904Y-95497619D02*
X154755904Y-95002380D01*
X155060666Y-95269047D01*
X155060666Y-95154761D01*
X155098761Y-95078571D01*
X155136857Y-95040476D01*
X155213047Y-95002380D01*
X155403523Y-95002380D01*
X155479714Y-95040476D01*
X155517809Y-95078571D01*
X155555904Y-95154761D01*
X155555904Y-95383333D01*
X155517809Y-95459523D01*
X155479714Y-95497619D01*
X155022571Y-94316666D02*
X155555904Y-94316666D01*
X154717809Y-94507142D02*
X155289238Y-94697619D01*
X155289238Y-94202380D01*
%TO.C,R33*%
X148075714Y-93325904D02*
X147809047Y-92944952D01*
X147618571Y-93325904D02*
X147618571Y-92525904D01*
X147923333Y-92525904D01*
X147999523Y-92564000D01*
X148037619Y-92602095D01*
X148075714Y-92678285D01*
X148075714Y-92792571D01*
X148037619Y-92868761D01*
X147999523Y-92906857D01*
X147923333Y-92944952D01*
X147618571Y-92944952D01*
X148342380Y-92525904D02*
X148837619Y-92525904D01*
X148570952Y-92830666D01*
X148685238Y-92830666D01*
X148761428Y-92868761D01*
X148799523Y-92906857D01*
X148837619Y-92983047D01*
X148837619Y-93173523D01*
X148799523Y-93249714D01*
X148761428Y-93287809D01*
X148685238Y-93325904D01*
X148456666Y-93325904D01*
X148380476Y-93287809D01*
X148342380Y-93249714D01*
X149104285Y-92525904D02*
X149599523Y-92525904D01*
X149332857Y-92830666D01*
X149447142Y-92830666D01*
X149523333Y-92868761D01*
X149561428Y-92906857D01*
X149599523Y-92983047D01*
X149599523Y-93173523D01*
X149561428Y-93249714D01*
X149523333Y-93287809D01*
X149447142Y-93325904D01*
X149218571Y-93325904D01*
X149142380Y-93287809D01*
X149104285Y-93249714D01*
%TO.C,R32*%
X144633904Y-99828285D02*
X144252952Y-100094952D01*
X144633904Y-100285428D02*
X143833904Y-100285428D01*
X143833904Y-99980666D01*
X143872000Y-99904476D01*
X143910095Y-99866380D01*
X143986285Y-99828285D01*
X144100571Y-99828285D01*
X144176761Y-99866380D01*
X144214857Y-99904476D01*
X144252952Y-99980666D01*
X144252952Y-100285428D01*
X143833904Y-99561619D02*
X143833904Y-99066380D01*
X144138666Y-99333047D01*
X144138666Y-99218761D01*
X144176761Y-99142571D01*
X144214857Y-99104476D01*
X144291047Y-99066380D01*
X144481523Y-99066380D01*
X144557714Y-99104476D01*
X144595809Y-99142571D01*
X144633904Y-99218761D01*
X144633904Y-99447333D01*
X144595809Y-99523523D01*
X144557714Y-99561619D01*
X143910095Y-98761619D02*
X143872000Y-98723523D01*
X143833904Y-98647333D01*
X143833904Y-98456857D01*
X143872000Y-98380666D01*
X143910095Y-98342571D01*
X143986285Y-98304476D01*
X144062476Y-98304476D01*
X144176761Y-98342571D01*
X144633904Y-98799714D01*
X144633904Y-98304476D01*
%TO.C,R31*%
X144633904Y-95510285D02*
X144252952Y-95776952D01*
X144633904Y-95967428D02*
X143833904Y-95967428D01*
X143833904Y-95662666D01*
X143872000Y-95586476D01*
X143910095Y-95548380D01*
X143986285Y-95510285D01*
X144100571Y-95510285D01*
X144176761Y-95548380D01*
X144214857Y-95586476D01*
X144252952Y-95662666D01*
X144252952Y-95967428D01*
X143833904Y-95243619D02*
X143833904Y-94748380D01*
X144138666Y-95015047D01*
X144138666Y-94900761D01*
X144176761Y-94824571D01*
X144214857Y-94786476D01*
X144291047Y-94748380D01*
X144481523Y-94748380D01*
X144557714Y-94786476D01*
X144595809Y-94824571D01*
X144633904Y-94900761D01*
X144633904Y-95129333D01*
X144595809Y-95205523D01*
X144557714Y-95243619D01*
X144633904Y-93986476D02*
X144633904Y-94443619D01*
X144633904Y-94215047D02*
X143833904Y-94215047D01*
X143948190Y-94291238D01*
X144024380Y-94367428D01*
X144062476Y-94443619D01*
%TO.C,R29*%
X139553904Y-100590285D02*
X139172952Y-100856952D01*
X139553904Y-101047428D02*
X138753904Y-101047428D01*
X138753904Y-100742666D01*
X138792000Y-100666476D01*
X138830095Y-100628380D01*
X138906285Y-100590285D01*
X139020571Y-100590285D01*
X139096761Y-100628380D01*
X139134857Y-100666476D01*
X139172952Y-100742666D01*
X139172952Y-101047428D01*
X138830095Y-100285523D02*
X138792000Y-100247428D01*
X138753904Y-100171238D01*
X138753904Y-99980761D01*
X138792000Y-99904571D01*
X138830095Y-99866476D01*
X138906285Y-99828380D01*
X138982476Y-99828380D01*
X139096761Y-99866476D01*
X139553904Y-100323619D01*
X139553904Y-99828380D01*
X139553904Y-99447428D02*
X139553904Y-99295047D01*
X139515809Y-99218857D01*
X139477714Y-99180761D01*
X139363428Y-99104571D01*
X139211047Y-99066476D01*
X138906285Y-99066476D01*
X138830095Y-99104571D01*
X138792000Y-99142666D01*
X138753904Y-99218857D01*
X138753904Y-99371238D01*
X138792000Y-99447428D01*
X138830095Y-99485523D01*
X138906285Y-99523619D01*
X139096761Y-99523619D01*
X139172952Y-99485523D01*
X139211047Y-99447428D01*
X139249142Y-99371238D01*
X139249142Y-99218857D01*
X139211047Y-99142666D01*
X139172952Y-99104571D01*
X139096761Y-99066476D01*
%TO.C,R28*%
X138931714Y-94341904D02*
X138665047Y-93960952D01*
X138474571Y-94341904D02*
X138474571Y-93541904D01*
X138779333Y-93541904D01*
X138855523Y-93580000D01*
X138893619Y-93618095D01*
X138931714Y-93694285D01*
X138931714Y-93808571D01*
X138893619Y-93884761D01*
X138855523Y-93922857D01*
X138779333Y-93960952D01*
X138474571Y-93960952D01*
X139236476Y-93618095D02*
X139274571Y-93580000D01*
X139350761Y-93541904D01*
X139541238Y-93541904D01*
X139617428Y-93580000D01*
X139655523Y-93618095D01*
X139693619Y-93694285D01*
X139693619Y-93770476D01*
X139655523Y-93884761D01*
X139198380Y-94341904D01*
X139693619Y-94341904D01*
X140150761Y-93884761D02*
X140074571Y-93846666D01*
X140036476Y-93808571D01*
X139998380Y-93732380D01*
X139998380Y-93694285D01*
X140036476Y-93618095D01*
X140074571Y-93580000D01*
X140150761Y-93541904D01*
X140303142Y-93541904D01*
X140379333Y-93580000D01*
X140417428Y-93618095D01*
X140455523Y-93694285D01*
X140455523Y-93732380D01*
X140417428Y-93808571D01*
X140379333Y-93846666D01*
X140303142Y-93884761D01*
X140150761Y-93884761D01*
X140074571Y-93922857D01*
X140036476Y-93960952D01*
X139998380Y-94037142D01*
X139998380Y-94189523D01*
X140036476Y-94265714D01*
X140074571Y-94303809D01*
X140150761Y-94341904D01*
X140303142Y-94341904D01*
X140379333Y-94303809D01*
X140417428Y-94265714D01*
X140455523Y-94189523D01*
X140455523Y-94037142D01*
X140417428Y-93960952D01*
X140379333Y-93922857D01*
X140303142Y-93884761D01*
%TO.C,R27*%
X135375714Y-92911904D02*
X135109047Y-92530952D01*
X134918571Y-92911904D02*
X134918571Y-92111904D01*
X135223333Y-92111904D01*
X135299523Y-92150000D01*
X135337619Y-92188095D01*
X135375714Y-92264285D01*
X135375714Y-92378571D01*
X135337619Y-92454761D01*
X135299523Y-92492857D01*
X135223333Y-92530952D01*
X134918571Y-92530952D01*
X135680476Y-92188095D02*
X135718571Y-92150000D01*
X135794761Y-92111904D01*
X135985238Y-92111904D01*
X136061428Y-92150000D01*
X136099523Y-92188095D01*
X136137619Y-92264285D01*
X136137619Y-92340476D01*
X136099523Y-92454761D01*
X135642380Y-92911904D01*
X136137619Y-92911904D01*
X136404285Y-92111904D02*
X136937619Y-92111904D01*
X136594761Y-92911904D01*
%TO.C,R26*%
X131171904Y-103384285D02*
X130790952Y-103650952D01*
X131171904Y-103841428D02*
X130371904Y-103841428D01*
X130371904Y-103536666D01*
X130410000Y-103460476D01*
X130448095Y-103422380D01*
X130524285Y-103384285D01*
X130638571Y-103384285D01*
X130714761Y-103422380D01*
X130752857Y-103460476D01*
X130790952Y-103536666D01*
X130790952Y-103841428D01*
X130448095Y-103079523D02*
X130410000Y-103041428D01*
X130371904Y-102965238D01*
X130371904Y-102774761D01*
X130410000Y-102698571D01*
X130448095Y-102660476D01*
X130524285Y-102622380D01*
X130600476Y-102622380D01*
X130714761Y-102660476D01*
X131171904Y-103117619D01*
X131171904Y-102622380D01*
X130371904Y-101936666D02*
X130371904Y-102089047D01*
X130410000Y-102165238D01*
X130448095Y-102203333D01*
X130562380Y-102279523D01*
X130714761Y-102317619D01*
X131019523Y-102317619D01*
X131095714Y-102279523D01*
X131133809Y-102241428D01*
X131171904Y-102165238D01*
X131171904Y-102012857D01*
X131133809Y-101936666D01*
X131095714Y-101898571D01*
X131019523Y-101860476D01*
X130829047Y-101860476D01*
X130752857Y-101898571D01*
X130714761Y-101936666D01*
X130676666Y-102012857D01*
X130676666Y-102165238D01*
X130714761Y-102241428D01*
X130752857Y-102279523D01*
X130829047Y-102317619D01*
%TO.C,R24*%
X131057714Y-97389904D02*
X130791047Y-97008952D01*
X130600571Y-97389904D02*
X130600571Y-96589904D01*
X130905333Y-96589904D01*
X130981523Y-96628000D01*
X131019619Y-96666095D01*
X131057714Y-96742285D01*
X131057714Y-96856571D01*
X131019619Y-96932761D01*
X130981523Y-96970857D01*
X130905333Y-97008952D01*
X130600571Y-97008952D01*
X131362476Y-96666095D02*
X131400571Y-96628000D01*
X131476761Y-96589904D01*
X131667238Y-96589904D01*
X131743428Y-96628000D01*
X131781523Y-96666095D01*
X131819619Y-96742285D01*
X131819619Y-96818476D01*
X131781523Y-96932761D01*
X131324380Y-97389904D01*
X131819619Y-97389904D01*
X132505333Y-96856571D02*
X132505333Y-97389904D01*
X132314857Y-96551809D02*
X132124380Y-97123238D01*
X132619619Y-97123238D01*
%TO.C,D4*%
X134473904Y-100920476D02*
X133673904Y-100920476D01*
X133673904Y-100730000D01*
X133712000Y-100615714D01*
X133788190Y-100539523D01*
X133864380Y-100501428D01*
X134016761Y-100463333D01*
X134131047Y-100463333D01*
X134283428Y-100501428D01*
X134359619Y-100539523D01*
X134435809Y-100615714D01*
X134473904Y-100730000D01*
X134473904Y-100920476D01*
X133940571Y-99777619D02*
X134473904Y-99777619D01*
X133635809Y-99968095D02*
X134207238Y-100158571D01*
X134207238Y-99663333D01*
%TO.C,D3*%
X133457904Y-92538476D02*
X132657904Y-92538476D01*
X132657904Y-92348000D01*
X132696000Y-92233714D01*
X132772190Y-92157523D01*
X132848380Y-92119428D01*
X133000761Y-92081333D01*
X133115047Y-92081333D01*
X133267428Y-92119428D01*
X133343619Y-92157523D01*
X133419809Y-92233714D01*
X133457904Y-92348000D01*
X133457904Y-92538476D01*
X132657904Y-91814666D02*
X132657904Y-91319428D01*
X132962666Y-91586095D01*
X132962666Y-91471809D01*
X133000761Y-91395619D01*
X133038857Y-91357523D01*
X133115047Y-91319428D01*
X133305523Y-91319428D01*
X133381714Y-91357523D01*
X133419809Y-91395619D01*
X133457904Y-91471809D01*
X133457904Y-91700380D01*
X133419809Y-91776571D01*
X133381714Y-91814666D01*
%TO.C,C36*%
X154171714Y-108997714D02*
X154133619Y-109035809D01*
X154019333Y-109073904D01*
X153943142Y-109073904D01*
X153828857Y-109035809D01*
X153752666Y-108959619D01*
X153714571Y-108883428D01*
X153676476Y-108731047D01*
X153676476Y-108616761D01*
X153714571Y-108464380D01*
X153752666Y-108388190D01*
X153828857Y-108312000D01*
X153943142Y-108273904D01*
X154019333Y-108273904D01*
X154133619Y-108312000D01*
X154171714Y-108350095D01*
X154438380Y-108273904D02*
X154933619Y-108273904D01*
X154666952Y-108578666D01*
X154781238Y-108578666D01*
X154857428Y-108616761D01*
X154895523Y-108654857D01*
X154933619Y-108731047D01*
X154933619Y-108921523D01*
X154895523Y-108997714D01*
X154857428Y-109035809D01*
X154781238Y-109073904D01*
X154552666Y-109073904D01*
X154476476Y-109035809D01*
X154438380Y-108997714D01*
X155619333Y-108273904D02*
X155466952Y-108273904D01*
X155390761Y-108312000D01*
X155352666Y-108350095D01*
X155276476Y-108464380D01*
X155238380Y-108616761D01*
X155238380Y-108921523D01*
X155276476Y-108997714D01*
X155314571Y-109035809D01*
X155390761Y-109073904D01*
X155543142Y-109073904D01*
X155619333Y-109035809D01*
X155657428Y-108997714D01*
X155695523Y-108921523D01*
X155695523Y-108731047D01*
X155657428Y-108654857D01*
X155619333Y-108616761D01*
X155543142Y-108578666D01*
X155390761Y-108578666D01*
X155314571Y-108616761D01*
X155276476Y-108654857D01*
X155238380Y-108731047D01*
%TO.C,C35*%
X164331714Y-108997714D02*
X164293619Y-109035809D01*
X164179333Y-109073904D01*
X164103142Y-109073904D01*
X163988857Y-109035809D01*
X163912666Y-108959619D01*
X163874571Y-108883428D01*
X163836476Y-108731047D01*
X163836476Y-108616761D01*
X163874571Y-108464380D01*
X163912666Y-108388190D01*
X163988857Y-108312000D01*
X164103142Y-108273904D01*
X164179333Y-108273904D01*
X164293619Y-108312000D01*
X164331714Y-108350095D01*
X164598380Y-108273904D02*
X165093619Y-108273904D01*
X164826952Y-108578666D01*
X164941238Y-108578666D01*
X165017428Y-108616761D01*
X165055523Y-108654857D01*
X165093619Y-108731047D01*
X165093619Y-108921523D01*
X165055523Y-108997714D01*
X165017428Y-109035809D01*
X164941238Y-109073904D01*
X164712666Y-109073904D01*
X164636476Y-109035809D01*
X164598380Y-108997714D01*
X165817428Y-108273904D02*
X165436476Y-108273904D01*
X165398380Y-108654857D01*
X165436476Y-108616761D01*
X165512666Y-108578666D01*
X165703142Y-108578666D01*
X165779333Y-108616761D01*
X165817428Y-108654857D01*
X165855523Y-108731047D01*
X165855523Y-108921523D01*
X165817428Y-108997714D01*
X165779333Y-109035809D01*
X165703142Y-109073904D01*
X165512666Y-109073904D01*
X165436476Y-109035809D01*
X165398380Y-108997714D01*
%TO.C,C34*%
X153480714Y-91319285D02*
X153518809Y-91357380D01*
X153556904Y-91471666D01*
X153556904Y-91547857D01*
X153518809Y-91662142D01*
X153442619Y-91738333D01*
X153366428Y-91776428D01*
X153214047Y-91814523D01*
X153099761Y-91814523D01*
X152947380Y-91776428D01*
X152871190Y-91738333D01*
X152795000Y-91662142D01*
X152756904Y-91547857D01*
X152756904Y-91471666D01*
X152795000Y-91357380D01*
X152833095Y-91319285D01*
X152756904Y-91052619D02*
X152756904Y-90557380D01*
X153061666Y-90824047D01*
X153061666Y-90709761D01*
X153099761Y-90633571D01*
X153137857Y-90595476D01*
X153214047Y-90557380D01*
X153404523Y-90557380D01*
X153480714Y-90595476D01*
X153518809Y-90633571D01*
X153556904Y-90709761D01*
X153556904Y-90938333D01*
X153518809Y-91014523D01*
X153480714Y-91052619D01*
X153023571Y-89871666D02*
X153556904Y-89871666D01*
X152718809Y-90062142D02*
X153290238Y-90252619D01*
X153290238Y-89757380D01*
%TO.C,C33*%
X148075714Y-102045714D02*
X148037619Y-102083809D01*
X147923333Y-102121904D01*
X147847142Y-102121904D01*
X147732857Y-102083809D01*
X147656666Y-102007619D01*
X147618571Y-101931428D01*
X147580476Y-101779047D01*
X147580476Y-101664761D01*
X147618571Y-101512380D01*
X147656666Y-101436190D01*
X147732857Y-101360000D01*
X147847142Y-101321904D01*
X147923333Y-101321904D01*
X148037619Y-101360000D01*
X148075714Y-101398095D01*
X148342380Y-101321904D02*
X148837619Y-101321904D01*
X148570952Y-101626666D01*
X148685238Y-101626666D01*
X148761428Y-101664761D01*
X148799523Y-101702857D01*
X148837619Y-101779047D01*
X148837619Y-101969523D01*
X148799523Y-102045714D01*
X148761428Y-102083809D01*
X148685238Y-102121904D01*
X148456666Y-102121904D01*
X148380476Y-102083809D01*
X148342380Y-102045714D01*
X149104285Y-101321904D02*
X149599523Y-101321904D01*
X149332857Y-101626666D01*
X149447142Y-101626666D01*
X149523333Y-101664761D01*
X149561428Y-101702857D01*
X149599523Y-101779047D01*
X149599523Y-101969523D01*
X149561428Y-102045714D01*
X149523333Y-102083809D01*
X149447142Y-102121904D01*
X149218571Y-102121904D01*
X149142380Y-102083809D01*
X149104285Y-102045714D01*
%TO.C,C32*%
X141725714Y-102045714D02*
X141687619Y-102083809D01*
X141573333Y-102121904D01*
X141497142Y-102121904D01*
X141382857Y-102083809D01*
X141306666Y-102007619D01*
X141268571Y-101931428D01*
X141230476Y-101779047D01*
X141230476Y-101664761D01*
X141268571Y-101512380D01*
X141306666Y-101436190D01*
X141382857Y-101360000D01*
X141497142Y-101321904D01*
X141573333Y-101321904D01*
X141687619Y-101360000D01*
X141725714Y-101398095D01*
X141992380Y-101321904D02*
X142487619Y-101321904D01*
X142220952Y-101626666D01*
X142335238Y-101626666D01*
X142411428Y-101664761D01*
X142449523Y-101702857D01*
X142487619Y-101779047D01*
X142487619Y-101969523D01*
X142449523Y-102045714D01*
X142411428Y-102083809D01*
X142335238Y-102121904D01*
X142106666Y-102121904D01*
X142030476Y-102083809D01*
X141992380Y-102045714D01*
X142792380Y-101398095D02*
X142830476Y-101360000D01*
X142906666Y-101321904D01*
X143097142Y-101321904D01*
X143173333Y-101360000D01*
X143211428Y-101398095D01*
X143249523Y-101474285D01*
X143249523Y-101550476D01*
X143211428Y-101664761D01*
X142754285Y-102121904D01*
X143249523Y-102121904D01*
%TO.C,C31*%
X139820714Y-86485714D02*
X139782619Y-86523809D01*
X139668333Y-86561904D01*
X139592142Y-86561904D01*
X139477857Y-86523809D01*
X139401666Y-86447619D01*
X139363571Y-86371428D01*
X139325476Y-86219047D01*
X139325476Y-86104761D01*
X139363571Y-85952380D01*
X139401666Y-85876190D01*
X139477857Y-85800000D01*
X139592142Y-85761904D01*
X139668333Y-85761904D01*
X139782619Y-85800000D01*
X139820714Y-85838095D01*
X140087380Y-85761904D02*
X140582619Y-85761904D01*
X140315952Y-86066666D01*
X140430238Y-86066666D01*
X140506428Y-86104761D01*
X140544523Y-86142857D01*
X140582619Y-86219047D01*
X140582619Y-86409523D01*
X140544523Y-86485714D01*
X140506428Y-86523809D01*
X140430238Y-86561904D01*
X140201666Y-86561904D01*
X140125476Y-86523809D01*
X140087380Y-86485714D01*
X141344523Y-86561904D02*
X140887380Y-86561904D01*
X141115952Y-86561904D02*
X141115952Y-85761904D01*
X141039761Y-85876190D01*
X140963571Y-85952380D01*
X140887380Y-85990476D01*
%TO.C,C30*%
X135375714Y-102901714D02*
X135337619Y-102939809D01*
X135223333Y-102977904D01*
X135147142Y-102977904D01*
X135032857Y-102939809D01*
X134956666Y-102863619D01*
X134918571Y-102787428D01*
X134880476Y-102635047D01*
X134880476Y-102520761D01*
X134918571Y-102368380D01*
X134956666Y-102292190D01*
X135032857Y-102216000D01*
X135147142Y-102177904D01*
X135223333Y-102177904D01*
X135337619Y-102216000D01*
X135375714Y-102254095D01*
X135642380Y-102177904D02*
X136137619Y-102177904D01*
X135870952Y-102482666D01*
X135985238Y-102482666D01*
X136061428Y-102520761D01*
X136099523Y-102558857D01*
X136137619Y-102635047D01*
X136137619Y-102825523D01*
X136099523Y-102901714D01*
X136061428Y-102939809D01*
X135985238Y-102977904D01*
X135756666Y-102977904D01*
X135680476Y-102939809D01*
X135642380Y-102901714D01*
X136632857Y-102177904D02*
X136709047Y-102177904D01*
X136785238Y-102216000D01*
X136823333Y-102254095D01*
X136861428Y-102330285D01*
X136899523Y-102482666D01*
X136899523Y-102673142D01*
X136861428Y-102825523D01*
X136823333Y-102901714D01*
X136785238Y-102939809D01*
X136709047Y-102977904D01*
X136632857Y-102977904D01*
X136556666Y-102939809D01*
X136518571Y-102901714D01*
X136480476Y-102825523D01*
X136442380Y-102673142D01*
X136442380Y-102482666D01*
X136480476Y-102330285D01*
X136518571Y-102254095D01*
X136556666Y-102216000D01*
X136632857Y-102177904D01*
%TO.C,C29*%
X127285714Y-101860285D02*
X127323809Y-101898380D01*
X127361904Y-102012666D01*
X127361904Y-102088857D01*
X127323809Y-102203142D01*
X127247619Y-102279333D01*
X127171428Y-102317428D01*
X127019047Y-102355523D01*
X126904761Y-102355523D01*
X126752380Y-102317428D01*
X126676190Y-102279333D01*
X126600000Y-102203142D01*
X126561904Y-102088857D01*
X126561904Y-102012666D01*
X126600000Y-101898380D01*
X126638095Y-101860285D01*
X126638095Y-101555523D02*
X126600000Y-101517428D01*
X126561904Y-101441238D01*
X126561904Y-101250761D01*
X126600000Y-101174571D01*
X126638095Y-101136476D01*
X126714285Y-101098380D01*
X126790476Y-101098380D01*
X126904761Y-101136476D01*
X127361904Y-101593619D01*
X127361904Y-101098380D01*
X127361904Y-100717428D02*
X127361904Y-100565047D01*
X127323809Y-100488857D01*
X127285714Y-100450761D01*
X127171428Y-100374571D01*
X127019047Y-100336476D01*
X126714285Y-100336476D01*
X126638095Y-100374571D01*
X126600000Y-100412666D01*
X126561904Y-100488857D01*
X126561904Y-100641238D01*
X126600000Y-100717428D01*
X126638095Y-100755523D01*
X126714285Y-100793619D01*
X126904761Y-100793619D01*
X126980952Y-100755523D01*
X127019047Y-100717428D01*
X127057142Y-100641238D01*
X127057142Y-100488857D01*
X127019047Y-100412666D01*
X126980952Y-100374571D01*
X126904761Y-100336476D01*
%TO.C,C28*%
X128263714Y-97313714D02*
X128225619Y-97351809D01*
X128111333Y-97389904D01*
X128035142Y-97389904D01*
X127920857Y-97351809D01*
X127844666Y-97275619D01*
X127806571Y-97199428D01*
X127768476Y-97047047D01*
X127768476Y-96932761D01*
X127806571Y-96780380D01*
X127844666Y-96704190D01*
X127920857Y-96628000D01*
X128035142Y-96589904D01*
X128111333Y-96589904D01*
X128225619Y-96628000D01*
X128263714Y-96666095D01*
X128568476Y-96666095D02*
X128606571Y-96628000D01*
X128682761Y-96589904D01*
X128873238Y-96589904D01*
X128949428Y-96628000D01*
X128987523Y-96666095D01*
X129025619Y-96742285D01*
X129025619Y-96818476D01*
X128987523Y-96932761D01*
X128530380Y-97389904D01*
X129025619Y-97389904D01*
X129482761Y-96932761D02*
X129406571Y-96894666D01*
X129368476Y-96856571D01*
X129330380Y-96780380D01*
X129330380Y-96742285D01*
X129368476Y-96666095D01*
X129406571Y-96628000D01*
X129482761Y-96589904D01*
X129635142Y-96589904D01*
X129711333Y-96628000D01*
X129749428Y-96666095D01*
X129787523Y-96742285D01*
X129787523Y-96780380D01*
X129749428Y-96856571D01*
X129711333Y-96894666D01*
X129635142Y-96932761D01*
X129482761Y-96932761D01*
X129406571Y-96970857D01*
X129368476Y-97008952D01*
X129330380Y-97085142D01*
X129330380Y-97237523D01*
X129368476Y-97313714D01*
X129406571Y-97351809D01*
X129482761Y-97389904D01*
X129635142Y-97389904D01*
X129711333Y-97351809D01*
X129749428Y-97313714D01*
X129787523Y-97237523D01*
X129787523Y-97085142D01*
X129749428Y-97008952D01*
X129711333Y-96970857D01*
X129635142Y-96932761D01*
%TO.C,C27*%
X127285714Y-99320285D02*
X127323809Y-99358380D01*
X127361904Y-99472666D01*
X127361904Y-99548857D01*
X127323809Y-99663142D01*
X127247619Y-99739333D01*
X127171428Y-99777428D01*
X127019047Y-99815523D01*
X126904761Y-99815523D01*
X126752380Y-99777428D01*
X126676190Y-99739333D01*
X126600000Y-99663142D01*
X126561904Y-99548857D01*
X126561904Y-99472666D01*
X126600000Y-99358380D01*
X126638095Y-99320285D01*
X126638095Y-99015523D02*
X126600000Y-98977428D01*
X126561904Y-98901238D01*
X126561904Y-98710761D01*
X126600000Y-98634571D01*
X126638095Y-98596476D01*
X126714285Y-98558380D01*
X126790476Y-98558380D01*
X126904761Y-98596476D01*
X127361904Y-99053619D01*
X127361904Y-98558380D01*
X126561904Y-98291714D02*
X126561904Y-97758380D01*
X127361904Y-98101238D01*
%TO.C,C6*%
X137445714Y-75825333D02*
X137483809Y-75863428D01*
X137521904Y-75977714D01*
X137521904Y-76053904D01*
X137483809Y-76168190D01*
X137407619Y-76244380D01*
X137331428Y-76282476D01*
X137179047Y-76320571D01*
X137064761Y-76320571D01*
X136912380Y-76282476D01*
X136836190Y-76244380D01*
X136760000Y-76168190D01*
X136721904Y-76053904D01*
X136721904Y-75977714D01*
X136760000Y-75863428D01*
X136798095Y-75825333D01*
X136721904Y-75139619D02*
X136721904Y-75292000D01*
X136760000Y-75368190D01*
X136798095Y-75406285D01*
X136912380Y-75482476D01*
X137064761Y-75520571D01*
X137369523Y-75520571D01*
X137445714Y-75482476D01*
X137483809Y-75444380D01*
X137521904Y-75368190D01*
X137521904Y-75215809D01*
X137483809Y-75139619D01*
X137445714Y-75101523D01*
X137369523Y-75063428D01*
X137179047Y-75063428D01*
X137102857Y-75101523D01*
X137064761Y-75139619D01*
X137026666Y-75215809D01*
X137026666Y-75368190D01*
X137064761Y-75444380D01*
X137102857Y-75482476D01*
X137179047Y-75520571D01*
%TO.C,C12*%
X162370714Y-104019285D02*
X162408809Y-104057380D01*
X162446904Y-104171666D01*
X162446904Y-104247857D01*
X162408809Y-104362142D01*
X162332619Y-104438333D01*
X162256428Y-104476428D01*
X162104047Y-104514523D01*
X161989761Y-104514523D01*
X161837380Y-104476428D01*
X161761190Y-104438333D01*
X161685000Y-104362142D01*
X161646904Y-104247857D01*
X161646904Y-104171666D01*
X161685000Y-104057380D01*
X161723095Y-104019285D01*
X162446904Y-103257380D02*
X162446904Y-103714523D01*
X162446904Y-103485952D02*
X161646904Y-103485952D01*
X161761190Y-103562142D01*
X161837380Y-103638333D01*
X161875476Y-103714523D01*
X161723095Y-102952619D02*
X161685000Y-102914523D01*
X161646904Y-102838333D01*
X161646904Y-102647857D01*
X161685000Y-102571666D01*
X161723095Y-102533571D01*
X161799285Y-102495476D01*
X161875476Y-102495476D01*
X161989761Y-102533571D01*
X162446904Y-102990714D01*
X162446904Y-102495476D01*
%TO.C,U14*%
X169189523Y-91231904D02*
X169189523Y-91879523D01*
X169227619Y-91955714D01*
X169265714Y-91993809D01*
X169341904Y-92031904D01*
X169494285Y-92031904D01*
X169570476Y-91993809D01*
X169608571Y-91955714D01*
X169646666Y-91879523D01*
X169646666Y-91231904D01*
X170446666Y-92031904D02*
X169989523Y-92031904D01*
X170218095Y-92031904D02*
X170218095Y-91231904D01*
X170141904Y-91346190D01*
X170065714Y-91422380D01*
X169989523Y-91460476D01*
X171132380Y-91498571D02*
X171132380Y-92031904D01*
X170941904Y-91193809D02*
X170751428Y-91765238D01*
X171246666Y-91765238D01*
%TO.C,R19*%
X176269714Y-91293904D02*
X176003047Y-90912952D01*
X175812571Y-91293904D02*
X175812571Y-90493904D01*
X176117333Y-90493904D01*
X176193523Y-90532000D01*
X176231619Y-90570095D01*
X176269714Y-90646285D01*
X176269714Y-90760571D01*
X176231619Y-90836761D01*
X176193523Y-90874857D01*
X176117333Y-90912952D01*
X175812571Y-90912952D01*
X177031619Y-91293904D02*
X176574476Y-91293904D01*
X176803047Y-91293904D02*
X176803047Y-90493904D01*
X176726857Y-90608190D01*
X176650666Y-90684380D01*
X176574476Y-90722476D01*
X177412571Y-91293904D02*
X177564952Y-91293904D01*
X177641142Y-91255809D01*
X177679238Y-91217714D01*
X177755428Y-91103428D01*
X177793523Y-90951047D01*
X177793523Y-90646285D01*
X177755428Y-90570095D01*
X177717333Y-90532000D01*
X177641142Y-90493904D01*
X177488761Y-90493904D01*
X177412571Y-90532000D01*
X177374476Y-90570095D01*
X177336380Y-90646285D01*
X177336380Y-90836761D01*
X177374476Y-90912952D01*
X177412571Y-90951047D01*
X177488761Y-90989142D01*
X177641142Y-90989142D01*
X177717333Y-90951047D01*
X177755428Y-90912952D01*
X177793523Y-90836761D01*
%TO.C,R18*%
X154171714Y-107041904D02*
X153905047Y-106660952D01*
X153714571Y-107041904D02*
X153714571Y-106241904D01*
X154019333Y-106241904D01*
X154095523Y-106280000D01*
X154133619Y-106318095D01*
X154171714Y-106394285D01*
X154171714Y-106508571D01*
X154133619Y-106584761D01*
X154095523Y-106622857D01*
X154019333Y-106660952D01*
X153714571Y-106660952D01*
X154933619Y-107041904D02*
X154476476Y-107041904D01*
X154705047Y-107041904D02*
X154705047Y-106241904D01*
X154628857Y-106356190D01*
X154552666Y-106432380D01*
X154476476Y-106470476D01*
X155390761Y-106584761D02*
X155314571Y-106546666D01*
X155276476Y-106508571D01*
X155238380Y-106432380D01*
X155238380Y-106394285D01*
X155276476Y-106318095D01*
X155314571Y-106280000D01*
X155390761Y-106241904D01*
X155543142Y-106241904D01*
X155619333Y-106280000D01*
X155657428Y-106318095D01*
X155695523Y-106394285D01*
X155695523Y-106432380D01*
X155657428Y-106508571D01*
X155619333Y-106546666D01*
X155543142Y-106584761D01*
X155390761Y-106584761D01*
X155314571Y-106622857D01*
X155276476Y-106660952D01*
X155238380Y-106737142D01*
X155238380Y-106889523D01*
X155276476Y-106965714D01*
X155314571Y-107003809D01*
X155390761Y-107041904D01*
X155543142Y-107041904D01*
X155619333Y-107003809D01*
X155657428Y-106965714D01*
X155695523Y-106889523D01*
X155695523Y-106737142D01*
X155657428Y-106660952D01*
X155619333Y-106622857D01*
X155543142Y-106584761D01*
%TO.C,C26*%
X160305714Y-99574285D02*
X160343809Y-99612380D01*
X160381904Y-99726666D01*
X160381904Y-99802857D01*
X160343809Y-99917142D01*
X160267619Y-99993333D01*
X160191428Y-100031428D01*
X160039047Y-100069523D01*
X159924761Y-100069523D01*
X159772380Y-100031428D01*
X159696190Y-99993333D01*
X159620000Y-99917142D01*
X159581904Y-99802857D01*
X159581904Y-99726666D01*
X159620000Y-99612380D01*
X159658095Y-99574285D01*
X159658095Y-99269523D02*
X159620000Y-99231428D01*
X159581904Y-99155238D01*
X159581904Y-98964761D01*
X159620000Y-98888571D01*
X159658095Y-98850476D01*
X159734285Y-98812380D01*
X159810476Y-98812380D01*
X159924761Y-98850476D01*
X160381904Y-99307619D01*
X160381904Y-98812380D01*
X159581904Y-98126666D02*
X159581904Y-98279047D01*
X159620000Y-98355238D01*
X159658095Y-98393333D01*
X159772380Y-98469523D01*
X159924761Y-98507619D01*
X160229523Y-98507619D01*
X160305714Y-98469523D01*
X160343809Y-98431428D01*
X160381904Y-98355238D01*
X160381904Y-98202857D01*
X160343809Y-98126666D01*
X160305714Y-98088571D01*
X160229523Y-98050476D01*
X160039047Y-98050476D01*
X159962857Y-98088571D01*
X159924761Y-98126666D01*
X159886666Y-98202857D01*
X159886666Y-98355238D01*
X159924761Y-98431428D01*
X159962857Y-98469523D01*
X160039047Y-98507619D01*
%TO.C,C25*%
X162845714Y-96399285D02*
X162883809Y-96437380D01*
X162921904Y-96551666D01*
X162921904Y-96627857D01*
X162883809Y-96742142D01*
X162807619Y-96818333D01*
X162731428Y-96856428D01*
X162579047Y-96894523D01*
X162464761Y-96894523D01*
X162312380Y-96856428D01*
X162236190Y-96818333D01*
X162160000Y-96742142D01*
X162121904Y-96627857D01*
X162121904Y-96551666D01*
X162160000Y-96437380D01*
X162198095Y-96399285D01*
X162198095Y-96094523D02*
X162160000Y-96056428D01*
X162121904Y-95980238D01*
X162121904Y-95789761D01*
X162160000Y-95713571D01*
X162198095Y-95675476D01*
X162274285Y-95637380D01*
X162350476Y-95637380D01*
X162464761Y-95675476D01*
X162921904Y-96132619D01*
X162921904Y-95637380D01*
X162121904Y-94913571D02*
X162121904Y-95294523D01*
X162502857Y-95332619D01*
X162464761Y-95294523D01*
X162426666Y-95218333D01*
X162426666Y-95027857D01*
X162464761Y-94951666D01*
X162502857Y-94913571D01*
X162579047Y-94875476D01*
X162769523Y-94875476D01*
X162845714Y-94913571D01*
X162883809Y-94951666D01*
X162921904Y-95027857D01*
X162921904Y-95218333D01*
X162883809Y-95294523D01*
X162845714Y-95332619D01*
%TO.C,C24*%
X164115714Y-90684285D02*
X164153809Y-90722380D01*
X164191904Y-90836666D01*
X164191904Y-90912857D01*
X164153809Y-91027142D01*
X164077619Y-91103333D01*
X164001428Y-91141428D01*
X163849047Y-91179523D01*
X163734761Y-91179523D01*
X163582380Y-91141428D01*
X163506190Y-91103333D01*
X163430000Y-91027142D01*
X163391904Y-90912857D01*
X163391904Y-90836666D01*
X163430000Y-90722380D01*
X163468095Y-90684285D01*
X163468095Y-90379523D02*
X163430000Y-90341428D01*
X163391904Y-90265238D01*
X163391904Y-90074761D01*
X163430000Y-89998571D01*
X163468095Y-89960476D01*
X163544285Y-89922380D01*
X163620476Y-89922380D01*
X163734761Y-89960476D01*
X164191904Y-90417619D01*
X164191904Y-89922380D01*
X163658571Y-89236666D02*
X164191904Y-89236666D01*
X163353809Y-89427142D02*
X163925238Y-89617619D01*
X163925238Y-89122380D01*
%TO.C,C21*%
X162210714Y-90684285D02*
X162248809Y-90722380D01*
X162286904Y-90836666D01*
X162286904Y-90912857D01*
X162248809Y-91027142D01*
X162172619Y-91103333D01*
X162096428Y-91141428D01*
X161944047Y-91179523D01*
X161829761Y-91179523D01*
X161677380Y-91141428D01*
X161601190Y-91103333D01*
X161525000Y-91027142D01*
X161486904Y-90912857D01*
X161486904Y-90836666D01*
X161525000Y-90722380D01*
X161563095Y-90684285D01*
X161563095Y-90379523D02*
X161525000Y-90341428D01*
X161486904Y-90265238D01*
X161486904Y-90074761D01*
X161525000Y-89998571D01*
X161563095Y-89960476D01*
X161639285Y-89922380D01*
X161715476Y-89922380D01*
X161829761Y-89960476D01*
X162286904Y-90417619D01*
X162286904Y-89922380D01*
X162286904Y-89160476D02*
X162286904Y-89617619D01*
X162286904Y-89389047D02*
X161486904Y-89389047D01*
X161601190Y-89465238D01*
X161677380Y-89541428D01*
X161715476Y-89617619D01*
%TO.C,C20*%
X179101714Y-97669285D02*
X179139809Y-97707380D01*
X179177904Y-97821666D01*
X179177904Y-97897857D01*
X179139809Y-98012142D01*
X179063619Y-98088333D01*
X178987428Y-98126428D01*
X178835047Y-98164523D01*
X178720761Y-98164523D01*
X178568380Y-98126428D01*
X178492190Y-98088333D01*
X178416000Y-98012142D01*
X178377904Y-97897857D01*
X178377904Y-97821666D01*
X178416000Y-97707380D01*
X178454095Y-97669285D01*
X178454095Y-97364523D02*
X178416000Y-97326428D01*
X178377904Y-97250238D01*
X178377904Y-97059761D01*
X178416000Y-96983571D01*
X178454095Y-96945476D01*
X178530285Y-96907380D01*
X178606476Y-96907380D01*
X178720761Y-96945476D01*
X179177904Y-97402619D01*
X179177904Y-96907380D01*
X178377904Y-96412142D02*
X178377904Y-96335952D01*
X178416000Y-96259761D01*
X178454095Y-96221666D01*
X178530285Y-96183571D01*
X178682666Y-96145476D01*
X178873142Y-96145476D01*
X179025523Y-96183571D01*
X179101714Y-96221666D01*
X179139809Y-96259761D01*
X179177904Y-96335952D01*
X179177904Y-96412142D01*
X179139809Y-96488333D01*
X179101714Y-96526428D01*
X179025523Y-96564523D01*
X178873142Y-96602619D01*
X178682666Y-96602619D01*
X178530285Y-96564523D01*
X178454095Y-96526428D01*
X178416000Y-96488333D01*
X178377904Y-96412142D01*
%TO.C,R15*%
X165093714Y-72497904D02*
X164827047Y-72116952D01*
X164636571Y-72497904D02*
X164636571Y-71697904D01*
X164941333Y-71697904D01*
X165017523Y-71736000D01*
X165055619Y-71774095D01*
X165093714Y-71850285D01*
X165093714Y-71964571D01*
X165055619Y-72040761D01*
X165017523Y-72078857D01*
X164941333Y-72116952D01*
X164636571Y-72116952D01*
X165855619Y-72497904D02*
X165398476Y-72497904D01*
X165627047Y-72497904D02*
X165627047Y-71697904D01*
X165550857Y-71812190D01*
X165474666Y-71888380D01*
X165398476Y-71926476D01*
X166579428Y-71697904D02*
X166198476Y-71697904D01*
X166160380Y-72078857D01*
X166198476Y-72040761D01*
X166274666Y-72002666D01*
X166465142Y-72002666D01*
X166541333Y-72040761D01*
X166579428Y-72078857D01*
X166617523Y-72155047D01*
X166617523Y-72345523D01*
X166579428Y-72421714D01*
X166541333Y-72459809D01*
X166465142Y-72497904D01*
X166274666Y-72497904D01*
X166198476Y-72459809D01*
X166160380Y-72421714D01*
%TO.C,R14*%
X165093714Y-77323904D02*
X164827047Y-76942952D01*
X164636571Y-77323904D02*
X164636571Y-76523904D01*
X164941333Y-76523904D01*
X165017523Y-76562000D01*
X165055619Y-76600095D01*
X165093714Y-76676285D01*
X165093714Y-76790571D01*
X165055619Y-76866761D01*
X165017523Y-76904857D01*
X164941333Y-76942952D01*
X164636571Y-76942952D01*
X165855619Y-77323904D02*
X165398476Y-77323904D01*
X165627047Y-77323904D02*
X165627047Y-76523904D01*
X165550857Y-76638190D01*
X165474666Y-76714380D01*
X165398476Y-76752476D01*
X166541333Y-76790571D02*
X166541333Y-77323904D01*
X166350857Y-76485809D02*
X166160380Y-77057238D01*
X166655619Y-77057238D01*
%TO.C,U3*%
X172281904Y-85064523D02*
X172929523Y-85064523D01*
X173005714Y-85026428D01*
X173043809Y-84988333D01*
X173081904Y-84912142D01*
X173081904Y-84759761D01*
X173043809Y-84683571D01*
X173005714Y-84645476D01*
X172929523Y-84607380D01*
X172281904Y-84607380D01*
X172281904Y-84302619D02*
X172281904Y-83807380D01*
X172586666Y-84074047D01*
X172586666Y-83959761D01*
X172624761Y-83883571D01*
X172662857Y-83845476D01*
X172739047Y-83807380D01*
X172929523Y-83807380D01*
X173005714Y-83845476D01*
X173043809Y-83883571D01*
X173081904Y-83959761D01*
X173081904Y-84188333D01*
X173043809Y-84264523D01*
X173005714Y-84302619D01*
%TO.C,C19*%
X166871714Y-87915714D02*
X166833619Y-87953809D01*
X166719333Y-87991904D01*
X166643142Y-87991904D01*
X166528857Y-87953809D01*
X166452666Y-87877619D01*
X166414571Y-87801428D01*
X166376476Y-87649047D01*
X166376476Y-87534761D01*
X166414571Y-87382380D01*
X166452666Y-87306190D01*
X166528857Y-87230000D01*
X166643142Y-87191904D01*
X166719333Y-87191904D01*
X166833619Y-87230000D01*
X166871714Y-87268095D01*
X167633619Y-87991904D02*
X167176476Y-87991904D01*
X167405047Y-87991904D02*
X167405047Y-87191904D01*
X167328857Y-87306190D01*
X167252666Y-87382380D01*
X167176476Y-87420476D01*
X168014571Y-87991904D02*
X168166952Y-87991904D01*
X168243142Y-87953809D01*
X168281238Y-87915714D01*
X168357428Y-87801428D01*
X168395523Y-87649047D01*
X168395523Y-87344285D01*
X168357428Y-87268095D01*
X168319333Y-87230000D01*
X168243142Y-87191904D01*
X168090761Y-87191904D01*
X168014571Y-87230000D01*
X167976476Y-87268095D01*
X167938380Y-87344285D01*
X167938380Y-87534761D01*
X167976476Y-87610952D01*
X168014571Y-87649047D01*
X168090761Y-87687142D01*
X168243142Y-87687142D01*
X168319333Y-87649047D01*
X168357428Y-87610952D01*
X168395523Y-87534761D01*
%TO.C,C18*%
X166020714Y-84969285D02*
X166058809Y-85007380D01*
X166096904Y-85121666D01*
X166096904Y-85197857D01*
X166058809Y-85312142D01*
X165982619Y-85388333D01*
X165906428Y-85426428D01*
X165754047Y-85464523D01*
X165639761Y-85464523D01*
X165487380Y-85426428D01*
X165411190Y-85388333D01*
X165335000Y-85312142D01*
X165296904Y-85197857D01*
X165296904Y-85121666D01*
X165335000Y-85007380D01*
X165373095Y-84969285D01*
X166096904Y-84207380D02*
X166096904Y-84664523D01*
X166096904Y-84435952D02*
X165296904Y-84435952D01*
X165411190Y-84512142D01*
X165487380Y-84588333D01*
X165525476Y-84664523D01*
X165639761Y-83750238D02*
X165601666Y-83826428D01*
X165563571Y-83864523D01*
X165487380Y-83902619D01*
X165449285Y-83902619D01*
X165373095Y-83864523D01*
X165335000Y-83826428D01*
X165296904Y-83750238D01*
X165296904Y-83597857D01*
X165335000Y-83521666D01*
X165373095Y-83483571D01*
X165449285Y-83445476D01*
X165487380Y-83445476D01*
X165563571Y-83483571D01*
X165601666Y-83521666D01*
X165639761Y-83597857D01*
X165639761Y-83750238D01*
X165677857Y-83826428D01*
X165715952Y-83864523D01*
X165792142Y-83902619D01*
X165944523Y-83902619D01*
X166020714Y-83864523D01*
X166058809Y-83826428D01*
X166096904Y-83750238D01*
X166096904Y-83597857D01*
X166058809Y-83521666D01*
X166020714Y-83483571D01*
X165944523Y-83445476D01*
X165792142Y-83445476D01*
X165715952Y-83483571D01*
X165677857Y-83521666D01*
X165639761Y-83597857D01*
%TO.C,C15*%
X169665714Y-80135714D02*
X169627619Y-80173809D01*
X169513333Y-80211904D01*
X169437142Y-80211904D01*
X169322857Y-80173809D01*
X169246666Y-80097619D01*
X169208571Y-80021428D01*
X169170476Y-79869047D01*
X169170476Y-79754761D01*
X169208571Y-79602380D01*
X169246666Y-79526190D01*
X169322857Y-79450000D01*
X169437142Y-79411904D01*
X169513333Y-79411904D01*
X169627619Y-79450000D01*
X169665714Y-79488095D01*
X170427619Y-80211904D02*
X169970476Y-80211904D01*
X170199047Y-80211904D02*
X170199047Y-79411904D01*
X170122857Y-79526190D01*
X170046666Y-79602380D01*
X169970476Y-79640476D01*
X171151428Y-79411904D02*
X170770476Y-79411904D01*
X170732380Y-79792857D01*
X170770476Y-79754761D01*
X170846666Y-79716666D01*
X171037142Y-79716666D01*
X171113333Y-79754761D01*
X171151428Y-79792857D01*
X171189523Y-79869047D01*
X171189523Y-80059523D01*
X171151428Y-80135714D01*
X171113333Y-80173809D01*
X171037142Y-80211904D01*
X170846666Y-80211904D01*
X170770476Y-80173809D01*
X170732380Y-80135714D01*
%TO.C,U2*%
X156885476Y-100526904D02*
X156885476Y-101174523D01*
X156923571Y-101250714D01*
X156961666Y-101288809D01*
X157037857Y-101326904D01*
X157190238Y-101326904D01*
X157266428Y-101288809D01*
X157304523Y-101250714D01*
X157342619Y-101174523D01*
X157342619Y-100526904D01*
X157685476Y-100603095D02*
X157723571Y-100565000D01*
X157799761Y-100526904D01*
X157990238Y-100526904D01*
X158066428Y-100565000D01*
X158104523Y-100603095D01*
X158142619Y-100679285D01*
X158142619Y-100755476D01*
X158104523Y-100869761D01*
X157647380Y-101326904D01*
X158142619Y-101326904D01*
%TO.C,U5*%
X158648476Y-81603904D02*
X158648476Y-82251523D01*
X158686571Y-82327714D01*
X158724666Y-82365809D01*
X158800857Y-82403904D01*
X158953238Y-82403904D01*
X159029428Y-82365809D01*
X159067523Y-82327714D01*
X159105619Y-82251523D01*
X159105619Y-81603904D01*
X159867523Y-81603904D02*
X159486571Y-81603904D01*
X159448476Y-81984857D01*
X159486571Y-81946761D01*
X159562761Y-81908666D01*
X159753238Y-81908666D01*
X159829428Y-81946761D01*
X159867523Y-81984857D01*
X159905619Y-82061047D01*
X159905619Y-82251523D01*
X159867523Y-82327714D01*
X159829428Y-82365809D01*
X159753238Y-82403904D01*
X159562761Y-82403904D01*
X159486571Y-82365809D01*
X159448476Y-82327714D01*
%TO.C,U4*%
X139769904Y-78587523D02*
X140417523Y-78587523D01*
X140493714Y-78549428D01*
X140531809Y-78511333D01*
X140569904Y-78435142D01*
X140569904Y-78282761D01*
X140531809Y-78206571D01*
X140493714Y-78168476D01*
X140417523Y-78130380D01*
X139769904Y-78130380D01*
X140036571Y-77406571D02*
X140569904Y-77406571D01*
X139731809Y-77597047D02*
X140303238Y-77787523D01*
X140303238Y-77292285D01*
%TO.C,R7*%
X156838666Y-87991904D02*
X156572000Y-87610952D01*
X156381523Y-87991904D02*
X156381523Y-87191904D01*
X156686285Y-87191904D01*
X156762476Y-87230000D01*
X156800571Y-87268095D01*
X156838666Y-87344285D01*
X156838666Y-87458571D01*
X156800571Y-87534761D01*
X156762476Y-87572857D01*
X156686285Y-87610952D01*
X156381523Y-87610952D01*
X157105333Y-87191904D02*
X157638666Y-87191904D01*
X157295809Y-87991904D01*
%TO.C,R6*%
X138156904Y-82048333D02*
X137775952Y-82315000D01*
X138156904Y-82505476D02*
X137356904Y-82505476D01*
X137356904Y-82200714D01*
X137395000Y-82124523D01*
X137433095Y-82086428D01*
X137509285Y-82048333D01*
X137623571Y-82048333D01*
X137699761Y-82086428D01*
X137737857Y-82124523D01*
X137775952Y-82200714D01*
X137775952Y-82505476D01*
X137356904Y-81362619D02*
X137356904Y-81515000D01*
X137395000Y-81591190D01*
X137433095Y-81629285D01*
X137547380Y-81705476D01*
X137699761Y-81743571D01*
X138004523Y-81743571D01*
X138080714Y-81705476D01*
X138118809Y-81667380D01*
X138156904Y-81591190D01*
X138156904Y-81438809D01*
X138118809Y-81362619D01*
X138080714Y-81324523D01*
X138004523Y-81286428D01*
X137814047Y-81286428D01*
X137737857Y-81324523D01*
X137699761Y-81362619D01*
X137661666Y-81438809D01*
X137661666Y-81591190D01*
X137699761Y-81667380D01*
X137737857Y-81705476D01*
X137814047Y-81743571D01*
%TO.C,R5*%
X145903904Y-71761333D02*
X145522952Y-72028000D01*
X145903904Y-72218476D02*
X145103904Y-72218476D01*
X145103904Y-71913714D01*
X145142000Y-71837523D01*
X145180095Y-71799428D01*
X145256285Y-71761333D01*
X145370571Y-71761333D01*
X145446761Y-71799428D01*
X145484857Y-71837523D01*
X145522952Y-71913714D01*
X145522952Y-72218476D01*
X145103904Y-71037523D02*
X145103904Y-71418476D01*
X145484857Y-71456571D01*
X145446761Y-71418476D01*
X145408666Y-71342285D01*
X145408666Y-71151809D01*
X145446761Y-71075619D01*
X145484857Y-71037523D01*
X145561047Y-70999428D01*
X145751523Y-70999428D01*
X145827714Y-71037523D01*
X145865809Y-71075619D01*
X145903904Y-71151809D01*
X145903904Y-71342285D01*
X145865809Y-71418476D01*
X145827714Y-71456571D01*
%TO.C,R3*%
X139553904Y-75825333D02*
X139172952Y-76092000D01*
X139553904Y-76282476D02*
X138753904Y-76282476D01*
X138753904Y-75977714D01*
X138792000Y-75901523D01*
X138830095Y-75863428D01*
X138906285Y-75825333D01*
X139020571Y-75825333D01*
X139096761Y-75863428D01*
X139134857Y-75901523D01*
X139172952Y-75977714D01*
X139172952Y-76282476D01*
X138753904Y-75558666D02*
X138753904Y-75063428D01*
X139058666Y-75330095D01*
X139058666Y-75215809D01*
X139096761Y-75139619D01*
X139134857Y-75101523D01*
X139211047Y-75063428D01*
X139401523Y-75063428D01*
X139477714Y-75101523D01*
X139515809Y-75139619D01*
X139553904Y-75215809D01*
X139553904Y-75444380D01*
X139515809Y-75520571D01*
X139477714Y-75558666D01*
%TO.C,R2*%
X145903904Y-80651333D02*
X145522952Y-80918000D01*
X145903904Y-81108476D02*
X145103904Y-81108476D01*
X145103904Y-80803714D01*
X145142000Y-80727523D01*
X145180095Y-80689428D01*
X145256285Y-80651333D01*
X145370571Y-80651333D01*
X145446761Y-80689428D01*
X145484857Y-80727523D01*
X145522952Y-80803714D01*
X145522952Y-81108476D01*
X145180095Y-80346571D02*
X145142000Y-80308476D01*
X145103904Y-80232285D01*
X145103904Y-80041809D01*
X145142000Y-79965619D01*
X145180095Y-79927523D01*
X145256285Y-79889428D01*
X145332476Y-79889428D01*
X145446761Y-79927523D01*
X145903904Y-80384666D01*
X145903904Y-79889428D01*
%TO.C,C23*%
X150653714Y-85096285D02*
X150691809Y-85134380D01*
X150729904Y-85248666D01*
X150729904Y-85324857D01*
X150691809Y-85439142D01*
X150615619Y-85515333D01*
X150539428Y-85553428D01*
X150387047Y-85591523D01*
X150272761Y-85591523D01*
X150120380Y-85553428D01*
X150044190Y-85515333D01*
X149968000Y-85439142D01*
X149929904Y-85324857D01*
X149929904Y-85248666D01*
X149968000Y-85134380D01*
X150006095Y-85096285D01*
X150006095Y-84791523D02*
X149968000Y-84753428D01*
X149929904Y-84677238D01*
X149929904Y-84486761D01*
X149968000Y-84410571D01*
X150006095Y-84372476D01*
X150082285Y-84334380D01*
X150158476Y-84334380D01*
X150272761Y-84372476D01*
X150729904Y-84829619D01*
X150729904Y-84334380D01*
X149929904Y-84067714D02*
X149929904Y-83572476D01*
X150234666Y-83839142D01*
X150234666Y-83724857D01*
X150272761Y-83648666D01*
X150310857Y-83610571D01*
X150387047Y-83572476D01*
X150577523Y-83572476D01*
X150653714Y-83610571D01*
X150691809Y-83648666D01*
X150729904Y-83724857D01*
X150729904Y-83953428D01*
X150691809Y-84029619D01*
X150653714Y-84067714D01*
%TO.C,C17*%
X159035714Y-93224285D02*
X159073809Y-93262380D01*
X159111904Y-93376666D01*
X159111904Y-93452857D01*
X159073809Y-93567142D01*
X158997619Y-93643333D01*
X158921428Y-93681428D01*
X158769047Y-93719523D01*
X158654761Y-93719523D01*
X158502380Y-93681428D01*
X158426190Y-93643333D01*
X158350000Y-93567142D01*
X158311904Y-93452857D01*
X158311904Y-93376666D01*
X158350000Y-93262380D01*
X158388095Y-93224285D01*
X159111904Y-92462380D02*
X159111904Y-92919523D01*
X159111904Y-92690952D02*
X158311904Y-92690952D01*
X158426190Y-92767142D01*
X158502380Y-92843333D01*
X158540476Y-92919523D01*
X158311904Y-92195714D02*
X158311904Y-91662380D01*
X159111904Y-92005238D01*
%TO.C,C16*%
X162845714Y-99574285D02*
X162883809Y-99612380D01*
X162921904Y-99726666D01*
X162921904Y-99802857D01*
X162883809Y-99917142D01*
X162807619Y-99993333D01*
X162731428Y-100031428D01*
X162579047Y-100069523D01*
X162464761Y-100069523D01*
X162312380Y-100031428D01*
X162236190Y-99993333D01*
X162160000Y-99917142D01*
X162121904Y-99802857D01*
X162121904Y-99726666D01*
X162160000Y-99612380D01*
X162198095Y-99574285D01*
X162921904Y-98812380D02*
X162921904Y-99269523D01*
X162921904Y-99040952D02*
X162121904Y-99040952D01*
X162236190Y-99117142D01*
X162312380Y-99193333D01*
X162350476Y-99269523D01*
X162121904Y-98126666D02*
X162121904Y-98279047D01*
X162160000Y-98355238D01*
X162198095Y-98393333D01*
X162312380Y-98469523D01*
X162464761Y-98507619D01*
X162769523Y-98507619D01*
X162845714Y-98469523D01*
X162883809Y-98431428D01*
X162921904Y-98355238D01*
X162921904Y-98202857D01*
X162883809Y-98126666D01*
X162845714Y-98088571D01*
X162769523Y-98050476D01*
X162579047Y-98050476D01*
X162502857Y-98088571D01*
X162464761Y-98126666D01*
X162426666Y-98202857D01*
X162426666Y-98355238D01*
X162464761Y-98431428D01*
X162502857Y-98469523D01*
X162579047Y-98507619D01*
%TO.C,C14*%
X175037714Y-97669285D02*
X175075809Y-97707380D01*
X175113904Y-97821666D01*
X175113904Y-97897857D01*
X175075809Y-98012142D01*
X174999619Y-98088333D01*
X174923428Y-98126428D01*
X174771047Y-98164523D01*
X174656761Y-98164523D01*
X174504380Y-98126428D01*
X174428190Y-98088333D01*
X174352000Y-98012142D01*
X174313904Y-97897857D01*
X174313904Y-97821666D01*
X174352000Y-97707380D01*
X174390095Y-97669285D01*
X175113904Y-96907380D02*
X175113904Y-97364523D01*
X175113904Y-97135952D02*
X174313904Y-97135952D01*
X174428190Y-97212142D01*
X174504380Y-97288333D01*
X174542476Y-97364523D01*
X174580571Y-96221666D02*
X175113904Y-96221666D01*
X174275809Y-96412142D02*
X174847238Y-96602619D01*
X174847238Y-96107380D01*
%TO.C,C11*%
X154425714Y-80295714D02*
X154387619Y-80333809D01*
X154273333Y-80371904D01*
X154197142Y-80371904D01*
X154082857Y-80333809D01*
X154006666Y-80257619D01*
X153968571Y-80181428D01*
X153930476Y-80029047D01*
X153930476Y-79914761D01*
X153968571Y-79762380D01*
X154006666Y-79686190D01*
X154082857Y-79610000D01*
X154197142Y-79571904D01*
X154273333Y-79571904D01*
X154387619Y-79610000D01*
X154425714Y-79648095D01*
X155187619Y-80371904D02*
X154730476Y-80371904D01*
X154959047Y-80371904D02*
X154959047Y-79571904D01*
X154882857Y-79686190D01*
X154806666Y-79762380D01*
X154730476Y-79800476D01*
X155949523Y-80371904D02*
X155492380Y-80371904D01*
X155720952Y-80371904D02*
X155720952Y-79571904D01*
X155644761Y-79686190D01*
X155568571Y-79762380D01*
X155492380Y-79800476D01*
%TO.C,C8*%
X163861714Y-84715333D02*
X163899809Y-84753428D01*
X163937904Y-84867714D01*
X163937904Y-84943904D01*
X163899809Y-85058190D01*
X163823619Y-85134380D01*
X163747428Y-85172476D01*
X163595047Y-85210571D01*
X163480761Y-85210571D01*
X163328380Y-85172476D01*
X163252190Y-85134380D01*
X163176000Y-85058190D01*
X163137904Y-84943904D01*
X163137904Y-84867714D01*
X163176000Y-84753428D01*
X163214095Y-84715333D01*
X163480761Y-84258190D02*
X163442666Y-84334380D01*
X163404571Y-84372476D01*
X163328380Y-84410571D01*
X163290285Y-84410571D01*
X163214095Y-84372476D01*
X163176000Y-84334380D01*
X163137904Y-84258190D01*
X163137904Y-84105809D01*
X163176000Y-84029619D01*
X163214095Y-83991523D01*
X163290285Y-83953428D01*
X163328380Y-83953428D01*
X163404571Y-83991523D01*
X163442666Y-84029619D01*
X163480761Y-84105809D01*
X163480761Y-84258190D01*
X163518857Y-84334380D01*
X163556952Y-84372476D01*
X163633142Y-84410571D01*
X163785523Y-84410571D01*
X163861714Y-84372476D01*
X163899809Y-84334380D01*
X163937904Y-84258190D01*
X163937904Y-84105809D01*
X163899809Y-84029619D01*
X163861714Y-83991523D01*
X163785523Y-83953428D01*
X163633142Y-83953428D01*
X163556952Y-83991523D01*
X163518857Y-84029619D01*
X163480761Y-84105809D01*
%TO.C,C5*%
X147605714Y-80651333D02*
X147643809Y-80689428D01*
X147681904Y-80803714D01*
X147681904Y-80879904D01*
X147643809Y-80994190D01*
X147567619Y-81070380D01*
X147491428Y-81108476D01*
X147339047Y-81146571D01*
X147224761Y-81146571D01*
X147072380Y-81108476D01*
X146996190Y-81070380D01*
X146920000Y-80994190D01*
X146881904Y-80879904D01*
X146881904Y-80803714D01*
X146920000Y-80689428D01*
X146958095Y-80651333D01*
X146881904Y-79927523D02*
X146881904Y-80308476D01*
X147262857Y-80346571D01*
X147224761Y-80308476D01*
X147186666Y-80232285D01*
X147186666Y-80041809D01*
X147224761Y-79965619D01*
X147262857Y-79927523D01*
X147339047Y-79889428D01*
X147529523Y-79889428D01*
X147605714Y-79927523D01*
X147643809Y-79965619D01*
X147681904Y-80041809D01*
X147681904Y-80232285D01*
X147643809Y-80308476D01*
X147605714Y-80346571D01*
%TO.C,C4*%
X141255714Y-72015333D02*
X141293809Y-72053428D01*
X141331904Y-72167714D01*
X141331904Y-72243904D01*
X141293809Y-72358190D01*
X141217619Y-72434380D01*
X141141428Y-72472476D01*
X140989047Y-72510571D01*
X140874761Y-72510571D01*
X140722380Y-72472476D01*
X140646190Y-72434380D01*
X140570000Y-72358190D01*
X140531904Y-72243904D01*
X140531904Y-72167714D01*
X140570000Y-72053428D01*
X140608095Y-72015333D01*
X140798571Y-71329619D02*
X141331904Y-71329619D01*
X140493809Y-71520095D02*
X141065238Y-71710571D01*
X141065238Y-71215333D01*
%TO.C,C2*%
X142779714Y-82048333D02*
X142817809Y-82086428D01*
X142855904Y-82200714D01*
X142855904Y-82276904D01*
X142817809Y-82391190D01*
X142741619Y-82467380D01*
X142665428Y-82505476D01*
X142513047Y-82543571D01*
X142398761Y-82543571D01*
X142246380Y-82505476D01*
X142170190Y-82467380D01*
X142094000Y-82391190D01*
X142055904Y-82276904D01*
X142055904Y-82200714D01*
X142094000Y-82086428D01*
X142132095Y-82048333D01*
X142132095Y-81743571D02*
X142094000Y-81705476D01*
X142055904Y-81629285D01*
X142055904Y-81438809D01*
X142094000Y-81362619D01*
X142132095Y-81324523D01*
X142208285Y-81286428D01*
X142284476Y-81286428D01*
X142398761Y-81324523D01*
X142855904Y-81781666D01*
X142855904Y-81286428D01*
%TO.C,C1*%
X143795714Y-72015333D02*
X143833809Y-72053428D01*
X143871904Y-72167714D01*
X143871904Y-72243904D01*
X143833809Y-72358190D01*
X143757619Y-72434380D01*
X143681428Y-72472476D01*
X143529047Y-72510571D01*
X143414761Y-72510571D01*
X143262380Y-72472476D01*
X143186190Y-72434380D01*
X143110000Y-72358190D01*
X143071904Y-72243904D01*
X143071904Y-72167714D01*
X143110000Y-72053428D01*
X143148095Y-72015333D01*
X143871904Y-71253428D02*
X143871904Y-71710571D01*
X143871904Y-71482000D02*
X143071904Y-71482000D01*
X143186190Y-71558190D01*
X143262380Y-71634380D01*
X143300476Y-71710571D01*
%TD*%
M02*
