%TF.GenerationSoftware,KiCad,Pcbnew,(5.1.10)-1*%
%TF.CreationDate,2021-07-23T15:14:34+02:00*%
%TF.ProjectId,rpicoscope2,72706963-6f73-4636-9f70-65322e6b6963,rev?*%
%TF.SameCoordinates,Original*%
%TF.FileFunction,Copper,L4,Bot*%
%TF.FilePolarity,Positive*%
%FSLAX46Y46*%
G04 Gerber Fmt 4.6, Leading zero omitted, Abs format (unit mm)*
G04 Created by KiCad (PCBNEW (5.1.10)-1) date 2021-07-23 15:14:34*
%MOMM*%
%LPD*%
G01*
G04 APERTURE LIST*
%TA.AperFunction,SMDPad,CuDef*%
%ADD10R,3.000000X0.400000*%
%TD*%
%TA.AperFunction,SMDPad,CuDef*%
%ADD11R,4.200000X1.350000*%
%TD*%
%TA.AperFunction,SMDPad,CuDef*%
%ADD12R,2.650000X1.000000*%
%TD*%
%TA.AperFunction,ComponentPad*%
%ADD13C,0.600000*%
%TD*%
%TA.AperFunction,ViaPad*%
%ADD14C,0.800000*%
%TD*%
%TA.AperFunction,Conductor*%
%ADD15C,0.500000*%
%TD*%
%TA.AperFunction,Conductor*%
%ADD16C,0.800000*%
%TD*%
%TA.AperFunction,Conductor*%
%ADD17C,0.250000*%
%TD*%
%TA.AperFunction,Conductor*%
%ADD18C,0.254000*%
%TD*%
%TA.AperFunction,Conductor*%
%ADD19C,0.100000*%
%TD*%
G04 APERTURE END LIST*
D10*
%TO.P,U22,41*%
%TO.N,GND*%
X185350000Y-110550000D03*
%TO.P,U22,42*%
%TO.N,Net-(R22-Pad2)*%
X185350000Y-111350000D03*
%TO.P,U22,43*%
%TO.N,GND*%
X185350000Y-112150000D03*
%TO.P,U22,45*%
X185350000Y-113750000D03*
%TO.P,U22,48*%
X185350000Y-116150000D03*
%TO.P,U22,44*%
X185350000Y-112950000D03*
%TO.P,U22,46*%
X185350000Y-114550000D03*
%TO.P,U22,47*%
X185350000Y-115350000D03*
%TO.P,U22,31*%
%TO.N,Net-(U22-Pad31)*%
X185350000Y-102550000D03*
%TO.P,U22,32*%
%TO.N,Net-(U22-Pad32)*%
X185350000Y-103350000D03*
%TO.P,U22,33*%
%TO.N,GND*%
X185350000Y-104150000D03*
%TO.P,U22,35*%
%TO.N,Net-(U22-Pad35)*%
X185350000Y-105750000D03*
%TO.P,U22,38*%
%TO.N,RST*%
X185350000Y-108150000D03*
%TO.P,U22,34*%
%TO.N,Net-(U22-Pad34)*%
X185350000Y-104950000D03*
%TO.P,U22,36*%
%TO.N,Net-(U22-Pad36)*%
X185350000Y-106550000D03*
%TO.P,U22,37*%
%TO.N,Net-(U22-Pad37)*%
X185350000Y-107350000D03*
%TO.P,U22,39*%
%TO.N,+3V3*%
X185350000Y-108950000D03*
%TO.P,U22,40*%
X185350000Y-109750000D03*
%TO.P,U22,21*%
%TO.N,DB6*%
X185350000Y-94550000D03*
%TO.P,U22,22*%
%TO.N,DB7*%
X185350000Y-95350000D03*
%TO.P,U22,23*%
%TO.N,Net-(U22-Pad23)*%
X185350000Y-96150000D03*
%TO.P,U22,25*%
%TO.N,Net-(U22-Pad25)*%
X185350000Y-97750000D03*
%TO.P,U22,28*%
%TO.N,Net-(U22-Pad28)*%
X185350000Y-100150000D03*
%TO.P,U22,24*%
%TO.N,Net-(U22-Pad24)*%
X185350000Y-96950000D03*
%TO.P,U22,26*%
%TO.N,Net-(U22-Pad26)*%
X185350000Y-98550000D03*
%TO.P,U22,27*%
%TO.N,Net-(U22-Pad27)*%
X185350000Y-99350000D03*
%TO.P,U22,29*%
%TO.N,Net-(U22-Pad29)*%
X185350000Y-100950000D03*
%TO.P,U22,30*%
%TO.N,Net-(U22-Pad30)*%
X185350000Y-101750000D03*
%TO.P,U22,11*%
%TO.N,RD*%
X185350000Y-86550000D03*
%TO.P,U22,12*%
%TO.N,Net-(U22-Pad12)*%
X185350000Y-87350000D03*
%TO.P,U22,13*%
%TO.N,Net-(U22-Pad13)*%
X185350000Y-88150000D03*
%TO.P,U22,15*%
%TO.N,DB0*%
X185350000Y-89750000D03*
%TO.P,U22,18*%
%TO.N,DB3*%
X185350000Y-92150000D03*
%TO.P,U22,14*%
%TO.N,GND*%
X185350000Y-88950000D03*
%TO.P,U22,16*%
%TO.N,DB1*%
X185350000Y-90550000D03*
%TO.P,U22,17*%
%TO.N,DB2*%
X185350000Y-91350000D03*
%TO.P,U22,19*%
%TO.N,DB4*%
X185350000Y-92950000D03*
%TO.P,U22,20*%
%TO.N,DB5*%
X185350000Y-93750000D03*
%TO.P,U22,10*%
%TO.N,WR*%
X185350000Y-85750000D03*
%TO.P,U22,9*%
%TO.N,RS*%
X185350000Y-84950000D03*
%TO.P,U22,7*%
%TO.N,Net-(U22-Pad7)*%
X185350000Y-83350000D03*
%TO.P,U22,8*%
%TO.N,CS*%
X185350000Y-84150000D03*
%TO.P,U22,6*%
%TO.N,+3V3*%
X185350000Y-82550000D03*
%TO.P,U22,5*%
X185350000Y-81750000D03*
%TO.P,U22,4*%
%TO.N,XR*%
X185350000Y-80950000D03*
%TO.P,U22,3*%
%TO.N,YD*%
X185350000Y-80150000D03*
%TO.P,U22,2*%
%TO.N,XL*%
X185350000Y-79350000D03*
%TO.P,U22,1*%
%TO.N,YU*%
X185350000Y-78550000D03*
%TD*%
D11*
%TO.P,J6,2*%
%TO.N,GNDA*%
X122755000Y-118395000D03*
X122755000Y-112745000D03*
%TD*%
%TO.P,J1,2*%
%TO.N,GNDA*%
X122755000Y-99980000D03*
X122755000Y-94330000D03*
%TD*%
D12*
%TO.P,U4,13*%
%TO.N,GNDA*%
X142240000Y-78105000D03*
D13*
X141240000Y-78105000D03*
X143240000Y-78105000D03*
X142240000Y-78105000D03*
%TD*%
D14*
%TO.N,GNDA*%
X130810000Y-100965000D03*
X151765000Y-92710000D03*
X138684000Y-99314000D03*
X151765000Y-101092000D03*
X128905000Y-100965000D03*
X146812000Y-73406000D03*
X163703000Y-76073000D03*
X163703000Y-73533000D03*
X135890000Y-78994000D03*
X148590000Y-76708000D03*
X137668000Y-82804000D03*
X139700000Y-73406000D03*
X158750000Y-93980000D03*
X162560000Y-97155000D03*
X160020000Y-97790000D03*
X138430000Y-92710000D03*
X128778000Y-119380000D03*
X151765000Y-119634000D03*
X153035000Y-110490000D03*
X142875000Y-104775000D03*
X139065000Y-117475000D03*
X142875000Y-86360000D03*
X159385000Y-108585000D03*
X161925000Y-102235000D03*
X153035000Y-81407000D03*
X123825000Y-92710000D03*
X123825000Y-101600000D03*
X136525000Y-110490000D03*
X162306000Y-82550000D03*
X151892000Y-82550000D03*
X123190000Y-111252000D03*
X123190000Y-119888000D03*
%TO.N,+5V*%
X144272000Y-80010000D03*
X140335000Y-80010000D03*
X171450000Y-80010000D03*
X142240000Y-74930000D03*
X174498000Y-111760000D03*
X199390000Y-73914000D03*
X199390000Y-72136000D03*
X198755000Y-73025000D03*
X200025000Y-73025000D03*
%TO.N,+3.3VA*%
X132715000Y-93345000D03*
X143510000Y-101600000D03*
X137160000Y-101600000D03*
X149860000Y-101600000D03*
X151765000Y-88900000D03*
X158750000Y-91440000D03*
X162560000Y-94615000D03*
X160020000Y-100330000D03*
X148590000Y-78994000D03*
X141605000Y-86360000D03*
X137160000Y-120015000D03*
X143510000Y-120015000D03*
X149860000Y-120015000D03*
X153035000Y-107950000D03*
X141605000Y-104775000D03*
X132588000Y-111506000D03*
X161925000Y-104775000D03*
X163830000Y-109220000D03*
X155575000Y-109435000D03*
X162306000Y-86614000D03*
X151892000Y-86614000D03*
%TO.N,-3V3*%
X134620000Y-92710000D03*
X147320000Y-101600000D03*
X140970000Y-101600000D03*
X134620000Y-101600000D03*
X135890000Y-76962000D03*
X132715000Y-100965000D03*
X139065000Y-86360000D03*
X154305000Y-97155000D03*
X132588000Y-119380000D03*
X134620000Y-120015000D03*
X140970000Y-120015000D03*
X147320000Y-120015000D03*
X154940000Y-114935000D03*
X154940000Y-116205000D03*
X139065000Y-104775000D03*
X135382000Y-111125000D03*
X145415000Y-111760000D03*
X145288000Y-93130000D03*
%TO.N,+3V3*%
X177292000Y-95250000D03*
X171450000Y-88900000D03*
X168402000Y-113284000D03*
X166116000Y-108204000D03*
X172466000Y-122936000D03*
X187706000Y-82550000D03*
X177546000Y-122174000D03*
X179070000Y-108966000D03*
%TO.N,GND*%
X199390000Y-78994000D03*
X200025000Y-78105000D03*
X199390000Y-77216000D03*
X198755000Y-78105000D03*
X177292000Y-99060000D03*
X167513000Y-73533000D03*
X167513000Y-76073000D03*
X168910000Y-80010000D03*
X168910000Y-88900000D03*
X172466000Y-113284000D03*
X166116000Y-104140000D03*
X168402000Y-122936000D03*
X199644000Y-91186000D03*
X199644000Y-103632000D03*
X199644000Y-115570000D03*
X192532000Y-119634000D03*
X180086000Y-78486000D03*
X180086000Y-91186000D03*
X180086000Y-103886000D03*
X180086000Y-115824000D03*
X177546000Y-108966000D03*
%TO.N,VINA*%
X154940000Y-102689999D03*
X160020000Y-116840000D03*
X153670000Y-101092000D03*
X154997002Y-105664000D03*
%TO.N,Net-(R10-Pad1)*%
X137795000Y-106680000D03*
X140335000Y-117475000D03*
X139700000Y-113665000D03*
%TO.N,VREF*%
X165100000Y-93980000D03*
X155956000Y-87122000D03*
%TO.N,TRIG*%
X159766000Y-107188000D03*
X168148000Y-102870000D03*
X197358000Y-98044000D03*
%TO.N,CLK*%
X174752000Y-89408000D03*
X198919000Y-96012000D03*
%TO.N,VIN*%
X165100000Y-96520000D03*
X160020000Y-114935000D03*
X154178000Y-103378000D03*
%TO.N,VINB*%
X154940000Y-104140000D03*
X153670000Y-119634000D03*
%TO.N,SEL*%
X159766000Y-105918000D03*
X168148000Y-101600000D03*
X198120000Y-97028000D03*
%TO.N,Net-(R27-Pad2)*%
X133858000Y-99060000D03*
X137795000Y-94615000D03*
%TO.N,Net-(R28-Pad1)*%
X137795000Y-88900000D03*
X140208000Y-98806000D03*
X140176500Y-95218500D03*
%TO.N,Net-(R8-Pad2)*%
X137795000Y-113665000D03*
X133858000Y-117602000D03*
%TO.N,Net-(R22-Pad2)*%
X176022000Y-111760000D03*
%TO.N,SDA*%
X148336000Y-88138000D03*
X148336000Y-106680000D03*
X157480000Y-115062000D03*
X171704000Y-102870000D03*
X175514000Y-117602000D03*
X178054000Y-117602000D03*
X196342000Y-117602000D03*
%TO.N,SCL*%
X147574000Y-87376000D03*
X147574000Y-105918000D03*
X156718000Y-114300000D03*
X170942000Y-102108000D03*
X176276000Y-116840000D03*
X156718000Y-117602000D03*
X156718000Y-119634000D03*
X169672000Y-115316000D03*
X169422653Y-117851347D03*
X193548000Y-116840000D03*
%TO.N,XR*%
X170180000Y-110236000D03*
%TO.N,YU*%
X170942000Y-109474000D03*
%TO.N,XL*%
X173736000Y-107696000D03*
%TO.N,YD*%
X173736000Y-106172000D03*
%TO.N,SEL0*%
X142193866Y-90237258D03*
X176276000Y-119888000D03*
%TO.N,SEL1*%
X136105000Y-90805000D03*
X175514000Y-120650000D03*
%TO.N,A00*%
X146812000Y-88138000D03*
X175514000Y-119126000D03*
%TO.N,A02*%
X165354000Y-117602000D03*
X158242000Y-114300000D03*
X158242000Y-117602000D03*
X158242000Y-119634000D03*
%TO.N,SEL2*%
X165354000Y-119126000D03*
X142240000Y-108585000D03*
%TO.N,SEL3*%
X164592000Y-119888000D03*
X136525000Y-109220000D03*
%TO.N,A01*%
X146812000Y-106680000D03*
X164592000Y-118364000D03*
%TO.N,CS*%
X192786000Y-83058000D03*
%TO.N,RS*%
X193548000Y-84074000D03*
%TO.N,WR*%
X194310000Y-85090000D03*
%TO.N,RD*%
X195072000Y-86106000D03*
%TO.N,RST*%
X170180000Y-102870000D03*
X196596000Y-103886000D03*
%TO.N,DB7*%
X192786000Y-95250000D03*
%TO.N,DB6*%
X192024000Y-94234000D03*
%TO.N,DB5*%
X191262000Y-93218000D03*
%TO.N,DB4*%
X190500000Y-92202000D03*
%TO.N,DB3*%
X192786000Y-90170000D03*
%TO.N,DB2*%
X192024000Y-89154000D03*
%TO.N,DB1*%
X191262000Y-88138000D03*
%TO.N,DB0*%
X190500000Y-87122000D03*
%TD*%
D15*
%TO.N,GNDA*%
X122770001Y-99964999D02*
X122755000Y-99980000D01*
D16*
X142240000Y-78105000D02*
X144653000Y-78105000D01*
X142240000Y-78105000D02*
X140081000Y-78105000D01*
X142240000Y-78105000D02*
X142240000Y-76962000D01*
X142240000Y-78105000D02*
X142240000Y-79248000D01*
D17*
%TO.N,+3V3*%
X185350000Y-82550000D02*
X187706000Y-82550000D01*
X185350000Y-108950000D02*
X179086000Y-108950000D01*
X179086000Y-108950000D02*
X179070000Y-108966000D01*
X179854000Y-109750000D02*
X179070000Y-108966000D01*
X185350000Y-109750000D02*
X179854000Y-109750000D01*
X186906000Y-81750000D02*
X187706000Y-82550000D01*
X185350000Y-81750000D02*
X186906000Y-81750000D01*
%TO.N,GND*%
X185350000Y-116076592D02*
X185313296Y-116113296D01*
X182322000Y-88950000D02*
X180086000Y-91186000D01*
X185350000Y-88950000D02*
X182322000Y-88950000D01*
X180350000Y-104150000D02*
X180086000Y-103886000D01*
X185350000Y-104150000D02*
X180350000Y-104150000D01*
X180412000Y-116150000D02*
X180086000Y-115824000D01*
X179130000Y-110550000D02*
X177546000Y-108966000D01*
X185350000Y-110550000D02*
X179130000Y-110550000D01*
X182300000Y-116150000D02*
X180412000Y-116150000D01*
X185350000Y-116150000D02*
X182300000Y-116150000D01*
X182452000Y-112950000D02*
X182300000Y-113102000D01*
X185350000Y-112950000D02*
X182452000Y-112950000D01*
X182524000Y-113750000D02*
X182300000Y-113974000D01*
X185350000Y-113750000D02*
X182524000Y-113750000D01*
X182300000Y-113102000D02*
X182300000Y-113974000D01*
X182486000Y-114550000D02*
X182300000Y-114736000D01*
X185350000Y-114550000D02*
X182486000Y-114550000D01*
X182300000Y-113974000D02*
X182300000Y-114736000D01*
X182592000Y-115350000D02*
X182300000Y-115642000D01*
X185350000Y-115350000D02*
X182592000Y-115350000D01*
X182300000Y-115642000D02*
X182300000Y-116150000D01*
X182300000Y-114736000D02*
X182300000Y-115642000D01*
X182300000Y-112340000D02*
X182300000Y-112704000D01*
X182490000Y-112150000D02*
X182300000Y-112340000D01*
X185350000Y-112150000D02*
X182490000Y-112150000D01*
X182300000Y-112704000D02*
X182300000Y-113102000D01*
X182300000Y-112594000D02*
X182300000Y-112704000D01*
D15*
%TO.N,VINA*%
X153670000Y-101419999D02*
X154940000Y-102689999D01*
X153670000Y-101092000D02*
X153670000Y-101419999D01*
X159169999Y-115989999D02*
X160020000Y-116840000D01*
X159169999Y-113957999D02*
X159169999Y-115989999D01*
X156425001Y-111213001D02*
X159169999Y-113957999D01*
X156425001Y-107091999D02*
X156425001Y-111213001D01*
X154997002Y-105664000D02*
X156425001Y-107091999D01*
%TO.N,Net-(R10-Pad1)*%
X140335000Y-114300000D02*
X139700000Y-113665000D01*
X140335000Y-117475000D02*
X140335000Y-114300000D01*
X139700000Y-108585000D02*
X137795000Y-106680000D01*
X139700000Y-113665000D02*
X139700000Y-108585000D01*
%TO.N,VREF*%
X158242000Y-87122000D02*
X165100000Y-93980000D01*
X155956000Y-87122000D02*
X158242000Y-87122000D01*
D17*
%TO.N,TRIG*%
X161290000Y-107188000D02*
X159766000Y-107188000D01*
X166312998Y-102870000D02*
X166370000Y-102870000D01*
X161994998Y-107188000D02*
X166312998Y-102870000D01*
X159766000Y-107188000D02*
X161994998Y-107188000D01*
X166370000Y-102870000D02*
X168148000Y-102870000D01*
%TO.N,VIN*%
X158205000Y-103415000D02*
X154215000Y-103415000D01*
X154215000Y-103415000D02*
X154178000Y-103378000D01*
D15*
X165100000Y-96520000D02*
X158205000Y-103415000D01*
X158205000Y-108663002D02*
X158205000Y-103415000D01*
X160020000Y-110478002D02*
X158205000Y-108663002D01*
X160020000Y-114935000D02*
X160020000Y-110478002D01*
%TO.N,VINB*%
X153885001Y-105194999D02*
X154940000Y-104140000D01*
X153885001Y-119418999D02*
X153885001Y-105194999D01*
X153670000Y-119634000D02*
X153885001Y-119418999D01*
D17*
%TO.N,SEL*%
X159766000Y-105918000D02*
X161855002Y-105918000D01*
X166241590Y-101600000D02*
X168148000Y-101600000D01*
X161923590Y-105918000D02*
X166241590Y-101600000D01*
X161855002Y-105918000D02*
X161923590Y-105918000D01*
D15*
%TO.N,Net-(R27-Pad2)*%
X133858000Y-98552000D02*
X134112000Y-98298000D01*
X133858000Y-99060000D02*
X133858000Y-98552000D01*
X134112000Y-98298000D02*
X137795000Y-94615000D01*
%TO.N,Net-(R28-Pad1)*%
X140208000Y-95250000D02*
X140176500Y-95218500D01*
X140208000Y-98806000D02*
X140208000Y-95250000D01*
X140176500Y-91281500D02*
X137795000Y-88900000D01*
X140176500Y-95218500D02*
X140176500Y-91281500D01*
%TO.N,Net-(R8-Pad2)*%
X133858000Y-117602000D02*
X137795000Y-113665000D01*
D17*
%TO.N,Net-(R22-Pad2)*%
X176432000Y-111350000D02*
X176022000Y-111760000D01*
X185350000Y-111350000D02*
X176432000Y-111350000D01*
%TO.N,SDA*%
X173736000Y-117602000D02*
X175514000Y-117602000D01*
X170942000Y-117602000D02*
X173736000Y-117602000D01*
X175514000Y-117405002D02*
X175514000Y-117602000D01*
X169799000Y-116459000D02*
X170942000Y-117602000D01*
X163830000Y-116332000D02*
X161834999Y-118327001D01*
X169672000Y-116332000D02*
X163830000Y-116332000D01*
X169799000Y-116459000D02*
X169672000Y-116332000D01*
X157480000Y-118290002D02*
X157516999Y-118327001D01*
X157480000Y-115062000D02*
X157480000Y-118290002D01*
X154538997Y-120740001D02*
X153506001Y-120740001D01*
X156951997Y-118327001D02*
X154538997Y-120740001D01*
X158532999Y-118327001D02*
X156951997Y-118327001D01*
X153833999Y-120740001D02*
X153506001Y-120740001D01*
X161834999Y-118327001D02*
X158532999Y-118327001D01*
X158532999Y-118327001D02*
X157516999Y-118327001D01*
X148624011Y-106968011D02*
X148336000Y-106680000D01*
X148624011Y-119852013D02*
X148624011Y-106968011D01*
X149511999Y-120740001D02*
X148624011Y-119852013D01*
X153506001Y-120740001D02*
X149511999Y-120740001D01*
X148735999Y-88537999D02*
X148336000Y-88138000D01*
X148735999Y-106280001D02*
X148735999Y-88537999D01*
X148336000Y-106680000D02*
X148735999Y-106280001D01*
X171704000Y-104902000D02*
X171704000Y-102870000D01*
X168656000Y-108332410D02*
X171704000Y-105284410D01*
X171704000Y-105284410D02*
X171704000Y-104902000D01*
X168656000Y-111760000D02*
X168656000Y-108332410D01*
X170434000Y-113538000D02*
X168656000Y-111760000D01*
X170434000Y-115824000D02*
X170434000Y-113538000D01*
X169799000Y-116459000D02*
X170434000Y-115824000D01*
X195580000Y-117602000D02*
X196342000Y-117602000D01*
X178054000Y-117602000D02*
X195580000Y-117602000D01*
%TO.N,SCL*%
X176276000Y-117913002D02*
X176276000Y-116840000D01*
X175788003Y-118400999D02*
X176276000Y-117913002D01*
X170978999Y-118400999D02*
X175788003Y-118400999D01*
X169454999Y-116876999D02*
X170978999Y-118400999D01*
X170942000Y-102108000D02*
X170942000Y-103181002D01*
X169672000Y-115316000D02*
X169672000Y-115316000D01*
X169454999Y-117819001D02*
X169422653Y-117851347D01*
X169454999Y-116876999D02*
X169454999Y-117819001D01*
X156718000Y-117602000D02*
X156718000Y-114300000D01*
X169454999Y-116876999D02*
X164301001Y-116876999D01*
X157480000Y-118872000D02*
X156718000Y-119634000D01*
X162306000Y-118872000D02*
X157480000Y-118872000D01*
X164301001Y-116876999D02*
X162306000Y-118872000D01*
X147574000Y-107188000D02*
X147574000Y-105918000D01*
X148045001Y-107659001D02*
X147574000Y-107188000D01*
X148045001Y-119909413D02*
X148045001Y-107659001D01*
X149325599Y-121190011D02*
X148045001Y-119909413D01*
X155161989Y-121190011D02*
X149325599Y-121190011D01*
X156718000Y-119634000D02*
X155161989Y-121190011D01*
X147574000Y-105918000D02*
X148285989Y-105206011D01*
X147574000Y-88449002D02*
X147574000Y-87376000D01*
X148285989Y-89160991D02*
X147574000Y-88449002D01*
X148285989Y-105206011D02*
X148285989Y-89160991D01*
X169672000Y-113480998D02*
X168148000Y-111956998D01*
X169672000Y-115316000D02*
X169672000Y-113480998D01*
X168148000Y-108204000D02*
X170942000Y-105410000D01*
X168148000Y-111956998D02*
X168148000Y-108204000D01*
X170942000Y-103181002D02*
X170942000Y-105410000D01*
X190246000Y-116840000D02*
X193548000Y-116840000D01*
X176276000Y-116840000D02*
X190246000Y-116840000D01*
X190246000Y-116840000D02*
X190500000Y-116840000D01*
%TO.N,XR*%
X182956000Y-80950000D02*
X185350000Y-80950000D01*
X170180000Y-110236000D02*
X172466000Y-110236000D01*
X175484510Y-107656902D02*
X175484510Y-92993490D01*
X175484510Y-92993490D02*
X176827031Y-91650969D01*
X172905412Y-110236000D02*
X175484510Y-107656902D01*
X170180000Y-110236000D02*
X172905412Y-110236000D01*
X185350000Y-80950000D02*
X180290410Y-80950000D01*
X180290410Y-80950000D02*
X176827031Y-84413379D01*
X176827031Y-84413379D02*
X176827031Y-87419031D01*
X176827031Y-87419031D02*
X176827031Y-87078969D01*
X176827031Y-91650969D02*
X176827031Y-87419031D01*
%TO.N,YU*%
X173031002Y-109474000D02*
X170942000Y-109474000D01*
X175034501Y-107470501D02*
X173031002Y-109474000D01*
X175034501Y-92807089D02*
X175034501Y-107470501D01*
X176377021Y-91464569D02*
X175034501Y-92807089D01*
X176377021Y-84226979D02*
X176377021Y-91464569D01*
X182054000Y-78550000D02*
X176377021Y-84226979D01*
X185350000Y-78550000D02*
X182054000Y-78550000D01*
%TO.N,XL*%
X174498000Y-106934000D02*
X173736000Y-107696000D01*
X174498000Y-92707180D02*
X174498000Y-106934000D01*
X175927011Y-91278169D02*
X174498000Y-92707180D01*
X175927011Y-79850989D02*
X175927011Y-91278169D01*
X178562000Y-77216000D02*
X175927011Y-79850989D01*
X187706000Y-77724000D02*
X187198000Y-77216000D01*
X187706000Y-78994000D02*
X187706000Y-77724000D01*
X187198000Y-77216000D02*
X178562000Y-77216000D01*
X187350000Y-79350000D02*
X187706000Y-78994000D01*
X185350000Y-79350000D02*
X187350000Y-79350000D01*
%TO.N,YD*%
X173736000Y-106172000D02*
X173736000Y-105918000D01*
X175477001Y-79538999D02*
X175477001Y-91091769D01*
X175477001Y-91091769D02*
X173990000Y-92578770D01*
X178308000Y-76708000D02*
X175477001Y-79538999D01*
X187960000Y-76708000D02*
X178308000Y-76708000D01*
X173990000Y-92578770D02*
X173990000Y-105918000D01*
X188468000Y-77216000D02*
X187960000Y-76708000D01*
X173990000Y-105918000D02*
X173736000Y-106172000D01*
X188468000Y-79756000D02*
X188468000Y-77216000D01*
X188074000Y-80150000D02*
X188468000Y-79756000D01*
X185350000Y-80150000D02*
X188074000Y-80150000D01*
%TO.N,SEL0*%
X141478000Y-90953124D02*
X142193866Y-90237258D01*
X141478000Y-99245412D02*
X141478000Y-90953124D01*
X130408010Y-110315402D02*
X141478000Y-99245412D01*
X134327980Y-123659980D02*
X130408009Y-119740009D01*
X162529432Y-123659980D02*
X134327980Y-123659980D01*
X166301412Y-119888000D02*
X162529432Y-123659980D01*
X130408009Y-119740009D02*
X130408010Y-110315402D01*
X176276000Y-119888000D02*
X166301412Y-119888000D01*
%TO.N,SEL1*%
X138143001Y-88174999D02*
X137446999Y-88174999D01*
X140933001Y-90964999D02*
X138143001Y-88174999D01*
X129958001Y-110129001D02*
X140933001Y-99154001D01*
X129958001Y-110833999D02*
X129958001Y-110129001D01*
X129957999Y-110834001D02*
X129958001Y-110833999D01*
X136105000Y-89516998D02*
X136105000Y-90805000D01*
X129957999Y-120051999D02*
X129957999Y-110834001D01*
X134015990Y-124109990D02*
X129957999Y-120051999D01*
X140933001Y-99154001D02*
X140933001Y-90964999D01*
X162715832Y-124109990D02*
X134015990Y-124109990D01*
X137446999Y-88174999D02*
X136105000Y-89516998D01*
X166175822Y-120650000D02*
X162715832Y-124109990D01*
X175514000Y-120650000D02*
X166175822Y-120650000D01*
%TO.N,A00*%
X145796000Y-88138000D02*
X146812000Y-88138000D01*
X141928010Y-92005990D02*
X145796000Y-88138000D01*
X141928010Y-99431812D02*
X141928010Y-92005990D01*
X130858019Y-110501803D02*
X141928010Y-99431812D01*
X130858019Y-119428019D02*
X130858019Y-110501803D01*
X134550002Y-123120002D02*
X130858019Y-119428019D01*
X162433000Y-123120002D02*
X134550002Y-123120002D01*
X166427002Y-119126000D02*
X162433000Y-123120002D01*
X175514000Y-119126000D02*
X166427002Y-119126000D01*
%TO.N,A02*%
X158242000Y-114750998D02*
X158242000Y-114300000D01*
X158242000Y-117602000D02*
X158242000Y-114750998D01*
X162248998Y-119634000D02*
X164280998Y-117602000D01*
X164280998Y-117602000D02*
X165354000Y-117602000D01*
X158242000Y-119634000D02*
X162248998Y-119634000D01*
%TO.N,SEL2*%
X164029818Y-119126000D02*
X165354000Y-119126000D01*
X161065787Y-122090031D02*
X164029818Y-119126000D01*
X147685619Y-122090031D02*
X161065787Y-122090031D01*
X145961992Y-120366404D02*
X147685619Y-122090031D01*
X145961991Y-113379993D02*
X145961992Y-120366404D01*
X142240000Y-109658002D02*
X145961991Y-113379993D01*
X142240000Y-108585000D02*
X142240000Y-109658002D01*
%TO.N,SEL3*%
X136525000Y-106876998D02*
X136525000Y-109220000D01*
X137446999Y-105954999D02*
X136525000Y-106876998D01*
X138143001Y-105954999D02*
X137446999Y-105954999D01*
X164592000Y-119888000D02*
X163904228Y-119888000D01*
X140150010Y-107962008D02*
X140150010Y-108204422D01*
X138143001Y-105954999D02*
X140150010Y-107962008D01*
X140150010Y-108204422D02*
X145511983Y-113566395D01*
X161252188Y-122540040D02*
X163904228Y-119888000D01*
X147499219Y-122540041D02*
X161252188Y-122540040D01*
X145511983Y-120552805D02*
X147499219Y-122540041D01*
X145511983Y-113566395D02*
X145511983Y-120552805D01*
%TO.N,A01*%
X164155408Y-118364000D02*
X164592000Y-118364000D01*
X160879387Y-121640021D02*
X164155408Y-118364000D01*
X147872019Y-121640021D02*
X160879387Y-121640021D01*
X146412001Y-120180003D02*
X147872019Y-121640021D01*
X146412001Y-107079999D02*
X146412001Y-120180003D01*
X146812000Y-106680000D02*
X146412001Y-107079999D01*
%TO.N,CS*%
X192786000Y-83058000D02*
X190500000Y-83058000D01*
X189408000Y-84150000D02*
X185350000Y-84150000D01*
X190500000Y-83058000D02*
X189408000Y-84150000D01*
%TO.N,RS*%
X193548000Y-84074000D02*
X190500000Y-84074000D01*
X189624000Y-84950000D02*
X185350000Y-84950000D01*
X190500000Y-84074000D02*
X189624000Y-84950000D01*
%TO.N,WR*%
X194310000Y-85090000D02*
X190500000Y-85090000D01*
X189840000Y-85750000D02*
X185350000Y-85750000D01*
X190500000Y-85090000D02*
X189840000Y-85750000D01*
%TO.N,RD*%
X185350000Y-86550000D02*
X186950998Y-86550000D01*
X190442998Y-86106000D02*
X195072000Y-86106000D01*
X189998998Y-86550000D02*
X190442998Y-86106000D01*
X185350000Y-86550000D02*
X189998998Y-86550000D01*
%TO.N,RST*%
X170180000Y-101796998D02*
X170180000Y-102870000D01*
X171290001Y-101382999D02*
X170593999Y-101382999D01*
X172429001Y-106913997D02*
X172429001Y-102521999D01*
X170593999Y-101382999D02*
X170180000Y-101796998D01*
X169418000Y-109924998D02*
X172429001Y-106913997D01*
X169418000Y-110547002D02*
X169418000Y-109924998D01*
X169831999Y-110961001D02*
X169418000Y-110547002D01*
X172429001Y-102521999D02*
X171290001Y-101382999D01*
X172816821Y-110961001D02*
X169831999Y-110961001D01*
X175627822Y-108150000D02*
X172816821Y-110961001D01*
X185350000Y-108150000D02*
X175627822Y-108150000D01*
X192332000Y-108150000D02*
X196596000Y-103886000D01*
X185350000Y-108150000D02*
X192332000Y-108150000D01*
%TO.N,DB7*%
X192686000Y-95350000D02*
X192786000Y-95250000D01*
X185350000Y-95350000D02*
X192686000Y-95350000D01*
%TO.N,DB6*%
X191708000Y-94550000D02*
X192024000Y-94234000D01*
X185350000Y-94550000D02*
X191708000Y-94550000D01*
%TO.N,DB5*%
X190730000Y-93750000D02*
X191262000Y-93218000D01*
X189254000Y-93750000D02*
X190730000Y-93750000D01*
X185350000Y-93750000D02*
X189254000Y-93750000D01*
X189254000Y-93750000D02*
X189714000Y-93750000D01*
%TO.N,DB4*%
X189752000Y-92950000D02*
X190500000Y-92202000D01*
X185350000Y-92950000D02*
X189752000Y-92950000D01*
%TO.N,DB3*%
X191262000Y-90170000D02*
X192786000Y-90170000D01*
X189282000Y-92150000D02*
X191262000Y-90170000D01*
X185350000Y-92150000D02*
X189282000Y-92150000D01*
%TO.N,DB2*%
X185350000Y-91350000D02*
X186780000Y-91350000D01*
X191008000Y-89154000D02*
X192024000Y-89154000D01*
X188812000Y-91350000D02*
X191008000Y-89154000D01*
X185350000Y-91350000D02*
X188812000Y-91350000D01*
%TO.N,DB1*%
X185350000Y-90550000D02*
X186835002Y-90550000D01*
X190754000Y-88138000D02*
X191262000Y-88138000D01*
X188342000Y-90550000D02*
X190754000Y-88138000D01*
X185350000Y-90550000D02*
X188342000Y-90550000D01*
%TO.N,DB0*%
X185350000Y-89750000D02*
X186835002Y-89750000D01*
X187872000Y-89750000D02*
X190500000Y-87122000D01*
X185350000Y-89750000D02*
X187872000Y-89750000D01*
%TD*%
D18*
%TO.N,GND*%
X203990001Y-124190000D02*
X166285000Y-124190000D01*
X166285000Y-122834061D01*
X171431000Y-122834061D01*
X171431000Y-123037939D01*
X171470774Y-123237898D01*
X171548795Y-123426256D01*
X171662063Y-123595774D01*
X171806226Y-123739937D01*
X171975744Y-123853205D01*
X172164102Y-123931226D01*
X172364061Y-123971000D01*
X172567939Y-123971000D01*
X172767898Y-123931226D01*
X172956256Y-123853205D01*
X173125774Y-123739937D01*
X173269937Y-123595774D01*
X173383205Y-123426256D01*
X173461226Y-123237898D01*
X173501000Y-123037939D01*
X173501000Y-122834061D01*
X173461226Y-122634102D01*
X173383205Y-122445744D01*
X173269937Y-122276226D01*
X173125774Y-122132063D01*
X173035975Y-122072061D01*
X176511000Y-122072061D01*
X176511000Y-122275939D01*
X176550774Y-122475898D01*
X176628795Y-122664256D01*
X176742063Y-122833774D01*
X176886226Y-122977937D01*
X177055744Y-123091205D01*
X177244102Y-123169226D01*
X177444061Y-123209000D01*
X177647939Y-123209000D01*
X177847898Y-123169226D01*
X178036256Y-123091205D01*
X178205774Y-122977937D01*
X178349937Y-122833774D01*
X178463205Y-122664256D01*
X178541226Y-122475898D01*
X178581000Y-122275939D01*
X178581000Y-122072061D01*
X178541226Y-121872102D01*
X178463205Y-121683744D01*
X178349937Y-121514226D01*
X178205774Y-121370063D01*
X178036256Y-121256795D01*
X177847898Y-121178774D01*
X177647939Y-121139000D01*
X177444061Y-121139000D01*
X177244102Y-121178774D01*
X177055744Y-121256795D01*
X176886226Y-121370063D01*
X176742063Y-121514226D01*
X176628795Y-121683744D01*
X176550774Y-121872102D01*
X176511000Y-122072061D01*
X173035975Y-122072061D01*
X172956256Y-122018795D01*
X172767898Y-121940774D01*
X172567939Y-121901000D01*
X172364061Y-121901000D01*
X172164102Y-121940774D01*
X171975744Y-122018795D01*
X171806226Y-122132063D01*
X171662063Y-122276226D01*
X171548795Y-122445744D01*
X171470774Y-122634102D01*
X171431000Y-122834061D01*
X166285000Y-122834061D01*
X166285000Y-121615624D01*
X166490624Y-121410000D01*
X174810289Y-121410000D01*
X174854226Y-121453937D01*
X175023744Y-121567205D01*
X175212102Y-121645226D01*
X175412061Y-121685000D01*
X175615939Y-121685000D01*
X175815898Y-121645226D01*
X176004256Y-121567205D01*
X176173774Y-121453937D01*
X176317937Y-121309774D01*
X176431205Y-121140256D01*
X176509226Y-120951898D01*
X176520619Y-120894619D01*
X176577898Y-120883226D01*
X176766256Y-120805205D01*
X176935774Y-120691937D01*
X177079937Y-120547774D01*
X177193205Y-120378256D01*
X177271226Y-120189898D01*
X177311000Y-119989939D01*
X177311000Y-119786061D01*
X177271226Y-119586102D01*
X177193205Y-119397744D01*
X177079937Y-119228226D01*
X176935774Y-119084063D01*
X176766256Y-118970795D01*
X176577898Y-118892774D01*
X176520619Y-118881381D01*
X176509226Y-118824102D01*
X176488862Y-118774941D01*
X176786998Y-118476805D01*
X176816001Y-118453003D01*
X176876031Y-118379856D01*
X176910974Y-118337279D01*
X176981546Y-118205249D01*
X176997321Y-118153245D01*
X177025003Y-118061988D01*
X177036000Y-117950335D01*
X177036000Y-117950325D01*
X177039676Y-117913002D01*
X177036000Y-117875679D01*
X177036000Y-117789404D01*
X177058774Y-117903898D01*
X177136795Y-118092256D01*
X177250063Y-118261774D01*
X177394226Y-118405937D01*
X177563744Y-118519205D01*
X177752102Y-118597226D01*
X177952061Y-118637000D01*
X178155939Y-118637000D01*
X178355898Y-118597226D01*
X178544256Y-118519205D01*
X178713774Y-118405937D01*
X178757711Y-118362000D01*
X195638289Y-118362000D01*
X195682226Y-118405937D01*
X195851744Y-118519205D01*
X196040102Y-118597226D01*
X196240061Y-118637000D01*
X196443939Y-118637000D01*
X196643898Y-118597226D01*
X196832256Y-118519205D01*
X197001774Y-118405937D01*
X197145937Y-118261774D01*
X197259205Y-118092256D01*
X197337226Y-117903898D01*
X197377000Y-117703939D01*
X197377000Y-117500061D01*
X197337226Y-117300102D01*
X197259205Y-117111744D01*
X197145937Y-116942226D01*
X197001774Y-116798063D01*
X196832256Y-116684795D01*
X196643898Y-116606774D01*
X196443939Y-116567000D01*
X196240061Y-116567000D01*
X196040102Y-116606774D01*
X195851744Y-116684795D01*
X195682226Y-116798063D01*
X195638289Y-116842000D01*
X194583000Y-116842000D01*
X194583000Y-116738061D01*
X194543226Y-116538102D01*
X194465205Y-116349744D01*
X194351937Y-116180226D01*
X194207774Y-116036063D01*
X194038256Y-115922795D01*
X193849898Y-115844774D01*
X193649939Y-115805000D01*
X193446061Y-115805000D01*
X193246102Y-115844774D01*
X193057744Y-115922795D01*
X192888226Y-116036063D01*
X192844289Y-116080000D01*
X187777000Y-116080000D01*
X187777000Y-108910000D01*
X192294678Y-108910000D01*
X192332000Y-108913676D01*
X192369322Y-108910000D01*
X192369333Y-108910000D01*
X192480986Y-108899003D01*
X192624247Y-108855546D01*
X192756276Y-108784974D01*
X192872001Y-108690001D01*
X192895804Y-108660997D01*
X196635802Y-104921000D01*
X196697939Y-104921000D01*
X196897898Y-104881226D01*
X197086256Y-104803205D01*
X197255774Y-104689937D01*
X197399937Y-104545774D01*
X197513205Y-104376256D01*
X197591226Y-104187898D01*
X197631000Y-103987939D01*
X197631000Y-103784061D01*
X197591226Y-103584102D01*
X197513205Y-103395744D01*
X197399937Y-103226226D01*
X197255774Y-103082063D01*
X197086256Y-102968795D01*
X196897898Y-102890774D01*
X196697939Y-102851000D01*
X196494061Y-102851000D01*
X196294102Y-102890774D01*
X196105744Y-102968795D01*
X195936226Y-103082063D01*
X195792063Y-103226226D01*
X195678795Y-103395744D01*
X195600774Y-103584102D01*
X195561000Y-103784061D01*
X195561000Y-103846198D01*
X192017199Y-107390000D01*
X187777000Y-107390000D01*
X187777000Y-97942061D01*
X196323000Y-97942061D01*
X196323000Y-98145939D01*
X196362774Y-98345898D01*
X196440795Y-98534256D01*
X196554063Y-98703774D01*
X196698226Y-98847937D01*
X196867744Y-98961205D01*
X197056102Y-99039226D01*
X197256061Y-99079000D01*
X197459939Y-99079000D01*
X197659898Y-99039226D01*
X197848256Y-98961205D01*
X198017774Y-98847937D01*
X198161937Y-98703774D01*
X198275205Y-98534256D01*
X198353226Y-98345898D01*
X198393000Y-98145939D01*
X198393000Y-98028974D01*
X198421898Y-98023226D01*
X198610256Y-97945205D01*
X198779774Y-97831937D01*
X198923937Y-97687774D01*
X199037205Y-97518256D01*
X199115226Y-97329898D01*
X199155000Y-97129939D01*
X199155000Y-97020334D01*
X199220898Y-97007226D01*
X199409256Y-96929205D01*
X199578774Y-96815937D01*
X199722937Y-96671774D01*
X199836205Y-96502256D01*
X199914226Y-96313898D01*
X199954000Y-96113939D01*
X199954000Y-95910061D01*
X199914226Y-95710102D01*
X199836205Y-95521744D01*
X199722937Y-95352226D01*
X199578774Y-95208063D01*
X199409256Y-95094795D01*
X199220898Y-95016774D01*
X199020939Y-94977000D01*
X198817061Y-94977000D01*
X198617102Y-95016774D01*
X198428744Y-95094795D01*
X198259226Y-95208063D01*
X198115063Y-95352226D01*
X198001795Y-95521744D01*
X197923774Y-95710102D01*
X197884000Y-95910061D01*
X197884000Y-96019666D01*
X197818102Y-96032774D01*
X197629744Y-96110795D01*
X197460226Y-96224063D01*
X197316063Y-96368226D01*
X197202795Y-96537744D01*
X197124774Y-96726102D01*
X197085000Y-96926061D01*
X197085000Y-97043026D01*
X197056102Y-97048774D01*
X196867744Y-97126795D01*
X196698226Y-97240063D01*
X196554063Y-97384226D01*
X196440795Y-97553744D01*
X196362774Y-97742102D01*
X196323000Y-97942061D01*
X187777000Y-97942061D01*
X187777000Y-96110000D01*
X192210130Y-96110000D01*
X192295744Y-96167205D01*
X192484102Y-96245226D01*
X192684061Y-96285000D01*
X192887939Y-96285000D01*
X193087898Y-96245226D01*
X193276256Y-96167205D01*
X193445774Y-96053937D01*
X193589937Y-95909774D01*
X193703205Y-95740256D01*
X193781226Y-95551898D01*
X193821000Y-95351939D01*
X193821000Y-95148061D01*
X193781226Y-94948102D01*
X193703205Y-94759744D01*
X193589937Y-94590226D01*
X193445774Y-94446063D01*
X193276256Y-94332795D01*
X193087898Y-94254774D01*
X193059000Y-94249026D01*
X193059000Y-94132061D01*
X193019226Y-93932102D01*
X192941205Y-93743744D01*
X192827937Y-93574226D01*
X192683774Y-93430063D01*
X192514256Y-93316795D01*
X192325898Y-93238774D01*
X192297000Y-93233026D01*
X192297000Y-93116061D01*
X192257226Y-92916102D01*
X192179205Y-92727744D01*
X192065937Y-92558226D01*
X191921774Y-92414063D01*
X191752256Y-92300795D01*
X191563898Y-92222774D01*
X191535000Y-92217026D01*
X191535000Y-92100061D01*
X191495226Y-91900102D01*
X191417205Y-91711744D01*
X191303937Y-91542226D01*
X191159774Y-91398063D01*
X191129181Y-91377621D01*
X191576802Y-90930000D01*
X192082289Y-90930000D01*
X192126226Y-90973937D01*
X192295744Y-91087205D01*
X192484102Y-91165226D01*
X192684061Y-91205000D01*
X192887939Y-91205000D01*
X193087898Y-91165226D01*
X193276256Y-91087205D01*
X193445774Y-90973937D01*
X193589937Y-90829774D01*
X193703205Y-90660256D01*
X193781226Y-90471898D01*
X193821000Y-90271939D01*
X193821000Y-90068061D01*
X193781226Y-89868102D01*
X193703205Y-89679744D01*
X193589937Y-89510226D01*
X193445774Y-89366063D01*
X193276256Y-89252795D01*
X193087898Y-89174774D01*
X193059000Y-89169026D01*
X193059000Y-89052061D01*
X193019226Y-88852102D01*
X192941205Y-88663744D01*
X192827937Y-88494226D01*
X192683774Y-88350063D01*
X192514256Y-88236795D01*
X192325898Y-88158774D01*
X192297000Y-88153026D01*
X192297000Y-88036061D01*
X192257226Y-87836102D01*
X192179205Y-87647744D01*
X192065937Y-87478226D01*
X191921774Y-87334063D01*
X191752256Y-87220795D01*
X191563898Y-87142774D01*
X191535000Y-87137026D01*
X191535000Y-87020061D01*
X191504356Y-86866000D01*
X194368289Y-86866000D01*
X194412226Y-86909937D01*
X194581744Y-87023205D01*
X194770102Y-87101226D01*
X194970061Y-87141000D01*
X195173939Y-87141000D01*
X195373898Y-87101226D01*
X195562256Y-87023205D01*
X195731774Y-86909937D01*
X195875937Y-86765774D01*
X195989205Y-86596256D01*
X196067226Y-86407898D01*
X196107000Y-86207939D01*
X196107000Y-86004061D01*
X196067226Y-85804102D01*
X195989205Y-85615744D01*
X195875937Y-85446226D01*
X195731774Y-85302063D01*
X195562256Y-85188795D01*
X195373898Y-85110774D01*
X195345000Y-85105026D01*
X195345000Y-84988061D01*
X195305226Y-84788102D01*
X195227205Y-84599744D01*
X195113937Y-84430226D01*
X194969774Y-84286063D01*
X194800256Y-84172795D01*
X194611898Y-84094774D01*
X194583000Y-84089026D01*
X194583000Y-83972061D01*
X194543226Y-83772102D01*
X194465205Y-83583744D01*
X194351937Y-83414226D01*
X194207774Y-83270063D01*
X194038256Y-83156795D01*
X193849898Y-83078774D01*
X193821000Y-83073026D01*
X193821000Y-82956061D01*
X193781226Y-82756102D01*
X193703205Y-82567744D01*
X193589937Y-82398226D01*
X193445774Y-82254063D01*
X193276256Y-82140795D01*
X193087898Y-82062774D01*
X192887939Y-82023000D01*
X192684061Y-82023000D01*
X192484102Y-82062774D01*
X192295744Y-82140795D01*
X192126226Y-82254063D01*
X192082289Y-82298000D01*
X190537322Y-82298000D01*
X190499999Y-82294324D01*
X190462676Y-82298000D01*
X190462667Y-82298000D01*
X190351014Y-82308997D01*
X190207753Y-82352454D01*
X190075724Y-82423026D01*
X189959999Y-82517999D01*
X189936201Y-82546997D01*
X189093199Y-83390000D01*
X188311802Y-83390000D01*
X188365774Y-83353937D01*
X188509937Y-83209774D01*
X188623205Y-83040256D01*
X188701226Y-82851898D01*
X188741000Y-82651939D01*
X188741000Y-82448061D01*
X188701226Y-82248102D01*
X188623205Y-82059744D01*
X188509937Y-81890226D01*
X188365774Y-81746063D01*
X188196256Y-81632795D01*
X188007898Y-81554774D01*
X187807939Y-81515000D01*
X187777000Y-81515000D01*
X187777000Y-80910000D01*
X188036678Y-80910000D01*
X188074000Y-80913676D01*
X188111322Y-80910000D01*
X188111333Y-80910000D01*
X188222986Y-80899003D01*
X188366247Y-80855546D01*
X188498276Y-80784974D01*
X188614001Y-80690001D01*
X188637804Y-80660997D01*
X188978998Y-80319803D01*
X189008001Y-80296001D01*
X189102974Y-80180276D01*
X189173546Y-80048247D01*
X189217003Y-79904986D01*
X189228000Y-79793333D01*
X189228000Y-79793324D01*
X189231676Y-79756001D01*
X189228000Y-79718678D01*
X189228000Y-77253322D01*
X189231676Y-77215999D01*
X189228000Y-77178676D01*
X189228000Y-77178667D01*
X189217003Y-77067014D01*
X189173546Y-76923753D01*
X189102974Y-76791724D01*
X189008001Y-76675999D01*
X188979002Y-76652200D01*
X188523803Y-76197002D01*
X188500001Y-76167999D01*
X188384276Y-76073026D01*
X188252247Y-76002454D01*
X188108986Y-75958997D01*
X187997333Y-75948000D01*
X187997322Y-75948000D01*
X187960000Y-75944324D01*
X187922678Y-75948000D01*
X178345322Y-75948000D01*
X178307999Y-75944324D01*
X178270676Y-75948000D01*
X178270667Y-75948000D01*
X178159014Y-75958997D01*
X178015753Y-76002454D01*
X177883724Y-76073026D01*
X177767999Y-76167999D01*
X177744201Y-76196997D01*
X174966004Y-78975195D01*
X174937000Y-78998998D01*
X174888781Y-79057754D01*
X174842027Y-79114723D01*
X174787885Y-79216015D01*
X174771455Y-79246753D01*
X174727998Y-79390014D01*
X174717001Y-79501667D01*
X174717001Y-79501677D01*
X174713325Y-79538999D01*
X174717001Y-79576321D01*
X174717002Y-88373000D01*
X174650061Y-88373000D01*
X174450102Y-88412774D01*
X174261744Y-88490795D01*
X174092226Y-88604063D01*
X173948063Y-88748226D01*
X173834795Y-88917744D01*
X173756774Y-89106102D01*
X173717000Y-89306061D01*
X173717000Y-89509939D01*
X173756774Y-89709898D01*
X173834795Y-89898256D01*
X173948063Y-90067774D01*
X174092226Y-90211937D01*
X174261744Y-90325205D01*
X174450102Y-90403226D01*
X174650061Y-90443000D01*
X174717002Y-90443000D01*
X174717002Y-90776966D01*
X173479003Y-92014966D01*
X173449999Y-92038769D01*
X173398482Y-92101543D01*
X173355026Y-92154494D01*
X173294843Y-92267088D01*
X173284454Y-92286524D01*
X173240997Y-92429785D01*
X173230000Y-92541438D01*
X173230000Y-92541448D01*
X173226324Y-92578770D01*
X173230000Y-92616092D01*
X173230001Y-105265314D01*
X173189001Y-105292709D01*
X173189001Y-102559321D01*
X173192677Y-102521998D01*
X173189001Y-102484675D01*
X173189001Y-102484666D01*
X173178004Y-102373013D01*
X173134547Y-102229752D01*
X173063975Y-102097723D01*
X172969002Y-101981998D01*
X172940004Y-101958200D01*
X171853805Y-100872001D01*
X171830002Y-100842998D01*
X171714277Y-100748025D01*
X171582248Y-100677453D01*
X171438987Y-100633996D01*
X171327334Y-100622999D01*
X171327323Y-100622999D01*
X171290001Y-100619323D01*
X171252679Y-100622999D01*
X170631321Y-100622999D01*
X170593998Y-100619323D01*
X170556676Y-100622999D01*
X170556666Y-100622999D01*
X170445013Y-100633996D01*
X170301752Y-100677453D01*
X170285000Y-100686407D01*
X170285000Y-91850000D01*
X170272799Y-91726118D01*
X170236664Y-91606996D01*
X170177983Y-91497213D01*
X170099013Y-91400987D01*
X170002787Y-91322017D01*
X169893004Y-91263336D01*
X169773882Y-91227201D01*
X169650000Y-91215000D01*
X166285000Y-91215000D01*
X166285000Y-88798061D01*
X170415000Y-88798061D01*
X170415000Y-89001939D01*
X170454774Y-89201898D01*
X170532795Y-89390256D01*
X170646063Y-89559774D01*
X170790226Y-89703937D01*
X170959744Y-89817205D01*
X171148102Y-89895226D01*
X171348061Y-89935000D01*
X171551939Y-89935000D01*
X171751898Y-89895226D01*
X171940256Y-89817205D01*
X172109774Y-89703937D01*
X172253937Y-89559774D01*
X172367205Y-89390256D01*
X172445226Y-89201898D01*
X172485000Y-89001939D01*
X172485000Y-88798061D01*
X172445226Y-88598102D01*
X172367205Y-88409744D01*
X172253937Y-88240226D01*
X172109774Y-88096063D01*
X171940256Y-87982795D01*
X171751898Y-87904774D01*
X171551939Y-87865000D01*
X171348061Y-87865000D01*
X171148102Y-87904774D01*
X170959744Y-87982795D01*
X170790226Y-88096063D01*
X170646063Y-88240226D01*
X170532795Y-88409744D01*
X170454774Y-88598102D01*
X170415000Y-88798061D01*
X166285000Y-88798061D01*
X166285000Y-79908061D01*
X170415000Y-79908061D01*
X170415000Y-80111939D01*
X170454774Y-80311898D01*
X170532795Y-80500256D01*
X170646063Y-80669774D01*
X170790226Y-80813937D01*
X170959744Y-80927205D01*
X171148102Y-81005226D01*
X171348061Y-81045000D01*
X171551939Y-81045000D01*
X171751898Y-81005226D01*
X171940256Y-80927205D01*
X172109774Y-80813937D01*
X172253937Y-80669774D01*
X172367205Y-80500256D01*
X172445226Y-80311898D01*
X172485000Y-80111939D01*
X172485000Y-79908061D01*
X172445226Y-79708102D01*
X172367205Y-79519744D01*
X172253937Y-79350226D01*
X172109774Y-79206063D01*
X171940256Y-79092795D01*
X171751898Y-79014774D01*
X171551939Y-78975000D01*
X171348061Y-78975000D01*
X171148102Y-79014774D01*
X170959744Y-79092795D01*
X170790226Y-79206063D01*
X170646063Y-79350226D01*
X170532795Y-79519744D01*
X170454774Y-79708102D01*
X170415000Y-79908061D01*
X166285000Y-79908061D01*
X166285000Y-72923061D01*
X197720000Y-72923061D01*
X197720000Y-73126939D01*
X197759774Y-73326898D01*
X197837795Y-73515256D01*
X197951063Y-73684774D01*
X198095226Y-73828937D01*
X198264744Y-73942205D01*
X198355000Y-73979591D01*
X198355000Y-74015939D01*
X198394774Y-74215898D01*
X198472795Y-74404256D01*
X198586063Y-74573774D01*
X198730226Y-74717937D01*
X198899744Y-74831205D01*
X199088102Y-74909226D01*
X199288061Y-74949000D01*
X199491939Y-74949000D01*
X199691898Y-74909226D01*
X199880256Y-74831205D01*
X200049774Y-74717937D01*
X200193937Y-74573774D01*
X200307205Y-74404256D01*
X200385226Y-74215898D01*
X200425000Y-74015939D01*
X200425000Y-73979591D01*
X200515256Y-73942205D01*
X200684774Y-73828937D01*
X200828937Y-73684774D01*
X200942205Y-73515256D01*
X201020226Y-73326898D01*
X201060000Y-73126939D01*
X201060000Y-72923061D01*
X201020226Y-72723102D01*
X200942205Y-72534744D01*
X200828937Y-72365226D01*
X200684774Y-72221063D01*
X200515256Y-72107795D01*
X200425000Y-72070409D01*
X200425000Y-72034061D01*
X200385226Y-71834102D01*
X200307205Y-71645744D01*
X200193937Y-71476226D01*
X200049774Y-71332063D01*
X199880256Y-71218795D01*
X199691898Y-71140774D01*
X199491939Y-71101000D01*
X199288061Y-71101000D01*
X199088102Y-71140774D01*
X198899744Y-71218795D01*
X198730226Y-71332063D01*
X198586063Y-71476226D01*
X198472795Y-71645744D01*
X198394774Y-71834102D01*
X198355000Y-72034061D01*
X198355000Y-72070409D01*
X198264744Y-72107795D01*
X198095226Y-72221063D01*
X197951063Y-72365226D01*
X197837795Y-72534744D01*
X197759774Y-72723102D01*
X197720000Y-72923061D01*
X166285000Y-72923061D01*
X166285000Y-70510000D01*
X203990000Y-70510000D01*
X203990001Y-124190000D01*
%TA.AperFunction,Conductor*%
D19*
G36*
X203990001Y-124190000D02*
G01*
X166285000Y-124190000D01*
X166285000Y-122834061D01*
X171431000Y-122834061D01*
X171431000Y-123037939D01*
X171470774Y-123237898D01*
X171548795Y-123426256D01*
X171662063Y-123595774D01*
X171806226Y-123739937D01*
X171975744Y-123853205D01*
X172164102Y-123931226D01*
X172364061Y-123971000D01*
X172567939Y-123971000D01*
X172767898Y-123931226D01*
X172956256Y-123853205D01*
X173125774Y-123739937D01*
X173269937Y-123595774D01*
X173383205Y-123426256D01*
X173461226Y-123237898D01*
X173501000Y-123037939D01*
X173501000Y-122834061D01*
X173461226Y-122634102D01*
X173383205Y-122445744D01*
X173269937Y-122276226D01*
X173125774Y-122132063D01*
X173035975Y-122072061D01*
X176511000Y-122072061D01*
X176511000Y-122275939D01*
X176550774Y-122475898D01*
X176628795Y-122664256D01*
X176742063Y-122833774D01*
X176886226Y-122977937D01*
X177055744Y-123091205D01*
X177244102Y-123169226D01*
X177444061Y-123209000D01*
X177647939Y-123209000D01*
X177847898Y-123169226D01*
X178036256Y-123091205D01*
X178205774Y-122977937D01*
X178349937Y-122833774D01*
X178463205Y-122664256D01*
X178541226Y-122475898D01*
X178581000Y-122275939D01*
X178581000Y-122072061D01*
X178541226Y-121872102D01*
X178463205Y-121683744D01*
X178349937Y-121514226D01*
X178205774Y-121370063D01*
X178036256Y-121256795D01*
X177847898Y-121178774D01*
X177647939Y-121139000D01*
X177444061Y-121139000D01*
X177244102Y-121178774D01*
X177055744Y-121256795D01*
X176886226Y-121370063D01*
X176742063Y-121514226D01*
X176628795Y-121683744D01*
X176550774Y-121872102D01*
X176511000Y-122072061D01*
X173035975Y-122072061D01*
X172956256Y-122018795D01*
X172767898Y-121940774D01*
X172567939Y-121901000D01*
X172364061Y-121901000D01*
X172164102Y-121940774D01*
X171975744Y-122018795D01*
X171806226Y-122132063D01*
X171662063Y-122276226D01*
X171548795Y-122445744D01*
X171470774Y-122634102D01*
X171431000Y-122834061D01*
X166285000Y-122834061D01*
X166285000Y-121615624D01*
X166490624Y-121410000D01*
X174810289Y-121410000D01*
X174854226Y-121453937D01*
X175023744Y-121567205D01*
X175212102Y-121645226D01*
X175412061Y-121685000D01*
X175615939Y-121685000D01*
X175815898Y-121645226D01*
X176004256Y-121567205D01*
X176173774Y-121453937D01*
X176317937Y-121309774D01*
X176431205Y-121140256D01*
X176509226Y-120951898D01*
X176520619Y-120894619D01*
X176577898Y-120883226D01*
X176766256Y-120805205D01*
X176935774Y-120691937D01*
X177079937Y-120547774D01*
X177193205Y-120378256D01*
X177271226Y-120189898D01*
X177311000Y-119989939D01*
X177311000Y-119786061D01*
X177271226Y-119586102D01*
X177193205Y-119397744D01*
X177079937Y-119228226D01*
X176935774Y-119084063D01*
X176766256Y-118970795D01*
X176577898Y-118892774D01*
X176520619Y-118881381D01*
X176509226Y-118824102D01*
X176488862Y-118774941D01*
X176786998Y-118476805D01*
X176816001Y-118453003D01*
X176876031Y-118379856D01*
X176910974Y-118337279D01*
X176981546Y-118205249D01*
X176997321Y-118153245D01*
X177025003Y-118061988D01*
X177036000Y-117950335D01*
X177036000Y-117950325D01*
X177039676Y-117913002D01*
X177036000Y-117875679D01*
X177036000Y-117789404D01*
X177058774Y-117903898D01*
X177136795Y-118092256D01*
X177250063Y-118261774D01*
X177394226Y-118405937D01*
X177563744Y-118519205D01*
X177752102Y-118597226D01*
X177952061Y-118637000D01*
X178155939Y-118637000D01*
X178355898Y-118597226D01*
X178544256Y-118519205D01*
X178713774Y-118405937D01*
X178757711Y-118362000D01*
X195638289Y-118362000D01*
X195682226Y-118405937D01*
X195851744Y-118519205D01*
X196040102Y-118597226D01*
X196240061Y-118637000D01*
X196443939Y-118637000D01*
X196643898Y-118597226D01*
X196832256Y-118519205D01*
X197001774Y-118405937D01*
X197145937Y-118261774D01*
X197259205Y-118092256D01*
X197337226Y-117903898D01*
X197377000Y-117703939D01*
X197377000Y-117500061D01*
X197337226Y-117300102D01*
X197259205Y-117111744D01*
X197145937Y-116942226D01*
X197001774Y-116798063D01*
X196832256Y-116684795D01*
X196643898Y-116606774D01*
X196443939Y-116567000D01*
X196240061Y-116567000D01*
X196040102Y-116606774D01*
X195851744Y-116684795D01*
X195682226Y-116798063D01*
X195638289Y-116842000D01*
X194583000Y-116842000D01*
X194583000Y-116738061D01*
X194543226Y-116538102D01*
X194465205Y-116349744D01*
X194351937Y-116180226D01*
X194207774Y-116036063D01*
X194038256Y-115922795D01*
X193849898Y-115844774D01*
X193649939Y-115805000D01*
X193446061Y-115805000D01*
X193246102Y-115844774D01*
X193057744Y-115922795D01*
X192888226Y-116036063D01*
X192844289Y-116080000D01*
X187777000Y-116080000D01*
X187777000Y-108910000D01*
X192294678Y-108910000D01*
X192332000Y-108913676D01*
X192369322Y-108910000D01*
X192369333Y-108910000D01*
X192480986Y-108899003D01*
X192624247Y-108855546D01*
X192756276Y-108784974D01*
X192872001Y-108690001D01*
X192895804Y-108660997D01*
X196635802Y-104921000D01*
X196697939Y-104921000D01*
X196897898Y-104881226D01*
X197086256Y-104803205D01*
X197255774Y-104689937D01*
X197399937Y-104545774D01*
X197513205Y-104376256D01*
X197591226Y-104187898D01*
X197631000Y-103987939D01*
X197631000Y-103784061D01*
X197591226Y-103584102D01*
X197513205Y-103395744D01*
X197399937Y-103226226D01*
X197255774Y-103082063D01*
X197086256Y-102968795D01*
X196897898Y-102890774D01*
X196697939Y-102851000D01*
X196494061Y-102851000D01*
X196294102Y-102890774D01*
X196105744Y-102968795D01*
X195936226Y-103082063D01*
X195792063Y-103226226D01*
X195678795Y-103395744D01*
X195600774Y-103584102D01*
X195561000Y-103784061D01*
X195561000Y-103846198D01*
X192017199Y-107390000D01*
X187777000Y-107390000D01*
X187777000Y-97942061D01*
X196323000Y-97942061D01*
X196323000Y-98145939D01*
X196362774Y-98345898D01*
X196440795Y-98534256D01*
X196554063Y-98703774D01*
X196698226Y-98847937D01*
X196867744Y-98961205D01*
X197056102Y-99039226D01*
X197256061Y-99079000D01*
X197459939Y-99079000D01*
X197659898Y-99039226D01*
X197848256Y-98961205D01*
X198017774Y-98847937D01*
X198161937Y-98703774D01*
X198275205Y-98534256D01*
X198353226Y-98345898D01*
X198393000Y-98145939D01*
X198393000Y-98028974D01*
X198421898Y-98023226D01*
X198610256Y-97945205D01*
X198779774Y-97831937D01*
X198923937Y-97687774D01*
X199037205Y-97518256D01*
X199115226Y-97329898D01*
X199155000Y-97129939D01*
X199155000Y-97020334D01*
X199220898Y-97007226D01*
X199409256Y-96929205D01*
X199578774Y-96815937D01*
X199722937Y-96671774D01*
X199836205Y-96502256D01*
X199914226Y-96313898D01*
X199954000Y-96113939D01*
X199954000Y-95910061D01*
X199914226Y-95710102D01*
X199836205Y-95521744D01*
X199722937Y-95352226D01*
X199578774Y-95208063D01*
X199409256Y-95094795D01*
X199220898Y-95016774D01*
X199020939Y-94977000D01*
X198817061Y-94977000D01*
X198617102Y-95016774D01*
X198428744Y-95094795D01*
X198259226Y-95208063D01*
X198115063Y-95352226D01*
X198001795Y-95521744D01*
X197923774Y-95710102D01*
X197884000Y-95910061D01*
X197884000Y-96019666D01*
X197818102Y-96032774D01*
X197629744Y-96110795D01*
X197460226Y-96224063D01*
X197316063Y-96368226D01*
X197202795Y-96537744D01*
X197124774Y-96726102D01*
X197085000Y-96926061D01*
X197085000Y-97043026D01*
X197056102Y-97048774D01*
X196867744Y-97126795D01*
X196698226Y-97240063D01*
X196554063Y-97384226D01*
X196440795Y-97553744D01*
X196362774Y-97742102D01*
X196323000Y-97942061D01*
X187777000Y-97942061D01*
X187777000Y-96110000D01*
X192210130Y-96110000D01*
X192295744Y-96167205D01*
X192484102Y-96245226D01*
X192684061Y-96285000D01*
X192887939Y-96285000D01*
X193087898Y-96245226D01*
X193276256Y-96167205D01*
X193445774Y-96053937D01*
X193589937Y-95909774D01*
X193703205Y-95740256D01*
X193781226Y-95551898D01*
X193821000Y-95351939D01*
X193821000Y-95148061D01*
X193781226Y-94948102D01*
X193703205Y-94759744D01*
X193589937Y-94590226D01*
X193445774Y-94446063D01*
X193276256Y-94332795D01*
X193087898Y-94254774D01*
X193059000Y-94249026D01*
X193059000Y-94132061D01*
X193019226Y-93932102D01*
X192941205Y-93743744D01*
X192827937Y-93574226D01*
X192683774Y-93430063D01*
X192514256Y-93316795D01*
X192325898Y-93238774D01*
X192297000Y-93233026D01*
X192297000Y-93116061D01*
X192257226Y-92916102D01*
X192179205Y-92727744D01*
X192065937Y-92558226D01*
X191921774Y-92414063D01*
X191752256Y-92300795D01*
X191563898Y-92222774D01*
X191535000Y-92217026D01*
X191535000Y-92100061D01*
X191495226Y-91900102D01*
X191417205Y-91711744D01*
X191303937Y-91542226D01*
X191159774Y-91398063D01*
X191129181Y-91377621D01*
X191576802Y-90930000D01*
X192082289Y-90930000D01*
X192126226Y-90973937D01*
X192295744Y-91087205D01*
X192484102Y-91165226D01*
X192684061Y-91205000D01*
X192887939Y-91205000D01*
X193087898Y-91165226D01*
X193276256Y-91087205D01*
X193445774Y-90973937D01*
X193589937Y-90829774D01*
X193703205Y-90660256D01*
X193781226Y-90471898D01*
X193821000Y-90271939D01*
X193821000Y-90068061D01*
X193781226Y-89868102D01*
X193703205Y-89679744D01*
X193589937Y-89510226D01*
X193445774Y-89366063D01*
X193276256Y-89252795D01*
X193087898Y-89174774D01*
X193059000Y-89169026D01*
X193059000Y-89052061D01*
X193019226Y-88852102D01*
X192941205Y-88663744D01*
X192827937Y-88494226D01*
X192683774Y-88350063D01*
X192514256Y-88236795D01*
X192325898Y-88158774D01*
X192297000Y-88153026D01*
X192297000Y-88036061D01*
X192257226Y-87836102D01*
X192179205Y-87647744D01*
X192065937Y-87478226D01*
X191921774Y-87334063D01*
X191752256Y-87220795D01*
X191563898Y-87142774D01*
X191535000Y-87137026D01*
X191535000Y-87020061D01*
X191504356Y-86866000D01*
X194368289Y-86866000D01*
X194412226Y-86909937D01*
X194581744Y-87023205D01*
X194770102Y-87101226D01*
X194970061Y-87141000D01*
X195173939Y-87141000D01*
X195373898Y-87101226D01*
X195562256Y-87023205D01*
X195731774Y-86909937D01*
X195875937Y-86765774D01*
X195989205Y-86596256D01*
X196067226Y-86407898D01*
X196107000Y-86207939D01*
X196107000Y-86004061D01*
X196067226Y-85804102D01*
X195989205Y-85615744D01*
X195875937Y-85446226D01*
X195731774Y-85302063D01*
X195562256Y-85188795D01*
X195373898Y-85110774D01*
X195345000Y-85105026D01*
X195345000Y-84988061D01*
X195305226Y-84788102D01*
X195227205Y-84599744D01*
X195113937Y-84430226D01*
X194969774Y-84286063D01*
X194800256Y-84172795D01*
X194611898Y-84094774D01*
X194583000Y-84089026D01*
X194583000Y-83972061D01*
X194543226Y-83772102D01*
X194465205Y-83583744D01*
X194351937Y-83414226D01*
X194207774Y-83270063D01*
X194038256Y-83156795D01*
X193849898Y-83078774D01*
X193821000Y-83073026D01*
X193821000Y-82956061D01*
X193781226Y-82756102D01*
X193703205Y-82567744D01*
X193589937Y-82398226D01*
X193445774Y-82254063D01*
X193276256Y-82140795D01*
X193087898Y-82062774D01*
X192887939Y-82023000D01*
X192684061Y-82023000D01*
X192484102Y-82062774D01*
X192295744Y-82140795D01*
X192126226Y-82254063D01*
X192082289Y-82298000D01*
X190537322Y-82298000D01*
X190499999Y-82294324D01*
X190462676Y-82298000D01*
X190462667Y-82298000D01*
X190351014Y-82308997D01*
X190207753Y-82352454D01*
X190075724Y-82423026D01*
X189959999Y-82517999D01*
X189936201Y-82546997D01*
X189093199Y-83390000D01*
X188311802Y-83390000D01*
X188365774Y-83353937D01*
X188509937Y-83209774D01*
X188623205Y-83040256D01*
X188701226Y-82851898D01*
X188741000Y-82651939D01*
X188741000Y-82448061D01*
X188701226Y-82248102D01*
X188623205Y-82059744D01*
X188509937Y-81890226D01*
X188365774Y-81746063D01*
X188196256Y-81632795D01*
X188007898Y-81554774D01*
X187807939Y-81515000D01*
X187777000Y-81515000D01*
X187777000Y-80910000D01*
X188036678Y-80910000D01*
X188074000Y-80913676D01*
X188111322Y-80910000D01*
X188111333Y-80910000D01*
X188222986Y-80899003D01*
X188366247Y-80855546D01*
X188498276Y-80784974D01*
X188614001Y-80690001D01*
X188637804Y-80660997D01*
X188978998Y-80319803D01*
X189008001Y-80296001D01*
X189102974Y-80180276D01*
X189173546Y-80048247D01*
X189217003Y-79904986D01*
X189228000Y-79793333D01*
X189228000Y-79793324D01*
X189231676Y-79756001D01*
X189228000Y-79718678D01*
X189228000Y-77253322D01*
X189231676Y-77215999D01*
X189228000Y-77178676D01*
X189228000Y-77178667D01*
X189217003Y-77067014D01*
X189173546Y-76923753D01*
X189102974Y-76791724D01*
X189008001Y-76675999D01*
X188979002Y-76652200D01*
X188523803Y-76197002D01*
X188500001Y-76167999D01*
X188384276Y-76073026D01*
X188252247Y-76002454D01*
X188108986Y-75958997D01*
X187997333Y-75948000D01*
X187997322Y-75948000D01*
X187960000Y-75944324D01*
X187922678Y-75948000D01*
X178345322Y-75948000D01*
X178307999Y-75944324D01*
X178270676Y-75948000D01*
X178270667Y-75948000D01*
X178159014Y-75958997D01*
X178015753Y-76002454D01*
X177883724Y-76073026D01*
X177767999Y-76167999D01*
X177744201Y-76196997D01*
X174966004Y-78975195D01*
X174937000Y-78998998D01*
X174888781Y-79057754D01*
X174842027Y-79114723D01*
X174787885Y-79216015D01*
X174771455Y-79246753D01*
X174727998Y-79390014D01*
X174717001Y-79501667D01*
X174717001Y-79501677D01*
X174713325Y-79538999D01*
X174717001Y-79576321D01*
X174717002Y-88373000D01*
X174650061Y-88373000D01*
X174450102Y-88412774D01*
X174261744Y-88490795D01*
X174092226Y-88604063D01*
X173948063Y-88748226D01*
X173834795Y-88917744D01*
X173756774Y-89106102D01*
X173717000Y-89306061D01*
X173717000Y-89509939D01*
X173756774Y-89709898D01*
X173834795Y-89898256D01*
X173948063Y-90067774D01*
X174092226Y-90211937D01*
X174261744Y-90325205D01*
X174450102Y-90403226D01*
X174650061Y-90443000D01*
X174717002Y-90443000D01*
X174717002Y-90776966D01*
X173479003Y-92014966D01*
X173449999Y-92038769D01*
X173398482Y-92101543D01*
X173355026Y-92154494D01*
X173294843Y-92267088D01*
X173284454Y-92286524D01*
X173240997Y-92429785D01*
X173230000Y-92541438D01*
X173230000Y-92541448D01*
X173226324Y-92578770D01*
X173230000Y-92616092D01*
X173230001Y-105265314D01*
X173189001Y-105292709D01*
X173189001Y-102559321D01*
X173192677Y-102521998D01*
X173189001Y-102484675D01*
X173189001Y-102484666D01*
X173178004Y-102373013D01*
X173134547Y-102229752D01*
X173063975Y-102097723D01*
X172969002Y-101981998D01*
X172940004Y-101958200D01*
X171853805Y-100872001D01*
X171830002Y-100842998D01*
X171714277Y-100748025D01*
X171582248Y-100677453D01*
X171438987Y-100633996D01*
X171327334Y-100622999D01*
X171327323Y-100622999D01*
X171290001Y-100619323D01*
X171252679Y-100622999D01*
X170631321Y-100622999D01*
X170593998Y-100619323D01*
X170556676Y-100622999D01*
X170556666Y-100622999D01*
X170445013Y-100633996D01*
X170301752Y-100677453D01*
X170285000Y-100686407D01*
X170285000Y-91850000D01*
X170272799Y-91726118D01*
X170236664Y-91606996D01*
X170177983Y-91497213D01*
X170099013Y-91400987D01*
X170002787Y-91322017D01*
X169893004Y-91263336D01*
X169773882Y-91227201D01*
X169650000Y-91215000D01*
X166285000Y-91215000D01*
X166285000Y-88798061D01*
X170415000Y-88798061D01*
X170415000Y-89001939D01*
X170454774Y-89201898D01*
X170532795Y-89390256D01*
X170646063Y-89559774D01*
X170790226Y-89703937D01*
X170959744Y-89817205D01*
X171148102Y-89895226D01*
X171348061Y-89935000D01*
X171551939Y-89935000D01*
X171751898Y-89895226D01*
X171940256Y-89817205D01*
X172109774Y-89703937D01*
X172253937Y-89559774D01*
X172367205Y-89390256D01*
X172445226Y-89201898D01*
X172485000Y-89001939D01*
X172485000Y-88798061D01*
X172445226Y-88598102D01*
X172367205Y-88409744D01*
X172253937Y-88240226D01*
X172109774Y-88096063D01*
X171940256Y-87982795D01*
X171751898Y-87904774D01*
X171551939Y-87865000D01*
X171348061Y-87865000D01*
X171148102Y-87904774D01*
X170959744Y-87982795D01*
X170790226Y-88096063D01*
X170646063Y-88240226D01*
X170532795Y-88409744D01*
X170454774Y-88598102D01*
X170415000Y-88798061D01*
X166285000Y-88798061D01*
X166285000Y-79908061D01*
X170415000Y-79908061D01*
X170415000Y-80111939D01*
X170454774Y-80311898D01*
X170532795Y-80500256D01*
X170646063Y-80669774D01*
X170790226Y-80813937D01*
X170959744Y-80927205D01*
X171148102Y-81005226D01*
X171348061Y-81045000D01*
X171551939Y-81045000D01*
X171751898Y-81005226D01*
X171940256Y-80927205D01*
X172109774Y-80813937D01*
X172253937Y-80669774D01*
X172367205Y-80500256D01*
X172445226Y-80311898D01*
X172485000Y-80111939D01*
X172485000Y-79908061D01*
X172445226Y-79708102D01*
X172367205Y-79519744D01*
X172253937Y-79350226D01*
X172109774Y-79206063D01*
X171940256Y-79092795D01*
X171751898Y-79014774D01*
X171551939Y-78975000D01*
X171348061Y-78975000D01*
X171148102Y-79014774D01*
X170959744Y-79092795D01*
X170790226Y-79206063D01*
X170646063Y-79350226D01*
X170532795Y-79519744D01*
X170454774Y-79708102D01*
X170415000Y-79908061D01*
X166285000Y-79908061D01*
X166285000Y-72923061D01*
X197720000Y-72923061D01*
X197720000Y-73126939D01*
X197759774Y-73326898D01*
X197837795Y-73515256D01*
X197951063Y-73684774D01*
X198095226Y-73828937D01*
X198264744Y-73942205D01*
X198355000Y-73979591D01*
X198355000Y-74015939D01*
X198394774Y-74215898D01*
X198472795Y-74404256D01*
X198586063Y-74573774D01*
X198730226Y-74717937D01*
X198899744Y-74831205D01*
X199088102Y-74909226D01*
X199288061Y-74949000D01*
X199491939Y-74949000D01*
X199691898Y-74909226D01*
X199880256Y-74831205D01*
X200049774Y-74717937D01*
X200193937Y-74573774D01*
X200307205Y-74404256D01*
X200385226Y-74215898D01*
X200425000Y-74015939D01*
X200425000Y-73979591D01*
X200515256Y-73942205D01*
X200684774Y-73828937D01*
X200828937Y-73684774D01*
X200942205Y-73515256D01*
X201020226Y-73326898D01*
X201060000Y-73126939D01*
X201060000Y-72923061D01*
X201020226Y-72723102D01*
X200942205Y-72534744D01*
X200828937Y-72365226D01*
X200684774Y-72221063D01*
X200515256Y-72107795D01*
X200425000Y-72070409D01*
X200425000Y-72034061D01*
X200385226Y-71834102D01*
X200307205Y-71645744D01*
X200193937Y-71476226D01*
X200049774Y-71332063D01*
X199880256Y-71218795D01*
X199691898Y-71140774D01*
X199491939Y-71101000D01*
X199288061Y-71101000D01*
X199088102Y-71140774D01*
X198899744Y-71218795D01*
X198730226Y-71332063D01*
X198586063Y-71476226D01*
X198472795Y-71645744D01*
X198394774Y-71834102D01*
X198355000Y-72034061D01*
X198355000Y-72070409D01*
X198264744Y-72107795D01*
X198095226Y-72221063D01*
X197951063Y-72365226D01*
X197837795Y-72534744D01*
X197759774Y-72723102D01*
X197720000Y-72923061D01*
X166285000Y-72923061D01*
X166285000Y-70510000D01*
X203990000Y-70510000D01*
X203990001Y-124190000D01*
G37*
%TD.AperFunction*%
D18*
X173502774Y-111458102D02*
X173463000Y-111658061D01*
X173463000Y-111861939D01*
X173502774Y-112061898D01*
X173580795Y-112250256D01*
X173694063Y-112419774D01*
X173838226Y-112563937D01*
X174007744Y-112677205D01*
X174196102Y-112755226D01*
X174396061Y-112795000D01*
X174599939Y-112795000D01*
X174799898Y-112755226D01*
X174988256Y-112677205D01*
X175157774Y-112563937D01*
X175260000Y-112461711D01*
X175362226Y-112563937D01*
X175531744Y-112677205D01*
X175720102Y-112755226D01*
X175920061Y-112795000D01*
X176123939Y-112795000D01*
X176323898Y-112755226D01*
X176512256Y-112677205D01*
X176681774Y-112563937D01*
X176825937Y-112419774D01*
X176939205Y-112250256D01*
X176997301Y-112110000D01*
X182523000Y-112110000D01*
X182523000Y-116080000D01*
X176979711Y-116080000D01*
X176935774Y-116036063D01*
X176766256Y-115922795D01*
X176577898Y-115844774D01*
X176377939Y-115805000D01*
X176174061Y-115805000D01*
X175974102Y-115844774D01*
X175785744Y-115922795D01*
X175616226Y-116036063D01*
X175472063Y-116180226D01*
X175358795Y-116349744D01*
X175280774Y-116538102D01*
X175269381Y-116595381D01*
X175212102Y-116606774D01*
X175023744Y-116684795D01*
X174854226Y-116798063D01*
X174810289Y-116842000D01*
X171256802Y-116842000D01*
X170873802Y-116459000D01*
X170945004Y-116387798D01*
X170974001Y-116364001D01*
X171068974Y-116248276D01*
X171139546Y-116116247D01*
X171183003Y-115972986D01*
X171194000Y-115861333D01*
X171194000Y-115861332D01*
X171197677Y-115824000D01*
X171194000Y-115786667D01*
X171194000Y-113575325D01*
X171197676Y-113538000D01*
X171194000Y-113500675D01*
X171194000Y-113500667D01*
X171183003Y-113389014D01*
X171139546Y-113245753D01*
X171068974Y-113113724D01*
X170974001Y-112997999D01*
X170945003Y-112974201D01*
X169679844Y-111709043D01*
X169683013Y-111710004D01*
X169794666Y-111721001D01*
X169794676Y-111721001D01*
X169831998Y-111724677D01*
X169869321Y-111721001D01*
X172779499Y-111721001D01*
X172816821Y-111724677D01*
X172854143Y-111721001D01*
X172854154Y-111721001D01*
X172965807Y-111710004D01*
X173109068Y-111666547D01*
X173241097Y-111595975D01*
X173356822Y-111501002D01*
X173380625Y-111471998D01*
X173579321Y-111273302D01*
X173502774Y-111458102D01*
%TA.AperFunction,Conductor*%
D19*
G36*
X173502774Y-111458102D02*
G01*
X173463000Y-111658061D01*
X173463000Y-111861939D01*
X173502774Y-112061898D01*
X173580795Y-112250256D01*
X173694063Y-112419774D01*
X173838226Y-112563937D01*
X174007744Y-112677205D01*
X174196102Y-112755226D01*
X174396061Y-112795000D01*
X174599939Y-112795000D01*
X174799898Y-112755226D01*
X174988256Y-112677205D01*
X175157774Y-112563937D01*
X175260000Y-112461711D01*
X175362226Y-112563937D01*
X175531744Y-112677205D01*
X175720102Y-112755226D01*
X175920061Y-112795000D01*
X176123939Y-112795000D01*
X176323898Y-112755226D01*
X176512256Y-112677205D01*
X176681774Y-112563937D01*
X176825937Y-112419774D01*
X176939205Y-112250256D01*
X176997301Y-112110000D01*
X182523000Y-112110000D01*
X182523000Y-116080000D01*
X176979711Y-116080000D01*
X176935774Y-116036063D01*
X176766256Y-115922795D01*
X176577898Y-115844774D01*
X176377939Y-115805000D01*
X176174061Y-115805000D01*
X175974102Y-115844774D01*
X175785744Y-115922795D01*
X175616226Y-116036063D01*
X175472063Y-116180226D01*
X175358795Y-116349744D01*
X175280774Y-116538102D01*
X175269381Y-116595381D01*
X175212102Y-116606774D01*
X175023744Y-116684795D01*
X174854226Y-116798063D01*
X174810289Y-116842000D01*
X171256802Y-116842000D01*
X170873802Y-116459000D01*
X170945004Y-116387798D01*
X170974001Y-116364001D01*
X171068974Y-116248276D01*
X171139546Y-116116247D01*
X171183003Y-115972986D01*
X171194000Y-115861333D01*
X171194000Y-115861332D01*
X171197677Y-115824000D01*
X171194000Y-115786667D01*
X171194000Y-113575325D01*
X171197676Y-113538000D01*
X171194000Y-113500675D01*
X171194000Y-113500667D01*
X171183003Y-113389014D01*
X171139546Y-113245753D01*
X171068974Y-113113724D01*
X170974001Y-112997999D01*
X170945003Y-112974201D01*
X169679844Y-111709043D01*
X169683013Y-111710004D01*
X169794666Y-111721001D01*
X169794676Y-111721001D01*
X169831998Y-111724677D01*
X169869321Y-111721001D01*
X172779499Y-111721001D01*
X172816821Y-111724677D01*
X172854143Y-111721001D01*
X172854154Y-111721001D01*
X172965807Y-111710004D01*
X173109068Y-111666547D01*
X173241097Y-111595975D01*
X173356822Y-111501002D01*
X173380625Y-111471998D01*
X173579321Y-111273302D01*
X173502774Y-111458102D01*
G37*
%TD.AperFunction*%
D18*
X178035000Y-109067939D02*
X178074774Y-109267898D01*
X178152795Y-109456256D01*
X178266063Y-109625774D01*
X178410226Y-109769937D01*
X178579744Y-109883205D01*
X178768102Y-109961226D01*
X178968061Y-110001000D01*
X179030198Y-110001000D01*
X179290205Y-110261008D01*
X179313999Y-110290001D01*
X179342992Y-110313795D01*
X179342996Y-110313799D01*
X179386223Y-110349274D01*
X179429724Y-110384974D01*
X179561753Y-110455546D01*
X179705014Y-110499003D01*
X179816667Y-110510000D01*
X179816676Y-110510000D01*
X179853999Y-110513676D01*
X179891322Y-110510000D01*
X182523000Y-110510000D01*
X182523000Y-110590000D01*
X176469333Y-110590000D01*
X176432000Y-110586323D01*
X176394667Y-110590000D01*
X176283014Y-110600997D01*
X176139753Y-110644454D01*
X176007724Y-110715026D01*
X175995571Y-110725000D01*
X175920061Y-110725000D01*
X175720102Y-110764774D01*
X175531744Y-110842795D01*
X175362226Y-110956063D01*
X175260000Y-111058289D01*
X175157774Y-110956063D01*
X174988256Y-110842795D01*
X174799898Y-110764774D01*
X174599939Y-110725000D01*
X174396061Y-110725000D01*
X174196102Y-110764774D01*
X174011302Y-110841321D01*
X175942624Y-108910000D01*
X178035000Y-108910000D01*
X178035000Y-109067939D01*
%TA.AperFunction,Conductor*%
D19*
G36*
X178035000Y-109067939D02*
G01*
X178074774Y-109267898D01*
X178152795Y-109456256D01*
X178266063Y-109625774D01*
X178410226Y-109769937D01*
X178579744Y-109883205D01*
X178768102Y-109961226D01*
X178968061Y-110001000D01*
X179030198Y-110001000D01*
X179290205Y-110261008D01*
X179313999Y-110290001D01*
X179342992Y-110313795D01*
X179342996Y-110313799D01*
X179386223Y-110349274D01*
X179429724Y-110384974D01*
X179561753Y-110455546D01*
X179705014Y-110499003D01*
X179816667Y-110510000D01*
X179816676Y-110510000D01*
X179853999Y-110513676D01*
X179891322Y-110510000D01*
X182523000Y-110510000D01*
X182523000Y-110590000D01*
X176469333Y-110590000D01*
X176432000Y-110586323D01*
X176394667Y-110590000D01*
X176283014Y-110600997D01*
X176139753Y-110644454D01*
X176007724Y-110715026D01*
X175995571Y-110725000D01*
X175920061Y-110725000D01*
X175720102Y-110764774D01*
X175531744Y-110842795D01*
X175362226Y-110956063D01*
X175260000Y-111058289D01*
X175157774Y-110956063D01*
X174988256Y-110842795D01*
X174799898Y-110764774D01*
X174599939Y-110725000D01*
X174396061Y-110725000D01*
X174196102Y-110764774D01*
X174011302Y-110841321D01*
X175942624Y-108910000D01*
X178035000Y-108910000D01*
X178035000Y-109067939D01*
G37*
%TD.AperFunction*%
D18*
X182523000Y-107390000D02*
X176244510Y-107390000D01*
X176244510Y-95148061D01*
X176257000Y-95148061D01*
X176257000Y-95351939D01*
X176296774Y-95551898D01*
X176374795Y-95740256D01*
X176488063Y-95909774D01*
X176632226Y-96053937D01*
X176801744Y-96167205D01*
X176990102Y-96245226D01*
X177190061Y-96285000D01*
X177393939Y-96285000D01*
X177593898Y-96245226D01*
X177782256Y-96167205D01*
X177951774Y-96053937D01*
X178095937Y-95909774D01*
X178209205Y-95740256D01*
X178287226Y-95551898D01*
X178327000Y-95351939D01*
X178327000Y-95148061D01*
X178287226Y-94948102D01*
X178209205Y-94759744D01*
X178095937Y-94590226D01*
X177951774Y-94446063D01*
X177782256Y-94332795D01*
X177593898Y-94254774D01*
X177393939Y-94215000D01*
X177190061Y-94215000D01*
X176990102Y-94254774D01*
X176801744Y-94332795D01*
X176632226Y-94446063D01*
X176488063Y-94590226D01*
X176374795Y-94759744D01*
X176296774Y-94948102D01*
X176257000Y-95148061D01*
X176244510Y-95148061D01*
X176244510Y-93308291D01*
X177338040Y-92214763D01*
X177367032Y-92190970D01*
X177390826Y-92161977D01*
X177390830Y-92161973D01*
X177462004Y-92075246D01*
X177462005Y-92075245D01*
X177532577Y-91943216D01*
X177576034Y-91799955D01*
X177587031Y-91688302D01*
X177587031Y-91688293D01*
X177590707Y-91650970D01*
X177587031Y-91613647D01*
X177587031Y-84728180D01*
X180605212Y-81710000D01*
X182523000Y-81710000D01*
X182523000Y-107390000D01*
%TA.AperFunction,Conductor*%
D19*
G36*
X182523000Y-107390000D02*
G01*
X176244510Y-107390000D01*
X176244510Y-95148061D01*
X176257000Y-95148061D01*
X176257000Y-95351939D01*
X176296774Y-95551898D01*
X176374795Y-95740256D01*
X176488063Y-95909774D01*
X176632226Y-96053937D01*
X176801744Y-96167205D01*
X176990102Y-96245226D01*
X177190061Y-96285000D01*
X177393939Y-96285000D01*
X177593898Y-96245226D01*
X177782256Y-96167205D01*
X177951774Y-96053937D01*
X178095937Y-95909774D01*
X178209205Y-95740256D01*
X178287226Y-95551898D01*
X178327000Y-95351939D01*
X178327000Y-95148061D01*
X178287226Y-94948102D01*
X178209205Y-94759744D01*
X178095937Y-94590226D01*
X177951774Y-94446063D01*
X177782256Y-94332795D01*
X177593898Y-94254774D01*
X177393939Y-94215000D01*
X177190061Y-94215000D01*
X176990102Y-94254774D01*
X176801744Y-94332795D01*
X176632226Y-94446063D01*
X176488063Y-94590226D01*
X176374795Y-94759744D01*
X176296774Y-94948102D01*
X176257000Y-95148061D01*
X176244510Y-95148061D01*
X176244510Y-93308291D01*
X177338040Y-92214763D01*
X177367032Y-92190970D01*
X177390826Y-92161977D01*
X177390830Y-92161973D01*
X177462004Y-92075246D01*
X177462005Y-92075245D01*
X177532577Y-91943216D01*
X177576034Y-91799955D01*
X177587031Y-91688302D01*
X177587031Y-91688293D01*
X177590707Y-91650970D01*
X177587031Y-91613647D01*
X177587031Y-84728180D01*
X180605212Y-81710000D01*
X182523000Y-81710000D01*
X182523000Y-107390000D01*
G37*
%TD.AperFunction*%
D18*
X181513999Y-78009999D02*
X181490201Y-78038997D01*
X176687011Y-82842188D01*
X176687011Y-80165790D01*
X178876802Y-77976000D01*
X181555427Y-77976000D01*
X181513999Y-78009999D01*
%TA.AperFunction,Conductor*%
D19*
G36*
X181513999Y-78009999D02*
G01*
X181490201Y-78038997D01*
X176687011Y-82842188D01*
X176687011Y-80165790D01*
X178876802Y-77976000D01*
X181555427Y-77976000D01*
X181513999Y-78009999D01*
G37*
%TD.AperFunction*%
%TD*%
D18*
%TO.N,GNDA*%
X165523000Y-91850000D02*
X165525440Y-91874776D01*
X165532667Y-91898601D01*
X165544403Y-91920557D01*
X165560197Y-91939803D01*
X165579443Y-91955597D01*
X165601399Y-91967333D01*
X165625224Y-91974560D01*
X165650000Y-91977000D01*
X169523000Y-91977000D01*
X169523000Y-100723000D01*
X168698427Y-100723000D01*
X168638256Y-100682795D01*
X168449898Y-100604774D01*
X168249939Y-100565000D01*
X168046061Y-100565000D01*
X167846102Y-100604774D01*
X167657744Y-100682795D01*
X167597573Y-100723000D01*
X165650000Y-100723000D01*
X165625224Y-100725440D01*
X165601399Y-100732667D01*
X165579443Y-100744403D01*
X165560197Y-100760197D01*
X165544403Y-100779443D01*
X165532667Y-100801399D01*
X165525440Y-100825224D01*
X165523000Y-100850000D01*
X165523000Y-101243788D01*
X162690250Y-104076539D01*
X162584774Y-103971063D01*
X162415256Y-103857795D01*
X162226898Y-103779774D01*
X162026939Y-103740000D01*
X161823061Y-103740000D01*
X161623102Y-103779774D01*
X161434744Y-103857795D01*
X161265226Y-103971063D01*
X161121063Y-104115226D01*
X161007795Y-104284744D01*
X160929774Y-104473102D01*
X160890000Y-104673061D01*
X160890000Y-104876939D01*
X160929774Y-105076898D01*
X160963368Y-105158000D01*
X160469711Y-105158000D01*
X160425774Y-105114063D01*
X160256256Y-105000795D01*
X160067898Y-104922774D01*
X159867939Y-104883000D01*
X159664061Y-104883000D01*
X159464102Y-104922774D01*
X159275744Y-105000795D01*
X159106226Y-105114063D01*
X159090000Y-105130289D01*
X159090000Y-103781578D01*
X165345044Y-97526535D01*
X165401898Y-97515226D01*
X165590256Y-97437205D01*
X165759774Y-97323937D01*
X165903937Y-97179774D01*
X166017205Y-97010256D01*
X166095226Y-96821898D01*
X166135000Y-96621939D01*
X166135000Y-96418061D01*
X166095226Y-96218102D01*
X166017205Y-96029744D01*
X165903937Y-95860226D01*
X165759774Y-95716063D01*
X165590256Y-95602795D01*
X165401898Y-95524774D01*
X165201939Y-95485000D01*
X164998061Y-95485000D01*
X164798102Y-95524774D01*
X164609744Y-95602795D01*
X164440226Y-95716063D01*
X164296063Y-95860226D01*
X164182795Y-96029744D01*
X164104774Y-96218102D01*
X164093465Y-96274956D01*
X160761066Y-99607355D01*
X160679774Y-99526063D01*
X160510256Y-99412795D01*
X160321898Y-99334774D01*
X160121939Y-99295000D01*
X159918061Y-99295000D01*
X159718102Y-99334774D01*
X159529744Y-99412795D01*
X159360226Y-99526063D01*
X159216063Y-99670226D01*
X159102795Y-99839744D01*
X159024774Y-100028102D01*
X158985000Y-100228061D01*
X158985000Y-100431939D01*
X159024774Y-100631898D01*
X159102795Y-100820256D01*
X159216063Y-100989774D01*
X159297355Y-101071066D01*
X157713422Y-102655000D01*
X155975000Y-102655000D01*
X155975000Y-102588060D01*
X155935226Y-102388101D01*
X155857205Y-102199743D01*
X155743937Y-102030225D01*
X155599774Y-101886062D01*
X155430256Y-101772794D01*
X155241898Y-101694773D01*
X155185044Y-101683464D01*
X154703427Y-101201848D01*
X154705000Y-101193939D01*
X154705000Y-100990061D01*
X154665226Y-100790102D01*
X154587205Y-100601744D01*
X154473937Y-100432226D01*
X154329774Y-100288063D01*
X154160256Y-100174795D01*
X153971898Y-100096774D01*
X153771939Y-100057000D01*
X153568061Y-100057000D01*
X153368102Y-100096774D01*
X153179744Y-100174795D01*
X153010226Y-100288063D01*
X152866063Y-100432226D01*
X152752795Y-100601744D01*
X152674774Y-100790102D01*
X152635000Y-100990061D01*
X152635000Y-101193939D01*
X152674774Y-101393898D01*
X152752795Y-101582256D01*
X152828990Y-101696290D01*
X152848411Y-101760312D01*
X152930589Y-101914058D01*
X152968479Y-101960226D01*
X153008676Y-102009205D01*
X153041184Y-102048816D01*
X153074951Y-102076528D01*
X153550752Y-102552330D01*
X153518226Y-102574063D01*
X153374063Y-102718226D01*
X153260795Y-102887744D01*
X153182774Y-103076102D01*
X153143000Y-103276061D01*
X153143000Y-103479939D01*
X153182774Y-103679898D01*
X153260795Y-103868256D01*
X153374063Y-104037774D01*
X153518226Y-104181937D01*
X153595112Y-104233310D01*
X153289952Y-104538470D01*
X153256185Y-104566182D01*
X153228472Y-104599950D01*
X153228469Y-104599953D01*
X153145591Y-104700940D01*
X153063413Y-104854686D01*
X153012806Y-105021509D01*
X152995720Y-105194999D01*
X153000002Y-105238478D01*
X153000002Y-106915000D01*
X152933061Y-106915000D01*
X152733102Y-106954774D01*
X152544744Y-107032795D01*
X152375226Y-107146063D01*
X152231063Y-107290226D01*
X152117795Y-107459744D01*
X152039774Y-107648102D01*
X152000000Y-107848061D01*
X152000000Y-108051939D01*
X152039774Y-108251898D01*
X152117795Y-108440256D01*
X152231063Y-108609774D01*
X152375226Y-108753937D01*
X152544744Y-108867205D01*
X152733102Y-108945226D01*
X152933061Y-108985000D01*
X153000002Y-108985000D01*
X153000001Y-118840288D01*
X152866063Y-118974226D01*
X152752795Y-119143744D01*
X152674774Y-119332102D01*
X152635000Y-119532061D01*
X152635000Y-119735939D01*
X152674774Y-119935898D01*
X152693042Y-119980001D01*
X150895000Y-119980001D01*
X150895000Y-119913061D01*
X150855226Y-119713102D01*
X150777205Y-119524744D01*
X150663937Y-119355226D01*
X150519774Y-119211063D01*
X150350256Y-119097795D01*
X150161898Y-119019774D01*
X149961939Y-118980000D01*
X149758061Y-118980000D01*
X149558102Y-119019774D01*
X149384011Y-119091885D01*
X149384011Y-107005333D01*
X149387687Y-106968010D01*
X149384011Y-106930687D01*
X149384011Y-106930678D01*
X149373014Y-106819025D01*
X149367342Y-106800328D01*
X149371000Y-106781939D01*
X149371000Y-106704226D01*
X149441545Y-106572248D01*
X149485002Y-106428987D01*
X149495999Y-106317334D01*
X149495999Y-106317324D01*
X149499675Y-106280002D01*
X149495999Y-106242679D01*
X149495999Y-102569502D01*
X149558102Y-102595226D01*
X149758061Y-102635000D01*
X149961939Y-102635000D01*
X150161898Y-102595226D01*
X150350256Y-102517205D01*
X150519774Y-102403937D01*
X150663937Y-102259774D01*
X150777205Y-102090256D01*
X150855226Y-101901898D01*
X150895000Y-101701939D01*
X150895000Y-101498061D01*
X150855226Y-101298102D01*
X150777205Y-101109744D01*
X150663937Y-100940226D01*
X150519774Y-100796063D01*
X150350256Y-100682795D01*
X150161898Y-100604774D01*
X149961939Y-100565000D01*
X149758061Y-100565000D01*
X149558102Y-100604774D01*
X149495999Y-100630498D01*
X149495999Y-97053061D01*
X153270000Y-97053061D01*
X153270000Y-97256939D01*
X153309774Y-97456898D01*
X153387795Y-97645256D01*
X153501063Y-97814774D01*
X153645226Y-97958937D01*
X153814744Y-98072205D01*
X154003102Y-98150226D01*
X154203061Y-98190000D01*
X154406939Y-98190000D01*
X154606898Y-98150226D01*
X154795256Y-98072205D01*
X154964774Y-97958937D01*
X155108937Y-97814774D01*
X155222205Y-97645256D01*
X155300226Y-97456898D01*
X155340000Y-97256939D01*
X155340000Y-97053061D01*
X155300226Y-96853102D01*
X155222205Y-96664744D01*
X155108937Y-96495226D01*
X154964774Y-96351063D01*
X154795256Y-96237795D01*
X154606898Y-96159774D01*
X154406939Y-96120000D01*
X154203061Y-96120000D01*
X154003102Y-96159774D01*
X153814744Y-96237795D01*
X153645226Y-96351063D01*
X153501063Y-96495226D01*
X153387795Y-96664744D01*
X153309774Y-96853102D01*
X153270000Y-97053061D01*
X149495999Y-97053061D01*
X149495999Y-94513061D01*
X161525000Y-94513061D01*
X161525000Y-94716939D01*
X161564774Y-94916898D01*
X161642795Y-95105256D01*
X161756063Y-95274774D01*
X161900226Y-95418937D01*
X162069744Y-95532205D01*
X162258102Y-95610226D01*
X162458061Y-95650000D01*
X162661939Y-95650000D01*
X162861898Y-95610226D01*
X163050256Y-95532205D01*
X163219774Y-95418937D01*
X163363937Y-95274774D01*
X163477205Y-95105256D01*
X163555226Y-94916898D01*
X163595000Y-94716939D01*
X163595000Y-94513061D01*
X163555226Y-94313102D01*
X163477205Y-94124744D01*
X163363937Y-93955226D01*
X163219774Y-93811063D01*
X163050256Y-93697795D01*
X162861898Y-93619774D01*
X162661939Y-93580000D01*
X162458061Y-93580000D01*
X162258102Y-93619774D01*
X162069744Y-93697795D01*
X161900226Y-93811063D01*
X161756063Y-93955226D01*
X161642795Y-94124744D01*
X161564774Y-94313102D01*
X161525000Y-94513061D01*
X149495999Y-94513061D01*
X149495999Y-91338061D01*
X157715000Y-91338061D01*
X157715000Y-91541939D01*
X157754774Y-91741898D01*
X157832795Y-91930256D01*
X157946063Y-92099774D01*
X158090226Y-92243937D01*
X158259744Y-92357205D01*
X158448102Y-92435226D01*
X158648061Y-92475000D01*
X158851939Y-92475000D01*
X159051898Y-92435226D01*
X159240256Y-92357205D01*
X159409774Y-92243937D01*
X159553937Y-92099774D01*
X159667205Y-91930256D01*
X159745226Y-91741898D01*
X159785000Y-91541939D01*
X159785000Y-91338061D01*
X159745226Y-91138102D01*
X159667205Y-90949744D01*
X159553937Y-90780226D01*
X159409774Y-90636063D01*
X159240256Y-90522795D01*
X159051898Y-90444774D01*
X158851939Y-90405000D01*
X158648061Y-90405000D01*
X158448102Y-90444774D01*
X158259744Y-90522795D01*
X158090226Y-90636063D01*
X157946063Y-90780226D01*
X157832795Y-90949744D01*
X157754774Y-91138102D01*
X157715000Y-91338061D01*
X149495999Y-91338061D01*
X149495999Y-88798061D01*
X150730000Y-88798061D01*
X150730000Y-89001939D01*
X150769774Y-89201898D01*
X150847795Y-89390256D01*
X150961063Y-89559774D01*
X151105226Y-89703937D01*
X151274744Y-89817205D01*
X151463102Y-89895226D01*
X151663061Y-89935000D01*
X151866939Y-89935000D01*
X152066898Y-89895226D01*
X152255256Y-89817205D01*
X152424774Y-89703937D01*
X152568937Y-89559774D01*
X152682205Y-89390256D01*
X152760226Y-89201898D01*
X152800000Y-89001939D01*
X152800000Y-88798061D01*
X152760226Y-88598102D01*
X152682205Y-88409744D01*
X152568937Y-88240226D01*
X152424774Y-88096063D01*
X152255256Y-87982795D01*
X152066898Y-87904774D01*
X151866939Y-87865000D01*
X151663061Y-87865000D01*
X151463102Y-87904774D01*
X151274744Y-87982795D01*
X151105226Y-88096063D01*
X150961063Y-88240226D01*
X150847795Y-88409744D01*
X150769774Y-88598102D01*
X150730000Y-88798061D01*
X149495999Y-88798061D01*
X149495999Y-88575321D01*
X149499675Y-88537998D01*
X149495999Y-88500676D01*
X149495999Y-88500666D01*
X149485002Y-88389013D01*
X149441545Y-88245752D01*
X149371000Y-88113774D01*
X149371000Y-88036061D01*
X149331226Y-87836102D01*
X149253205Y-87647744D01*
X149139937Y-87478226D01*
X148995774Y-87334063D01*
X148826256Y-87220795D01*
X148637898Y-87142774D01*
X148580619Y-87131381D01*
X148569226Y-87074102D01*
X148491205Y-86885744D01*
X148377937Y-86716226D01*
X148233774Y-86572063D01*
X148143975Y-86512061D01*
X150857000Y-86512061D01*
X150857000Y-86715939D01*
X150896774Y-86915898D01*
X150974795Y-87104256D01*
X151088063Y-87273774D01*
X151232226Y-87417937D01*
X151401744Y-87531205D01*
X151590102Y-87609226D01*
X151790061Y-87649000D01*
X151993939Y-87649000D01*
X152193898Y-87609226D01*
X152382256Y-87531205D01*
X152551774Y-87417937D01*
X152695937Y-87273774D01*
X152809205Y-87104256D01*
X152844079Y-87020061D01*
X154921000Y-87020061D01*
X154921000Y-87223939D01*
X154960774Y-87423898D01*
X155038795Y-87612256D01*
X155152063Y-87781774D01*
X155296226Y-87925937D01*
X155465744Y-88039205D01*
X155654102Y-88117226D01*
X155854061Y-88157000D01*
X156057939Y-88157000D01*
X156257898Y-88117226D01*
X156446256Y-88039205D01*
X156494454Y-88007000D01*
X157875422Y-88007000D01*
X164093465Y-94225044D01*
X164104774Y-94281898D01*
X164182795Y-94470256D01*
X164296063Y-94639774D01*
X164440226Y-94783937D01*
X164609744Y-94897205D01*
X164798102Y-94975226D01*
X164998061Y-95015000D01*
X165201939Y-95015000D01*
X165401898Y-94975226D01*
X165590256Y-94897205D01*
X165759774Y-94783937D01*
X165903937Y-94639774D01*
X166017205Y-94470256D01*
X166095226Y-94281898D01*
X166135000Y-94081939D01*
X166135000Y-93878061D01*
X166095226Y-93678102D01*
X166017205Y-93489744D01*
X165903937Y-93320226D01*
X165759774Y-93176063D01*
X165590256Y-93062795D01*
X165401898Y-92984774D01*
X165345044Y-92973465D01*
X158898534Y-86526956D01*
X158886310Y-86512061D01*
X161271000Y-86512061D01*
X161271000Y-86715939D01*
X161310774Y-86915898D01*
X161388795Y-87104256D01*
X161502063Y-87273774D01*
X161646226Y-87417937D01*
X161815744Y-87531205D01*
X162004102Y-87609226D01*
X162204061Y-87649000D01*
X162407939Y-87649000D01*
X162607898Y-87609226D01*
X162796256Y-87531205D01*
X162965774Y-87417937D01*
X163109937Y-87273774D01*
X163223205Y-87104256D01*
X163301226Y-86915898D01*
X163341000Y-86715939D01*
X163341000Y-86512061D01*
X163301226Y-86312102D01*
X163223205Y-86123744D01*
X163109937Y-85954226D01*
X162965774Y-85810063D01*
X162796256Y-85696795D01*
X162607898Y-85618774D01*
X162407939Y-85579000D01*
X162204061Y-85579000D01*
X162004102Y-85618774D01*
X161815744Y-85696795D01*
X161646226Y-85810063D01*
X161502063Y-85954226D01*
X161388795Y-86123744D01*
X161310774Y-86312102D01*
X161271000Y-86512061D01*
X158886310Y-86512061D01*
X158870817Y-86493183D01*
X158736059Y-86382589D01*
X158582313Y-86300411D01*
X158415490Y-86249805D01*
X158285477Y-86237000D01*
X158285469Y-86237000D01*
X158242000Y-86232719D01*
X158198531Y-86237000D01*
X156494454Y-86237000D01*
X156446256Y-86204795D01*
X156257898Y-86126774D01*
X156057939Y-86087000D01*
X155854061Y-86087000D01*
X155654102Y-86126774D01*
X155465744Y-86204795D01*
X155296226Y-86318063D01*
X155152063Y-86462226D01*
X155038795Y-86631744D01*
X154960774Y-86820102D01*
X154921000Y-87020061D01*
X152844079Y-87020061D01*
X152887226Y-86915898D01*
X152927000Y-86715939D01*
X152927000Y-86512061D01*
X152887226Y-86312102D01*
X152809205Y-86123744D01*
X152695937Y-85954226D01*
X152551774Y-85810063D01*
X152382256Y-85696795D01*
X152193898Y-85618774D01*
X151993939Y-85579000D01*
X151790061Y-85579000D01*
X151590102Y-85618774D01*
X151401744Y-85696795D01*
X151232226Y-85810063D01*
X151088063Y-85954226D01*
X150974795Y-86123744D01*
X150896774Y-86312102D01*
X150857000Y-86512061D01*
X148143975Y-86512061D01*
X148064256Y-86458795D01*
X147875898Y-86380774D01*
X147675939Y-86341000D01*
X147472061Y-86341000D01*
X147272102Y-86380774D01*
X147083744Y-86458795D01*
X146914226Y-86572063D01*
X146770063Y-86716226D01*
X146656795Y-86885744D01*
X146578774Y-87074102D01*
X146567381Y-87131381D01*
X146510102Y-87142774D01*
X146321744Y-87220795D01*
X146152226Y-87334063D01*
X146108289Y-87378000D01*
X145833323Y-87378000D01*
X145796000Y-87374324D01*
X145758677Y-87378000D01*
X145758667Y-87378000D01*
X145647014Y-87388997D01*
X145503753Y-87432454D01*
X145371723Y-87503026D01*
X145326639Y-87540026D01*
X145255999Y-87597999D01*
X145232201Y-87626997D01*
X143111401Y-89747798D01*
X143111071Y-89747002D01*
X142997803Y-89577484D01*
X142853640Y-89433321D01*
X142684122Y-89320053D01*
X142495764Y-89242032D01*
X142295805Y-89202258D01*
X142091927Y-89202258D01*
X141891968Y-89242032D01*
X141703610Y-89320053D01*
X141534092Y-89433321D01*
X141389929Y-89577484D01*
X141276661Y-89747002D01*
X141198640Y-89935360D01*
X141162061Y-90119257D01*
X138706805Y-87664002D01*
X138683002Y-87634998D01*
X138567277Y-87540025D01*
X138435248Y-87469453D01*
X138291987Y-87425996D01*
X138180334Y-87414999D01*
X138180323Y-87414999D01*
X138143001Y-87411323D01*
X138105679Y-87414999D01*
X137484321Y-87414999D01*
X137446998Y-87411323D01*
X137409675Y-87414999D01*
X137409666Y-87414999D01*
X137298013Y-87425996D01*
X137154752Y-87469453D01*
X137022723Y-87540025D01*
X136906998Y-87634998D01*
X136883200Y-87663996D01*
X135594003Y-88953194D01*
X135564999Y-88976997D01*
X135536269Y-89012005D01*
X135470026Y-89092722D01*
X135448376Y-89133226D01*
X135399454Y-89224752D01*
X135355997Y-89368013D01*
X135345000Y-89479666D01*
X135345000Y-89479676D01*
X135341324Y-89516998D01*
X135345000Y-89554321D01*
X135345000Y-90101289D01*
X135301063Y-90145226D01*
X135187795Y-90314744D01*
X135109774Y-90503102D01*
X135070000Y-90703061D01*
X135070000Y-90906939D01*
X135109774Y-91106898D01*
X135187795Y-91295256D01*
X135301063Y-91464774D01*
X135445226Y-91608937D01*
X135614744Y-91722205D01*
X135803102Y-91800226D01*
X136003061Y-91840000D01*
X136206939Y-91840000D01*
X136406898Y-91800226D01*
X136595256Y-91722205D01*
X136764774Y-91608937D01*
X136908937Y-91464774D01*
X137022205Y-91295256D01*
X137100226Y-91106898D01*
X137140000Y-90906939D01*
X137140000Y-90703061D01*
X137100226Y-90503102D01*
X137022205Y-90314744D01*
X136908937Y-90145226D01*
X136865000Y-90101289D01*
X136865000Y-89831799D01*
X137064044Y-89632755D01*
X137135226Y-89703937D01*
X137304744Y-89817205D01*
X137493102Y-89895226D01*
X137549957Y-89906535D01*
X139291501Y-91648080D01*
X139291500Y-94680045D01*
X139259295Y-94728244D01*
X139181274Y-94916602D01*
X139141500Y-95116561D01*
X139141500Y-95320439D01*
X139181274Y-95520398D01*
X139259295Y-95708756D01*
X139323001Y-95804099D01*
X139323000Y-98267545D01*
X139290795Y-98315744D01*
X139212774Y-98504102D01*
X139173000Y-98704061D01*
X139173000Y-98907939D01*
X139212774Y-99107898D01*
X139290795Y-99296256D01*
X139404063Y-99465774D01*
X139475245Y-99536956D01*
X138007211Y-101004990D01*
X137963937Y-100940226D01*
X137819774Y-100796063D01*
X137650256Y-100682795D01*
X137461898Y-100604774D01*
X137261939Y-100565000D01*
X137058061Y-100565000D01*
X136858102Y-100604774D01*
X136669744Y-100682795D01*
X136500226Y-100796063D01*
X136356063Y-100940226D01*
X136242795Y-101109744D01*
X136164774Y-101298102D01*
X136125000Y-101498061D01*
X136125000Y-101701939D01*
X136164774Y-101901898D01*
X136242795Y-102090256D01*
X136356063Y-102259774D01*
X136500226Y-102403937D01*
X136564990Y-102447211D01*
X129446999Y-109565202D01*
X129418001Y-109589000D01*
X129394203Y-109617998D01*
X129394202Y-109617999D01*
X129323027Y-109704725D01*
X129252455Y-109836755D01*
X129248685Y-109849185D01*
X129208998Y-109980015D01*
X129198001Y-110091668D01*
X129198001Y-110091679D01*
X129194325Y-110129001D01*
X129198001Y-110166323D01*
X129198001Y-110796658D01*
X129194323Y-110834001D01*
X129198000Y-110871331D01*
X129197999Y-120014677D01*
X129194323Y-120051999D01*
X129197999Y-120089321D01*
X129197999Y-120089331D01*
X129208996Y-120200984D01*
X129242756Y-120312277D01*
X129252453Y-120344245D01*
X129323025Y-120476275D01*
X129355126Y-120515390D01*
X129417998Y-120592000D01*
X129447002Y-120615803D01*
X133021198Y-124190000D01*
X121310000Y-124190000D01*
X121310000Y-119706963D01*
X122469250Y-119705000D01*
X122628000Y-119546250D01*
X122628000Y-118522000D01*
X122882000Y-118522000D01*
X122882000Y-119546250D01*
X123040750Y-119705000D01*
X124855000Y-119708072D01*
X124979482Y-119695812D01*
X125099180Y-119659502D01*
X125209494Y-119600537D01*
X125306185Y-119521185D01*
X125385537Y-119424494D01*
X125444502Y-119314180D01*
X125480812Y-119194482D01*
X125493072Y-119070000D01*
X125490000Y-118680750D01*
X125331250Y-118522000D01*
X122882000Y-118522000D01*
X122628000Y-118522000D01*
X122608000Y-118522000D01*
X122608000Y-118268000D01*
X122628000Y-118268000D01*
X122628000Y-117243750D01*
X122882000Y-117243750D01*
X122882000Y-118268000D01*
X125331250Y-118268000D01*
X125490000Y-118109250D01*
X125493072Y-117720000D01*
X125480812Y-117595518D01*
X125444502Y-117475820D01*
X125385537Y-117365506D01*
X125306185Y-117268815D01*
X125209494Y-117189463D01*
X125099180Y-117130498D01*
X124979482Y-117094188D01*
X124855000Y-117081928D01*
X123040750Y-117085000D01*
X122882000Y-117243750D01*
X122628000Y-117243750D01*
X122469250Y-117085000D01*
X121310000Y-117083037D01*
X121310000Y-114056963D01*
X122469250Y-114055000D01*
X122628000Y-113896250D01*
X122628000Y-112872000D01*
X122882000Y-112872000D01*
X122882000Y-113896250D01*
X123040750Y-114055000D01*
X124855000Y-114058072D01*
X124979482Y-114045812D01*
X125099180Y-114009502D01*
X125209494Y-113950537D01*
X125306185Y-113871185D01*
X125385537Y-113774494D01*
X125444502Y-113664180D01*
X125480812Y-113544482D01*
X125493072Y-113420000D01*
X125490000Y-113030750D01*
X125331250Y-112872000D01*
X122882000Y-112872000D01*
X122628000Y-112872000D01*
X122608000Y-112872000D01*
X122608000Y-112618000D01*
X122628000Y-112618000D01*
X122628000Y-111593750D01*
X122882000Y-111593750D01*
X122882000Y-112618000D01*
X125331250Y-112618000D01*
X125490000Y-112459250D01*
X125493072Y-112070000D01*
X125480812Y-111945518D01*
X125444502Y-111825820D01*
X125385537Y-111715506D01*
X125306185Y-111618815D01*
X125209494Y-111539463D01*
X125099180Y-111480498D01*
X124979482Y-111444188D01*
X124855000Y-111431928D01*
X123040750Y-111435000D01*
X122882000Y-111593750D01*
X122628000Y-111593750D01*
X122469250Y-111435000D01*
X121310000Y-111433037D01*
X121310000Y-101291963D01*
X122469250Y-101290000D01*
X122628000Y-101131250D01*
X122628000Y-100107000D01*
X122882000Y-100107000D01*
X122882000Y-101131250D01*
X123040750Y-101290000D01*
X124855000Y-101293072D01*
X124979482Y-101280812D01*
X125099180Y-101244502D01*
X125209494Y-101185537D01*
X125306185Y-101106185D01*
X125385537Y-101009494D01*
X125444502Y-100899180D01*
X125455458Y-100863061D01*
X131680000Y-100863061D01*
X131680000Y-101066939D01*
X131719774Y-101266898D01*
X131797795Y-101455256D01*
X131911063Y-101624774D01*
X132055226Y-101768937D01*
X132224744Y-101882205D01*
X132413102Y-101960226D01*
X132613061Y-102000000D01*
X132816939Y-102000000D01*
X133016898Y-101960226D01*
X133205256Y-101882205D01*
X133374774Y-101768937D01*
X133518937Y-101624774D01*
X133585000Y-101525903D01*
X133585000Y-101701939D01*
X133624774Y-101901898D01*
X133702795Y-102090256D01*
X133816063Y-102259774D01*
X133960226Y-102403937D01*
X134129744Y-102517205D01*
X134318102Y-102595226D01*
X134518061Y-102635000D01*
X134721939Y-102635000D01*
X134921898Y-102595226D01*
X135110256Y-102517205D01*
X135279774Y-102403937D01*
X135423937Y-102259774D01*
X135537205Y-102090256D01*
X135615226Y-101901898D01*
X135655000Y-101701939D01*
X135655000Y-101498061D01*
X135615226Y-101298102D01*
X135537205Y-101109744D01*
X135423937Y-100940226D01*
X135279774Y-100796063D01*
X135110256Y-100682795D01*
X134921898Y-100604774D01*
X134721939Y-100565000D01*
X134518061Y-100565000D01*
X134318102Y-100604774D01*
X134129744Y-100682795D01*
X133960226Y-100796063D01*
X133816063Y-100940226D01*
X133750000Y-101039097D01*
X133750000Y-100863061D01*
X133710226Y-100663102D01*
X133632205Y-100474744D01*
X133518937Y-100305226D01*
X133374774Y-100161063D01*
X133205256Y-100047795D01*
X133016898Y-99969774D01*
X132816939Y-99930000D01*
X132613061Y-99930000D01*
X132413102Y-99969774D01*
X132224744Y-100047795D01*
X132055226Y-100161063D01*
X131911063Y-100305226D01*
X131797795Y-100474744D01*
X131719774Y-100663102D01*
X131680000Y-100863061D01*
X125455458Y-100863061D01*
X125480812Y-100779482D01*
X125493072Y-100655000D01*
X125490000Y-100265750D01*
X125331250Y-100107000D01*
X122882000Y-100107000D01*
X122628000Y-100107000D01*
X122608000Y-100107000D01*
X122608000Y-99853000D01*
X122628000Y-99853000D01*
X122628000Y-98828750D01*
X122882000Y-98828750D01*
X122882000Y-99853000D01*
X125331250Y-99853000D01*
X125490000Y-99694250D01*
X125493072Y-99305000D01*
X125480812Y-99180518D01*
X125444502Y-99060820D01*
X125389576Y-98958061D01*
X132823000Y-98958061D01*
X132823000Y-99161939D01*
X132862774Y-99361898D01*
X132940795Y-99550256D01*
X133054063Y-99719774D01*
X133198226Y-99863937D01*
X133367744Y-99977205D01*
X133556102Y-100055226D01*
X133756061Y-100095000D01*
X133959939Y-100095000D01*
X134159898Y-100055226D01*
X134348256Y-99977205D01*
X134517774Y-99863937D01*
X134661937Y-99719774D01*
X134775205Y-99550256D01*
X134853226Y-99361898D01*
X134893000Y-99161939D01*
X134893000Y-98958061D01*
X134861563Y-98800015D01*
X138040044Y-95621535D01*
X138096898Y-95610226D01*
X138285256Y-95532205D01*
X138454774Y-95418937D01*
X138598937Y-95274774D01*
X138712205Y-95105256D01*
X138790226Y-94916898D01*
X138830000Y-94716939D01*
X138830000Y-94513061D01*
X138790226Y-94313102D01*
X138712205Y-94124744D01*
X138598937Y-93955226D01*
X138454774Y-93811063D01*
X138285256Y-93697795D01*
X138096898Y-93619774D01*
X137896939Y-93580000D01*
X137693061Y-93580000D01*
X137493102Y-93619774D01*
X137304744Y-93697795D01*
X137135226Y-93811063D01*
X136991063Y-93955226D01*
X136877795Y-94124744D01*
X136799774Y-94313102D01*
X136788465Y-94369956D01*
X133516954Y-97641468D01*
X133262952Y-97895470D01*
X133229184Y-97923183D01*
X133201471Y-97956951D01*
X133201468Y-97956954D01*
X133199841Y-97958937D01*
X133118590Y-98057941D01*
X133036411Y-98211687D01*
X132985805Y-98378510D01*
X132973000Y-98508523D01*
X132973000Y-98508531D01*
X132971497Y-98523796D01*
X132940795Y-98569744D01*
X132862774Y-98758102D01*
X132823000Y-98958061D01*
X125389576Y-98958061D01*
X125385537Y-98950506D01*
X125306185Y-98853815D01*
X125209494Y-98774463D01*
X125099180Y-98715498D01*
X124979482Y-98679188D01*
X124855000Y-98666928D01*
X123040750Y-98670000D01*
X122882000Y-98828750D01*
X122628000Y-98828750D01*
X122469250Y-98670000D01*
X121310000Y-98668037D01*
X121310000Y-95641963D01*
X122469250Y-95640000D01*
X122628000Y-95481250D01*
X122628000Y-94457000D01*
X122882000Y-94457000D01*
X122882000Y-95481250D01*
X123040750Y-95640000D01*
X124855000Y-95643072D01*
X124979482Y-95630812D01*
X125099180Y-95594502D01*
X125209494Y-95535537D01*
X125306185Y-95456185D01*
X125385537Y-95359494D01*
X125444502Y-95249180D01*
X125480812Y-95129482D01*
X125493072Y-95005000D01*
X125490000Y-94615750D01*
X125331250Y-94457000D01*
X122882000Y-94457000D01*
X122628000Y-94457000D01*
X122608000Y-94457000D01*
X122608000Y-94203000D01*
X122628000Y-94203000D01*
X122628000Y-93178750D01*
X122882000Y-93178750D01*
X122882000Y-94203000D01*
X125331250Y-94203000D01*
X125490000Y-94044250D01*
X125493072Y-93655000D01*
X125480812Y-93530518D01*
X125444502Y-93410820D01*
X125385537Y-93300506D01*
X125338394Y-93243061D01*
X131680000Y-93243061D01*
X131680000Y-93446939D01*
X131719774Y-93646898D01*
X131797795Y-93835256D01*
X131911063Y-94004774D01*
X132055226Y-94148937D01*
X132224744Y-94262205D01*
X132413102Y-94340226D01*
X132613061Y-94380000D01*
X132816939Y-94380000D01*
X133016898Y-94340226D01*
X133205256Y-94262205D01*
X133374774Y-94148937D01*
X133518937Y-94004774D01*
X133632205Y-93835256D01*
X133710226Y-93646898D01*
X133750000Y-93446939D01*
X133750000Y-93270903D01*
X133816063Y-93369774D01*
X133960226Y-93513937D01*
X134129744Y-93627205D01*
X134318102Y-93705226D01*
X134518061Y-93745000D01*
X134721939Y-93745000D01*
X134921898Y-93705226D01*
X135110256Y-93627205D01*
X135279774Y-93513937D01*
X135423937Y-93369774D01*
X135537205Y-93200256D01*
X135615226Y-93011898D01*
X135655000Y-92811939D01*
X135655000Y-92608061D01*
X135615226Y-92408102D01*
X135537205Y-92219744D01*
X135423937Y-92050226D01*
X135279774Y-91906063D01*
X135110256Y-91792795D01*
X134921898Y-91714774D01*
X134721939Y-91675000D01*
X134518061Y-91675000D01*
X134318102Y-91714774D01*
X134129744Y-91792795D01*
X133960226Y-91906063D01*
X133816063Y-92050226D01*
X133702795Y-92219744D01*
X133624774Y-92408102D01*
X133585000Y-92608061D01*
X133585000Y-92784097D01*
X133518937Y-92685226D01*
X133374774Y-92541063D01*
X133205256Y-92427795D01*
X133016898Y-92349774D01*
X132816939Y-92310000D01*
X132613061Y-92310000D01*
X132413102Y-92349774D01*
X132224744Y-92427795D01*
X132055226Y-92541063D01*
X131911063Y-92685226D01*
X131797795Y-92854744D01*
X131719774Y-93043102D01*
X131680000Y-93243061D01*
X125338394Y-93243061D01*
X125306185Y-93203815D01*
X125209494Y-93124463D01*
X125099180Y-93065498D01*
X124979482Y-93029188D01*
X124855000Y-93016928D01*
X123040750Y-93020000D01*
X122882000Y-93178750D01*
X122628000Y-93178750D01*
X122469250Y-93020000D01*
X121310000Y-93018037D01*
X121310000Y-86258061D01*
X138030000Y-86258061D01*
X138030000Y-86461939D01*
X138069774Y-86661898D01*
X138147795Y-86850256D01*
X138261063Y-87019774D01*
X138405226Y-87163937D01*
X138574744Y-87277205D01*
X138763102Y-87355226D01*
X138963061Y-87395000D01*
X139166939Y-87395000D01*
X139366898Y-87355226D01*
X139555256Y-87277205D01*
X139724774Y-87163937D01*
X139868937Y-87019774D01*
X139982205Y-86850256D01*
X140060226Y-86661898D01*
X140100000Y-86461939D01*
X140100000Y-86258061D01*
X140570000Y-86258061D01*
X140570000Y-86461939D01*
X140609774Y-86661898D01*
X140687795Y-86850256D01*
X140801063Y-87019774D01*
X140945226Y-87163937D01*
X141114744Y-87277205D01*
X141303102Y-87355226D01*
X141503061Y-87395000D01*
X141706939Y-87395000D01*
X141906898Y-87355226D01*
X142095256Y-87277205D01*
X142264774Y-87163937D01*
X142408937Y-87019774D01*
X142522205Y-86850256D01*
X142600226Y-86661898D01*
X142640000Y-86461939D01*
X142640000Y-86258061D01*
X142600226Y-86058102D01*
X142522205Y-85869744D01*
X142408937Y-85700226D01*
X142264774Y-85556063D01*
X142095256Y-85442795D01*
X141906898Y-85364774D01*
X141706939Y-85325000D01*
X141503061Y-85325000D01*
X141303102Y-85364774D01*
X141114744Y-85442795D01*
X140945226Y-85556063D01*
X140801063Y-85700226D01*
X140687795Y-85869744D01*
X140609774Y-86058102D01*
X140570000Y-86258061D01*
X140100000Y-86258061D01*
X140060226Y-86058102D01*
X139982205Y-85869744D01*
X139868937Y-85700226D01*
X139724774Y-85556063D01*
X139555256Y-85442795D01*
X139366898Y-85364774D01*
X139166939Y-85325000D01*
X138963061Y-85325000D01*
X138763102Y-85364774D01*
X138574744Y-85442795D01*
X138405226Y-85556063D01*
X138261063Y-85700226D01*
X138147795Y-85869744D01*
X138069774Y-86058102D01*
X138030000Y-86258061D01*
X121310000Y-86258061D01*
X121310000Y-79908061D01*
X139300000Y-79908061D01*
X139300000Y-80111939D01*
X139339774Y-80311898D01*
X139417795Y-80500256D01*
X139531063Y-80669774D01*
X139675226Y-80813937D01*
X139844744Y-80927205D01*
X140033102Y-81005226D01*
X140233061Y-81045000D01*
X140436939Y-81045000D01*
X140636898Y-81005226D01*
X140825256Y-80927205D01*
X140994774Y-80813937D01*
X141138937Y-80669774D01*
X141252205Y-80500256D01*
X141330226Y-80311898D01*
X141370000Y-80111939D01*
X141370000Y-79908061D01*
X141330226Y-79708102D01*
X141252205Y-79519744D01*
X141138937Y-79350226D01*
X141031439Y-79242728D01*
X141954250Y-79240000D01*
X142113000Y-79081250D01*
X142113000Y-79033165D01*
X142146176Y-79039828D01*
X142330355Y-79040171D01*
X142367000Y-79032952D01*
X142367000Y-79081250D01*
X142525750Y-79240000D01*
X143565000Y-79243072D01*
X143576333Y-79241956D01*
X143468063Y-79350226D01*
X143354795Y-79519744D01*
X143276774Y-79708102D01*
X143237000Y-79908061D01*
X143237000Y-80111939D01*
X143276774Y-80311898D01*
X143354795Y-80500256D01*
X143468063Y-80669774D01*
X143612226Y-80813937D01*
X143781744Y-80927205D01*
X143970102Y-81005226D01*
X144170061Y-81045000D01*
X144373939Y-81045000D01*
X144573898Y-81005226D01*
X144762256Y-80927205D01*
X144931774Y-80813937D01*
X145075937Y-80669774D01*
X145189205Y-80500256D01*
X145267226Y-80311898D01*
X145307000Y-80111939D01*
X145307000Y-79908061D01*
X145267226Y-79708102D01*
X145189205Y-79519744D01*
X145075937Y-79350226D01*
X144931774Y-79206063D01*
X144762256Y-79092795D01*
X144573898Y-79014774D01*
X144373939Y-78975000D01*
X144170061Y-78975000D01*
X144065790Y-78995741D01*
X144095537Y-78959494D01*
X144131581Y-78892061D01*
X147555000Y-78892061D01*
X147555000Y-79095939D01*
X147594774Y-79295898D01*
X147672795Y-79484256D01*
X147786063Y-79653774D01*
X147930226Y-79797937D01*
X148099744Y-79911205D01*
X148288102Y-79989226D01*
X148488061Y-80029000D01*
X148691939Y-80029000D01*
X148891898Y-79989226D01*
X149080256Y-79911205D01*
X149249774Y-79797937D01*
X149393937Y-79653774D01*
X149507205Y-79484256D01*
X149585226Y-79295898D01*
X149625000Y-79095939D01*
X149625000Y-78892061D01*
X149585226Y-78692102D01*
X149507205Y-78503744D01*
X149393937Y-78334226D01*
X149249774Y-78190063D01*
X149080256Y-78076795D01*
X148891898Y-77998774D01*
X148691939Y-77959000D01*
X148488061Y-77959000D01*
X148288102Y-77998774D01*
X148099744Y-78076795D01*
X147930226Y-78190063D01*
X147786063Y-78334226D01*
X147672795Y-78503744D01*
X147594774Y-78692102D01*
X147555000Y-78892061D01*
X144131581Y-78892061D01*
X144154502Y-78849180D01*
X144190812Y-78729482D01*
X144203072Y-78605000D01*
X144200000Y-78390750D01*
X144146939Y-78337689D01*
X144174828Y-78198824D01*
X144175171Y-78014645D01*
X144147101Y-77872149D01*
X144200000Y-77819250D01*
X144203072Y-77605000D01*
X144190812Y-77480518D01*
X144154502Y-77360820D01*
X144095537Y-77250506D01*
X144016185Y-77153815D01*
X143919494Y-77074463D01*
X143809180Y-77015498D01*
X143689482Y-76979188D01*
X143565000Y-76966928D01*
X142525750Y-76970000D01*
X142367000Y-77128750D01*
X142367000Y-77176835D01*
X142333824Y-77170172D01*
X142149645Y-77169829D01*
X142113000Y-77177048D01*
X142113000Y-77128750D01*
X141954250Y-76970000D01*
X140915000Y-76966928D01*
X140790518Y-76979188D01*
X140670820Y-77015498D01*
X140560506Y-77074463D01*
X140463815Y-77153815D01*
X140384463Y-77250506D01*
X140325498Y-77360820D01*
X140289188Y-77480518D01*
X140276928Y-77605000D01*
X140280000Y-77819250D01*
X140333061Y-77872311D01*
X140305172Y-78011176D01*
X140304829Y-78195355D01*
X140332899Y-78337851D01*
X140280000Y-78390750D01*
X140276928Y-78605000D01*
X140289188Y-78729482D01*
X140325498Y-78849180D01*
X140384463Y-78959494D01*
X140397188Y-78975000D01*
X140233061Y-78975000D01*
X140033102Y-79014774D01*
X139844744Y-79092795D01*
X139675226Y-79206063D01*
X139531063Y-79350226D01*
X139417795Y-79519744D01*
X139339774Y-79708102D01*
X139300000Y-79908061D01*
X121310000Y-79908061D01*
X121310000Y-76860061D01*
X134855000Y-76860061D01*
X134855000Y-77063939D01*
X134894774Y-77263898D01*
X134972795Y-77452256D01*
X135086063Y-77621774D01*
X135230226Y-77765937D01*
X135399744Y-77879205D01*
X135588102Y-77957226D01*
X135788061Y-77997000D01*
X135991939Y-77997000D01*
X136191898Y-77957226D01*
X136380256Y-77879205D01*
X136549774Y-77765937D01*
X136693937Y-77621774D01*
X136807205Y-77452256D01*
X136885226Y-77263898D01*
X136925000Y-77063939D01*
X136925000Y-76860061D01*
X136885226Y-76660102D01*
X136807205Y-76471744D01*
X136693937Y-76302226D01*
X136549774Y-76158063D01*
X136380256Y-76044795D01*
X136191898Y-75966774D01*
X135991939Y-75927000D01*
X135788061Y-75927000D01*
X135588102Y-75966774D01*
X135399744Y-76044795D01*
X135230226Y-76158063D01*
X135086063Y-76302226D01*
X134972795Y-76471744D01*
X134894774Y-76660102D01*
X134855000Y-76860061D01*
X121310000Y-76860061D01*
X121310000Y-74828061D01*
X141205000Y-74828061D01*
X141205000Y-75031939D01*
X141244774Y-75231898D01*
X141322795Y-75420256D01*
X141436063Y-75589774D01*
X141580226Y-75733937D01*
X141749744Y-75847205D01*
X141938102Y-75925226D01*
X142138061Y-75965000D01*
X142341939Y-75965000D01*
X142541898Y-75925226D01*
X142730256Y-75847205D01*
X142899774Y-75733937D01*
X143043937Y-75589774D01*
X143157205Y-75420256D01*
X143235226Y-75231898D01*
X143275000Y-75031939D01*
X143275000Y-74828061D01*
X143235226Y-74628102D01*
X143157205Y-74439744D01*
X143043937Y-74270226D01*
X142899774Y-74126063D01*
X142730256Y-74012795D01*
X142541898Y-73934774D01*
X142341939Y-73895000D01*
X142138061Y-73895000D01*
X141938102Y-73934774D01*
X141749744Y-74012795D01*
X141580226Y-74126063D01*
X141436063Y-74270226D01*
X141322795Y-74439744D01*
X141244774Y-74628102D01*
X141205000Y-74828061D01*
X121310000Y-74828061D01*
X121310000Y-70510000D01*
X165523000Y-70510000D01*
X165523000Y-91850000D01*
%TA.AperFunction,Conductor*%
D19*
G36*
X165523000Y-91850000D02*
G01*
X165525440Y-91874776D01*
X165532667Y-91898601D01*
X165544403Y-91920557D01*
X165560197Y-91939803D01*
X165579443Y-91955597D01*
X165601399Y-91967333D01*
X165625224Y-91974560D01*
X165650000Y-91977000D01*
X169523000Y-91977000D01*
X169523000Y-100723000D01*
X168698427Y-100723000D01*
X168638256Y-100682795D01*
X168449898Y-100604774D01*
X168249939Y-100565000D01*
X168046061Y-100565000D01*
X167846102Y-100604774D01*
X167657744Y-100682795D01*
X167597573Y-100723000D01*
X165650000Y-100723000D01*
X165625224Y-100725440D01*
X165601399Y-100732667D01*
X165579443Y-100744403D01*
X165560197Y-100760197D01*
X165544403Y-100779443D01*
X165532667Y-100801399D01*
X165525440Y-100825224D01*
X165523000Y-100850000D01*
X165523000Y-101243788D01*
X162690250Y-104076539D01*
X162584774Y-103971063D01*
X162415256Y-103857795D01*
X162226898Y-103779774D01*
X162026939Y-103740000D01*
X161823061Y-103740000D01*
X161623102Y-103779774D01*
X161434744Y-103857795D01*
X161265226Y-103971063D01*
X161121063Y-104115226D01*
X161007795Y-104284744D01*
X160929774Y-104473102D01*
X160890000Y-104673061D01*
X160890000Y-104876939D01*
X160929774Y-105076898D01*
X160963368Y-105158000D01*
X160469711Y-105158000D01*
X160425774Y-105114063D01*
X160256256Y-105000795D01*
X160067898Y-104922774D01*
X159867939Y-104883000D01*
X159664061Y-104883000D01*
X159464102Y-104922774D01*
X159275744Y-105000795D01*
X159106226Y-105114063D01*
X159090000Y-105130289D01*
X159090000Y-103781578D01*
X165345044Y-97526535D01*
X165401898Y-97515226D01*
X165590256Y-97437205D01*
X165759774Y-97323937D01*
X165903937Y-97179774D01*
X166017205Y-97010256D01*
X166095226Y-96821898D01*
X166135000Y-96621939D01*
X166135000Y-96418061D01*
X166095226Y-96218102D01*
X166017205Y-96029744D01*
X165903937Y-95860226D01*
X165759774Y-95716063D01*
X165590256Y-95602795D01*
X165401898Y-95524774D01*
X165201939Y-95485000D01*
X164998061Y-95485000D01*
X164798102Y-95524774D01*
X164609744Y-95602795D01*
X164440226Y-95716063D01*
X164296063Y-95860226D01*
X164182795Y-96029744D01*
X164104774Y-96218102D01*
X164093465Y-96274956D01*
X160761066Y-99607355D01*
X160679774Y-99526063D01*
X160510256Y-99412795D01*
X160321898Y-99334774D01*
X160121939Y-99295000D01*
X159918061Y-99295000D01*
X159718102Y-99334774D01*
X159529744Y-99412795D01*
X159360226Y-99526063D01*
X159216063Y-99670226D01*
X159102795Y-99839744D01*
X159024774Y-100028102D01*
X158985000Y-100228061D01*
X158985000Y-100431939D01*
X159024774Y-100631898D01*
X159102795Y-100820256D01*
X159216063Y-100989774D01*
X159297355Y-101071066D01*
X157713422Y-102655000D01*
X155975000Y-102655000D01*
X155975000Y-102588060D01*
X155935226Y-102388101D01*
X155857205Y-102199743D01*
X155743937Y-102030225D01*
X155599774Y-101886062D01*
X155430256Y-101772794D01*
X155241898Y-101694773D01*
X155185044Y-101683464D01*
X154703427Y-101201848D01*
X154705000Y-101193939D01*
X154705000Y-100990061D01*
X154665226Y-100790102D01*
X154587205Y-100601744D01*
X154473937Y-100432226D01*
X154329774Y-100288063D01*
X154160256Y-100174795D01*
X153971898Y-100096774D01*
X153771939Y-100057000D01*
X153568061Y-100057000D01*
X153368102Y-100096774D01*
X153179744Y-100174795D01*
X153010226Y-100288063D01*
X152866063Y-100432226D01*
X152752795Y-100601744D01*
X152674774Y-100790102D01*
X152635000Y-100990061D01*
X152635000Y-101193939D01*
X152674774Y-101393898D01*
X152752795Y-101582256D01*
X152828990Y-101696290D01*
X152848411Y-101760312D01*
X152930589Y-101914058D01*
X152968479Y-101960226D01*
X153008676Y-102009205D01*
X153041184Y-102048816D01*
X153074951Y-102076528D01*
X153550752Y-102552330D01*
X153518226Y-102574063D01*
X153374063Y-102718226D01*
X153260795Y-102887744D01*
X153182774Y-103076102D01*
X153143000Y-103276061D01*
X153143000Y-103479939D01*
X153182774Y-103679898D01*
X153260795Y-103868256D01*
X153374063Y-104037774D01*
X153518226Y-104181937D01*
X153595112Y-104233310D01*
X153289952Y-104538470D01*
X153256185Y-104566182D01*
X153228472Y-104599950D01*
X153228469Y-104599953D01*
X153145591Y-104700940D01*
X153063413Y-104854686D01*
X153012806Y-105021509D01*
X152995720Y-105194999D01*
X153000002Y-105238478D01*
X153000002Y-106915000D01*
X152933061Y-106915000D01*
X152733102Y-106954774D01*
X152544744Y-107032795D01*
X152375226Y-107146063D01*
X152231063Y-107290226D01*
X152117795Y-107459744D01*
X152039774Y-107648102D01*
X152000000Y-107848061D01*
X152000000Y-108051939D01*
X152039774Y-108251898D01*
X152117795Y-108440256D01*
X152231063Y-108609774D01*
X152375226Y-108753937D01*
X152544744Y-108867205D01*
X152733102Y-108945226D01*
X152933061Y-108985000D01*
X153000002Y-108985000D01*
X153000001Y-118840288D01*
X152866063Y-118974226D01*
X152752795Y-119143744D01*
X152674774Y-119332102D01*
X152635000Y-119532061D01*
X152635000Y-119735939D01*
X152674774Y-119935898D01*
X152693042Y-119980001D01*
X150895000Y-119980001D01*
X150895000Y-119913061D01*
X150855226Y-119713102D01*
X150777205Y-119524744D01*
X150663937Y-119355226D01*
X150519774Y-119211063D01*
X150350256Y-119097795D01*
X150161898Y-119019774D01*
X149961939Y-118980000D01*
X149758061Y-118980000D01*
X149558102Y-119019774D01*
X149384011Y-119091885D01*
X149384011Y-107005333D01*
X149387687Y-106968010D01*
X149384011Y-106930687D01*
X149384011Y-106930678D01*
X149373014Y-106819025D01*
X149367342Y-106800328D01*
X149371000Y-106781939D01*
X149371000Y-106704226D01*
X149441545Y-106572248D01*
X149485002Y-106428987D01*
X149495999Y-106317334D01*
X149495999Y-106317324D01*
X149499675Y-106280002D01*
X149495999Y-106242679D01*
X149495999Y-102569502D01*
X149558102Y-102595226D01*
X149758061Y-102635000D01*
X149961939Y-102635000D01*
X150161898Y-102595226D01*
X150350256Y-102517205D01*
X150519774Y-102403937D01*
X150663937Y-102259774D01*
X150777205Y-102090256D01*
X150855226Y-101901898D01*
X150895000Y-101701939D01*
X150895000Y-101498061D01*
X150855226Y-101298102D01*
X150777205Y-101109744D01*
X150663937Y-100940226D01*
X150519774Y-100796063D01*
X150350256Y-100682795D01*
X150161898Y-100604774D01*
X149961939Y-100565000D01*
X149758061Y-100565000D01*
X149558102Y-100604774D01*
X149495999Y-100630498D01*
X149495999Y-97053061D01*
X153270000Y-97053061D01*
X153270000Y-97256939D01*
X153309774Y-97456898D01*
X153387795Y-97645256D01*
X153501063Y-97814774D01*
X153645226Y-97958937D01*
X153814744Y-98072205D01*
X154003102Y-98150226D01*
X154203061Y-98190000D01*
X154406939Y-98190000D01*
X154606898Y-98150226D01*
X154795256Y-98072205D01*
X154964774Y-97958937D01*
X155108937Y-97814774D01*
X155222205Y-97645256D01*
X155300226Y-97456898D01*
X155340000Y-97256939D01*
X155340000Y-97053061D01*
X155300226Y-96853102D01*
X155222205Y-96664744D01*
X155108937Y-96495226D01*
X154964774Y-96351063D01*
X154795256Y-96237795D01*
X154606898Y-96159774D01*
X154406939Y-96120000D01*
X154203061Y-96120000D01*
X154003102Y-96159774D01*
X153814744Y-96237795D01*
X153645226Y-96351063D01*
X153501063Y-96495226D01*
X153387795Y-96664744D01*
X153309774Y-96853102D01*
X153270000Y-97053061D01*
X149495999Y-97053061D01*
X149495999Y-94513061D01*
X161525000Y-94513061D01*
X161525000Y-94716939D01*
X161564774Y-94916898D01*
X161642795Y-95105256D01*
X161756063Y-95274774D01*
X161900226Y-95418937D01*
X162069744Y-95532205D01*
X162258102Y-95610226D01*
X162458061Y-95650000D01*
X162661939Y-95650000D01*
X162861898Y-95610226D01*
X163050256Y-95532205D01*
X163219774Y-95418937D01*
X163363937Y-95274774D01*
X163477205Y-95105256D01*
X163555226Y-94916898D01*
X163595000Y-94716939D01*
X163595000Y-94513061D01*
X163555226Y-94313102D01*
X163477205Y-94124744D01*
X163363937Y-93955226D01*
X163219774Y-93811063D01*
X163050256Y-93697795D01*
X162861898Y-93619774D01*
X162661939Y-93580000D01*
X162458061Y-93580000D01*
X162258102Y-93619774D01*
X162069744Y-93697795D01*
X161900226Y-93811063D01*
X161756063Y-93955226D01*
X161642795Y-94124744D01*
X161564774Y-94313102D01*
X161525000Y-94513061D01*
X149495999Y-94513061D01*
X149495999Y-91338061D01*
X157715000Y-91338061D01*
X157715000Y-91541939D01*
X157754774Y-91741898D01*
X157832795Y-91930256D01*
X157946063Y-92099774D01*
X158090226Y-92243937D01*
X158259744Y-92357205D01*
X158448102Y-92435226D01*
X158648061Y-92475000D01*
X158851939Y-92475000D01*
X159051898Y-92435226D01*
X159240256Y-92357205D01*
X159409774Y-92243937D01*
X159553937Y-92099774D01*
X159667205Y-91930256D01*
X159745226Y-91741898D01*
X159785000Y-91541939D01*
X159785000Y-91338061D01*
X159745226Y-91138102D01*
X159667205Y-90949744D01*
X159553937Y-90780226D01*
X159409774Y-90636063D01*
X159240256Y-90522795D01*
X159051898Y-90444774D01*
X158851939Y-90405000D01*
X158648061Y-90405000D01*
X158448102Y-90444774D01*
X158259744Y-90522795D01*
X158090226Y-90636063D01*
X157946063Y-90780226D01*
X157832795Y-90949744D01*
X157754774Y-91138102D01*
X157715000Y-91338061D01*
X149495999Y-91338061D01*
X149495999Y-88798061D01*
X150730000Y-88798061D01*
X150730000Y-89001939D01*
X150769774Y-89201898D01*
X150847795Y-89390256D01*
X150961063Y-89559774D01*
X151105226Y-89703937D01*
X151274744Y-89817205D01*
X151463102Y-89895226D01*
X151663061Y-89935000D01*
X151866939Y-89935000D01*
X152066898Y-89895226D01*
X152255256Y-89817205D01*
X152424774Y-89703937D01*
X152568937Y-89559774D01*
X152682205Y-89390256D01*
X152760226Y-89201898D01*
X152800000Y-89001939D01*
X152800000Y-88798061D01*
X152760226Y-88598102D01*
X152682205Y-88409744D01*
X152568937Y-88240226D01*
X152424774Y-88096063D01*
X152255256Y-87982795D01*
X152066898Y-87904774D01*
X151866939Y-87865000D01*
X151663061Y-87865000D01*
X151463102Y-87904774D01*
X151274744Y-87982795D01*
X151105226Y-88096063D01*
X150961063Y-88240226D01*
X150847795Y-88409744D01*
X150769774Y-88598102D01*
X150730000Y-88798061D01*
X149495999Y-88798061D01*
X149495999Y-88575321D01*
X149499675Y-88537998D01*
X149495999Y-88500676D01*
X149495999Y-88500666D01*
X149485002Y-88389013D01*
X149441545Y-88245752D01*
X149371000Y-88113774D01*
X149371000Y-88036061D01*
X149331226Y-87836102D01*
X149253205Y-87647744D01*
X149139937Y-87478226D01*
X148995774Y-87334063D01*
X148826256Y-87220795D01*
X148637898Y-87142774D01*
X148580619Y-87131381D01*
X148569226Y-87074102D01*
X148491205Y-86885744D01*
X148377937Y-86716226D01*
X148233774Y-86572063D01*
X148143975Y-86512061D01*
X150857000Y-86512061D01*
X150857000Y-86715939D01*
X150896774Y-86915898D01*
X150974795Y-87104256D01*
X151088063Y-87273774D01*
X151232226Y-87417937D01*
X151401744Y-87531205D01*
X151590102Y-87609226D01*
X151790061Y-87649000D01*
X151993939Y-87649000D01*
X152193898Y-87609226D01*
X152382256Y-87531205D01*
X152551774Y-87417937D01*
X152695937Y-87273774D01*
X152809205Y-87104256D01*
X152844079Y-87020061D01*
X154921000Y-87020061D01*
X154921000Y-87223939D01*
X154960774Y-87423898D01*
X155038795Y-87612256D01*
X155152063Y-87781774D01*
X155296226Y-87925937D01*
X155465744Y-88039205D01*
X155654102Y-88117226D01*
X155854061Y-88157000D01*
X156057939Y-88157000D01*
X156257898Y-88117226D01*
X156446256Y-88039205D01*
X156494454Y-88007000D01*
X157875422Y-88007000D01*
X164093465Y-94225044D01*
X164104774Y-94281898D01*
X164182795Y-94470256D01*
X164296063Y-94639774D01*
X164440226Y-94783937D01*
X164609744Y-94897205D01*
X164798102Y-94975226D01*
X164998061Y-95015000D01*
X165201939Y-95015000D01*
X165401898Y-94975226D01*
X165590256Y-94897205D01*
X165759774Y-94783937D01*
X165903937Y-94639774D01*
X166017205Y-94470256D01*
X166095226Y-94281898D01*
X166135000Y-94081939D01*
X166135000Y-93878061D01*
X166095226Y-93678102D01*
X166017205Y-93489744D01*
X165903937Y-93320226D01*
X165759774Y-93176063D01*
X165590256Y-93062795D01*
X165401898Y-92984774D01*
X165345044Y-92973465D01*
X158898534Y-86526956D01*
X158886310Y-86512061D01*
X161271000Y-86512061D01*
X161271000Y-86715939D01*
X161310774Y-86915898D01*
X161388795Y-87104256D01*
X161502063Y-87273774D01*
X161646226Y-87417937D01*
X161815744Y-87531205D01*
X162004102Y-87609226D01*
X162204061Y-87649000D01*
X162407939Y-87649000D01*
X162607898Y-87609226D01*
X162796256Y-87531205D01*
X162965774Y-87417937D01*
X163109937Y-87273774D01*
X163223205Y-87104256D01*
X163301226Y-86915898D01*
X163341000Y-86715939D01*
X163341000Y-86512061D01*
X163301226Y-86312102D01*
X163223205Y-86123744D01*
X163109937Y-85954226D01*
X162965774Y-85810063D01*
X162796256Y-85696795D01*
X162607898Y-85618774D01*
X162407939Y-85579000D01*
X162204061Y-85579000D01*
X162004102Y-85618774D01*
X161815744Y-85696795D01*
X161646226Y-85810063D01*
X161502063Y-85954226D01*
X161388795Y-86123744D01*
X161310774Y-86312102D01*
X161271000Y-86512061D01*
X158886310Y-86512061D01*
X158870817Y-86493183D01*
X158736059Y-86382589D01*
X158582313Y-86300411D01*
X158415490Y-86249805D01*
X158285477Y-86237000D01*
X158285469Y-86237000D01*
X158242000Y-86232719D01*
X158198531Y-86237000D01*
X156494454Y-86237000D01*
X156446256Y-86204795D01*
X156257898Y-86126774D01*
X156057939Y-86087000D01*
X155854061Y-86087000D01*
X155654102Y-86126774D01*
X155465744Y-86204795D01*
X155296226Y-86318063D01*
X155152063Y-86462226D01*
X155038795Y-86631744D01*
X154960774Y-86820102D01*
X154921000Y-87020061D01*
X152844079Y-87020061D01*
X152887226Y-86915898D01*
X152927000Y-86715939D01*
X152927000Y-86512061D01*
X152887226Y-86312102D01*
X152809205Y-86123744D01*
X152695937Y-85954226D01*
X152551774Y-85810063D01*
X152382256Y-85696795D01*
X152193898Y-85618774D01*
X151993939Y-85579000D01*
X151790061Y-85579000D01*
X151590102Y-85618774D01*
X151401744Y-85696795D01*
X151232226Y-85810063D01*
X151088063Y-85954226D01*
X150974795Y-86123744D01*
X150896774Y-86312102D01*
X150857000Y-86512061D01*
X148143975Y-86512061D01*
X148064256Y-86458795D01*
X147875898Y-86380774D01*
X147675939Y-86341000D01*
X147472061Y-86341000D01*
X147272102Y-86380774D01*
X147083744Y-86458795D01*
X146914226Y-86572063D01*
X146770063Y-86716226D01*
X146656795Y-86885744D01*
X146578774Y-87074102D01*
X146567381Y-87131381D01*
X146510102Y-87142774D01*
X146321744Y-87220795D01*
X146152226Y-87334063D01*
X146108289Y-87378000D01*
X145833323Y-87378000D01*
X145796000Y-87374324D01*
X145758677Y-87378000D01*
X145758667Y-87378000D01*
X145647014Y-87388997D01*
X145503753Y-87432454D01*
X145371723Y-87503026D01*
X145326639Y-87540026D01*
X145255999Y-87597999D01*
X145232201Y-87626997D01*
X143111401Y-89747798D01*
X143111071Y-89747002D01*
X142997803Y-89577484D01*
X142853640Y-89433321D01*
X142684122Y-89320053D01*
X142495764Y-89242032D01*
X142295805Y-89202258D01*
X142091927Y-89202258D01*
X141891968Y-89242032D01*
X141703610Y-89320053D01*
X141534092Y-89433321D01*
X141389929Y-89577484D01*
X141276661Y-89747002D01*
X141198640Y-89935360D01*
X141162061Y-90119257D01*
X138706805Y-87664002D01*
X138683002Y-87634998D01*
X138567277Y-87540025D01*
X138435248Y-87469453D01*
X138291987Y-87425996D01*
X138180334Y-87414999D01*
X138180323Y-87414999D01*
X138143001Y-87411323D01*
X138105679Y-87414999D01*
X137484321Y-87414999D01*
X137446998Y-87411323D01*
X137409675Y-87414999D01*
X137409666Y-87414999D01*
X137298013Y-87425996D01*
X137154752Y-87469453D01*
X137022723Y-87540025D01*
X136906998Y-87634998D01*
X136883200Y-87663996D01*
X135594003Y-88953194D01*
X135564999Y-88976997D01*
X135536269Y-89012005D01*
X135470026Y-89092722D01*
X135448376Y-89133226D01*
X135399454Y-89224752D01*
X135355997Y-89368013D01*
X135345000Y-89479666D01*
X135345000Y-89479676D01*
X135341324Y-89516998D01*
X135345000Y-89554321D01*
X135345000Y-90101289D01*
X135301063Y-90145226D01*
X135187795Y-90314744D01*
X135109774Y-90503102D01*
X135070000Y-90703061D01*
X135070000Y-90906939D01*
X135109774Y-91106898D01*
X135187795Y-91295256D01*
X135301063Y-91464774D01*
X135445226Y-91608937D01*
X135614744Y-91722205D01*
X135803102Y-91800226D01*
X136003061Y-91840000D01*
X136206939Y-91840000D01*
X136406898Y-91800226D01*
X136595256Y-91722205D01*
X136764774Y-91608937D01*
X136908937Y-91464774D01*
X137022205Y-91295256D01*
X137100226Y-91106898D01*
X137140000Y-90906939D01*
X137140000Y-90703061D01*
X137100226Y-90503102D01*
X137022205Y-90314744D01*
X136908937Y-90145226D01*
X136865000Y-90101289D01*
X136865000Y-89831799D01*
X137064044Y-89632755D01*
X137135226Y-89703937D01*
X137304744Y-89817205D01*
X137493102Y-89895226D01*
X137549957Y-89906535D01*
X139291501Y-91648080D01*
X139291500Y-94680045D01*
X139259295Y-94728244D01*
X139181274Y-94916602D01*
X139141500Y-95116561D01*
X139141500Y-95320439D01*
X139181274Y-95520398D01*
X139259295Y-95708756D01*
X139323001Y-95804099D01*
X139323000Y-98267545D01*
X139290795Y-98315744D01*
X139212774Y-98504102D01*
X139173000Y-98704061D01*
X139173000Y-98907939D01*
X139212774Y-99107898D01*
X139290795Y-99296256D01*
X139404063Y-99465774D01*
X139475245Y-99536956D01*
X138007211Y-101004990D01*
X137963937Y-100940226D01*
X137819774Y-100796063D01*
X137650256Y-100682795D01*
X137461898Y-100604774D01*
X137261939Y-100565000D01*
X137058061Y-100565000D01*
X136858102Y-100604774D01*
X136669744Y-100682795D01*
X136500226Y-100796063D01*
X136356063Y-100940226D01*
X136242795Y-101109744D01*
X136164774Y-101298102D01*
X136125000Y-101498061D01*
X136125000Y-101701939D01*
X136164774Y-101901898D01*
X136242795Y-102090256D01*
X136356063Y-102259774D01*
X136500226Y-102403937D01*
X136564990Y-102447211D01*
X129446999Y-109565202D01*
X129418001Y-109589000D01*
X129394203Y-109617998D01*
X129394202Y-109617999D01*
X129323027Y-109704725D01*
X129252455Y-109836755D01*
X129248685Y-109849185D01*
X129208998Y-109980015D01*
X129198001Y-110091668D01*
X129198001Y-110091679D01*
X129194325Y-110129001D01*
X129198001Y-110166323D01*
X129198001Y-110796658D01*
X129194323Y-110834001D01*
X129198000Y-110871331D01*
X129197999Y-120014677D01*
X129194323Y-120051999D01*
X129197999Y-120089321D01*
X129197999Y-120089331D01*
X129208996Y-120200984D01*
X129242756Y-120312277D01*
X129252453Y-120344245D01*
X129323025Y-120476275D01*
X129355126Y-120515390D01*
X129417998Y-120592000D01*
X129447002Y-120615803D01*
X133021198Y-124190000D01*
X121310000Y-124190000D01*
X121310000Y-119706963D01*
X122469250Y-119705000D01*
X122628000Y-119546250D01*
X122628000Y-118522000D01*
X122882000Y-118522000D01*
X122882000Y-119546250D01*
X123040750Y-119705000D01*
X124855000Y-119708072D01*
X124979482Y-119695812D01*
X125099180Y-119659502D01*
X125209494Y-119600537D01*
X125306185Y-119521185D01*
X125385537Y-119424494D01*
X125444502Y-119314180D01*
X125480812Y-119194482D01*
X125493072Y-119070000D01*
X125490000Y-118680750D01*
X125331250Y-118522000D01*
X122882000Y-118522000D01*
X122628000Y-118522000D01*
X122608000Y-118522000D01*
X122608000Y-118268000D01*
X122628000Y-118268000D01*
X122628000Y-117243750D01*
X122882000Y-117243750D01*
X122882000Y-118268000D01*
X125331250Y-118268000D01*
X125490000Y-118109250D01*
X125493072Y-117720000D01*
X125480812Y-117595518D01*
X125444502Y-117475820D01*
X125385537Y-117365506D01*
X125306185Y-117268815D01*
X125209494Y-117189463D01*
X125099180Y-117130498D01*
X124979482Y-117094188D01*
X124855000Y-117081928D01*
X123040750Y-117085000D01*
X122882000Y-117243750D01*
X122628000Y-117243750D01*
X122469250Y-117085000D01*
X121310000Y-117083037D01*
X121310000Y-114056963D01*
X122469250Y-114055000D01*
X122628000Y-113896250D01*
X122628000Y-112872000D01*
X122882000Y-112872000D01*
X122882000Y-113896250D01*
X123040750Y-114055000D01*
X124855000Y-114058072D01*
X124979482Y-114045812D01*
X125099180Y-114009502D01*
X125209494Y-113950537D01*
X125306185Y-113871185D01*
X125385537Y-113774494D01*
X125444502Y-113664180D01*
X125480812Y-113544482D01*
X125493072Y-113420000D01*
X125490000Y-113030750D01*
X125331250Y-112872000D01*
X122882000Y-112872000D01*
X122628000Y-112872000D01*
X122608000Y-112872000D01*
X122608000Y-112618000D01*
X122628000Y-112618000D01*
X122628000Y-111593750D01*
X122882000Y-111593750D01*
X122882000Y-112618000D01*
X125331250Y-112618000D01*
X125490000Y-112459250D01*
X125493072Y-112070000D01*
X125480812Y-111945518D01*
X125444502Y-111825820D01*
X125385537Y-111715506D01*
X125306185Y-111618815D01*
X125209494Y-111539463D01*
X125099180Y-111480498D01*
X124979482Y-111444188D01*
X124855000Y-111431928D01*
X123040750Y-111435000D01*
X122882000Y-111593750D01*
X122628000Y-111593750D01*
X122469250Y-111435000D01*
X121310000Y-111433037D01*
X121310000Y-101291963D01*
X122469250Y-101290000D01*
X122628000Y-101131250D01*
X122628000Y-100107000D01*
X122882000Y-100107000D01*
X122882000Y-101131250D01*
X123040750Y-101290000D01*
X124855000Y-101293072D01*
X124979482Y-101280812D01*
X125099180Y-101244502D01*
X125209494Y-101185537D01*
X125306185Y-101106185D01*
X125385537Y-101009494D01*
X125444502Y-100899180D01*
X125455458Y-100863061D01*
X131680000Y-100863061D01*
X131680000Y-101066939D01*
X131719774Y-101266898D01*
X131797795Y-101455256D01*
X131911063Y-101624774D01*
X132055226Y-101768937D01*
X132224744Y-101882205D01*
X132413102Y-101960226D01*
X132613061Y-102000000D01*
X132816939Y-102000000D01*
X133016898Y-101960226D01*
X133205256Y-101882205D01*
X133374774Y-101768937D01*
X133518937Y-101624774D01*
X133585000Y-101525903D01*
X133585000Y-101701939D01*
X133624774Y-101901898D01*
X133702795Y-102090256D01*
X133816063Y-102259774D01*
X133960226Y-102403937D01*
X134129744Y-102517205D01*
X134318102Y-102595226D01*
X134518061Y-102635000D01*
X134721939Y-102635000D01*
X134921898Y-102595226D01*
X135110256Y-102517205D01*
X135279774Y-102403937D01*
X135423937Y-102259774D01*
X135537205Y-102090256D01*
X135615226Y-101901898D01*
X135655000Y-101701939D01*
X135655000Y-101498061D01*
X135615226Y-101298102D01*
X135537205Y-101109744D01*
X135423937Y-100940226D01*
X135279774Y-100796063D01*
X135110256Y-100682795D01*
X134921898Y-100604774D01*
X134721939Y-100565000D01*
X134518061Y-100565000D01*
X134318102Y-100604774D01*
X134129744Y-100682795D01*
X133960226Y-100796063D01*
X133816063Y-100940226D01*
X133750000Y-101039097D01*
X133750000Y-100863061D01*
X133710226Y-100663102D01*
X133632205Y-100474744D01*
X133518937Y-100305226D01*
X133374774Y-100161063D01*
X133205256Y-100047795D01*
X133016898Y-99969774D01*
X132816939Y-99930000D01*
X132613061Y-99930000D01*
X132413102Y-99969774D01*
X132224744Y-100047795D01*
X132055226Y-100161063D01*
X131911063Y-100305226D01*
X131797795Y-100474744D01*
X131719774Y-100663102D01*
X131680000Y-100863061D01*
X125455458Y-100863061D01*
X125480812Y-100779482D01*
X125493072Y-100655000D01*
X125490000Y-100265750D01*
X125331250Y-100107000D01*
X122882000Y-100107000D01*
X122628000Y-100107000D01*
X122608000Y-100107000D01*
X122608000Y-99853000D01*
X122628000Y-99853000D01*
X122628000Y-98828750D01*
X122882000Y-98828750D01*
X122882000Y-99853000D01*
X125331250Y-99853000D01*
X125490000Y-99694250D01*
X125493072Y-99305000D01*
X125480812Y-99180518D01*
X125444502Y-99060820D01*
X125389576Y-98958061D01*
X132823000Y-98958061D01*
X132823000Y-99161939D01*
X132862774Y-99361898D01*
X132940795Y-99550256D01*
X133054063Y-99719774D01*
X133198226Y-99863937D01*
X133367744Y-99977205D01*
X133556102Y-100055226D01*
X133756061Y-100095000D01*
X133959939Y-100095000D01*
X134159898Y-100055226D01*
X134348256Y-99977205D01*
X134517774Y-99863937D01*
X134661937Y-99719774D01*
X134775205Y-99550256D01*
X134853226Y-99361898D01*
X134893000Y-99161939D01*
X134893000Y-98958061D01*
X134861563Y-98800015D01*
X138040044Y-95621535D01*
X138096898Y-95610226D01*
X138285256Y-95532205D01*
X138454774Y-95418937D01*
X138598937Y-95274774D01*
X138712205Y-95105256D01*
X138790226Y-94916898D01*
X138830000Y-94716939D01*
X138830000Y-94513061D01*
X138790226Y-94313102D01*
X138712205Y-94124744D01*
X138598937Y-93955226D01*
X138454774Y-93811063D01*
X138285256Y-93697795D01*
X138096898Y-93619774D01*
X137896939Y-93580000D01*
X137693061Y-93580000D01*
X137493102Y-93619774D01*
X137304744Y-93697795D01*
X137135226Y-93811063D01*
X136991063Y-93955226D01*
X136877795Y-94124744D01*
X136799774Y-94313102D01*
X136788465Y-94369956D01*
X133516954Y-97641468D01*
X133262952Y-97895470D01*
X133229184Y-97923183D01*
X133201471Y-97956951D01*
X133201468Y-97956954D01*
X133199841Y-97958937D01*
X133118590Y-98057941D01*
X133036411Y-98211687D01*
X132985805Y-98378510D01*
X132973000Y-98508523D01*
X132973000Y-98508531D01*
X132971497Y-98523796D01*
X132940795Y-98569744D01*
X132862774Y-98758102D01*
X132823000Y-98958061D01*
X125389576Y-98958061D01*
X125385537Y-98950506D01*
X125306185Y-98853815D01*
X125209494Y-98774463D01*
X125099180Y-98715498D01*
X124979482Y-98679188D01*
X124855000Y-98666928D01*
X123040750Y-98670000D01*
X122882000Y-98828750D01*
X122628000Y-98828750D01*
X122469250Y-98670000D01*
X121310000Y-98668037D01*
X121310000Y-95641963D01*
X122469250Y-95640000D01*
X122628000Y-95481250D01*
X122628000Y-94457000D01*
X122882000Y-94457000D01*
X122882000Y-95481250D01*
X123040750Y-95640000D01*
X124855000Y-95643072D01*
X124979482Y-95630812D01*
X125099180Y-95594502D01*
X125209494Y-95535537D01*
X125306185Y-95456185D01*
X125385537Y-95359494D01*
X125444502Y-95249180D01*
X125480812Y-95129482D01*
X125493072Y-95005000D01*
X125490000Y-94615750D01*
X125331250Y-94457000D01*
X122882000Y-94457000D01*
X122628000Y-94457000D01*
X122608000Y-94457000D01*
X122608000Y-94203000D01*
X122628000Y-94203000D01*
X122628000Y-93178750D01*
X122882000Y-93178750D01*
X122882000Y-94203000D01*
X125331250Y-94203000D01*
X125490000Y-94044250D01*
X125493072Y-93655000D01*
X125480812Y-93530518D01*
X125444502Y-93410820D01*
X125385537Y-93300506D01*
X125338394Y-93243061D01*
X131680000Y-93243061D01*
X131680000Y-93446939D01*
X131719774Y-93646898D01*
X131797795Y-93835256D01*
X131911063Y-94004774D01*
X132055226Y-94148937D01*
X132224744Y-94262205D01*
X132413102Y-94340226D01*
X132613061Y-94380000D01*
X132816939Y-94380000D01*
X133016898Y-94340226D01*
X133205256Y-94262205D01*
X133374774Y-94148937D01*
X133518937Y-94004774D01*
X133632205Y-93835256D01*
X133710226Y-93646898D01*
X133750000Y-93446939D01*
X133750000Y-93270903D01*
X133816063Y-93369774D01*
X133960226Y-93513937D01*
X134129744Y-93627205D01*
X134318102Y-93705226D01*
X134518061Y-93745000D01*
X134721939Y-93745000D01*
X134921898Y-93705226D01*
X135110256Y-93627205D01*
X135279774Y-93513937D01*
X135423937Y-93369774D01*
X135537205Y-93200256D01*
X135615226Y-93011898D01*
X135655000Y-92811939D01*
X135655000Y-92608061D01*
X135615226Y-92408102D01*
X135537205Y-92219744D01*
X135423937Y-92050226D01*
X135279774Y-91906063D01*
X135110256Y-91792795D01*
X134921898Y-91714774D01*
X134721939Y-91675000D01*
X134518061Y-91675000D01*
X134318102Y-91714774D01*
X134129744Y-91792795D01*
X133960226Y-91906063D01*
X133816063Y-92050226D01*
X133702795Y-92219744D01*
X133624774Y-92408102D01*
X133585000Y-92608061D01*
X133585000Y-92784097D01*
X133518937Y-92685226D01*
X133374774Y-92541063D01*
X133205256Y-92427795D01*
X133016898Y-92349774D01*
X132816939Y-92310000D01*
X132613061Y-92310000D01*
X132413102Y-92349774D01*
X132224744Y-92427795D01*
X132055226Y-92541063D01*
X131911063Y-92685226D01*
X131797795Y-92854744D01*
X131719774Y-93043102D01*
X131680000Y-93243061D01*
X125338394Y-93243061D01*
X125306185Y-93203815D01*
X125209494Y-93124463D01*
X125099180Y-93065498D01*
X124979482Y-93029188D01*
X124855000Y-93016928D01*
X123040750Y-93020000D01*
X122882000Y-93178750D01*
X122628000Y-93178750D01*
X122469250Y-93020000D01*
X121310000Y-93018037D01*
X121310000Y-86258061D01*
X138030000Y-86258061D01*
X138030000Y-86461939D01*
X138069774Y-86661898D01*
X138147795Y-86850256D01*
X138261063Y-87019774D01*
X138405226Y-87163937D01*
X138574744Y-87277205D01*
X138763102Y-87355226D01*
X138963061Y-87395000D01*
X139166939Y-87395000D01*
X139366898Y-87355226D01*
X139555256Y-87277205D01*
X139724774Y-87163937D01*
X139868937Y-87019774D01*
X139982205Y-86850256D01*
X140060226Y-86661898D01*
X140100000Y-86461939D01*
X140100000Y-86258061D01*
X140570000Y-86258061D01*
X140570000Y-86461939D01*
X140609774Y-86661898D01*
X140687795Y-86850256D01*
X140801063Y-87019774D01*
X140945226Y-87163937D01*
X141114744Y-87277205D01*
X141303102Y-87355226D01*
X141503061Y-87395000D01*
X141706939Y-87395000D01*
X141906898Y-87355226D01*
X142095256Y-87277205D01*
X142264774Y-87163937D01*
X142408937Y-87019774D01*
X142522205Y-86850256D01*
X142600226Y-86661898D01*
X142640000Y-86461939D01*
X142640000Y-86258061D01*
X142600226Y-86058102D01*
X142522205Y-85869744D01*
X142408937Y-85700226D01*
X142264774Y-85556063D01*
X142095256Y-85442795D01*
X141906898Y-85364774D01*
X141706939Y-85325000D01*
X141503061Y-85325000D01*
X141303102Y-85364774D01*
X141114744Y-85442795D01*
X140945226Y-85556063D01*
X140801063Y-85700226D01*
X140687795Y-85869744D01*
X140609774Y-86058102D01*
X140570000Y-86258061D01*
X140100000Y-86258061D01*
X140060226Y-86058102D01*
X139982205Y-85869744D01*
X139868937Y-85700226D01*
X139724774Y-85556063D01*
X139555256Y-85442795D01*
X139366898Y-85364774D01*
X139166939Y-85325000D01*
X138963061Y-85325000D01*
X138763102Y-85364774D01*
X138574744Y-85442795D01*
X138405226Y-85556063D01*
X138261063Y-85700226D01*
X138147795Y-85869744D01*
X138069774Y-86058102D01*
X138030000Y-86258061D01*
X121310000Y-86258061D01*
X121310000Y-79908061D01*
X139300000Y-79908061D01*
X139300000Y-80111939D01*
X139339774Y-80311898D01*
X139417795Y-80500256D01*
X139531063Y-80669774D01*
X139675226Y-80813937D01*
X139844744Y-80927205D01*
X140033102Y-81005226D01*
X140233061Y-81045000D01*
X140436939Y-81045000D01*
X140636898Y-81005226D01*
X140825256Y-80927205D01*
X140994774Y-80813937D01*
X141138937Y-80669774D01*
X141252205Y-80500256D01*
X141330226Y-80311898D01*
X141370000Y-80111939D01*
X141370000Y-79908061D01*
X141330226Y-79708102D01*
X141252205Y-79519744D01*
X141138937Y-79350226D01*
X141031439Y-79242728D01*
X141954250Y-79240000D01*
X142113000Y-79081250D01*
X142113000Y-79033165D01*
X142146176Y-79039828D01*
X142330355Y-79040171D01*
X142367000Y-79032952D01*
X142367000Y-79081250D01*
X142525750Y-79240000D01*
X143565000Y-79243072D01*
X143576333Y-79241956D01*
X143468063Y-79350226D01*
X143354795Y-79519744D01*
X143276774Y-79708102D01*
X143237000Y-79908061D01*
X143237000Y-80111939D01*
X143276774Y-80311898D01*
X143354795Y-80500256D01*
X143468063Y-80669774D01*
X143612226Y-80813937D01*
X143781744Y-80927205D01*
X143970102Y-81005226D01*
X144170061Y-81045000D01*
X144373939Y-81045000D01*
X144573898Y-81005226D01*
X144762256Y-80927205D01*
X144931774Y-80813937D01*
X145075937Y-80669774D01*
X145189205Y-80500256D01*
X145267226Y-80311898D01*
X145307000Y-80111939D01*
X145307000Y-79908061D01*
X145267226Y-79708102D01*
X145189205Y-79519744D01*
X145075937Y-79350226D01*
X144931774Y-79206063D01*
X144762256Y-79092795D01*
X144573898Y-79014774D01*
X144373939Y-78975000D01*
X144170061Y-78975000D01*
X144065790Y-78995741D01*
X144095537Y-78959494D01*
X144131581Y-78892061D01*
X147555000Y-78892061D01*
X147555000Y-79095939D01*
X147594774Y-79295898D01*
X147672795Y-79484256D01*
X147786063Y-79653774D01*
X147930226Y-79797937D01*
X148099744Y-79911205D01*
X148288102Y-79989226D01*
X148488061Y-80029000D01*
X148691939Y-80029000D01*
X148891898Y-79989226D01*
X149080256Y-79911205D01*
X149249774Y-79797937D01*
X149393937Y-79653774D01*
X149507205Y-79484256D01*
X149585226Y-79295898D01*
X149625000Y-79095939D01*
X149625000Y-78892061D01*
X149585226Y-78692102D01*
X149507205Y-78503744D01*
X149393937Y-78334226D01*
X149249774Y-78190063D01*
X149080256Y-78076795D01*
X148891898Y-77998774D01*
X148691939Y-77959000D01*
X148488061Y-77959000D01*
X148288102Y-77998774D01*
X148099744Y-78076795D01*
X147930226Y-78190063D01*
X147786063Y-78334226D01*
X147672795Y-78503744D01*
X147594774Y-78692102D01*
X147555000Y-78892061D01*
X144131581Y-78892061D01*
X144154502Y-78849180D01*
X144190812Y-78729482D01*
X144203072Y-78605000D01*
X144200000Y-78390750D01*
X144146939Y-78337689D01*
X144174828Y-78198824D01*
X144175171Y-78014645D01*
X144147101Y-77872149D01*
X144200000Y-77819250D01*
X144203072Y-77605000D01*
X144190812Y-77480518D01*
X144154502Y-77360820D01*
X144095537Y-77250506D01*
X144016185Y-77153815D01*
X143919494Y-77074463D01*
X143809180Y-77015498D01*
X143689482Y-76979188D01*
X143565000Y-76966928D01*
X142525750Y-76970000D01*
X142367000Y-77128750D01*
X142367000Y-77176835D01*
X142333824Y-77170172D01*
X142149645Y-77169829D01*
X142113000Y-77177048D01*
X142113000Y-77128750D01*
X141954250Y-76970000D01*
X140915000Y-76966928D01*
X140790518Y-76979188D01*
X140670820Y-77015498D01*
X140560506Y-77074463D01*
X140463815Y-77153815D01*
X140384463Y-77250506D01*
X140325498Y-77360820D01*
X140289188Y-77480518D01*
X140276928Y-77605000D01*
X140280000Y-77819250D01*
X140333061Y-77872311D01*
X140305172Y-78011176D01*
X140304829Y-78195355D01*
X140332899Y-78337851D01*
X140280000Y-78390750D01*
X140276928Y-78605000D01*
X140289188Y-78729482D01*
X140325498Y-78849180D01*
X140384463Y-78959494D01*
X140397188Y-78975000D01*
X140233061Y-78975000D01*
X140033102Y-79014774D01*
X139844744Y-79092795D01*
X139675226Y-79206063D01*
X139531063Y-79350226D01*
X139417795Y-79519744D01*
X139339774Y-79708102D01*
X139300000Y-79908061D01*
X121310000Y-79908061D01*
X121310000Y-76860061D01*
X134855000Y-76860061D01*
X134855000Y-77063939D01*
X134894774Y-77263898D01*
X134972795Y-77452256D01*
X135086063Y-77621774D01*
X135230226Y-77765937D01*
X135399744Y-77879205D01*
X135588102Y-77957226D01*
X135788061Y-77997000D01*
X135991939Y-77997000D01*
X136191898Y-77957226D01*
X136380256Y-77879205D01*
X136549774Y-77765937D01*
X136693937Y-77621774D01*
X136807205Y-77452256D01*
X136885226Y-77263898D01*
X136925000Y-77063939D01*
X136925000Y-76860061D01*
X136885226Y-76660102D01*
X136807205Y-76471744D01*
X136693937Y-76302226D01*
X136549774Y-76158063D01*
X136380256Y-76044795D01*
X136191898Y-75966774D01*
X135991939Y-75927000D01*
X135788061Y-75927000D01*
X135588102Y-75966774D01*
X135399744Y-76044795D01*
X135230226Y-76158063D01*
X135086063Y-76302226D01*
X134972795Y-76471744D01*
X134894774Y-76660102D01*
X134855000Y-76860061D01*
X121310000Y-76860061D01*
X121310000Y-74828061D01*
X141205000Y-74828061D01*
X141205000Y-75031939D01*
X141244774Y-75231898D01*
X141322795Y-75420256D01*
X141436063Y-75589774D01*
X141580226Y-75733937D01*
X141749744Y-75847205D01*
X141938102Y-75925226D01*
X142138061Y-75965000D01*
X142341939Y-75965000D01*
X142541898Y-75925226D01*
X142730256Y-75847205D01*
X142899774Y-75733937D01*
X143043937Y-75589774D01*
X143157205Y-75420256D01*
X143235226Y-75231898D01*
X143275000Y-75031939D01*
X143275000Y-74828061D01*
X143235226Y-74628102D01*
X143157205Y-74439744D01*
X143043937Y-74270226D01*
X142899774Y-74126063D01*
X142730256Y-74012795D01*
X142541898Y-73934774D01*
X142341939Y-73895000D01*
X142138061Y-73895000D01*
X141938102Y-73934774D01*
X141749744Y-74012795D01*
X141580226Y-74126063D01*
X141436063Y-74270226D01*
X141322795Y-74439744D01*
X141244774Y-74628102D01*
X141205000Y-74828061D01*
X121310000Y-74828061D01*
X121310000Y-70510000D01*
X165523000Y-70510000D01*
X165523000Y-91850000D01*
G37*
%TD.AperFunction*%
D18*
X142313349Y-77970459D02*
X142305172Y-78011176D01*
X142304829Y-78195355D01*
X142313503Y-78239387D01*
X142254143Y-78298748D01*
X142240000Y-78284605D01*
X142225858Y-78298748D01*
X142166651Y-78239541D01*
X142174828Y-78198824D01*
X142175171Y-78014645D01*
X142166497Y-77970613D01*
X142225858Y-77911253D01*
X142240000Y-77925395D01*
X142254143Y-77911253D01*
X142313349Y-77970459D01*
%TA.AperFunction,Conductor*%
D19*
G36*
X142313349Y-77970459D02*
G01*
X142305172Y-78011176D01*
X142304829Y-78195355D01*
X142313503Y-78239387D01*
X142254143Y-78298748D01*
X142240000Y-78284605D01*
X142225858Y-78298748D01*
X142166651Y-78239541D01*
X142174828Y-78198824D01*
X142175171Y-78014645D01*
X142166497Y-77970613D01*
X142225858Y-77911253D01*
X142240000Y-77925395D01*
X142254143Y-77911253D01*
X142313349Y-77970459D01*
G37*
%TD.AperFunction*%
D18*
X141305172Y-78011176D02*
X141304829Y-78195355D01*
X141312048Y-78232000D01*
X141159110Y-78232000D01*
X141046253Y-78119143D01*
X141060395Y-78105000D01*
X141046253Y-78090858D01*
X141159110Y-77978000D01*
X141311835Y-77978000D01*
X141305172Y-78011176D01*
%TA.AperFunction,Conductor*%
D19*
G36*
X141305172Y-78011176D02*
G01*
X141304829Y-78195355D01*
X141312048Y-78232000D01*
X141159110Y-78232000D01*
X141046253Y-78119143D01*
X141060395Y-78105000D01*
X141046253Y-78090858D01*
X141159110Y-77978000D01*
X141311835Y-77978000D01*
X141305172Y-78011176D01*
G37*
%TD.AperFunction*%
D18*
X143433748Y-78090858D02*
X143419605Y-78105000D01*
X143433748Y-78119143D01*
X143320890Y-78232000D01*
X143168165Y-78232000D01*
X143174828Y-78198824D01*
X143175171Y-78014645D01*
X143167952Y-77978000D01*
X143320890Y-77978000D01*
X143433748Y-78090858D01*
%TA.AperFunction,Conductor*%
D19*
G36*
X143433748Y-78090858D02*
G01*
X143419605Y-78105000D01*
X143433748Y-78119143D01*
X143320890Y-78232000D01*
X143168165Y-78232000D01*
X143174828Y-78198824D01*
X143175171Y-78014645D01*
X143167952Y-77978000D01*
X143320890Y-77978000D01*
X143433748Y-78090858D01*
G37*
%TD.AperFunction*%
D18*
X135775997Y-106728013D02*
X135765000Y-106839666D01*
X135765000Y-106839676D01*
X135761324Y-106876998D01*
X135765000Y-106914321D01*
X135765001Y-108516288D01*
X135721063Y-108560226D01*
X135607795Y-108729744D01*
X135529774Y-108918102D01*
X135490000Y-109118061D01*
X135490000Y-109321939D01*
X135529774Y-109521898D01*
X135607795Y-109710256D01*
X135721063Y-109879774D01*
X135865226Y-110023937D01*
X136034744Y-110137205D01*
X136223102Y-110215226D01*
X136423061Y-110255000D01*
X136626939Y-110255000D01*
X136826898Y-110215226D01*
X137015256Y-110137205D01*
X137184774Y-110023937D01*
X137328937Y-109879774D01*
X137442205Y-109710256D01*
X137520226Y-109521898D01*
X137560000Y-109321939D01*
X137560000Y-109118061D01*
X137520226Y-108918102D01*
X137442205Y-108729744D01*
X137328937Y-108560226D01*
X137285000Y-108516289D01*
X137285000Y-107584013D01*
X137304744Y-107597205D01*
X137493102Y-107675226D01*
X137549957Y-107686535D01*
X138815001Y-108951580D01*
X138815000Y-113126546D01*
X138782795Y-113174744D01*
X138747500Y-113259953D01*
X138712205Y-113174744D01*
X138598937Y-113005226D01*
X138454774Y-112861063D01*
X138285256Y-112747795D01*
X138096898Y-112669774D01*
X137896939Y-112630000D01*
X137693061Y-112630000D01*
X137493102Y-112669774D01*
X137304744Y-112747795D01*
X137135226Y-112861063D01*
X136991063Y-113005226D01*
X136877795Y-113174744D01*
X136799774Y-113363102D01*
X136788465Y-113419956D01*
X133612957Y-116595465D01*
X133556102Y-116606774D01*
X133367744Y-116684795D01*
X133198226Y-116798063D01*
X133054063Y-116942226D01*
X132940795Y-117111744D01*
X132862774Y-117300102D01*
X132823000Y-117500061D01*
X132823000Y-117703939D01*
X132862774Y-117903898D01*
X132940795Y-118092256D01*
X133054063Y-118261774D01*
X133198226Y-118405937D01*
X133367744Y-118519205D01*
X133556102Y-118597226D01*
X133756061Y-118637000D01*
X133959939Y-118637000D01*
X134159898Y-118597226D01*
X134348256Y-118519205D01*
X134517774Y-118405937D01*
X134661937Y-118261774D01*
X134775205Y-118092256D01*
X134853226Y-117903898D01*
X134864535Y-117847043D01*
X138040044Y-114671535D01*
X138096898Y-114660226D01*
X138285256Y-114582205D01*
X138454774Y-114468937D01*
X138598937Y-114324774D01*
X138712205Y-114155256D01*
X138747500Y-114070047D01*
X138782795Y-114155256D01*
X138896063Y-114324774D01*
X139040226Y-114468937D01*
X139209744Y-114582205D01*
X139398102Y-114660226D01*
X139450001Y-114670549D01*
X139450000Y-116936545D01*
X139417795Y-116984744D01*
X139339774Y-117173102D01*
X139300000Y-117373061D01*
X139300000Y-117576939D01*
X139339774Y-117776898D01*
X139417795Y-117965256D01*
X139531063Y-118134774D01*
X139675226Y-118278937D01*
X139844744Y-118392205D01*
X140033102Y-118470226D01*
X140233061Y-118510000D01*
X140436939Y-118510000D01*
X140636898Y-118470226D01*
X140825256Y-118392205D01*
X140994774Y-118278937D01*
X141138937Y-118134774D01*
X141252205Y-117965256D01*
X141330226Y-117776898D01*
X141370000Y-117576939D01*
X141370000Y-117373061D01*
X141330226Y-117173102D01*
X141252205Y-116984744D01*
X141220000Y-116936546D01*
X141220000Y-114343469D01*
X141224281Y-114300000D01*
X141220000Y-114256531D01*
X141220000Y-114256523D01*
X141207195Y-114126510D01*
X141182407Y-114044797D01*
X141156589Y-113959686D01*
X141074411Y-113805941D01*
X140991532Y-113704953D01*
X140991530Y-113704951D01*
X140963817Y-113671183D01*
X140930049Y-113643470D01*
X140706535Y-113419956D01*
X140695226Y-113363102D01*
X140617205Y-113174744D01*
X140585000Y-113126546D01*
X140585000Y-109714213D01*
X144751983Y-113881197D01*
X144751984Y-120515473D01*
X144748307Y-120552805D01*
X144751984Y-120590138D01*
X144762011Y-120691937D01*
X144762981Y-120701790D01*
X144806437Y-120845051D01*
X144877009Y-120977081D01*
X144929487Y-121041025D01*
X144971983Y-121092806D01*
X145000981Y-121116604D01*
X146244378Y-122360002D01*
X134864805Y-122360002D01*
X132881665Y-120376864D01*
X132889898Y-120375226D01*
X133078256Y-120297205D01*
X133247774Y-120183937D01*
X133391937Y-120039774D01*
X133476603Y-119913061D01*
X133585000Y-119913061D01*
X133585000Y-120116939D01*
X133624774Y-120316898D01*
X133702795Y-120505256D01*
X133816063Y-120674774D01*
X133960226Y-120818937D01*
X134129744Y-120932205D01*
X134318102Y-121010226D01*
X134518061Y-121050000D01*
X134721939Y-121050000D01*
X134921898Y-121010226D01*
X135110256Y-120932205D01*
X135279774Y-120818937D01*
X135423937Y-120674774D01*
X135537205Y-120505256D01*
X135615226Y-120316898D01*
X135655000Y-120116939D01*
X135655000Y-119913061D01*
X136125000Y-119913061D01*
X136125000Y-120116939D01*
X136164774Y-120316898D01*
X136242795Y-120505256D01*
X136356063Y-120674774D01*
X136500226Y-120818937D01*
X136669744Y-120932205D01*
X136858102Y-121010226D01*
X137058061Y-121050000D01*
X137261939Y-121050000D01*
X137461898Y-121010226D01*
X137650256Y-120932205D01*
X137819774Y-120818937D01*
X137963937Y-120674774D01*
X138077205Y-120505256D01*
X138155226Y-120316898D01*
X138195000Y-120116939D01*
X138195000Y-119913061D01*
X139935000Y-119913061D01*
X139935000Y-120116939D01*
X139974774Y-120316898D01*
X140052795Y-120505256D01*
X140166063Y-120674774D01*
X140310226Y-120818937D01*
X140479744Y-120932205D01*
X140668102Y-121010226D01*
X140868061Y-121050000D01*
X141071939Y-121050000D01*
X141271898Y-121010226D01*
X141460256Y-120932205D01*
X141629774Y-120818937D01*
X141773937Y-120674774D01*
X141887205Y-120505256D01*
X141965226Y-120316898D01*
X142005000Y-120116939D01*
X142005000Y-119913061D01*
X142475000Y-119913061D01*
X142475000Y-120116939D01*
X142514774Y-120316898D01*
X142592795Y-120505256D01*
X142706063Y-120674774D01*
X142850226Y-120818937D01*
X143019744Y-120932205D01*
X143208102Y-121010226D01*
X143408061Y-121050000D01*
X143611939Y-121050000D01*
X143811898Y-121010226D01*
X144000256Y-120932205D01*
X144169774Y-120818937D01*
X144313937Y-120674774D01*
X144427205Y-120505256D01*
X144505226Y-120316898D01*
X144545000Y-120116939D01*
X144545000Y-119913061D01*
X144505226Y-119713102D01*
X144427205Y-119524744D01*
X144313937Y-119355226D01*
X144169774Y-119211063D01*
X144000256Y-119097795D01*
X143811898Y-119019774D01*
X143611939Y-118980000D01*
X143408061Y-118980000D01*
X143208102Y-119019774D01*
X143019744Y-119097795D01*
X142850226Y-119211063D01*
X142706063Y-119355226D01*
X142592795Y-119524744D01*
X142514774Y-119713102D01*
X142475000Y-119913061D01*
X142005000Y-119913061D01*
X141965226Y-119713102D01*
X141887205Y-119524744D01*
X141773937Y-119355226D01*
X141629774Y-119211063D01*
X141460256Y-119097795D01*
X141271898Y-119019774D01*
X141071939Y-118980000D01*
X140868061Y-118980000D01*
X140668102Y-119019774D01*
X140479744Y-119097795D01*
X140310226Y-119211063D01*
X140166063Y-119355226D01*
X140052795Y-119524744D01*
X139974774Y-119713102D01*
X139935000Y-119913061D01*
X138195000Y-119913061D01*
X138155226Y-119713102D01*
X138077205Y-119524744D01*
X137963937Y-119355226D01*
X137819774Y-119211063D01*
X137650256Y-119097795D01*
X137461898Y-119019774D01*
X137261939Y-118980000D01*
X137058061Y-118980000D01*
X136858102Y-119019774D01*
X136669744Y-119097795D01*
X136500226Y-119211063D01*
X136356063Y-119355226D01*
X136242795Y-119524744D01*
X136164774Y-119713102D01*
X136125000Y-119913061D01*
X135655000Y-119913061D01*
X135615226Y-119713102D01*
X135537205Y-119524744D01*
X135423937Y-119355226D01*
X135279774Y-119211063D01*
X135110256Y-119097795D01*
X134921898Y-119019774D01*
X134721939Y-118980000D01*
X134518061Y-118980000D01*
X134318102Y-119019774D01*
X134129744Y-119097795D01*
X133960226Y-119211063D01*
X133816063Y-119355226D01*
X133702795Y-119524744D01*
X133624774Y-119713102D01*
X133585000Y-119913061D01*
X133476603Y-119913061D01*
X133505205Y-119870256D01*
X133583226Y-119681898D01*
X133623000Y-119481939D01*
X133623000Y-119278061D01*
X133583226Y-119078102D01*
X133505205Y-118889744D01*
X133391937Y-118720226D01*
X133247774Y-118576063D01*
X133078256Y-118462795D01*
X132889898Y-118384774D01*
X132689939Y-118345000D01*
X132486061Y-118345000D01*
X132286102Y-118384774D01*
X132097744Y-118462795D01*
X131928226Y-118576063D01*
X131784063Y-118720226D01*
X131670795Y-118889744D01*
X131618019Y-119017156D01*
X131618019Y-111868844D01*
X131670795Y-111996256D01*
X131784063Y-112165774D01*
X131928226Y-112309937D01*
X132097744Y-112423205D01*
X132286102Y-112501226D01*
X132486061Y-112541000D01*
X132689939Y-112541000D01*
X132889898Y-112501226D01*
X133078256Y-112423205D01*
X133247774Y-112309937D01*
X133391937Y-112165774D01*
X133505205Y-111996256D01*
X133583226Y-111807898D01*
X133623000Y-111607939D01*
X133623000Y-111404061D01*
X133583226Y-111204102D01*
X133508236Y-111023061D01*
X134347000Y-111023061D01*
X134347000Y-111226939D01*
X134386774Y-111426898D01*
X134464795Y-111615256D01*
X134578063Y-111784774D01*
X134722226Y-111928937D01*
X134891744Y-112042205D01*
X135080102Y-112120226D01*
X135280061Y-112160000D01*
X135483939Y-112160000D01*
X135683898Y-112120226D01*
X135872256Y-112042205D01*
X136041774Y-111928937D01*
X136185937Y-111784774D01*
X136299205Y-111615256D01*
X136377226Y-111426898D01*
X136417000Y-111226939D01*
X136417000Y-111023061D01*
X136377226Y-110823102D01*
X136299205Y-110634744D01*
X136185937Y-110465226D01*
X136041774Y-110321063D01*
X135872256Y-110207795D01*
X135683898Y-110129774D01*
X135483939Y-110090000D01*
X135280061Y-110090000D01*
X135080102Y-110129774D01*
X134891744Y-110207795D01*
X134722226Y-110321063D01*
X134578063Y-110465226D01*
X134464795Y-110634744D01*
X134386774Y-110823102D01*
X134347000Y-111023061D01*
X133508236Y-111023061D01*
X133505205Y-111015744D01*
X133391937Y-110846226D01*
X133247774Y-110702063D01*
X133078256Y-110588795D01*
X132889898Y-110510774D01*
X132689939Y-110471000D01*
X132486061Y-110471000D01*
X132286102Y-110510774D01*
X132097744Y-110588795D01*
X131928226Y-110702063D01*
X131784063Y-110846226D01*
X131670795Y-111015744D01*
X131618019Y-111143156D01*
X131618019Y-110816604D01*
X135806209Y-106628414D01*
X135775997Y-106728013D01*
%TA.AperFunction,Conductor*%
D19*
G36*
X135775997Y-106728013D02*
G01*
X135765000Y-106839666D01*
X135765000Y-106839676D01*
X135761324Y-106876998D01*
X135765000Y-106914321D01*
X135765001Y-108516288D01*
X135721063Y-108560226D01*
X135607795Y-108729744D01*
X135529774Y-108918102D01*
X135490000Y-109118061D01*
X135490000Y-109321939D01*
X135529774Y-109521898D01*
X135607795Y-109710256D01*
X135721063Y-109879774D01*
X135865226Y-110023937D01*
X136034744Y-110137205D01*
X136223102Y-110215226D01*
X136423061Y-110255000D01*
X136626939Y-110255000D01*
X136826898Y-110215226D01*
X137015256Y-110137205D01*
X137184774Y-110023937D01*
X137328937Y-109879774D01*
X137442205Y-109710256D01*
X137520226Y-109521898D01*
X137560000Y-109321939D01*
X137560000Y-109118061D01*
X137520226Y-108918102D01*
X137442205Y-108729744D01*
X137328937Y-108560226D01*
X137285000Y-108516289D01*
X137285000Y-107584013D01*
X137304744Y-107597205D01*
X137493102Y-107675226D01*
X137549957Y-107686535D01*
X138815001Y-108951580D01*
X138815000Y-113126546D01*
X138782795Y-113174744D01*
X138747500Y-113259953D01*
X138712205Y-113174744D01*
X138598937Y-113005226D01*
X138454774Y-112861063D01*
X138285256Y-112747795D01*
X138096898Y-112669774D01*
X137896939Y-112630000D01*
X137693061Y-112630000D01*
X137493102Y-112669774D01*
X137304744Y-112747795D01*
X137135226Y-112861063D01*
X136991063Y-113005226D01*
X136877795Y-113174744D01*
X136799774Y-113363102D01*
X136788465Y-113419956D01*
X133612957Y-116595465D01*
X133556102Y-116606774D01*
X133367744Y-116684795D01*
X133198226Y-116798063D01*
X133054063Y-116942226D01*
X132940795Y-117111744D01*
X132862774Y-117300102D01*
X132823000Y-117500061D01*
X132823000Y-117703939D01*
X132862774Y-117903898D01*
X132940795Y-118092256D01*
X133054063Y-118261774D01*
X133198226Y-118405937D01*
X133367744Y-118519205D01*
X133556102Y-118597226D01*
X133756061Y-118637000D01*
X133959939Y-118637000D01*
X134159898Y-118597226D01*
X134348256Y-118519205D01*
X134517774Y-118405937D01*
X134661937Y-118261774D01*
X134775205Y-118092256D01*
X134853226Y-117903898D01*
X134864535Y-117847043D01*
X138040044Y-114671535D01*
X138096898Y-114660226D01*
X138285256Y-114582205D01*
X138454774Y-114468937D01*
X138598937Y-114324774D01*
X138712205Y-114155256D01*
X138747500Y-114070047D01*
X138782795Y-114155256D01*
X138896063Y-114324774D01*
X139040226Y-114468937D01*
X139209744Y-114582205D01*
X139398102Y-114660226D01*
X139450001Y-114670549D01*
X139450000Y-116936545D01*
X139417795Y-116984744D01*
X139339774Y-117173102D01*
X139300000Y-117373061D01*
X139300000Y-117576939D01*
X139339774Y-117776898D01*
X139417795Y-117965256D01*
X139531063Y-118134774D01*
X139675226Y-118278937D01*
X139844744Y-118392205D01*
X140033102Y-118470226D01*
X140233061Y-118510000D01*
X140436939Y-118510000D01*
X140636898Y-118470226D01*
X140825256Y-118392205D01*
X140994774Y-118278937D01*
X141138937Y-118134774D01*
X141252205Y-117965256D01*
X141330226Y-117776898D01*
X141370000Y-117576939D01*
X141370000Y-117373061D01*
X141330226Y-117173102D01*
X141252205Y-116984744D01*
X141220000Y-116936546D01*
X141220000Y-114343469D01*
X141224281Y-114300000D01*
X141220000Y-114256531D01*
X141220000Y-114256523D01*
X141207195Y-114126510D01*
X141182407Y-114044797D01*
X141156589Y-113959686D01*
X141074411Y-113805941D01*
X140991532Y-113704953D01*
X140991530Y-113704951D01*
X140963817Y-113671183D01*
X140930049Y-113643470D01*
X140706535Y-113419956D01*
X140695226Y-113363102D01*
X140617205Y-113174744D01*
X140585000Y-113126546D01*
X140585000Y-109714213D01*
X144751983Y-113881197D01*
X144751984Y-120515473D01*
X144748307Y-120552805D01*
X144751984Y-120590138D01*
X144762011Y-120691937D01*
X144762981Y-120701790D01*
X144806437Y-120845051D01*
X144877009Y-120977081D01*
X144929487Y-121041025D01*
X144971983Y-121092806D01*
X145000981Y-121116604D01*
X146244378Y-122360002D01*
X134864805Y-122360002D01*
X132881665Y-120376864D01*
X132889898Y-120375226D01*
X133078256Y-120297205D01*
X133247774Y-120183937D01*
X133391937Y-120039774D01*
X133476603Y-119913061D01*
X133585000Y-119913061D01*
X133585000Y-120116939D01*
X133624774Y-120316898D01*
X133702795Y-120505256D01*
X133816063Y-120674774D01*
X133960226Y-120818937D01*
X134129744Y-120932205D01*
X134318102Y-121010226D01*
X134518061Y-121050000D01*
X134721939Y-121050000D01*
X134921898Y-121010226D01*
X135110256Y-120932205D01*
X135279774Y-120818937D01*
X135423937Y-120674774D01*
X135537205Y-120505256D01*
X135615226Y-120316898D01*
X135655000Y-120116939D01*
X135655000Y-119913061D01*
X136125000Y-119913061D01*
X136125000Y-120116939D01*
X136164774Y-120316898D01*
X136242795Y-120505256D01*
X136356063Y-120674774D01*
X136500226Y-120818937D01*
X136669744Y-120932205D01*
X136858102Y-121010226D01*
X137058061Y-121050000D01*
X137261939Y-121050000D01*
X137461898Y-121010226D01*
X137650256Y-120932205D01*
X137819774Y-120818937D01*
X137963937Y-120674774D01*
X138077205Y-120505256D01*
X138155226Y-120316898D01*
X138195000Y-120116939D01*
X138195000Y-119913061D01*
X139935000Y-119913061D01*
X139935000Y-120116939D01*
X139974774Y-120316898D01*
X140052795Y-120505256D01*
X140166063Y-120674774D01*
X140310226Y-120818937D01*
X140479744Y-120932205D01*
X140668102Y-121010226D01*
X140868061Y-121050000D01*
X141071939Y-121050000D01*
X141271898Y-121010226D01*
X141460256Y-120932205D01*
X141629774Y-120818937D01*
X141773937Y-120674774D01*
X141887205Y-120505256D01*
X141965226Y-120316898D01*
X142005000Y-120116939D01*
X142005000Y-119913061D01*
X142475000Y-119913061D01*
X142475000Y-120116939D01*
X142514774Y-120316898D01*
X142592795Y-120505256D01*
X142706063Y-120674774D01*
X142850226Y-120818937D01*
X143019744Y-120932205D01*
X143208102Y-121010226D01*
X143408061Y-121050000D01*
X143611939Y-121050000D01*
X143811898Y-121010226D01*
X144000256Y-120932205D01*
X144169774Y-120818937D01*
X144313937Y-120674774D01*
X144427205Y-120505256D01*
X144505226Y-120316898D01*
X144545000Y-120116939D01*
X144545000Y-119913061D01*
X144505226Y-119713102D01*
X144427205Y-119524744D01*
X144313937Y-119355226D01*
X144169774Y-119211063D01*
X144000256Y-119097795D01*
X143811898Y-119019774D01*
X143611939Y-118980000D01*
X143408061Y-118980000D01*
X143208102Y-119019774D01*
X143019744Y-119097795D01*
X142850226Y-119211063D01*
X142706063Y-119355226D01*
X142592795Y-119524744D01*
X142514774Y-119713102D01*
X142475000Y-119913061D01*
X142005000Y-119913061D01*
X141965226Y-119713102D01*
X141887205Y-119524744D01*
X141773937Y-119355226D01*
X141629774Y-119211063D01*
X141460256Y-119097795D01*
X141271898Y-119019774D01*
X141071939Y-118980000D01*
X140868061Y-118980000D01*
X140668102Y-119019774D01*
X140479744Y-119097795D01*
X140310226Y-119211063D01*
X140166063Y-119355226D01*
X140052795Y-119524744D01*
X139974774Y-119713102D01*
X139935000Y-119913061D01*
X138195000Y-119913061D01*
X138155226Y-119713102D01*
X138077205Y-119524744D01*
X137963937Y-119355226D01*
X137819774Y-119211063D01*
X137650256Y-119097795D01*
X137461898Y-119019774D01*
X137261939Y-118980000D01*
X137058061Y-118980000D01*
X136858102Y-119019774D01*
X136669744Y-119097795D01*
X136500226Y-119211063D01*
X136356063Y-119355226D01*
X136242795Y-119524744D01*
X136164774Y-119713102D01*
X136125000Y-119913061D01*
X135655000Y-119913061D01*
X135615226Y-119713102D01*
X135537205Y-119524744D01*
X135423937Y-119355226D01*
X135279774Y-119211063D01*
X135110256Y-119097795D01*
X134921898Y-119019774D01*
X134721939Y-118980000D01*
X134518061Y-118980000D01*
X134318102Y-119019774D01*
X134129744Y-119097795D01*
X133960226Y-119211063D01*
X133816063Y-119355226D01*
X133702795Y-119524744D01*
X133624774Y-119713102D01*
X133585000Y-119913061D01*
X133476603Y-119913061D01*
X133505205Y-119870256D01*
X133583226Y-119681898D01*
X133623000Y-119481939D01*
X133623000Y-119278061D01*
X133583226Y-119078102D01*
X133505205Y-118889744D01*
X133391937Y-118720226D01*
X133247774Y-118576063D01*
X133078256Y-118462795D01*
X132889898Y-118384774D01*
X132689939Y-118345000D01*
X132486061Y-118345000D01*
X132286102Y-118384774D01*
X132097744Y-118462795D01*
X131928226Y-118576063D01*
X131784063Y-118720226D01*
X131670795Y-118889744D01*
X131618019Y-119017156D01*
X131618019Y-111868844D01*
X131670795Y-111996256D01*
X131784063Y-112165774D01*
X131928226Y-112309937D01*
X132097744Y-112423205D01*
X132286102Y-112501226D01*
X132486061Y-112541000D01*
X132689939Y-112541000D01*
X132889898Y-112501226D01*
X133078256Y-112423205D01*
X133247774Y-112309937D01*
X133391937Y-112165774D01*
X133505205Y-111996256D01*
X133583226Y-111807898D01*
X133623000Y-111607939D01*
X133623000Y-111404061D01*
X133583226Y-111204102D01*
X133508236Y-111023061D01*
X134347000Y-111023061D01*
X134347000Y-111226939D01*
X134386774Y-111426898D01*
X134464795Y-111615256D01*
X134578063Y-111784774D01*
X134722226Y-111928937D01*
X134891744Y-112042205D01*
X135080102Y-112120226D01*
X135280061Y-112160000D01*
X135483939Y-112160000D01*
X135683898Y-112120226D01*
X135872256Y-112042205D01*
X136041774Y-111928937D01*
X136185937Y-111784774D01*
X136299205Y-111615256D01*
X136377226Y-111426898D01*
X136417000Y-111226939D01*
X136417000Y-111023061D01*
X136377226Y-110823102D01*
X136299205Y-110634744D01*
X136185937Y-110465226D01*
X136041774Y-110321063D01*
X135872256Y-110207795D01*
X135683898Y-110129774D01*
X135483939Y-110090000D01*
X135280061Y-110090000D01*
X135080102Y-110129774D01*
X134891744Y-110207795D01*
X134722226Y-110321063D01*
X134578063Y-110465226D01*
X134464795Y-110634744D01*
X134386774Y-110823102D01*
X134347000Y-111023061D01*
X133508236Y-111023061D01*
X133505205Y-111015744D01*
X133391937Y-110846226D01*
X133247774Y-110702063D01*
X133078256Y-110588795D01*
X132889898Y-110510774D01*
X132689939Y-110471000D01*
X132486061Y-110471000D01*
X132286102Y-110510774D01*
X132097744Y-110588795D01*
X131928226Y-110702063D01*
X131784063Y-110846226D01*
X131670795Y-111015744D01*
X131618019Y-111143156D01*
X131618019Y-110816604D01*
X135806209Y-106628414D01*
X135775997Y-106728013D01*
G37*
%TD.AperFunction*%
D18*
X165456226Y-104943937D02*
X165523000Y-104988554D01*
X165523000Y-107355446D01*
X165456226Y-107400063D01*
X165312063Y-107544226D01*
X165198795Y-107713744D01*
X165120774Y-107902102D01*
X165081000Y-108102061D01*
X165081000Y-108305939D01*
X165120774Y-108505898D01*
X165198795Y-108694256D01*
X165312063Y-108863774D01*
X165456226Y-109007937D01*
X165523000Y-109052554D01*
X165523000Y-115572000D01*
X163867322Y-115572000D01*
X163829999Y-115568324D01*
X163792676Y-115572000D01*
X163792667Y-115572000D01*
X163681014Y-115582997D01*
X163537753Y-115626454D01*
X163405724Y-115697026D01*
X163405722Y-115697027D01*
X163405723Y-115697027D01*
X163318996Y-115768201D01*
X163318992Y-115768205D01*
X163289999Y-115791999D01*
X163266205Y-115820992D01*
X161520198Y-117567001D01*
X160756710Y-117567001D01*
X160823937Y-117499774D01*
X160937205Y-117330256D01*
X161015226Y-117141898D01*
X161055000Y-116941939D01*
X161055000Y-116738061D01*
X161015226Y-116538102D01*
X160937205Y-116349744D01*
X160823937Y-116180226D01*
X160679774Y-116036063D01*
X160510256Y-115922795D01*
X160425047Y-115887500D01*
X160510256Y-115852205D01*
X160679774Y-115738937D01*
X160823937Y-115594774D01*
X160937205Y-115425256D01*
X161015226Y-115236898D01*
X161055000Y-115036939D01*
X161055000Y-114833061D01*
X161015226Y-114633102D01*
X160937205Y-114444744D01*
X160905000Y-114396546D01*
X160905000Y-110521471D01*
X160909281Y-110478002D01*
X160905000Y-110434533D01*
X160905000Y-110434525D01*
X160892195Y-110304512D01*
X160884174Y-110278070D01*
X160841589Y-110137688D01*
X160759411Y-109983943D01*
X160676532Y-109882955D01*
X160676530Y-109882953D01*
X160648817Y-109849185D01*
X160615049Y-109821472D01*
X159911638Y-109118061D01*
X162795000Y-109118061D01*
X162795000Y-109321939D01*
X162834774Y-109521898D01*
X162912795Y-109710256D01*
X163026063Y-109879774D01*
X163170226Y-110023937D01*
X163339744Y-110137205D01*
X163528102Y-110215226D01*
X163728061Y-110255000D01*
X163931939Y-110255000D01*
X164131898Y-110215226D01*
X164320256Y-110137205D01*
X164489774Y-110023937D01*
X164633937Y-109879774D01*
X164747205Y-109710256D01*
X164825226Y-109521898D01*
X164865000Y-109321939D01*
X164865000Y-109118061D01*
X164825226Y-108918102D01*
X164747205Y-108729744D01*
X164633937Y-108560226D01*
X164489774Y-108416063D01*
X164320256Y-108302795D01*
X164131898Y-108224774D01*
X163931939Y-108185000D01*
X163728061Y-108185000D01*
X163528102Y-108224774D01*
X163339744Y-108302795D01*
X163170226Y-108416063D01*
X163026063Y-108560226D01*
X162912795Y-108729744D01*
X162834774Y-108918102D01*
X162795000Y-109118061D01*
X159911638Y-109118061D01*
X159090000Y-108296424D01*
X159090000Y-107975711D01*
X159106226Y-107991937D01*
X159275744Y-108105205D01*
X159464102Y-108183226D01*
X159664061Y-108223000D01*
X159867939Y-108223000D01*
X160067898Y-108183226D01*
X160256256Y-108105205D01*
X160425774Y-107991937D01*
X160469711Y-107948000D01*
X161957676Y-107948000D01*
X161994998Y-107951676D01*
X162032320Y-107948000D01*
X162032331Y-107948000D01*
X162143984Y-107937003D01*
X162287245Y-107893546D01*
X162419274Y-107822974D01*
X162534999Y-107728001D01*
X162558802Y-107698997D01*
X165385044Y-104872755D01*
X165456226Y-104943937D01*
%TA.AperFunction,Conductor*%
D19*
G36*
X165456226Y-104943937D02*
G01*
X165523000Y-104988554D01*
X165523000Y-107355446D01*
X165456226Y-107400063D01*
X165312063Y-107544226D01*
X165198795Y-107713744D01*
X165120774Y-107902102D01*
X165081000Y-108102061D01*
X165081000Y-108305939D01*
X165120774Y-108505898D01*
X165198795Y-108694256D01*
X165312063Y-108863774D01*
X165456226Y-109007937D01*
X165523000Y-109052554D01*
X165523000Y-115572000D01*
X163867322Y-115572000D01*
X163829999Y-115568324D01*
X163792676Y-115572000D01*
X163792667Y-115572000D01*
X163681014Y-115582997D01*
X163537753Y-115626454D01*
X163405724Y-115697026D01*
X163405722Y-115697027D01*
X163405723Y-115697027D01*
X163318996Y-115768201D01*
X163318992Y-115768205D01*
X163289999Y-115791999D01*
X163266205Y-115820992D01*
X161520198Y-117567001D01*
X160756710Y-117567001D01*
X160823937Y-117499774D01*
X160937205Y-117330256D01*
X161015226Y-117141898D01*
X161055000Y-116941939D01*
X161055000Y-116738061D01*
X161015226Y-116538102D01*
X160937205Y-116349744D01*
X160823937Y-116180226D01*
X160679774Y-116036063D01*
X160510256Y-115922795D01*
X160425047Y-115887500D01*
X160510256Y-115852205D01*
X160679774Y-115738937D01*
X160823937Y-115594774D01*
X160937205Y-115425256D01*
X161015226Y-115236898D01*
X161055000Y-115036939D01*
X161055000Y-114833061D01*
X161015226Y-114633102D01*
X160937205Y-114444744D01*
X160905000Y-114396546D01*
X160905000Y-110521471D01*
X160909281Y-110478002D01*
X160905000Y-110434533D01*
X160905000Y-110434525D01*
X160892195Y-110304512D01*
X160884174Y-110278070D01*
X160841589Y-110137688D01*
X160759411Y-109983943D01*
X160676532Y-109882955D01*
X160676530Y-109882953D01*
X160648817Y-109849185D01*
X160615049Y-109821472D01*
X159911638Y-109118061D01*
X162795000Y-109118061D01*
X162795000Y-109321939D01*
X162834774Y-109521898D01*
X162912795Y-109710256D01*
X163026063Y-109879774D01*
X163170226Y-110023937D01*
X163339744Y-110137205D01*
X163528102Y-110215226D01*
X163728061Y-110255000D01*
X163931939Y-110255000D01*
X164131898Y-110215226D01*
X164320256Y-110137205D01*
X164489774Y-110023937D01*
X164633937Y-109879774D01*
X164747205Y-109710256D01*
X164825226Y-109521898D01*
X164865000Y-109321939D01*
X164865000Y-109118061D01*
X164825226Y-108918102D01*
X164747205Y-108729744D01*
X164633937Y-108560226D01*
X164489774Y-108416063D01*
X164320256Y-108302795D01*
X164131898Y-108224774D01*
X163931939Y-108185000D01*
X163728061Y-108185000D01*
X163528102Y-108224774D01*
X163339744Y-108302795D01*
X163170226Y-108416063D01*
X163026063Y-108560226D01*
X162912795Y-108729744D01*
X162834774Y-108918102D01*
X162795000Y-109118061D01*
X159911638Y-109118061D01*
X159090000Y-108296424D01*
X159090000Y-107975711D01*
X159106226Y-107991937D01*
X159275744Y-108105205D01*
X159464102Y-108183226D01*
X159664061Y-108223000D01*
X159867939Y-108223000D01*
X160067898Y-108183226D01*
X160256256Y-108105205D01*
X160425774Y-107991937D01*
X160469711Y-107948000D01*
X161957676Y-107948000D01*
X161994998Y-107951676D01*
X162032320Y-107948000D01*
X162032331Y-107948000D01*
X162143984Y-107937003D01*
X162287245Y-107893546D01*
X162419274Y-107822974D01*
X162534999Y-107728001D01*
X162558802Y-107698997D01*
X165385044Y-104872755D01*
X165456226Y-104943937D01*
G37*
%TD.AperFunction*%
D18*
X146152226Y-88941937D02*
X146321744Y-89055205D01*
X146510102Y-89133226D01*
X146710061Y-89173000D01*
X146913939Y-89173000D01*
X147113898Y-89133226D01*
X147163059Y-89112863D01*
X147525990Y-89475794D01*
X147525989Y-100585697D01*
X147421939Y-100565000D01*
X147218061Y-100565000D01*
X147018102Y-100604774D01*
X146829744Y-100682795D01*
X146660226Y-100796063D01*
X146516063Y-100940226D01*
X146402795Y-101109744D01*
X146324774Y-101298102D01*
X146285000Y-101498061D01*
X146285000Y-101701939D01*
X146324774Y-101901898D01*
X146402795Y-102090256D01*
X146516063Y-102259774D01*
X146660226Y-102403937D01*
X146829744Y-102517205D01*
X147018102Y-102595226D01*
X147218061Y-102635000D01*
X147421939Y-102635000D01*
X147525989Y-102614303D01*
X147525989Y-104883000D01*
X147472061Y-104883000D01*
X147272102Y-104922774D01*
X147083744Y-105000795D01*
X146914226Y-105114063D01*
X146770063Y-105258226D01*
X146656795Y-105427744D01*
X146578774Y-105616102D01*
X146567381Y-105673381D01*
X146510102Y-105684774D01*
X146321744Y-105762795D01*
X146152226Y-105876063D01*
X146008063Y-106020226D01*
X145894795Y-106189744D01*
X145816774Y-106378102D01*
X145777000Y-106578061D01*
X145777000Y-106655774D01*
X145738387Y-106728013D01*
X145706455Y-106787753D01*
X145662998Y-106931014D01*
X145652001Y-107042667D01*
X145652001Y-107042677D01*
X145648325Y-107079999D01*
X145652001Y-107117321D01*
X145652001Y-110751865D01*
X145516939Y-110725000D01*
X145313061Y-110725000D01*
X145113102Y-110764774D01*
X144924744Y-110842795D01*
X144755226Y-110956063D01*
X144684044Y-111027245D01*
X143000000Y-109343201D01*
X143000000Y-109288711D01*
X143043937Y-109244774D01*
X143157205Y-109075256D01*
X143235226Y-108886898D01*
X143275000Y-108686939D01*
X143275000Y-108483061D01*
X143235226Y-108283102D01*
X143157205Y-108094744D01*
X143043937Y-107925226D01*
X142899774Y-107781063D01*
X142730256Y-107667795D01*
X142541898Y-107589774D01*
X142341939Y-107550000D01*
X142138061Y-107550000D01*
X141938102Y-107589774D01*
X141749744Y-107667795D01*
X141580226Y-107781063D01*
X141436063Y-107925226D01*
X141322795Y-108094744D01*
X141261972Y-108241583D01*
X140906180Y-107885791D01*
X140899013Y-107813022D01*
X140855556Y-107669761D01*
X140784984Y-107537732D01*
X140690011Y-107422007D01*
X140661014Y-107398210D01*
X139072803Y-105810000D01*
X139166939Y-105810000D01*
X139366898Y-105770226D01*
X139555256Y-105692205D01*
X139724774Y-105578937D01*
X139868937Y-105434774D01*
X139982205Y-105265256D01*
X140060226Y-105076898D01*
X140100000Y-104876939D01*
X140100000Y-104673061D01*
X140570000Y-104673061D01*
X140570000Y-104876939D01*
X140609774Y-105076898D01*
X140687795Y-105265256D01*
X140801063Y-105434774D01*
X140945226Y-105578937D01*
X141114744Y-105692205D01*
X141303102Y-105770226D01*
X141503061Y-105810000D01*
X141706939Y-105810000D01*
X141906898Y-105770226D01*
X142095256Y-105692205D01*
X142264774Y-105578937D01*
X142408937Y-105434774D01*
X142522205Y-105265256D01*
X142600226Y-105076898D01*
X142640000Y-104876939D01*
X142640000Y-104673061D01*
X142600226Y-104473102D01*
X142522205Y-104284744D01*
X142408937Y-104115226D01*
X142264774Y-103971063D01*
X142095256Y-103857795D01*
X141906898Y-103779774D01*
X141706939Y-103740000D01*
X141503061Y-103740000D01*
X141303102Y-103779774D01*
X141114744Y-103857795D01*
X140945226Y-103971063D01*
X140801063Y-104115226D01*
X140687795Y-104284744D01*
X140609774Y-104473102D01*
X140570000Y-104673061D01*
X140100000Y-104673061D01*
X140060226Y-104473102D01*
X139982205Y-104284744D01*
X139868937Y-104115226D01*
X139724774Y-103971063D01*
X139555256Y-103857795D01*
X139366898Y-103779774D01*
X139166939Y-103740000D01*
X138963061Y-103740000D01*
X138763102Y-103779774D01*
X138578304Y-103856320D01*
X140170457Y-102264168D01*
X140310226Y-102403937D01*
X140479744Y-102517205D01*
X140668102Y-102595226D01*
X140868061Y-102635000D01*
X141071939Y-102635000D01*
X141271898Y-102595226D01*
X141460256Y-102517205D01*
X141629774Y-102403937D01*
X141773937Y-102259774D01*
X141887205Y-102090256D01*
X141965226Y-101901898D01*
X142005000Y-101701939D01*
X142005000Y-101498061D01*
X142475000Y-101498061D01*
X142475000Y-101701939D01*
X142514774Y-101901898D01*
X142592795Y-102090256D01*
X142706063Y-102259774D01*
X142850226Y-102403937D01*
X143019744Y-102517205D01*
X143208102Y-102595226D01*
X143408061Y-102635000D01*
X143611939Y-102635000D01*
X143811898Y-102595226D01*
X144000256Y-102517205D01*
X144169774Y-102403937D01*
X144313937Y-102259774D01*
X144427205Y-102090256D01*
X144505226Y-101901898D01*
X144545000Y-101701939D01*
X144545000Y-101498061D01*
X144505226Y-101298102D01*
X144427205Y-101109744D01*
X144313937Y-100940226D01*
X144169774Y-100796063D01*
X144000256Y-100682795D01*
X143811898Y-100604774D01*
X143611939Y-100565000D01*
X143408061Y-100565000D01*
X143208102Y-100604774D01*
X143019744Y-100682795D01*
X142850226Y-100796063D01*
X142706063Y-100940226D01*
X142592795Y-101109744D01*
X142514774Y-101298102D01*
X142475000Y-101498061D01*
X142005000Y-101498061D01*
X141965226Y-101298102D01*
X141887205Y-101109744D01*
X141773937Y-100940226D01*
X141634168Y-100800457D01*
X142439020Y-99995605D01*
X142468011Y-99971813D01*
X142491805Y-99942820D01*
X142491809Y-99942816D01*
X142562983Y-99856089D01*
X142562984Y-99856088D01*
X142633556Y-99724059D01*
X142677013Y-99580798D01*
X142688010Y-99469145D01*
X142688010Y-99469136D01*
X142691686Y-99431813D01*
X142688010Y-99394490D01*
X142688010Y-93028061D01*
X144253000Y-93028061D01*
X144253000Y-93231939D01*
X144292774Y-93431898D01*
X144370795Y-93620256D01*
X144484063Y-93789774D01*
X144628226Y-93933937D01*
X144797744Y-94047205D01*
X144986102Y-94125226D01*
X145186061Y-94165000D01*
X145389939Y-94165000D01*
X145589898Y-94125226D01*
X145778256Y-94047205D01*
X145947774Y-93933937D01*
X146091937Y-93789774D01*
X146205205Y-93620256D01*
X146283226Y-93431898D01*
X146323000Y-93231939D01*
X146323000Y-93028061D01*
X146283226Y-92828102D01*
X146205205Y-92639744D01*
X146091937Y-92470226D01*
X145947774Y-92326063D01*
X145778256Y-92212795D01*
X145589898Y-92134774D01*
X145389939Y-92095000D01*
X145186061Y-92095000D01*
X144986102Y-92134774D01*
X144797744Y-92212795D01*
X144628226Y-92326063D01*
X144484063Y-92470226D01*
X144370795Y-92639744D01*
X144292774Y-92828102D01*
X144253000Y-93028061D01*
X142688010Y-93028061D01*
X142688010Y-92320791D01*
X146109545Y-88899256D01*
X146152226Y-88941937D01*
%TA.AperFunction,Conductor*%
D19*
G36*
X146152226Y-88941937D02*
G01*
X146321744Y-89055205D01*
X146510102Y-89133226D01*
X146710061Y-89173000D01*
X146913939Y-89173000D01*
X147113898Y-89133226D01*
X147163059Y-89112863D01*
X147525990Y-89475794D01*
X147525989Y-100585697D01*
X147421939Y-100565000D01*
X147218061Y-100565000D01*
X147018102Y-100604774D01*
X146829744Y-100682795D01*
X146660226Y-100796063D01*
X146516063Y-100940226D01*
X146402795Y-101109744D01*
X146324774Y-101298102D01*
X146285000Y-101498061D01*
X146285000Y-101701939D01*
X146324774Y-101901898D01*
X146402795Y-102090256D01*
X146516063Y-102259774D01*
X146660226Y-102403937D01*
X146829744Y-102517205D01*
X147018102Y-102595226D01*
X147218061Y-102635000D01*
X147421939Y-102635000D01*
X147525989Y-102614303D01*
X147525989Y-104883000D01*
X147472061Y-104883000D01*
X147272102Y-104922774D01*
X147083744Y-105000795D01*
X146914226Y-105114063D01*
X146770063Y-105258226D01*
X146656795Y-105427744D01*
X146578774Y-105616102D01*
X146567381Y-105673381D01*
X146510102Y-105684774D01*
X146321744Y-105762795D01*
X146152226Y-105876063D01*
X146008063Y-106020226D01*
X145894795Y-106189744D01*
X145816774Y-106378102D01*
X145777000Y-106578061D01*
X145777000Y-106655774D01*
X145738387Y-106728013D01*
X145706455Y-106787753D01*
X145662998Y-106931014D01*
X145652001Y-107042667D01*
X145652001Y-107042677D01*
X145648325Y-107079999D01*
X145652001Y-107117321D01*
X145652001Y-110751865D01*
X145516939Y-110725000D01*
X145313061Y-110725000D01*
X145113102Y-110764774D01*
X144924744Y-110842795D01*
X144755226Y-110956063D01*
X144684044Y-111027245D01*
X143000000Y-109343201D01*
X143000000Y-109288711D01*
X143043937Y-109244774D01*
X143157205Y-109075256D01*
X143235226Y-108886898D01*
X143275000Y-108686939D01*
X143275000Y-108483061D01*
X143235226Y-108283102D01*
X143157205Y-108094744D01*
X143043937Y-107925226D01*
X142899774Y-107781063D01*
X142730256Y-107667795D01*
X142541898Y-107589774D01*
X142341939Y-107550000D01*
X142138061Y-107550000D01*
X141938102Y-107589774D01*
X141749744Y-107667795D01*
X141580226Y-107781063D01*
X141436063Y-107925226D01*
X141322795Y-108094744D01*
X141261972Y-108241583D01*
X140906180Y-107885791D01*
X140899013Y-107813022D01*
X140855556Y-107669761D01*
X140784984Y-107537732D01*
X140690011Y-107422007D01*
X140661014Y-107398210D01*
X139072803Y-105810000D01*
X139166939Y-105810000D01*
X139366898Y-105770226D01*
X139555256Y-105692205D01*
X139724774Y-105578937D01*
X139868937Y-105434774D01*
X139982205Y-105265256D01*
X140060226Y-105076898D01*
X140100000Y-104876939D01*
X140100000Y-104673061D01*
X140570000Y-104673061D01*
X140570000Y-104876939D01*
X140609774Y-105076898D01*
X140687795Y-105265256D01*
X140801063Y-105434774D01*
X140945226Y-105578937D01*
X141114744Y-105692205D01*
X141303102Y-105770226D01*
X141503061Y-105810000D01*
X141706939Y-105810000D01*
X141906898Y-105770226D01*
X142095256Y-105692205D01*
X142264774Y-105578937D01*
X142408937Y-105434774D01*
X142522205Y-105265256D01*
X142600226Y-105076898D01*
X142640000Y-104876939D01*
X142640000Y-104673061D01*
X142600226Y-104473102D01*
X142522205Y-104284744D01*
X142408937Y-104115226D01*
X142264774Y-103971063D01*
X142095256Y-103857795D01*
X141906898Y-103779774D01*
X141706939Y-103740000D01*
X141503061Y-103740000D01*
X141303102Y-103779774D01*
X141114744Y-103857795D01*
X140945226Y-103971063D01*
X140801063Y-104115226D01*
X140687795Y-104284744D01*
X140609774Y-104473102D01*
X140570000Y-104673061D01*
X140100000Y-104673061D01*
X140060226Y-104473102D01*
X139982205Y-104284744D01*
X139868937Y-104115226D01*
X139724774Y-103971063D01*
X139555256Y-103857795D01*
X139366898Y-103779774D01*
X139166939Y-103740000D01*
X138963061Y-103740000D01*
X138763102Y-103779774D01*
X138578304Y-103856320D01*
X140170457Y-102264168D01*
X140310226Y-102403937D01*
X140479744Y-102517205D01*
X140668102Y-102595226D01*
X140868061Y-102635000D01*
X141071939Y-102635000D01*
X141271898Y-102595226D01*
X141460256Y-102517205D01*
X141629774Y-102403937D01*
X141773937Y-102259774D01*
X141887205Y-102090256D01*
X141965226Y-101901898D01*
X142005000Y-101701939D01*
X142005000Y-101498061D01*
X142475000Y-101498061D01*
X142475000Y-101701939D01*
X142514774Y-101901898D01*
X142592795Y-102090256D01*
X142706063Y-102259774D01*
X142850226Y-102403937D01*
X143019744Y-102517205D01*
X143208102Y-102595226D01*
X143408061Y-102635000D01*
X143611939Y-102635000D01*
X143811898Y-102595226D01*
X144000256Y-102517205D01*
X144169774Y-102403937D01*
X144313937Y-102259774D01*
X144427205Y-102090256D01*
X144505226Y-101901898D01*
X144545000Y-101701939D01*
X144545000Y-101498061D01*
X144505226Y-101298102D01*
X144427205Y-101109744D01*
X144313937Y-100940226D01*
X144169774Y-100796063D01*
X144000256Y-100682795D01*
X143811898Y-100604774D01*
X143611939Y-100565000D01*
X143408061Y-100565000D01*
X143208102Y-100604774D01*
X143019744Y-100682795D01*
X142850226Y-100796063D01*
X142706063Y-100940226D01*
X142592795Y-101109744D01*
X142514774Y-101298102D01*
X142475000Y-101498061D01*
X142005000Y-101498061D01*
X141965226Y-101298102D01*
X141887205Y-101109744D01*
X141773937Y-100940226D01*
X141634168Y-100800457D01*
X142439020Y-99995605D01*
X142468011Y-99971813D01*
X142491805Y-99942820D01*
X142491809Y-99942816D01*
X142562983Y-99856089D01*
X142562984Y-99856088D01*
X142633556Y-99724059D01*
X142677013Y-99580798D01*
X142688010Y-99469145D01*
X142688010Y-99469136D01*
X142691686Y-99431813D01*
X142688010Y-99394490D01*
X142688010Y-93028061D01*
X144253000Y-93028061D01*
X144253000Y-93231939D01*
X144292774Y-93431898D01*
X144370795Y-93620256D01*
X144484063Y-93789774D01*
X144628226Y-93933937D01*
X144797744Y-94047205D01*
X144986102Y-94125226D01*
X145186061Y-94165000D01*
X145389939Y-94165000D01*
X145589898Y-94125226D01*
X145778256Y-94047205D01*
X145947774Y-93933937D01*
X146091937Y-93789774D01*
X146205205Y-93620256D01*
X146283226Y-93431898D01*
X146323000Y-93231939D01*
X146323000Y-93028061D01*
X146283226Y-92828102D01*
X146205205Y-92639744D01*
X146091937Y-92470226D01*
X145947774Y-92326063D01*
X145778256Y-92212795D01*
X145589898Y-92134774D01*
X145389939Y-92095000D01*
X145186061Y-92095000D01*
X144986102Y-92134774D01*
X144797744Y-92212795D01*
X144628226Y-92326063D01*
X144484063Y-92470226D01*
X144370795Y-92639744D01*
X144292774Y-92828102D01*
X144253000Y-93028061D01*
X142688010Y-93028061D01*
X142688010Y-92320791D01*
X146109545Y-88899256D01*
X146152226Y-88941937D01*
G37*
%TD.AperFunction*%
%TD*%
M02*
