M48
; DRILL file {KiCad (5.1.10)-1} date 07/23/21 15:14:43
; FORMAT={-:-/ absolute / inch / decimal}
; #@! TF.CreationDate,2021-07-23T15:14:43+02:00
; #@! TF.GenerationSoftware,Kicad,Pcbnew,(5.1.10)-1
; #@! TF.FileFunction,Plated,1,4,PTH
FMAT,2
INCH
T1C0.0118
T2C0.0157
%
G90
G05
T1
X5.5606Y-3.075
X5.6Y-3.075
X5.6394Y-3.075
T2
X4.85Y-4.38
X4.85Y-4.72
X4.875Y-3.65
X4.875Y-4.0
X5.07Y-4.7
X5.075Y-3.975
X5.15Y-3.975
X5.22Y-4.39
X5.22Y-4.7
X5.225Y-3.675
X5.225Y-3.975
X5.27Y-3.9
X5.27Y-4.63
X5.3Y-3.65
X5.3Y-4.0
X5.3Y-4.725
X5.33Y-4.375
X5.35Y-3.03
X5.35Y-3.11
X5.3585Y-3.575
X5.375Y-4.3
X5.375Y-4.35
X5.4Y-4.0
X5.4Y-4.725
X5.42Y-3.26
X5.425Y-3.5
X5.425Y-3.725
X5.425Y-4.2
X5.425Y-4.475
X5.45Y-3.65
X5.46Y-3.91
X5.475Y-3.4
X5.475Y-4.125
X5.475Y-4.625
X5.5Y-2.89
X5.5Y-4.475
X5.5188Y-3.7488
X5.52Y-3.89
X5.525Y-3.15
X5.525Y-4.625
X5.55Y-4.0
X5.55Y-4.725
X5.575Y-3.4
X5.575Y-4.125
X5.5982Y-3.5526
X5.6Y-2.95
X5.6Y-4.275
X5.625Y-3.4
X5.625Y-4.125
X5.65Y-4.0
X5.65Y-4.725
X5.68Y-3.15
X5.72Y-3.6665
X5.725Y-4.4
X5.78Y-2.89
X5.78Y-3.47
X5.78Y-4.2
X5.8Y-4.0
X5.8Y-4.725
X5.81Y-3.44
X5.81Y-4.17
X5.84Y-3.47
X5.84Y-4.2
X5.85Y-3.02
X5.85Y-3.11
X5.9Y-4.0
X5.9Y-4.725
X5.975Y-3.5
X5.975Y-3.65
X5.975Y-3.98
X5.975Y-4.71
X5.98Y-3.25
X5.98Y-3.41
X6.025Y-3.205
X6.025Y-4.25
X6.025Y-4.35
X6.05Y-3.98
X6.05Y-4.71
X6.07Y-4.07
X6.075Y-3.825
X6.1Y-4.0429
X6.1Y-4.1
X6.1Y-4.525
X6.1Y-4.575
X6.1022Y-4.16
X6.125Y-4.3085
X6.14Y-3.43
X6.17Y-4.5
X6.17Y-4.63
X6.17Y-4.71
X6.2Y-4.53
X6.23Y-4.5
X6.23Y-4.63
X6.23Y-4.71
X6.25Y-3.6
X6.25Y-3.7
X6.275Y-4.275
X6.29Y-4.17
X6.29Y-4.22
X6.3Y-3.85
X6.3Y-3.95
X6.3Y-4.525
X6.3Y-4.6
X6.375Y-4.025
X6.375Y-4.125
X6.39Y-3.25
X6.39Y-3.41
X6.4Y-3.725
X6.4Y-3.825
X6.445Y-2.895
X6.445Y-2.995
X6.45Y-4.3
X6.48Y-4.66
X6.48Y-4.72
X6.5Y-3.7
X6.5Y-3.8
X6.51Y-4.63
X6.51Y-4.69
X6.54Y-4.1
X6.54Y-4.26
X6.595Y-2.895
X6.595Y-2.995
X6.62Y-4.0
X6.62Y-4.05
X6.63Y-4.46
X6.63Y-4.84
X6.65Y-3.15
X6.65Y-3.5
X6.6702Y-4.6398
X6.68Y-4.54
X6.7Y-4.05
X6.7Y-4.34
X6.73Y-4.02
X6.73Y-4.31
X6.75Y-3.15
X6.75Y-3.5
X6.76Y-4.05
X6.79Y-4.46
X6.79Y-4.84
X6.84Y-4.18
X6.84Y-4.24
X6.87Y-4.4
X6.88Y-3.52
X6.91Y-4.63
X6.91Y-4.69
X6.91Y-4.75
X6.93Y-4.4
X6.94Y-4.6
X6.94Y-4.72
X6.98Y-3.75
X6.98Y-3.9
X6.99Y-4.29
X6.99Y-4.81
X7.01Y-4.63
X7.05Y-4.29
X7.09Y-3.09
X7.09Y-3.59
X7.09Y-4.09
X7.09Y-4.56
X7.39Y-3.25
X7.5Y-3.43
X7.5Y-3.63
X7.53Y-3.47
X7.53Y-3.67
X7.56Y-3.51
X7.56Y-3.71
X7.58Y-4.71
X7.59Y-3.27
X7.59Y-3.55
X7.59Y-3.75
X7.62Y-3.31
X7.62Y-4.6
X7.65Y-3.35
X7.68Y-3.39
X7.73Y-4.63
X7.74Y-4.09
X7.77Y-3.86
X7.8Y-3.82
X7.825Y-2.875
X7.825Y-3.075
X7.8315Y-3.78
X7.85Y-2.84
X7.85Y-2.91
X7.85Y-3.04
X7.85Y-3.11
X7.86Y-3.59
X7.86Y-4.08
X7.86Y-4.55
X7.875Y-2.875
X7.875Y-3.075
T0
M30
